<?xml version="1.0" encoding="utf-8"?>
<!-- Generator: Adobe Illustrator 16.0.0, SVG Export Plug-In . SVG Version: 6.00 Build 0)  -->
<!DOCTYPE svg PUBLIC "-//W3C//DTD SVG 1.1//EN" "http://www.w3.org/Graphics/SVG/1.1/DTD/svg11.dtd">
<svg version="1.1" xmlns="http://www.w3.org/2000/svg" xmlns:xlink="http://www.w3.org/1999/xlink" x="0px" y="0px" width="600px"
	 height="600px" viewBox="0 0 600 600" enable-background="new 0 0 600 600" xml:space="preserve">
<g id="Layer_1">
	<g>
		<path d="M311.045,19.982l0.184,4.057l-0.271-0.006c-0.337-1.221-0.836-2.104-1.498-2.652s-1.465-0.832-2.408-0.853
			c-0.791-0.017-1.51,0.168-2.157,0.555c-0.647,0.388-1.163,1.017-1.549,1.887s-0.592,1.959-0.62,3.266
			c-0.023,1.078,0.129,2.016,0.457,2.814s0.835,1.416,1.52,1.853c0.686,0.437,1.473,0.665,2.363,0.684
			c0.773,0.017,1.459-0.134,2.059-0.452c0.599-0.318,1.264-0.961,1.994-1.93l0.268,0.182c-0.62,1.047-1.334,1.808-2.142,2.283
			c-0.808,0.475-1.759,0.7-2.854,0.676c-1.974-0.043-3.486-0.808-4.539-2.296c-0.784-1.107-1.161-2.399-1.128-3.875
			c0.026-1.189,0.316-2.276,0.871-3.26s1.306-1.74,2.252-2.268c0.946-0.527,1.973-0.779,3.08-0.755
			c0.861,0.019,1.706,0.248,2.535,0.688c0.242,0.134,0.417,0.202,0.522,0.205c0.158,0.003,0.297-0.049,0.417-0.158
			c0.155-0.155,0.269-0.373,0.339-0.652L311.045,19.982z"/>
		<path d="M314.04,27.328c-0.075,1.193,0.159,2.146,0.705,2.858c0.546,0.713,1.213,1.092,2.003,1.138
			c0.526,0.03,0.992-0.088,1.398-0.354c0.406-0.267,0.761-0.744,1.064-1.43l0.262,0.191c-0.17,0.794-0.568,1.503-1.197,2.126
			c-0.629,0.624-1.389,0.91-2.277,0.858c-0.965-0.056-1.77-0.48-2.414-1.271c-0.643-0.792-0.928-1.822-0.854-3.092
			c0.08-1.375,0.494-2.426,1.244-3.154c0.75-0.728,1.656-1.061,2.721-0.999c0.901,0.052,1.624,0.393,2.169,1.02
			c0.544,0.627,0.788,1.438,0.729,2.433L314.04,27.328z M314.069,26.819l3.721,0.217c0.001-0.517-0.04-0.883-0.121-1.099
			c-0.128-0.336-0.33-0.606-0.608-0.811c-0.279-0.204-0.576-0.315-0.893-0.333c-0.485-0.028-0.931,0.135-1.336,0.49
			C314.428,25.639,314.173,26.15,314.069,26.819z"/>
		<path d="M323.332,24.684l-0.15,1.804c0.771-1.146,1.511-1.69,2.218-1.63c0.321,0.027,0.578,0.147,0.772,0.36
			c0.193,0.213,0.279,0.448,0.258,0.705c-0.019,0.228-0.11,0.414-0.275,0.559c-0.166,0.145-0.354,0.208-0.563,0.191
			c-0.204-0.018-0.425-0.137-0.662-0.36c-0.237-0.223-0.417-0.339-0.539-0.35c-0.105-0.009-0.225,0.04-0.356,0.146
			c-0.283,0.217-0.588,0.588-0.914,1.114l-0.322,3.845c-0.037,0.444-0.01,0.784,0.082,1.021c0.062,0.164,0.186,0.307,0.369,0.428
			s0.457,0.197,0.819,0.228l-0.027,0.315l-4.106-0.345l0.025-0.315c0.409,0.034,0.719-0.004,0.928-0.116
			c0.153-0.081,0.268-0.222,0.344-0.421c0.037-0.097,0.076-0.379,0.115-0.846l0.261-3.109c0.079-0.934,0.106-1.492,0.083-1.673
			s-0.082-0.317-0.178-0.407c-0.095-0.09-0.219-0.142-0.37-0.155c-0.181-0.015-0.39,0.012-0.624,0.08l-0.062-0.323l2.509-0.777
			L323.332,24.684z"/>
		<path d="M329.648,22.862l-0.274,2.631l1.87,0.195l-0.063,0.612l-1.871-0.195l-0.542,5.192c-0.054,0.519-0.016,0.876,0.114,1.072
			c0.129,0.196,0.311,0.306,0.544,0.331c0.192,0.02,0.385-0.02,0.578-0.121s0.352-0.262,0.475-0.485l0.341,0.036
			c-0.264,0.55-0.597,0.95-1,1.199s-0.803,0.354-1.199,0.312c-0.268-0.028-0.522-0.13-0.763-0.305
			c-0.241-0.175-0.408-0.408-0.502-0.697s-0.11-0.723-0.05-1.3l0.562-5.385l-1.268-0.132l0.03-0.289
			c0.334-0.095,0.685-0.278,1.052-0.549c0.366-0.271,0.703-0.603,1.009-0.995c0.157-0.208,0.387-0.593,0.687-1.157L329.648,22.862z"
			/>
		<path d="M335.769,33.193c-0.901,0.528-1.463,0.828-1.685,0.9c-0.332,0.105-0.676,0.135-1.03,0.089
			c-0.553-0.071-0.982-0.318-1.292-0.742c-0.309-0.423-0.423-0.943-0.344-1.56c0.05-0.389,0.18-0.715,0.391-0.978
			c0.289-0.364,0.751-0.683,1.386-0.956s1.67-0.571,3.106-0.895l0.04-0.314c0.103-0.796,0.046-1.359-0.169-1.688
			c-0.215-0.329-0.563-0.524-1.045-0.586c-0.366-0.047-0.67,0.015-0.91,0.185c-0.246,0.169-0.386,0.381-0.419,0.637l-0.048,0.508
			c-0.034,0.268-0.129,0.465-0.284,0.593c-0.155,0.127-0.343,0.177-0.563,0.149c-0.216-0.028-0.382-0.125-0.499-0.294
			c-0.117-0.168-0.158-0.384-0.125-0.646c0.064-0.5,0.379-0.926,0.944-1.278c0.564-0.353,1.31-0.47,2.233-0.351
			c0.709,0.091,1.275,0.285,1.698,0.582c0.319,0.224,0.536,0.539,0.649,0.943c0.072,0.264,0.059,0.782-0.04,1.555l-0.349,2.711
			c-0.098,0.761-0.144,1.229-0.137,1.405c0.008,0.175,0.041,0.296,0.1,0.363c0.06,0.067,0.133,0.105,0.22,0.117
			c0.094,0.012,0.178,0.002,0.252-0.03c0.132-0.06,0.395-0.242,0.788-0.545l-0.062,0.488c-0.763,0.788-1.44,1.144-2.033,1.068
			c-0.285-0.037-0.499-0.165-0.643-0.384C335.757,34.019,335.713,33.671,335.769,33.193z M335.841,32.627l0.392-3.042
			c-0.923,0.236-1.521,0.41-1.796,0.522c-0.491,0.197-0.854,0.422-1.088,0.675s-0.371,0.546-0.414,0.877
			c-0.054,0.418,0.026,0.782,0.241,1.09c0.214,0.308,0.484,0.483,0.81,0.525C334.427,33.331,335.046,33.115,335.841,32.627z"/>
		<path d="M342.948,27.03l-0.979,6.394c-0.076,0.499-0.091,0.835-0.043,1.012c0.047,0.176,0.135,0.315,0.265,0.418
			c0.13,0.103,0.383,0.183,0.759,0.24l-0.048,0.313l-3.866-0.592l0.048-0.312c0.389,0.059,0.654,0.062,0.8,0.007
			c0.145-0.055,0.27-0.164,0.374-0.325s0.194-0.489,0.271-0.981l0.469-3.066c0.132-0.863,0.191-1.426,0.179-1.689
			c-0.013-0.191-0.057-0.33-0.132-0.416c-0.076-0.085-0.189-0.14-0.34-0.163c-0.162-0.025-0.366-0.011-0.611,0.04l-0.073-0.332
			l2.547-0.606L342.948,27.03z M342.864,22.758c0.243,0.037,0.437,0.154,0.582,0.351c0.145,0.197,0.198,0.417,0.161,0.661
			s-0.154,0.438-0.353,0.586c-0.197,0.147-0.417,0.203-0.661,0.166c-0.243-0.037-0.438-0.156-0.585-0.356
			c-0.147-0.2-0.202-0.422-0.165-0.666c0.037-0.243,0.154-0.437,0.352-0.582C342.392,22.773,342.615,22.72,342.864,22.758z"/>
		<path d="M347.296,29.472c1.129-0.952,2.115-1.353,2.957-1.201c0.433,0.078,0.785,0.252,1.058,0.525
			c0.272,0.272,0.457,0.673,0.552,1.202c0.065,0.369,0.033,0.911-0.095,1.626l-0.608,3.382c-0.09,0.502-0.11,0.85-0.062,1.042
			c0.037,0.156,0.119,0.287,0.246,0.393c0.127,0.106,0.381,0.193,0.761,0.262l-0.056,0.312l-3.919-0.704l0.057-0.312l0.164,0.029
			c0.369,0.066,0.637,0.057,0.805-0.029c0.167-0.086,0.299-0.233,0.396-0.442c0.038-0.083,0.099-0.352,0.181-0.807l0.582-3.244
			c0.13-0.721,0.13-1.261,0.001-1.621s-0.415-0.579-0.859-0.659c-0.687-0.123-1.437,0.129-2.252,0.756l-0.751,4.178
			c-0.096,0.537-0.124,0.874-0.083,1.012c0.051,0.182,0.14,0.324,0.267,0.427c0.128,0.103,0.407,0.194,0.84,0.271l-0.056,0.312
			l-3.919-0.704l0.056-0.312l0.174,0.031c0.403,0.072,0.694,0.019,0.872-0.16c0.178-0.18,0.319-0.558,0.423-1.134l0.528-2.941
			c0.171-0.951,0.253-1.535,0.247-1.75c-0.006-0.216-0.047-0.369-0.122-0.46c-0.076-0.091-0.189-0.15-0.339-0.177
			c-0.162-0.029-0.363-0.021-0.604,0.025l-0.073-0.334l2.562-0.54l0.372,0.067L347.296,29.472z"/>
		<path d="M362.65,30.848c1.188,0.275,2.036,0.947,2.546,2.016c0.432,0.912,0.532,1.868,0.301,2.867
			c-0.163,0.702-0.496,1.374-1,2.015c-0.503,0.641-1.093,1.076-1.768,1.304c-0.676,0.228-1.376,0.258-2.101,0.09
			c-1.182-0.274-2.012-0.962-2.49-2.066c-0.403-0.93-0.491-1.888-0.262-2.876c0.166-0.719,0.511-1.393,1.032-2.021
			s1.112-1.044,1.773-1.249C361.344,30.724,362,30.697,362.65,30.848z M362.256,31.343c-0.303-0.07-0.627-0.051-0.975,0.058
			c-0.347,0.109-0.667,0.367-0.96,0.774s-0.521,0.965-0.686,1.673c-0.265,1.142-0.266,2.179-0.004,3.111
			c0.262,0.933,0.764,1.485,1.506,1.658c0.554,0.128,1.063,0.006,1.528-0.368c0.466-0.373,0.827-1.116,1.086-2.229
			c0.322-1.393,0.277-2.558-0.137-3.497C363.337,31.882,362.884,31.488,362.256,31.343z"/>
		<path d="M367.312,32.139l3.254,0.896l-0.087,0.313c-0.306-0.06-0.517-0.06-0.633-0.001s-0.196,0.168-0.24,0.326
			c-0.048,0.175-0.059,0.4-0.031,0.675l0.432,4.923l2.67-3.175l-0.125-1.265c-0.043-0.376-0.156-0.66-0.341-0.851
			c-0.103-0.113-0.32-0.225-0.655-0.335l0.087-0.313l3.694,1.018l-0.087,0.313c-0.411-0.095-0.72-0.101-0.925-0.018
			c-0.138,0.059-0.233,0.188-0.288,0.386c-0.031,0.113-0.041,0.235-0.028,0.366l0.535,4.943l2.818-3.846
			c0.197-0.274,0.32-0.501,0.37-0.682c0.03-0.107,0.001-0.219-0.086-0.333c-0.086-0.115-0.289-0.223-0.608-0.323l0.087-0.313
			l2.448,0.674l-0.086,0.313c-0.512-0.062-0.965,0.172-1.36,0.701l-4.434,5.972l-0.348-0.096l-0.575-5.492l-3.628,4.334
			l-0.313-0.086l-0.694-7.21c-0.05-0.458-0.135-0.78-0.253-0.968s-0.337-0.365-0.656-0.532L367.312,32.139z"/>
		<path d="M382.223,37.937c1.245-0.795,2.274-1.062,3.09-0.802c0.418,0.134,0.745,0.354,0.979,0.659s0.363,0.727,0.389,1.264
			c0.016,0.374-0.087,0.907-0.309,1.599l-1.047,3.273c-0.155,0.486-0.222,0.828-0.198,1.025c0.017,0.159,0.081,0.3,0.192,0.422
			c0.111,0.122,0.352,0.242,0.72,0.359l-0.096,0.301l-3.792-1.213l0.096-0.301l0.159,0.051c0.357,0.114,0.624,0.14,0.802,0.076
			c0.177-0.063,0.327-0.192,0.451-0.386c0.049-0.077,0.144-0.335,0.285-0.776l1.004-3.139c0.224-0.698,0.294-1.233,0.214-1.606
			c-0.08-0.374-0.336-0.629-0.766-0.767c-0.664-0.212-1.441-0.061-2.332,0.454l-1.293,4.043c-0.166,0.519-0.238,0.85-0.216,0.992
			c0.026,0.187,0.096,0.34,0.208,0.459c0.113,0.119,0.379,0.246,0.797,0.379l-0.096,0.301l-3.793-1.213l0.097-0.301l0.168,0.054
			c0.391,0.125,0.686,0.11,0.886-0.044s0.39-0.511,0.568-1.069l0.91-2.846c0.294-0.92,0.453-1.488,0.476-1.703
			s0.002-0.372-0.062-0.472s-0.168-0.173-0.312-0.22c-0.156-0.05-0.356-0.068-0.602-0.054l-0.029-0.341l2.61-0.199l0.36,0.115
			L382.223,37.937z"/>
		<path d="M389.408,41.951c-0.405,1.125-0.445,2.105-0.121,2.942c0.325,0.836,0.86,1.387,1.605,1.651
			c0.497,0.177,0.978,0.193,1.442,0.05c0.464-0.143,0.938-0.501,1.422-1.076l0.197,0.257c-0.384,0.715-0.966,1.284-1.744,1.708
			s-1.587,0.486-2.426,0.188c-0.911-0.324-1.565-0.955-1.962-1.895c-0.397-0.94-0.383-2.009,0.043-3.208
			c0.46-1.297,1.152-2.191,2.075-2.681c0.923-0.49,1.888-0.556,2.893-0.199c0.85,0.302,1.449,0.83,1.797,1.584
			s0.354,1.601,0.021,2.54L389.408,41.951z M389.579,41.47l3.512,1.247c0.145-0.496,0.208-0.859,0.19-1.089
			c-0.028-0.358-0.147-0.674-0.358-0.948c-0.21-0.274-0.465-0.464-0.763-0.569c-0.458-0.163-0.932-0.13-1.42,0.097
			C390.252,40.437,389.865,40.857,389.579,41.47z"/>
		<path d="M399.073,42.008l-0.649,1.69c1.062-0.885,1.924-1.2,2.586-0.945c0.301,0.116,0.514,0.303,0.641,0.562
			c0.126,0.259,0.144,0.509,0.051,0.75c-0.082,0.213-0.223,0.366-0.422,0.459c-0.198,0.093-0.396,0.102-0.594,0.026
			c-0.191-0.073-0.369-0.25-0.535-0.53c-0.165-0.28-0.305-0.442-0.42-0.487c-0.099-0.038-0.227-0.024-0.383,0.041
			c-0.333,0.13-0.729,0.401-1.189,0.814l-1.385,3.602c-0.159,0.416-0.229,0.75-0.207,1.003c0.015,0.175,0.093,0.346,0.235,0.514
			s0.384,0.317,0.723,0.447l-0.113,0.295l-3.848-1.479l0.114-0.295c0.382,0.147,0.689,0.196,0.922,0.147
			c0.171-0.035,0.32-0.137,0.448-0.308c0.063-0.082,0.179-0.342,0.347-0.78l1.12-2.912c0.337-0.875,0.52-1.403,0.548-1.583
			c0.028-0.181,0.01-0.328-0.057-0.441s-0.17-0.197-0.312-0.252c-0.17-0.065-0.377-0.098-0.621-0.098l0.031-0.327l2.625-0.045
			L399.073,42.008z"/>
		<path d="M407.406,45.358l-1.046,2.535l-0.269-0.11c0.123-0.881,0.082-1.532-0.121-1.952c-0.204-0.42-0.556-0.733-1.054-0.938
			c-0.379-0.157-0.727-0.183-1.042-0.079c-0.315,0.104-0.523,0.279-0.624,0.522c-0.125,0.303-0.146,0.599-0.062,0.887
			c0.076,0.292,0.32,0.667,0.732,1.129l0.948,1.066c0.878,0.99,1.137,1.924,0.774,2.801c-0.279,0.677-0.761,1.117-1.443,1.32
			s-1.341,0.174-1.975-0.087c-0.455-0.188-0.941-0.484-1.46-0.888c-0.156-0.128-0.291-0.215-0.405-0.262
			c-0.124-0.051-0.251-0.021-0.379,0.091l-0.269-0.111l1.097-2.657l0.268,0.111c-0.161,0.821-0.107,1.512,0.162,2.073
			s0.669,0.951,1.2,1.17c0.374,0.154,0.724,0.17,1.05,0.048s0.553-0.337,0.681-0.646c0.153-0.374,0.152-0.742-0.006-1.105
			c-0.157-0.363-0.549-0.901-1.173-1.615c-0.625-0.714-0.994-1.278-1.108-1.693c-0.116-0.409-0.077-0.85,0.117-1.321
			c0.253-0.612,0.674-1.037,1.264-1.276c0.59-0.238,1.218-0.22,1.884,0.055c0.292,0.121,0.621,0.33,0.987,0.626
			c0.242,0.195,0.41,0.312,0.502,0.35c0.087,0.036,0.162,0.045,0.227,0.027c0.064-0.018,0.156-0.078,0.274-0.182L407.406,45.358z"/>
		<path d="M412.953,47.962l3.046,1.453l-0.14,0.293c-0.29-0.112-0.498-0.15-0.623-0.112c-0.125,0.038-0.224,0.13-0.294,0.278
			c-0.078,0.164-0.128,0.384-0.148,0.659l-0.439,4.922l3.186-2.658l0.099-1.268c0.024-0.378-0.037-0.677-0.186-0.897
			c-0.081-0.129-0.276-0.278-0.586-0.445l0.14-0.293l3.459,1.65l-0.141,0.293c-0.388-0.166-0.69-0.226-0.907-0.18
			c-0.146,0.034-0.264,0.144-0.352,0.329c-0.051,0.106-0.081,0.224-0.092,0.355l-0.341,4.96l3.45-3.292
			c0.242-0.235,0.403-0.438,0.483-0.606c0.048-0.101,0.04-0.215-0.025-0.344s-0.246-0.27-0.543-0.424l0.141-0.293l2.292,1.094
			l-0.14,0.293c-0.493-0.151-0.98,0-1.462,0.452l-5.413,5.101l-0.325-0.155l0.396-5.507l-4.331,3.63l-0.294-0.14l0.582-7.221
			c0.03-0.459,0.004-0.792-0.08-0.997c-0.083-0.206-0.268-0.418-0.552-0.639L412.953,47.962z"/>
		<path d="M427.786,54.976l-2.979,5.742c-0.232,0.447-0.354,0.762-0.366,0.944s0.027,0.342,0.117,0.481
			c0.089,0.139,0.303,0.296,0.642,0.471l-0.146,0.281l-3.472-1.801l0.146-0.281c0.349,0.181,0.601,0.269,0.755,0.263
			c0.155-0.005,0.308-0.068,0.459-0.188s0.342-0.4,0.57-0.843l1.429-2.754c0.402-0.775,0.64-1.289,0.711-1.542
			c0.05-0.185,0.053-0.331,0.009-0.436c-0.045-0.105-0.135-0.193-0.27-0.264c-0.146-0.075-0.343-0.128-0.591-0.158l0.036-0.337
			l2.606,0.243L427.786,54.976z M429.076,50.902c0.219,0.113,0.365,0.287,0.438,0.52c0.074,0.233,0.055,0.459-0.059,0.677
			s-0.287,0.366-0.521,0.442c-0.234,0.076-0.461,0.058-0.68-0.055c-0.218-0.113-0.365-0.289-0.44-0.525
			c-0.075-0.237-0.056-0.465,0.058-0.683c0.113-0.219,0.286-0.365,0.52-0.438C428.624,50.765,428.853,50.786,429.076,50.902z"/>
		<path d="M434.42,58.549l-1.316,2.406l-0.254-0.139c0.218-0.863,0.248-1.514,0.092-1.954c-0.157-0.439-0.472-0.789-0.944-1.048
			c-0.36-0.197-0.702-0.26-1.027-0.191c-0.325,0.069-0.551,0.22-0.678,0.451c-0.157,0.288-0.21,0.58-0.158,0.875
			c0.044,0.298,0.245,0.699,0.604,1.202l0.826,1.164c0.765,1.08,0.92,2.036,0.464,2.869c-0.352,0.643-0.878,1.028-1.578,1.155
			c-0.701,0.127-1.353,0.026-1.954-0.303c-0.432-0.236-0.883-0.583-1.354-1.041c-0.142-0.144-0.267-0.246-0.374-0.305
			c-0.118-0.064-0.248-0.048-0.388,0.049l-0.254-0.139l1.379-2.521l0.255,0.139c-0.25,0.798-0.271,1.491-0.065,2.079
			c0.206,0.587,0.562,1.018,1.065,1.294c0.354,0.194,0.7,0.248,1.038,0.162c0.338-0.085,0.587-0.275,0.747-0.568
			c0.193-0.355,0.232-0.721,0.115-1.099s-0.447-0.956-0.99-1.734s-0.848-1.379-0.916-1.804c-0.071-0.42,0.016-0.853,0.261-1.3
			c0.317-0.581,0.782-0.958,1.395-1.13s1.234-0.086,1.866,0.26c0.277,0.152,0.582,0.396,0.913,0.73
			c0.22,0.221,0.374,0.355,0.461,0.403c0.082,0.045,0.156,0.062,0.223,0.051c0.065-0.011,0.163-0.061,0.293-0.15L434.42,58.549z"/>
		<path d="M440.309,57.059l-2.979,5.08c0.923-0.288,1.6-0.422,2.03-0.404s0.811,0.124,1.14,0.316
			c0.394,0.231,0.669,0.539,0.824,0.922c0.156,0.383,0.166,0.847,0.029,1.392c-0.094,0.38-0.393,1-0.896,1.859l-1.44,2.457
			c-0.258,0.44-0.399,0.761-0.423,0.964c-0.021,0.151,0.009,0.298,0.089,0.439c0.08,0.142,0.281,0.308,0.604,0.498l-0.159,0.273
			l-3.412-2l0.16-0.273l0.159,0.093c0.323,0.19,0.577,0.272,0.761,0.248c0.185-0.025,0.358-0.118,0.521-0.281
			c0.062-0.072,0.209-0.305,0.44-0.699l1.44-2.457c0.444-0.758,0.697-1.279,0.758-1.562c0.061-0.284,0.04-0.535-0.062-0.755
			c-0.103-0.219-0.275-0.4-0.518-0.542c-0.248-0.146-0.544-0.23-0.889-0.256c-0.346-0.025-0.822,0.052-1.43,0.231l-2.151,3.67
			c-0.279,0.475-0.426,0.787-0.44,0.934c-0.016,0.147,0.026,0.303,0.124,0.465c0.099,0.163,0.324,0.348,0.678,0.556l-0.159,0.273
			l-3.442-2.018l0.159-0.273c0.309,0.181,0.579,0.275,0.812,0.283c0.131,0.009,0.269-0.04,0.412-0.146s0.343-0.376,0.598-0.811
			l3.685-6.286c0.466-0.793,0.732-1.292,0.801-1.497c0.069-0.204,0.084-0.362,0.044-0.474c-0.04-0.111-0.126-0.206-0.257-0.283
			c-0.106-0.062-0.302-0.123-0.587-0.181l0.05-0.328l2.575,0.369L440.309,57.059z"/>
		<path d="M451.177,65.831l-1.434,2.223l1.58,1.02l-0.333,0.517l-1.581-1.02l-2.829,4.388c-0.282,0.438-0.41,0.774-0.383,1.008
			c0.027,0.234,0.139,0.414,0.336,0.541c0.162,0.104,0.353,0.156,0.57,0.153s0.432-0.075,0.643-0.218l0.288,0.186
			c-0.483,0.371-0.961,0.577-1.434,0.618s-0.876-0.047-1.211-0.263c-0.227-0.146-0.407-0.352-0.543-0.617
			c-0.136-0.266-0.18-0.548-0.133-0.849c0.048-0.3,0.229-0.694,0.543-1.182l2.934-4.55l-1.07-0.691l0.157-0.244
			c0.34,0.066,0.735,0.062,1.186-0.015c0.449-0.076,0.899-0.22,1.35-0.431c0.234-0.114,0.612-0.355,1.135-0.722L451.177,65.831z"/>
		<path d="M455.471,71.574c1.007,0.687,1.554,1.621,1.643,2.801c0.072,1.007-0.181,1.934-0.758,2.781
			c-0.406,0.596-0.96,1.101-1.661,1.516c-0.702,0.415-1.409,0.607-2.121,0.575c-0.713-0.032-1.376-0.258-1.991-0.677
			c-1.002-0.683-1.525-1.626-1.571-2.827c-0.04-1.013,0.226-1.938,0.797-2.776c0.416-0.61,0.98-1.113,1.694-1.509
			c0.713-0.396,1.415-0.57,2.105-0.521C454.297,70.985,454.918,71.198,455.471,71.574z M454.923,71.892
			c-0.256-0.175-0.566-0.274-0.929-0.298c-0.363-0.024-0.755,0.101-1.176,0.374c-0.42,0.273-0.835,0.71-1.244,1.311
			c-0.66,0.968-1.038,1.935-1.131,2.899c-0.095,0.964,0.174,1.661,0.803,2.09c0.47,0.32,0.989,0.391,1.558,0.211
			c0.569-0.179,1.176-0.741,1.819-1.685c0.806-1.181,1.186-2.284,1.14-3.308C455.735,72.787,455.456,72.255,454.923,71.892z"/>
		<path d="M462.412,77.703l2.581,0.698l0.266,0.202l-1.135,1.5c0.759-0.314,1.392-0.458,1.897-0.432s0.942,0.179,1.312,0.458
			c0.645,0.488,0.991,1.147,1.039,1.977c0.061,1.017-0.283,2.02-1.033,3.01c-0.839,1.107-1.85,1.782-3.033,2.025
			c-0.973,0.197-1.855-0.005-2.649-0.606c-0.346-0.262-0.607-0.537-0.786-0.826c-0.134-0.211-0.237-0.511-0.312-0.898l-1.48,1.955
			c-0.333,0.439-0.518,0.738-0.554,0.898c-0.036,0.16-0.015,0.325,0.065,0.496s0.295,0.389,0.646,0.654l-0.196,0.259l-3.363-2.547
			l0.196-0.259l0.175,0.133c0.254,0.199,0.511,0.316,0.771,0.352c0.128,0.016,0.26-0.015,0.396-0.092s0.38-0.35,0.733-0.816
			l4.595-6.068c0.315-0.416,0.496-0.694,0.544-0.834s0.052-0.27,0.013-0.388c-0.04-0.118-0.13-0.23-0.27-0.336
			c-0.112-0.085-0.279-0.16-0.502-0.226L462.412,77.703z M463.811,80.515l-1.814,2.396c-0.393,0.519-0.63,0.875-0.712,1.071
			c-0.14,0.32-0.16,0.68-0.061,1.078c0.099,0.398,0.342,0.744,0.729,1.038c0.467,0.354,0.983,0.458,1.549,0.313
			c0.739-0.19,1.437-0.717,2.091-1.582c0.742-0.981,1.099-1.898,1.069-2.751c-0.023-0.59-0.24-1.042-0.651-1.353
			c-0.225-0.17-0.489-0.282-0.793-0.336C464.985,80.346,464.517,80.388,463.811,80.515z"/>
		<path d="M469.787,86.176c-0.756,0.926-1.119,1.838-1.09,2.735c0.028,0.897,0.351,1.594,0.966,2.091
			c0.411,0.331,0.858,0.506,1.344,0.526c0.485,0.019,1.052-0.162,1.698-0.543l0.102,0.308c-0.6,0.547-1.337,0.892-2.212,1.033
			c-0.874,0.141-1.658-0.068-2.351-0.628c-0.753-0.607-1.16-1.42-1.223-2.438c-0.062-1.019,0.306-2.022,1.104-3.011
			c0.865-1.071,1.814-1.685,2.848-1.841s1.965,0.101,2.795,0.771c0.702,0.567,1.092,1.264,1.169,2.091
			c0.078,0.827-0.196,1.628-0.822,2.403L469.787,86.176z M470.107,85.779l2.899,2.341c0.301-0.42,0.481-0.741,0.541-0.964
			c0.092-0.348,0.084-0.685-0.023-1.013c-0.108-0.328-0.285-0.592-0.531-0.791c-0.378-0.306-0.836-0.432-1.371-0.379
			C471.086,85.027,470.581,85.295,470.107,85.779z"/>
		<path d="M478.904,89.45l-1.174,1.379c1.296-0.482,2.214-0.494,2.753-0.035c0.246,0.209,0.386,0.457,0.419,0.743
			s-0.033,0.527-0.201,0.724c-0.147,0.174-0.331,0.272-0.55,0.294c-0.219,0.021-0.408-0.036-0.568-0.172
			c-0.156-0.133-0.266-0.359-0.329-0.678s-0.142-0.519-0.235-0.598c-0.08-0.068-0.205-0.098-0.375-0.088
			c-0.356,0.012-0.82,0.137-1.392,0.374l-2.5,2.938c-0.289,0.339-0.465,0.632-0.528,0.878c-0.044,0.169-0.027,0.357,0.052,0.563
			s0.257,0.426,0.533,0.662l-0.205,0.241l-3.139-2.671l0.205-0.241c0.312,0.266,0.586,0.414,0.821,0.445
			c0.172,0.024,0.347-0.023,0.524-0.142c0.087-0.057,0.282-0.264,0.586-0.621l2.022-2.376c0.607-0.714,0.954-1.151,1.041-1.312
			c0.087-0.161,0.118-0.306,0.093-0.435c-0.024-0.129-0.095-0.243-0.211-0.342c-0.139-0.118-0.323-0.217-0.554-0.298l0.138-0.298
			l2.492,0.828L478.904,89.45z"/>
		<path d="M482.451,94.769c0.828-0.037,1.311-0.051,1.448-0.045c0.345,0.014,0.671,0.079,0.979,0.194
			c0.308,0.115,0.572,0.273,0.792,0.475c0.372,0.341,0.593,0.742,0.662,1.203c0.07,0.461-0.037,0.939-0.322,1.432
			c0.919-0.111,1.607-0.106,2.062,0.013s0.845,0.327,1.169,0.624c0.314,0.289,0.521,0.626,0.616,1.012s0.046,0.828-0.147,1.325
			c-0.135,0.337-0.447,0.774-0.938,1.31l-2.339,2.553c-0.341,0.372-0.546,0.652-0.616,0.842c-0.044,0.135-0.038,0.289,0.017,0.463
			c0.056,0.174,0.215,0.381,0.479,0.623l-0.214,0.233l-2.929-2.684l0.214-0.233l0.123,0.113c0.255,0.234,0.499,0.366,0.732,0.397
			c0.163,0.022,0.335-0.023,0.517-0.135c0.085-0.058,0.285-0.259,0.602-0.605l2.34-2.553c0.443-0.483,0.697-0.878,0.763-1.184
			c0.085-0.431-0.059-0.816-0.43-1.157c-0.229-0.21-0.512-0.363-0.848-0.46c-0.336-0.098-0.811-0.141-1.424-0.131l-0.078,0.06
			l-0.242,0.291l-2.595,2.832c-0.372,0.406-0.581,0.68-0.627,0.821s-0.037,0.302,0.027,0.484c0.063,0.182,0.247,0.411,0.55,0.688
			l-0.214,0.233l-3-2.749l0.213-0.233c0.329,0.301,0.59,0.469,0.784,0.503c0.194,0.035,0.387-0.003,0.577-0.115
			c0.089-0.054,0.295-0.257,0.62-0.612l2.339-2.553c0.443-0.484,0.691-0.897,0.742-1.239c0.063-0.451-0.075-0.833-0.417-1.145
			c-0.233-0.214-0.521-0.363-0.865-0.447c-0.533-0.139-1.006-0.178-1.418-0.119l-2.915,3.182c-0.356,0.389-0.561,0.666-0.613,0.832
			s-0.054,0.327-0.001,0.482s0.24,0.381,0.564,0.678l-0.214,0.233l-2.936-2.69l0.214-0.233c0.272,0.25,0.489,0.395,0.65,0.435
			c0.162,0.041,0.329,0.023,0.502-0.053c0.173-0.076,0.428-0.298,0.764-0.665l2.078-2.268c0.598-0.652,0.965-1.091,1.1-1.317
			c0.101-0.17,0.143-0.312,0.128-0.426c-0.016-0.113-0.079-0.221-0.191-0.324c-0.121-0.111-0.296-0.211-0.523-0.301l0.116-0.322
			l2.454,0.913l0.278,0.255L482.451,94.769z"/>
		<path d="M490.483,109.83c-1.036-0.129-1.664-0.233-1.885-0.311c-0.327-0.119-0.618-0.305-0.871-0.557
			c-0.396-0.393-0.587-0.851-0.573-1.375c0.013-0.524,0.237-1.007,0.675-1.447c0.277-0.278,0.579-0.458,0.906-0.538
			c0.451-0.113,1.012-0.085,1.682,0.084c0.669,0.169,1.672,0.563,3.009,1.18l0.223-0.225c0.565-0.569,0.863-1.05,0.894-1.442
			c0.029-0.392-0.128-0.759-0.474-1.102c-0.262-0.26-0.54-0.396-0.834-0.407c-0.299-0.016-0.538,0.068-0.72,0.251l-0.347,0.374
			c-0.19,0.191-0.386,0.291-0.587,0.297s-0.38-0.068-0.538-0.225c-0.154-0.153-0.226-0.332-0.216-0.537
			c0.009-0.205,0.107-0.401,0.293-0.588c0.354-0.358,0.864-0.504,1.527-0.44s1.325,0.424,1.986,1.081
			c0.507,0.504,0.838,1.002,0.993,1.495c0.117,0.372,0.098,0.753-0.059,1.144c-0.103,0.253-0.429,0.656-0.978,1.209l-1.927,1.939
			c-0.541,0.545-0.862,0.889-0.963,1.032c-0.101,0.143-0.148,0.259-0.142,0.348c0.006,0.089,0.041,0.165,0.104,0.227
			c0.066,0.066,0.139,0.109,0.218,0.13c0.141,0.033,0.46,0.048,0.957,0.046l-0.347,0.349c-1.085,0.161-1.84,0.031-2.264-0.39
			c-0.204-0.202-0.296-0.434-0.275-0.695C489.972,110.478,490.148,110.175,490.483,109.83z M490.886,109.425l2.162-2.176
			c-0.876-0.374-1.457-0.6-1.743-0.678c-0.51-0.144-0.935-0.186-1.274-0.126c-0.339,0.059-0.627,0.207-0.862,0.444
			c-0.297,0.299-0.454,0.636-0.472,1.011s0.09,0.678,0.323,0.91C489.335,109.123,489.957,109.328,490.886,109.425z"/>
		<path d="M498.411,110.181c1.475-0.096,2.505,0.167,3.093,0.789c0.303,0.319,0.482,0.669,0.54,1.05s-0.032,0.812-0.269,1.295
			c-0.167,0.335-0.515,0.752-1.042,1.252l-2.497,2.361c-0.37,0.351-0.593,0.618-0.669,0.802c-0.062,0.147-0.073,0.301-0.034,0.462
			c0.039,0.161,0.191,0.382,0.457,0.663l-0.229,0.217l-2.736-2.892l0.229-0.217l0.115,0.121c0.258,0.272,0.479,0.424,0.665,0.454
			c0.186,0.03,0.379-0.01,0.581-0.121c0.08-0.043,0.288-0.224,0.625-0.542l2.394-2.265c0.532-0.503,0.854-0.938,0.963-1.304
			s0.01-0.713-0.301-1.041c-0.479-0.506-1.232-0.749-2.261-0.728l-3.084,2.917c-0.396,0.375-0.619,0.629-0.668,0.765
			c-0.067,0.176-0.08,0.344-0.039,0.502s0.213,0.397,0.515,0.717l-0.229,0.218l-2.736-2.893l0.229-0.217l0.121,0.127
			c0.282,0.298,0.548,0.428,0.798,0.389c0.249-0.039,0.587-0.259,1.013-0.662l2.171-2.054c0.702-0.664,1.115-1.085,1.238-1.262
			s0.181-0.325,0.174-0.443s-0.063-0.233-0.168-0.343c-0.112-0.12-0.279-0.232-0.5-0.337l0.139-0.313l2.383,1.085l0.26,0.274
			L498.411,110.181z"/>
		<path d="M502.782,117.177c-0.897,0.79-1.406,1.629-1.524,2.519c-0.119,0.889,0.084,1.63,0.609,2.221
			c0.351,0.394,0.763,0.641,1.239,0.739c0.476,0.099,1.063,0.013,1.765-0.257l0.049,0.32c-0.682,0.441-1.466,0.659-2.352,0.655
			s-1.624-0.34-2.216-1.005c-0.643-0.723-0.91-1.592-0.805-2.606s0.634-1.944,1.584-2.789c1.029-0.914,2.066-1.364,3.111-1.348
			s1.922,0.423,2.63,1.22c0.6,0.675,0.869,1.426,0.811,2.255c-0.06,0.829-0.462,1.574-1.206,2.235L502.782,117.177z
			 M503.163,116.838l2.476,2.786c0.365-0.365,0.597-0.652,0.691-0.862c0.148-0.328,0.196-0.662,0.144-1.003s-0.184-0.63-0.394-0.867
			c-0.323-0.364-0.754-0.563-1.291-0.599C504.252,116.257,503.71,116.438,503.163,116.838z"/>
		<path d="M509.924,122.985c1.477-0.003,2.489,0.323,3.037,0.98c0.282,0.337,0.439,0.698,0.474,1.082s-0.083,0.809-0.35,1.276
			c-0.188,0.324-0.56,0.719-1.118,1.185l-2.639,2.201c-0.392,0.327-0.631,0.58-0.717,0.759c-0.071,0.144-0.093,0.296-0.063,0.459
			c0.028,0.163,0.167,0.393,0.415,0.689l-0.243,0.203l-2.551-3.057l0.243-0.203l0.106,0.128c0.24,0.288,0.452,0.453,0.636,0.495
			c0.184,0.042,0.38,0.013,0.588-0.084c0.083-0.038,0.302-0.206,0.657-0.502l2.531-2.111c0.562-0.469,0.909-0.883,1.042-1.242
			c0.132-0.358,0.054-0.71-0.235-1.057c-0.447-0.536-1.185-0.825-2.212-0.868l-3.26,2.719c-0.419,0.349-0.656,0.59-0.714,0.722
			c-0.078,0.172-0.102,0.338-0.07,0.499c0.031,0.161,0.188,0.41,0.469,0.748l-0.243,0.203l-2.55-3.057l0.242-0.203l0.113,0.135
			c0.263,0.314,0.52,0.46,0.771,0.438s0.603-0.222,1.053-0.597l2.294-1.915c0.743-0.619,1.181-1.013,1.314-1.182
			s0.201-0.312,0.201-0.431s-0.048-0.236-0.146-0.354c-0.105-0.126-0.265-0.249-0.479-0.368l0.158-0.304l2.31,1.232l0.242,0.29
			L509.924,122.985z"/>
		<path d="M518.882,127.465l-2.074,1.642l1.168,1.475l-0.482,0.382l-1.168-1.475l-4.093,3.24c-0.409,0.324-0.639,0.601-0.688,0.83
			c-0.05,0.23-0.002,0.437,0.144,0.621c0.12,0.152,0.284,0.261,0.491,0.329c0.206,0.068,0.433,0.068,0.679,0.001l0.213,0.269
			c-0.578,0.196-1.097,0.236-1.557,0.123c-0.461-0.114-0.814-0.327-1.062-0.64c-0.167-0.211-0.272-0.464-0.315-0.759
			s0.007-0.577,0.148-0.846c0.142-0.269,0.44-0.584,0.896-0.944l4.245-3.36l-0.791-0.999l0.227-0.18
			c0.302,0.172,0.677,0.295,1.128,0.369c0.45,0.073,0.922,0.083,1.417,0.027c0.258-0.033,0.693-0.138,1.307-0.317L518.882,127.465z"
			/>
		<path d="M523.731,130.788l-8.494,6.473c-0.4,0.306-0.645,0.537-0.73,0.695s-0.116,0.323-0.092,0.496
			c0.025,0.173,0.163,0.424,0.416,0.755l-0.252,0.192l-2.392-3.139l0.251-0.192c0.224,0.293,0.407,0.471,0.549,0.532
			c0.143,0.061,0.307,0.069,0.493,0.023c0.186-0.046,0.477-0.22,0.873-0.522l5.815-4.433c0.723-0.55,1.154-0.905,1.295-1.063
			s0.213-0.297,0.219-0.416c0.006-0.118-0.034-0.233-0.119-0.345c-0.093-0.121-0.247-0.247-0.464-0.376l0.154-0.306l2.237,1.312
			L523.731,130.788z"/>
		<path d="M521.365,134.986l2.197,3.042l-0.264,0.19l-0.108-0.15c-0.154-0.213-0.316-0.34-0.486-0.38s-0.323-0.01-0.461,0.089
			c-0.186,0.134-0.386,0.397-0.601,0.791l-2.144,3.966l4.66-1.143c0.253-0.06,0.475-0.158,0.664-0.295
			c0.086-0.062,0.138-0.125,0.156-0.189c0.025-0.076,0.023-0.165-0.004-0.268s-0.114-0.257-0.262-0.461l0.264-0.19l1.533,2.123
			l-0.264,0.19c-0.146-0.162-0.282-0.27-0.407-0.324c-0.126-0.054-0.309-0.081-0.547-0.082c-0.098,0.005-0.339,0.057-0.724,0.154
			l-8.433,2.045c-0.816,0.2-1.536,0.208-2.16,0.026c-0.623-0.183-1.073-0.466-1.352-0.851c-0.202-0.28-0.288-0.569-0.257-0.866
			s0.151-0.521,0.36-0.672c0.199-0.144,0.407-0.195,0.623-0.151c0.215,0.043,0.405,0.179,0.569,0.407
			c0.113,0.157,0.216,0.408,0.307,0.754c0.066,0.241,0.116,0.386,0.15,0.433c0.104,0.143,0.289,0.245,0.558,0.308
			c0.27,0.062,0.677,0.026,1.224-0.108l1.467-0.355l3.23-5.9c0.096-0.177,0.196-0.423,0.302-0.738
			c0.081-0.239,0.122-0.417,0.124-0.534c-0.003-0.165-0.063-0.388-0.181-0.671L521.365,134.986z"/>
		<path d="M531.027,148.417l-1.514,0.994c1.379-0.1,2.263,0.147,2.652,0.739c0.177,0.27,0.241,0.546,0.193,0.83
			c-0.049,0.284-0.181,0.497-0.396,0.639c-0.191,0.125-0.395,0.168-0.61,0.127s-0.382-0.149-0.498-0.325
			c-0.112-0.171-0.154-0.419-0.125-0.743c0.029-0.324,0.01-0.537-0.058-0.64c-0.059-0.088-0.17-0.151-0.336-0.19
			c-0.345-0.088-0.825-0.099-1.44-0.032l-3.225,2.119c-0.372,0.245-0.623,0.476-0.753,0.695c-0.09,0.15-0.126,0.335-0.108,0.555
			c0.019,0.219,0.127,0.481,0.326,0.785l-0.265,0.173l-2.263-3.445l0.264-0.174c0.226,0.343,0.446,0.562,0.664,0.658
			c0.158,0.071,0.34,0.075,0.543,0.011c0.1-0.03,0.346-0.174,0.737-0.432l2.607-1.713c0.783-0.515,1.239-0.837,1.368-0.967
			c0.128-0.13,0.198-0.26,0.211-0.391c0.012-0.131-0.023-0.26-0.107-0.387c-0.1-0.152-0.249-0.299-0.448-0.442l0.217-0.247
			l2.159,1.494L531.027,148.417z"/>
		<path d="M531.033,154.446c-1.019,0.625-1.662,1.366-1.931,2.222c-0.269,0.856-0.194,1.621,0.223,2.292
			c0.278,0.448,0.644,0.761,1.096,0.939c0.451,0.178,1.046,0.194,1.782,0.047l-0.006,0.324c-0.747,0.319-1.557,0.4-2.429,0.246
			c-0.872-0.155-1.543-0.611-2.013-1.368c-0.51-0.821-0.626-1.723-0.35-2.705s0.955-1.808,2.035-2.479
			c1.17-0.726,2.269-0.992,3.296-0.799c1.026,0.194,1.821,0.743,2.384,1.649c0.476,0.767,0.614,1.553,0.415,2.36
			c-0.2,0.807-0.723,1.472-1.569,1.998L531.033,154.446z M531.466,154.177l1.966,3.166c0.423-0.297,0.699-0.541,0.828-0.731
			c0.202-0.297,0.306-0.619,0.312-0.964c0.006-0.345-0.074-0.652-0.241-0.921c-0.256-0.414-0.646-0.684-1.17-0.81
			C532.638,153.79,532.072,153.876,531.466,154.177z"/>
		<path d="M542.379,158.73l-9.205,5.413c-0.435,0.255-0.704,0.456-0.808,0.603c-0.104,0.146-0.155,0.307-0.151,0.481
			s0.111,0.441,0.322,0.8l-0.272,0.16l-2-3.402l0.272-0.16c0.188,0.318,0.348,0.516,0.481,0.594
			c0.134,0.077,0.296,0.104,0.486,0.081s0.5-0.162,0.93-0.414l6.303-3.707c0.783-0.46,1.254-0.761,1.412-0.902
			c0.159-0.141,0.248-0.27,0.268-0.386c0.02-0.117-0.006-0.236-0.077-0.357c-0.077-0.131-0.216-0.274-0.416-0.429l0.189-0.285
			l2.065,1.569L542.379,158.73z"/>
		<path d="M541.29,165.309l-5.636,3.175c-0.439,0.248-0.714,0.444-0.823,0.59s-0.165,0.301-0.166,0.467s0.093,0.414,0.279,0.746
			l-0.275,0.155l-1.92-3.407l0.275-0.156c0.192,0.342,0.355,0.553,0.488,0.633c0.132,0.08,0.295,0.111,0.486,0.094
			c0.192-0.018,0.505-0.148,0.938-0.393l2.703-1.523c0.761-0.428,1.24-0.729,1.439-0.901c0.144-0.128,0.226-0.248,0.246-0.36
			s-0.007-0.235-0.081-0.368c-0.081-0.143-0.217-0.295-0.408-0.456l0.215-0.263l2.049,1.63L541.29,165.309z M544.6,162.607
			c0.121,0.214,0.148,0.439,0.083,0.675c-0.066,0.235-0.206,0.414-0.421,0.534c-0.214,0.121-0.44,0.149-0.678,0.085
			c-0.238-0.064-0.418-0.204-0.539-0.418c-0.12-0.214-0.147-0.441-0.08-0.681c0.066-0.24,0.207-0.42,0.422-0.541
			c0.214-0.121,0.439-0.148,0.675-0.083C544.297,162.245,544.477,162.388,544.6,162.607z"/>
		<path d="M542.043,170.223c1.446,0.301,2.37,0.83,2.771,1.586c0.205,0.389,0.285,0.774,0.239,1.156s-0.248,0.774-0.605,1.176
			c-0.25,0.278-0.696,0.588-1.338,0.928l-3.037,1.609c-0.45,0.239-0.737,0.437-0.858,0.594c-0.1,0.125-0.152,0.271-0.157,0.436
			c-0.006,0.166,0.083,0.419,0.264,0.761l-0.279,0.148l-1.864-3.518l0.279-0.148l0.078,0.147c0.176,0.331,0.349,0.536,0.52,0.615
			s0.369,0.092,0.593,0.039c0.089-0.021,0.338-0.139,0.747-0.355l2.912-1.543c0.647-0.343,1.072-0.676,1.276-1
			c0.203-0.323,0.199-0.684-0.012-1.083c-0.327-0.616-0.988-1.051-1.985-1.306l-3.751,1.987c-0.481,0.255-0.765,0.441-0.848,0.559
			c-0.112,0.152-0.169,0.31-0.172,0.474s0.099,0.44,0.305,0.828l-0.28,0.148l-1.863-3.519l0.279-0.148l0.082,0.155
			c0.192,0.362,0.414,0.559,0.665,0.588s0.635-0.093,1.153-0.367l2.641-1.399c0.854-0.453,1.364-0.748,1.53-0.885
			c0.165-0.138,0.261-0.265,0.285-0.38c0.025-0.116,0.002-0.241-0.069-0.376c-0.077-0.145-0.208-0.298-0.393-0.458l0.218-0.265
			l2.006,1.683l0.177,0.334L542.043,170.223z"/>
		<path d="M549.856,181.878l-9.306,4.54c-0.464,0.226-0.745,0.403-0.847,0.53c-0.101,0.127-0.155,0.276-0.163,0.446
			c-0.009,0.17,0.082,0.45,0.272,0.84l-0.292,0.143l-1.78-3.649l0.292-0.143l0.073,0.15c0.144,0.295,0.295,0.498,0.454,0.61
			c0.109,0.077,0.254,0.11,0.436,0.101c0.181-0.01,0.487-0.121,0.919-0.331l3.112-1.519c-0.803-0.202-1.396-0.431-1.778-0.688
			s-0.668-0.577-0.855-0.961c-0.341-0.701-0.328-1.481,0.041-2.342c0.368-0.861,1.088-1.553,2.156-2.074
			c1.228-0.599,2.404-0.723,3.53-0.373c1.126,0.351,1.939,1.039,2.44,2.066c0.146,0.3,0.239,0.598,0.278,0.891
			c0.039,0.294,0.022,0.582-0.048,0.864c0.296,0.234,0.607,0.444,0.933,0.63L549.856,181.878z M543.524,183.354l3.397-1.657
			c0.395-0.192,0.681-0.396,0.856-0.608c0.177-0.213,0.279-0.49,0.309-0.831c0.03-0.34-0.036-0.676-0.198-1.008
			c-0.288-0.59-0.784-0.973-1.49-1.15s-1.567-0.018-2.583,0.478c-0.975,0.475-1.609,1.051-1.906,1.727
			c-0.296,0.676-0.296,1.316-0.001,1.922c0.152,0.311,0.354,0.555,0.606,0.731C542.767,183.133,543.104,183.266,543.524,183.354z"/>
		<path d="M553.397,190.269l-4.453,1.991c-0.851,0.38-1.361,0.633-1.533,0.758s-0.275,0.249-0.312,0.37
			c-0.035,0.122-0.026,0.242,0.026,0.359c0.074,0.166,0.203,0.333,0.388,0.5l-0.23,0.238l-1.891-1.793l-0.161-0.361l1.557-0.696
			c-0.967-0.325-1.612-0.614-1.938-0.866c-0.325-0.253-0.569-0.564-0.735-0.933c-0.184-0.412-0.225-0.822-0.121-1.231
			c0.103-0.409,0.314-0.756,0.637-1.041c0.321-0.285,0.825-0.581,1.51-0.887l3.281-1.467c0.348-0.155,0.571-0.301,0.672-0.435
			c0.101-0.135,0.153-0.292,0.16-0.471c0.007-0.18-0.079-0.46-0.257-0.843l0.297-0.133l1.152,2.576l-4.919,2.199
			c-0.685,0.306-1.081,0.626-1.188,0.96c-0.107,0.333-0.086,0.669,0.065,1.006c0.103,0.23,0.291,0.458,0.566,0.686
			c0.274,0.227,0.705,0.45,1.291,0.669l4.164-1.862c0.417-0.187,0.665-0.389,0.744-0.607s0.016-0.57-0.188-1.057l0.297-0.133
			L553.397,190.269z"/>
		<path d="M555.496,194.659l-5.973,2.486c-0.465,0.193-0.761,0.356-0.887,0.488s-0.199,0.28-0.22,0.444s0.042,0.422,0.188,0.773
			l-0.292,0.122l-1.503-3.61l0.292-0.122c0.151,0.362,0.287,0.591,0.409,0.686s0.28,0.146,0.473,0.151
			c0.192,0.006,0.519-0.087,0.979-0.279l2.864-1.192c0.806-0.335,1.318-0.577,1.536-0.725c0.157-0.11,0.252-0.219,0.286-0.329
			s0.021-0.234-0.037-0.375c-0.062-0.151-0.18-0.319-0.352-0.501l0.245-0.235l1.841,1.861L555.496,194.659z M559.102,192.368
			c0.095,0.227,0.096,0.454,0.003,0.68c-0.094,0.226-0.254,0.386-0.48,0.481c-0.228,0.094-0.456,0.096-0.685,0.004
			c-0.229-0.092-0.39-0.252-0.484-0.479s-0.095-0.456,0-0.686s0.256-0.392,0.482-0.487c0.228-0.094,0.454-0.095,0.68-0.002
			C558.844,191.972,559.005,192.135,559.102,192.368z"/>
		<path d="M558.28,201.658l-2.555,0.997l-0.105-0.27c0.722-0.521,1.163-1,1.326-1.438c0.162-0.438,0.146-0.908-0.051-1.41
			c-0.148-0.382-0.37-0.651-0.664-0.807c-0.293-0.156-0.562-0.186-0.809-0.09c-0.306,0.12-0.533,0.309-0.684,0.569
			c-0.158,0.257-0.261,0.693-0.31,1.31l-0.114,1.422c-0.108,1.319-0.604,2.151-1.488,2.497c-0.683,0.266-1.333,0.223-1.952-0.13
			c-0.618-0.353-1.053-0.848-1.302-1.487c-0.18-0.458-0.302-1.015-0.368-1.668c-0.016-0.201-0.046-0.359-0.091-0.474
			c-0.049-0.125-0.158-0.196-0.328-0.211l-0.105-0.271l2.678-1.045l0.105,0.27c-0.705,0.451-1.167,0.968-1.386,1.55
			c-0.22,0.583-0.225,1.141-0.016,1.676c0.147,0.376,0.377,0.641,0.691,0.792c0.313,0.151,0.626,0.166,0.938,0.044
			c0.376-0.147,0.641-0.403,0.794-0.768c0.153-0.365,0.272-1.02,0.356-1.965s0.235-1.602,0.456-1.971
			c0.216-0.367,0.561-0.643,1.035-0.829c0.617-0.241,1.216-0.23,1.796,0.03c0.579,0.261,1.001,0.728,1.263,1.399
			c0.115,0.294,0.192,0.676,0.23,1.146c0.027,0.31,0.059,0.512,0.095,0.604c0.034,0.087,0.08,0.148,0.137,0.182
			c0.058,0.035,0.165,0.059,0.321,0.073L558.28,201.658z"/>
		<path d="M563.747,204.294l-5.547,1.978c0.893,0.373,1.497,0.704,1.815,0.995c0.318,0.291,0.542,0.615,0.67,0.974
			c0.153,0.431,0.166,0.843,0.039,1.236s-0.418,0.755-0.873,1.085c-0.315,0.231-0.942,0.514-1.881,0.848l-2.682,0.957
			c-0.48,0.171-0.795,0.327-0.944,0.467c-0.112,0.102-0.184,0.233-0.214,0.394c-0.03,0.16,0.018,0.417,0.144,0.77l-0.298,0.106
			l-1.328-3.726l0.298-0.106l0.062,0.174c0.126,0.353,0.268,0.58,0.425,0.679c0.156,0.1,0.35,0.14,0.579,0.12
			c0.094-0.015,0.356-0.099,0.787-0.253l2.682-0.956c0.828-0.295,1.356-0.532,1.586-0.71c0.229-0.178,0.374-0.384,0.438-0.618
			c0.062-0.234,0.047-0.483-0.048-0.748c-0.097-0.271-0.269-0.526-0.517-0.768s-0.662-0.488-1.244-0.742l-4.007,1.429
			c-0.519,0.185-0.831,0.329-0.938,0.433c-0.106,0.103-0.174,0.249-0.203,0.437c-0.03,0.188,0.024,0.475,0.162,0.861l-0.298,0.106
			l-1.34-3.758l0.298-0.106c0.12,0.336,0.267,0.583,0.44,0.739c0.095,0.091,0.23,0.142,0.409,0.153
			c0.178,0.011,0.504-0.068,0.979-0.237l6.862-2.447c0.866-0.309,1.392-0.52,1.576-0.631c0.184-0.112,0.296-0.224,0.337-0.335
			c0.042-0.111,0.037-0.238-0.015-0.382c-0.041-0.116-0.152-0.288-0.333-0.516l0.248-0.219l1.736,1.938L563.747,204.294z"/>
		<path d="M566.435,217.997l-2.528,0.781l0.556,1.797l-0.588,0.182l-0.556-1.797l-4.987,1.542c-0.499,0.154-0.812,0.329-0.941,0.525
			c-0.13,0.196-0.16,0.407-0.091,0.63c0.058,0.185,0.17,0.346,0.338,0.484c0.169,0.138,0.38,0.22,0.633,0.246l0.102,0.328
			c-0.609-0.026-1.107-0.176-1.495-0.449c-0.389-0.272-0.641-0.599-0.759-0.98c-0.079-0.257-0.086-0.531-0.02-0.822
			s0.215-0.536,0.444-0.735s0.622-0.385,1.176-0.557l5.173-1.598l-0.376-1.218l0.276-0.085c0.219,0.27,0.524,0.52,0.918,0.751
			c0.394,0.231,0.83,0.411,1.312,0.538c0.252,0.063,0.697,0.122,1.333,0.176L566.435,217.997z"/>
		<path d="M569.666,222.536l-5.67,1.591c0.864,0.433,1.444,0.805,1.742,1.118c0.298,0.312,0.498,0.651,0.601,1.018
			c0.124,0.44,0.108,0.852-0.045,1.236c-0.154,0.384-0.47,0.725-0.945,1.023c-0.331,0.208-0.977,0.447-1.936,0.717l-2.741,0.769
			c-0.491,0.138-0.815,0.271-0.975,0.401c-0.119,0.094-0.199,0.22-0.24,0.378s-0.011,0.417,0.091,0.778l-0.305,0.085l-1.069-3.808
			l0.305-0.085l0.05,0.178c0.102,0.361,0.228,0.597,0.377,0.707c0.149,0.11,0.339,0.163,0.569,0.16
			c0.095-0.008,0.362-0.075,0.803-0.198l2.741-0.769c0.847-0.238,1.39-0.438,1.631-0.599c0.24-0.162,0.4-0.357,0.479-0.586
			c0.079-0.229,0.08-0.479,0.005-0.75c-0.078-0.276-0.232-0.544-0.463-0.802s-0.627-0.533-1.19-0.825l-4.095,1.149
			c-0.531,0.149-0.853,0.271-0.966,0.367s-0.19,0.236-0.233,0.421c-0.042,0.186-0.008,0.476,0.104,0.871l-0.305,0.085l-1.078-3.842
			l0.305-0.085c0.096,0.344,0.226,0.6,0.389,0.767c0.088,0.097,0.221,0.157,0.397,0.181s0.508-0.033,0.993-0.169l7.015-1.969
			c0.886-0.249,1.425-0.422,1.615-0.521c0.191-0.1,0.312-0.203,0.36-0.311c0.049-0.108,0.053-0.235,0.012-0.382
			c-0.033-0.118-0.133-0.297-0.297-0.537l0.263-0.202l1.599,2.053L569.666,222.536z"/>
		<path d="M568.364,234.043c0.29,1.184,0.073,2.244-0.65,3.182c-0.619,0.797-1.427,1.317-2.423,1.562
			c-0.7,0.171-1.45,0.177-2.249,0.017c-0.8-0.16-1.453-0.49-1.962-0.99c-0.509-0.5-0.852-1.111-1.028-1.834
			c-0.288-1.178-0.049-2.229,0.721-3.154c0.647-0.78,1.463-1.291,2.448-1.532c0.717-0.175,1.474-0.172,2.269,0.01
			c0.796,0.182,1.435,0.522,1.915,1.02S568.205,233.395,568.364,234.043z M567.744,233.915c-0.074-0.302-0.237-0.583-0.491-0.843
			s-0.629-0.43-1.125-0.507c-0.495-0.078-1.096-0.03-1.802,0.143c-1.138,0.279-2.064,0.745-2.778,1.4
			c-0.715,0.655-0.981,1.352-0.8,2.092c0.135,0.552,0.474,0.951,1.018,1.198c0.543,0.247,1.369,0.235,2.479-0.037
			c1.388-0.34,2.407-0.907,3.058-1.699C567.751,235.123,567.897,234.541,567.744,233.915z"/>
		<path d="M570.664,244.225l-2.682,0.573l-0.061-0.284c0.796-0.398,1.309-0.799,1.54-1.205c0.23-0.406,0.29-0.873,0.178-1.4
			c-0.086-0.401-0.262-0.702-0.525-0.903c-0.266-0.201-0.526-0.274-0.784-0.219c-0.321,0.068-0.576,0.219-0.767,0.451
			c-0.197,0.228-0.369,0.642-0.517,1.243l-0.342,1.385c-0.319,1.285-0.942,2.026-1.871,2.224c-0.716,0.153-1.351,0.005-1.905-0.442
			c-0.554-0.448-0.902-1.007-1.046-1.677c-0.103-0.481-0.134-1.05-0.095-1.706c0.018-0.201,0.013-0.362-0.013-0.482
			c-0.028-0.132-0.125-0.219-0.29-0.262l-0.061-0.284l2.811-0.6l0.061,0.284c-0.768,0.332-1.307,0.767-1.617,1.307
			c-0.31,0.539-0.404,1.09-0.285,1.651c0.085,0.396,0.27,0.693,0.555,0.893c0.286,0.2,0.592,0.265,0.918,0.195
			c0.396-0.084,0.698-0.294,0.908-0.63s0.433-0.962,0.668-1.881c0.234-0.919,0.491-1.543,0.769-1.872
			c0.271-0.328,0.656-0.544,1.154-0.651c0.647-0.138,1.236-0.032,1.768,0.319c0.53,0.351,0.87,0.879,1.021,1.584
			c0.066,0.31,0.081,0.699,0.043,1.168c-0.023,0.311-0.024,0.515-0.004,0.612c0.02,0.091,0.055,0.159,0.106,0.202
			c0.051,0.043,0.152,0.084,0.305,0.124L570.664,244.225z"/>
		<path d="M568.091,248.059c-1.177,0.211-2.046,0.667-2.607,1.366c-0.562,0.7-0.771,1.438-0.628,2.216
			c0.096,0.519,0.322,0.943,0.678,1.274c0.356,0.33,0.903,0.562,1.643,0.693l-0.123,0.3c-0.812,0.025-1.596-0.194-2.351-0.656
			c-0.756-0.462-1.215-1.131-1.377-2.007c-0.176-0.951,0.045-1.833,0.66-2.647c0.615-0.813,1.548-1.336,2.798-1.567
			c1.354-0.25,2.475-0.098,3.36,0.457c0.886,0.554,1.426,1.355,1.619,2.404c0.164,0.887,0.007,1.67-0.473,2.349
			c-0.479,0.679-1.209,1.108-2.188,1.289L568.091,248.059z M568.592,247.966l0.677,3.665c0.502-0.123,0.848-0.249,1.038-0.379
			c0.297-0.204,0.511-0.465,0.642-0.784c0.132-0.319,0.169-0.635,0.111-0.946c-0.088-0.478-0.353-0.872-0.794-1.18
			C569.824,248.032,569.267,247.907,568.592,247.966z"/>
		<path d="M573.551,260.97l-1.793,0.253c1.29,0.499,1.984,1.099,2.083,1.801c0.045,0.319-0.015,0.597-0.18,0.833
			s-0.375,0.372-0.63,0.408c-0.227,0.032-0.429-0.017-0.606-0.145c-0.178-0.129-0.282-0.297-0.312-0.506
			c-0.028-0.203,0.039-0.445,0.204-0.726c0.164-0.281,0.238-0.482,0.221-0.604c-0.015-0.104-0.089-0.209-0.222-0.314
			c-0.274-0.228-0.704-0.442-1.289-0.644l-3.82,0.539c-0.441,0.062-0.767,0.165-0.978,0.307c-0.146,0.098-0.258,0.25-0.335,0.456
			c-0.078,0.206-0.091,0.489-0.04,0.849l-0.313,0.044l-0.576-4.082l0.313-0.044c0.057,0.406,0.163,0.699,0.319,0.878
			c0.113,0.132,0.275,0.212,0.486,0.242c0.103,0.015,0.386-0.01,0.851-0.076l3.09-0.436c0.928-0.131,1.478-0.228,1.649-0.291
			s0.291-0.15,0.357-0.264c0.067-0.113,0.09-0.245,0.068-0.396c-0.025-0.18-0.097-0.377-0.216-0.591l0.301-0.131l1.314,2.273
			L573.551,260.97z"/>
		<path d="M574.389,267.439l-6.422,0.774c-0.501,0.061-0.829,0.137-0.986,0.229s-0.268,0.215-0.332,0.368s-0.073,0.417-0.027,0.795
			l-0.314,0.038l-0.468-3.883l0.313-0.038c0.047,0.39,0.116,0.647,0.208,0.771c0.092,0.125,0.23,0.216,0.414,0.273
			s0.523,0.057,1.018-0.003l3.08-0.372c0.867-0.104,1.425-0.198,1.675-0.281c0.182-0.063,0.303-0.143,0.365-0.239
			c0.062-0.096,0.084-0.22,0.066-0.371c-0.021-0.163-0.088-0.355-0.203-0.578l0.3-0.16l1.268,2.291L574.389,267.439z
			 M578.481,266.211c0.029,0.244-0.031,0.462-0.183,0.655c-0.15,0.192-0.349,0.303-0.593,0.333
			c-0.244,0.029-0.464-0.031-0.659-0.182c-0.195-0.15-0.308-0.348-0.337-0.592c-0.029-0.244,0.032-0.464,0.187-0.66
			c0.153-0.196,0.352-0.308,0.597-0.337c0.244-0.03,0.462,0.031,0.654,0.182S578.451,265.961,578.481,266.211z"/>
		<path d="M569.558,272.449c0.193-0.512,0.491-0.92,0.896-1.223c0.404-0.303,0.865-0.479,1.385-0.528
			c0.793-0.075,1.504,0.16,2.132,0.704s0.986,1.283,1.074,2.216c0.072,0.764-0.052,1.444-0.372,2.039l0.16,1.698
			c0.023,0.251,0.03,0.397,0.02,0.439s-0.033,0.074-0.066,0.095c-0.049,0.04-0.141,0.066-0.275,0.079
			c-0.151,0.015-0.258,0.01-0.318-0.014c-0.031-0.015-0.058-0.043-0.079-0.085s-0.044-0.188-0.068-0.439l-0.098-1.041
			c-0.39,0.366-0.911,0.58-1.564,0.642c-0.746,0.071-1.412-0.155-1.997-0.676c-0.585-0.522-0.922-1.264-1.013-2.227
			c-0.038-0.396-0.018-0.808,0.06-1.232c-0.246-0.236-0.456-0.391-0.631-0.466s-0.32-0.106-0.438-0.096
			c-0.099,0.009-0.19,0.067-0.274,0.172c-0.085,0.105-0.134,0.299-0.148,0.583c-0.008,0.166,0.011,0.576,0.055,1.231
			c0.084,1.205,0.116,1.987,0.098,2.348c-0.024,0.549-0.185,1.001-0.481,1.356c-0.296,0.355-0.683,0.555-1.161,0.6
			c-0.659,0.062-1.307-0.188-1.942-0.752c-0.938-0.83-1.476-1.977-1.614-3.44c-0.106-1.126,0.058-2.101,0.492-2.924
			c0.251-0.465,0.533-0.712,0.849-0.742c0.14-0.013,0.282,0.005,0.429,0.057c0.226,0.079,0.545,0.254,0.959,0.527
			c0.057,0.036,0.399,0.304,1.029,0.803c0.152-0.32,0.294-0.55,0.425-0.689c0.131-0.139,0.287-0.217,0.468-0.234
			c0.204-0.02,0.451,0.041,0.741,0.182C568.575,271.548,568.999,271.896,569.558,272.449z M566.627,272.637
			c-0.323-0.246-0.62-0.427-0.89-0.542c-0.271-0.116-0.513-0.164-0.729-0.144c-0.28,0.027-0.51,0.219-0.688,0.577
			c-0.307,0.617-0.408,1.478-0.304,2.58c0.099,1.05,0.357,1.807,0.774,2.271c0.418,0.464,0.837,0.676,1.257,0.636
			c0.303-0.028,0.505-0.198,0.605-0.507c0.1-0.315,0.118-0.923,0.057-1.824C566.622,274.368,566.595,273.353,566.627,272.637z
			 M574.61,273.508c-0.041-0.432-0.247-0.777-0.619-1.037c-0.371-0.259-0.913-0.355-1.625-0.288
			c-0.922,0.087-1.617,0.353-2.088,0.797c-0.355,0.339-0.512,0.743-0.468,1.209c0.042,0.443,0.242,0.792,0.602,1.046
			s0.896,0.348,1.606,0.281c0.928-0.088,1.636-0.357,2.122-0.81C574.498,274.375,574.654,273.975,574.61,273.508z"/>
		<path d="M579.871,281.042l-5.878,0.36c0.754,0.605,1.243,1.092,1.468,1.46s0.35,0.742,0.372,1.122
			c0.028,0.456-0.073,0.855-0.305,1.198c-0.231,0.343-0.611,0.61-1.14,0.801c-0.368,0.134-1.049,0.231-2.043,0.292l-2.842,0.174
			c-0.509,0.031-0.854,0.093-1.037,0.187c-0.137,0.067-0.241,0.173-0.314,0.319c-0.074,0.146-0.099,0.405-0.076,0.779l-0.315,0.02
			l-0.242-3.948l0.316-0.019l0.011,0.184c0.023,0.374,0.097,0.631,0.219,0.77c0.123,0.139,0.298,0.231,0.523,0.276
			c0.095,0.012,0.37,0.004,0.826-0.024l2.843-0.174c0.877-0.054,1.45-0.134,1.72-0.242s0.467-0.265,0.592-0.472
			c0.125-0.207,0.18-0.451,0.162-0.732c-0.018-0.287-0.111-0.58-0.282-0.881c-0.172-0.301-0.501-0.653-0.99-1.058l-4.245,0.26
			c-0.55,0.034-0.891,0.085-1.021,0.155c-0.131,0.07-0.236,0.191-0.316,0.363c-0.081,0.172-0.108,0.463-0.083,0.872l-0.316,0.02
			l-0.243-3.983l0.315-0.019c0.022,0.356,0.095,0.634,0.219,0.832c0.065,0.114,0.183,0.2,0.351,0.261
			c0.168,0.06,0.503,0.075,1.006,0.044l7.272-0.445c0.919-0.056,1.481-0.112,1.689-0.169c0.208-0.057,0.347-0.133,0.418-0.228
			c0.07-0.095,0.101-0.219,0.092-0.371c-0.008-0.123-0.067-0.319-0.178-0.588l0.3-0.142l1.13,2.344L579.871,281.042z"/>
		<path d="M578.531,290.303l-2.644,0.094l0.066,1.88l-0.614,0.021l-0.067-1.879l-5.218,0.186c-0.521,0.019-0.869,0.105-1.046,0.261
			c-0.176,0.156-0.26,0.351-0.252,0.585c0.007,0.193,0.074,0.378,0.2,0.556c0.127,0.177,0.309,0.311,0.547,0.402l0.012,0.343
			c-0.581-0.185-1.023-0.459-1.326-0.824c-0.304-0.364-0.462-0.746-0.477-1.144c-0.009-0.27,0.056-0.536,0.196-0.799
			c0.14-0.263,0.347-0.461,0.621-0.594c0.273-0.133,0.7-0.209,1.28-0.23l5.41-0.193l-0.045-1.274l0.289-0.01
			c0.141,0.317,0.37,0.639,0.69,0.965c0.319,0.326,0.694,0.613,1.125,0.861c0.228,0.127,0.641,0.3,1.241,0.519L578.531,290.303z"/>
		<path d="M576.297,298.34l-2.742,0.044l-0.005-0.29c0.857-0.236,1.438-0.532,1.744-0.885c0.305-0.354,0.452-0.8,0.444-1.339
			c-0.007-0.41-0.121-0.739-0.342-0.988s-0.463-0.371-0.727-0.366c-0.328,0.005-0.608,0.104-0.839,0.295
			c-0.237,0.186-0.486,0.559-0.747,1.12l-0.603,1.293c-0.562,1.198-1.316,1.806-2.265,1.821c-0.732,0.012-1.327-0.255-1.785-0.802
			c-0.457-0.546-0.69-1.162-0.702-1.848c-0.008-0.492,0.071-1.056,0.236-1.691c0.056-0.194,0.082-0.353,0.08-0.476
			c-0.002-0.135-0.08-0.239-0.233-0.312l-0.005-0.29l2.874-0.047l0.005,0.29c-0.818,0.177-1.431,0.501-1.84,0.971
			c-0.408,0.469-0.607,0.991-0.599,1.565c0.007,0.404,0.131,0.732,0.372,0.983s0.529,0.374,0.863,0.368
			c0.404-0.006,0.741-0.154,1.013-0.442c0.271-0.289,0.61-0.861,1.018-1.718c0.408-0.856,0.78-1.419,1.116-1.688
			c0.329-0.269,0.749-0.408,1.259-0.416c0.662-0.011,1.219,0.207,1.672,0.654c0.452,0.447,0.685,1.031,0.696,1.751
			c0.005,0.316-0.056,0.701-0.184,1.154c-0.083,0.3-0.124,0.5-0.122,0.6c0.002,0.094,0.023,0.167,0.065,0.219
			c0.042,0.052,0.134,0.112,0.275,0.18L576.297,298.34z"/>
		<path d="M578.604,307.252l-2.645-0.064l-0.046,1.881l-0.614-0.016l0.045-1.88l-5.219-0.126c-0.521-0.013-0.875,0.054-1.061,0.198
			c-0.185,0.146-0.28,0.335-0.286,0.569c-0.005,0.193,0.051,0.382,0.167,0.566c0.115,0.185,0.289,0.33,0.521,0.435l-0.009,0.343
			c-0.569-0.219-0.994-0.52-1.274-0.9c-0.281-0.383-0.417-0.773-0.407-1.171c0.007-0.27,0.088-0.531,0.243-0.786
			c0.155-0.254,0.374-0.439,0.655-0.555c0.281-0.117,0.712-0.168,1.292-0.154l5.412,0.131l0.03-1.273l0.29,0.007
			c0.121,0.325,0.332,0.659,0.631,1.005c0.3,0.344,0.657,0.652,1.072,0.926c0.22,0.141,0.622,0.338,1.208,0.592L578.604,307.252z"/>
		<path d="M575.942,313.936c-0.061,1.217-0.571,2.172-1.533,2.863c-0.821,0.586-1.743,0.854-2.768,0.803
			c-0.72-0.035-1.439-0.244-2.16-0.626c-0.72-0.382-1.253-0.885-1.597-1.509c-0.345-0.625-0.498-1.309-0.462-2.052
			c0.061-1.212,0.592-2.15,1.593-2.815c0.843-0.562,1.771-0.818,2.783-0.769c0.737,0.036,1.462,0.256,2.172,0.657
			c0.71,0.402,1.225,0.91,1.543,1.525C575.833,312.627,575.976,313.268,575.942,313.936z M575.385,313.635
			c0.016-0.311-0.061-0.627-0.229-0.949s-0.479-0.591-0.933-0.807c-0.452-0.217-1.042-0.342-1.768-0.379
			c-1.17-0.059-2.191,0.125-3.063,0.548c-0.871,0.423-1.326,1.015-1.364,1.775c-0.027,0.567,0.183,1.048,0.633,1.439
			s1.245,0.616,2.387,0.673c1.428,0.071,2.566-0.18,3.417-0.754C575.046,314.794,575.354,314.278,575.385,313.635z"/>
		<path d="M567.767,327.582c-0.556-0.885-0.873-1.437-0.951-1.656c-0.115-0.329-0.155-0.672-0.121-1.027
			c0.055-0.555,0.288-0.992,0.702-1.313s0.931-0.452,1.549-0.392c0.391,0.037,0.721,0.158,0.989,0.361
			c0.373,0.277,0.706,0.729,0.998,1.355s0.622,1.651,0.989,3.077l0.314,0.03c0.799,0.078,1.359,0.005,1.682-0.22
			s0.507-0.579,0.555-1.063c0.035-0.367-0.035-0.668-0.213-0.903c-0.177-0.241-0.393-0.374-0.649-0.399l-0.509-0.031
			c-0.269-0.027-0.469-0.115-0.602-0.267c-0.132-0.151-0.188-0.338-0.166-0.56c0.021-0.216,0.114-0.385,0.279-0.507
			s0.379-0.171,0.641-0.146c0.502,0.049,0.938,0.352,1.308,0.905c0.369,0.554,0.509,1.295,0.419,2.222
			c-0.069,0.712-0.246,1.283-0.529,1.715c-0.215,0.326-0.522,0.553-0.923,0.679c-0.262,0.08-0.779,0.082-1.556,0.007l-2.72-0.266
			c-0.765-0.074-1.233-0.105-1.408-0.093c-0.175,0.012-0.295,0.049-0.36,0.11c-0.064,0.062-0.102,0.136-0.109,0.224
			c-0.01,0.093,0.003,0.177,0.037,0.25c0.063,0.13,0.254,0.388,0.569,0.771l-0.49-0.048c-0.811-0.738-1.188-1.405-1.129-2
			c0.027-0.286,0.149-0.504,0.364-0.653C566.94,327.595,567.288,327.541,567.767,327.582z M568.335,327.637l3.053,0.298
			c-0.264-0.914-0.456-1.507-0.577-1.778c-0.212-0.485-0.447-0.842-0.708-1.066c-0.261-0.226-0.557-0.355-0.89-0.387
			c-0.42-0.041-0.78,0.05-1.082,0.273s-0.468,0.499-0.5,0.826C567.588,326.245,567.822,326.857,568.335,327.637z"/>
		<path d="M575.066,352.815l-0.321-0.052c0.05-0.307,0.034-0.564-0.045-0.772c-0.08-0.209-0.256-0.424-0.529-0.646
			c-0.184-0.148-0.638-0.408-1.361-0.778l-8.961-4.799l0.056-0.348l7.953-1.478l-7.098-3.868l0.05-0.312l10.332-1.934
			c0.771-0.144,1.229-0.239,1.372-0.287c0.238-0.081,0.428-0.213,0.566-0.395c0.139-0.183,0.235-0.445,0.29-0.786l0.321,0.052
			l-0.697,4.356l-0.321-0.052l0.034-0.208c0.049-0.307,0.017-0.553-0.096-0.736c-0.113-0.185-0.269-0.292-0.465-0.323
			c-0.203-0.033-0.688,0.02-1.458,0.158l-6.976,1.26l5.303,2.852l1.045-0.189l0.834-0.15c0.309-0.075,0.585-0.171,0.829-0.286
			c0.122-0.058,0.229-0.136,0.322-0.233c0.127-0.128,0.226-0.261,0.295-0.397c0.052-0.104,0.098-0.275,0.135-0.513l0.321,0.052
			l-0.733,4.582l-0.32-0.052l0.05-0.312c0.052-0.323,0.021-0.572-0.095-0.744c-0.114-0.173-0.291-0.278-0.528-0.316
			c-0.295-0.047-0.83,0.001-1.606,0.144l-6.758,1.232l6.125,3.276c0.677,0.37,1.153,0.577,1.432,0.621
			c0.133,0.021,0.264-0.001,0.393-0.066c0.13-0.065,0.228-0.157,0.294-0.277c0.116-0.207,0.203-0.487,0.259-0.84l0.321,0.052
			L575.066,352.815z"/>
		<path d="M570.696,355.566c-0.243,1.194-0.893,2.061-1.947,2.599c-0.9,0.456-1.854,0.581-2.858,0.376
			c-0.706-0.145-1.386-0.46-2.04-0.946s-1.104-1.064-1.351-1.733s-0.295-1.368-0.146-2.098c0.242-1.188,0.909-2.036,1.999-2.543
			c0.919-0.428,1.875-0.541,2.868-0.338c0.724,0.147,1.406,0.474,2.047,0.979c0.642,0.505,1.073,1.085,1.296,1.74
			C570.786,354.257,570.83,354.912,570.696,355.566z M570.191,355.186c0.062-0.305,0.034-0.629-0.084-0.973
			c-0.118-0.345-0.385-0.657-0.8-0.939c-0.414-0.282-0.978-0.496-1.689-0.642c-1.148-0.234-2.186-0.208-3.111,0.078
			c-0.925,0.286-1.464,0.803-1.616,1.549c-0.114,0.558,0.021,1.063,0.407,1.519c0.385,0.456,1.138,0.798,2.257,1.026
			c1.401,0.286,2.564,0.21,3.492-0.229C569.681,356.28,570.062,355.816,570.191,355.186z"/>
		<path d="M569.079,362.964l-1.764-0.412c1.022,0.931,1.453,1.741,1.292,2.432c-0.073,0.314-0.229,0.552-0.469,0.712
			c-0.239,0.161-0.484,0.212-0.735,0.153c-0.223-0.052-0.394-0.17-0.513-0.354c-0.119-0.184-0.155-0.379-0.107-0.584
			c0.047-0.2,0.197-0.401,0.452-0.604s0.396-0.363,0.424-0.482c0.024-0.104-0.007-0.228-0.093-0.374
			c-0.174-0.312-0.497-0.667-0.97-1.065l-3.758-0.877c-0.434-0.102-0.774-0.124-1.021-0.067c-0.172,0.038-0.331,0.14-0.478,0.304
			s-0.261,0.423-0.344,0.777l-0.308-0.072l0.937-4.014l0.308,0.071c-0.093,0.399-0.1,0.711-0.019,0.935
			c0.058,0.164,0.18,0.298,0.366,0.401c0.09,0.051,0.363,0.13,0.82,0.236l3.038,0.709c0.913,0.213,1.461,0.321,1.644,0.325
			s0.326-0.035,0.429-0.116c0.104-0.082,0.172-0.196,0.207-0.345c0.041-0.177,0.045-0.387,0.012-0.629l0.328-0.014l0.405,2.595
			L569.079,362.964z"/>
		<path d="M571.687,370.031l-7.752-2.039l1.29,2.457c0.274,0.521,0.454,0.828,0.538,0.923c0.057,0.063,0.118,0.104,0.187,0.122
			c0.113,0.029,0.224,0.009,0.33-0.063c0.106-0.071,0.194-0.214,0.262-0.426l0.272,0.071l-0.89,3.383l-0.272-0.071
			c0.111-0.468,0.142-0.873,0.093-1.216c-0.049-0.344-0.192-0.743-0.43-1.199l-1.319-2.482l-3.05,1.333
			c-0.843,0.372-1.383,0.63-1.621,0.773c-0.338,0.202-0.573,0.395-0.706,0.577c-0.094,0.127-0.188,0.366-0.279,0.718l-0.307-0.081
			l0.995-3.782l0.306,0.08c-0.051,0.217-0.057,0.372-0.017,0.464c0.039,0.092,0.112,0.152,0.22,0.181
			c0.131,0.034,0.37-0.023,0.719-0.175l3.68-1.586l-2.584-0.68c-0.504-0.132-0.845-0.185-1.022-0.155
			c-0.177,0.029-0.317,0.101-0.419,0.213c-0.103,0.112-0.214,0.386-0.334,0.82l-0.307-0.08l1.042-3.961l0.306,0.08
			c-0.104,0.396-0.134,0.707-0.09,0.931c0.031,0.136,0.104,0.252,0.218,0.349c0.164,0.134,0.477,0.261,0.936,0.382l7.089,1.864
			c0.9,0.237,1.457,0.362,1.669,0.376c0.211,0.013,0.367-0.016,0.468-0.086c0.101-0.071,0.17-0.18,0.209-0.327
			c0.031-0.119,0.029-0.311-0.004-0.573l0.335-0.066l0.345,2.562L571.687,370.031z"/>
		<path d="M562.8,382.653l-5.053-1.572c-0.716-0.224-1.193-0.286-1.433-0.188c-0.311,0.13-0.52,0.369-0.627,0.716l-0.218,0.696
			l-0.302-0.094l1.43-4.591l0.302,0.095l-0.107,0.344c-0.069,0.224-0.077,0.445-0.022,0.665c0.054,0.22,0.166,0.394,0.334,0.522
			c0.169,0.13,0.526,0.279,1.075,0.45l5.052,1.573l0.465-1.494l0.604,0.188l-0.465,1.493l0.503,0.157
			c0.767,0.238,1.377,0.563,1.832,0.975c0.455,0.412,0.768,0.922,0.937,1.53c0.17,0.608,0.156,1.229-0.04,1.86
			c-0.184,0.588-0.542,1.068-1.075,1.442c-0.353,0.246-0.686,0.32-0.999,0.223c-0.168-0.053-0.304-0.175-0.406-0.366
			c-0.104-0.191-0.129-0.371-0.076-0.539c0.04-0.129,0.129-0.25,0.266-0.363c0.137-0.114,0.39-0.228,0.759-0.34
			c0.369-0.111,0.634-0.238,0.794-0.378c0.16-0.141,0.274-0.317,0.34-0.529c0.08-0.258,0.08-0.497-0.002-0.719
			c-0.081-0.222-0.254-0.417-0.518-0.585s-0.994-0.438-2.191-0.811l-0.554-0.173l-0.616,1.98l-0.604-0.188L562.8,382.653z"/>
		<path d="M561.471,389.488c-0.395,1.153-1.149,1.93-2.264,2.328c-0.952,0.337-1.913,0.34-2.883,0.008
			c-0.682-0.233-1.316-0.633-1.902-1.199c-0.587-0.566-0.96-1.196-1.118-1.892s-0.117-1.396,0.124-2.099
			c0.393-1.148,1.162-1.903,2.308-2.267c0.967-0.308,1.929-0.297,2.888,0.031c0.699,0.239,1.334,0.649,1.905,1.232
			c0.572,0.582,0.926,1.213,1.062,1.892C561.727,388.201,561.688,388.856,561.471,389.488z M561.019,389.046
			c0.101-0.294,0.114-0.619,0.041-0.976s-0.298-0.7-0.673-1.033s-0.906-0.617-1.594-0.853c-1.109-0.379-2.141-0.486-3.096-0.32
			c-0.954,0.166-1.555,0.609-1.802,1.33c-0.184,0.537-0.114,1.057,0.21,1.558s1.026,0.937,2.107,1.307
			c1.353,0.463,2.517,0.536,3.492,0.22C560.372,390.066,560.81,389.655,561.019,389.046z"/>
		<path d="M558.926,396.606l-1.696-0.634c0.895,1.054,1.218,1.913,0.97,2.577c-0.112,0.302-0.298,0.518-0.556,0.646
			s-0.507,0.147-0.749,0.058c-0.214-0.08-0.368-0.219-0.463-0.417s-0.105-0.396-0.031-0.594c0.071-0.192,0.246-0.372,0.525-0.54
			c0.278-0.168,0.439-0.31,0.482-0.425c0.037-0.099,0.021-0.227-0.045-0.383c-0.133-0.331-0.408-0.725-0.825-1.181l-3.614-1.351
			c-0.418-0.156-0.753-0.222-1.006-0.197c-0.175,0.016-0.346,0.096-0.512,0.24c-0.167,0.145-0.313,0.387-0.44,0.727l-0.297-0.11
			l1.443-3.861l0.296,0.11c-0.144,0.385-0.189,0.692-0.139,0.924c0.036,0.17,0.141,0.318,0.312,0.445
			c0.083,0.062,0.344,0.176,0.783,0.34l2.923,1.092c0.878,0.328,1.407,0.506,1.588,0.532c0.181,0.027,0.328,0.007,0.44-0.061
			s0.196-0.173,0.249-0.315c0.063-0.17,0.095-0.377,0.092-0.622l0.327,0.028l0.07,2.625L558.926,396.606z"/>
		<path d="M557.223,407.459l-2.442-1.017l-0.723,1.736l-0.568-0.237l0.724-1.736l-4.819-2.007c-0.481-0.201-0.835-0.267-1.061-0.199
			c-0.225,0.068-0.383,0.211-0.473,0.427c-0.074,0.179-0.091,0.375-0.05,0.589s0.15,0.411,0.329,0.594l-0.132,0.316
			c-0.452-0.41-0.739-0.844-0.862-1.302c-0.124-0.458-0.109-0.87,0.044-1.238c0.104-0.249,0.274-0.464,0.512-0.644
			c0.236-0.181,0.507-0.274,0.812-0.281c0.304-0.006,0.725,0.102,1.26,0.325l4.998,2.082l0.489-1.177l0.269,0.111
			c-0.006,0.347,0.069,0.735,0.224,1.165c0.154,0.429,0.376,0.847,0.664,1.252c0.153,0.21,0.457,0.539,0.911,0.989L557.223,407.459z
			"/>
		<path d="M556.805,413.007l-5.375-2.404c0.387,0.886,0.595,1.543,0.624,1.974c0.028,0.43-0.034,0.819-0.19,1.167
			c-0.187,0.417-0.462,0.724-0.826,0.92c-0.363,0.197-0.824,0.258-1.381,0.182c-0.388-0.052-1.036-0.28-1.945-0.688l-2.6-1.163
			c-0.465-0.208-0.8-0.313-1.005-0.314c-0.152-0.004-0.294,0.041-0.427,0.136c-0.132,0.096-0.274,0.313-0.428,0.656l-0.289-0.129
			l1.615-3.61l0.289,0.129l-0.075,0.169c-0.153,0.342-0.208,0.604-0.163,0.783c0.044,0.181,0.156,0.343,0.335,0.487
			c0.079,0.055,0.326,0.175,0.744,0.361l2.599,1.163c0.803,0.359,1.348,0.554,1.637,0.583c0.288,0.029,0.536-0.019,0.743-0.144
			c0.207-0.126,0.368-0.317,0.482-0.574c0.117-0.262,0.17-0.565,0.158-0.911c-0.013-0.346-0.142-0.812-0.387-1.396l-3.883-1.737
			c-0.503-0.226-0.829-0.337-0.977-0.336c-0.148,0.001-0.298,0.059-0.449,0.175c-0.151,0.115-0.311,0.359-0.478,0.734l-0.289-0.129
			l1.63-3.643l0.289,0.129c-0.146,0.326-0.211,0.605-0.192,0.839c0.005,0.131,0.068,0.262,0.189,0.393s0.412,0.3,0.872,0.506
			l6.65,2.976c0.84,0.376,1.365,0.587,1.575,0.633c0.211,0.046,0.369,0.043,0.476-0.009s0.191-0.147,0.254-0.286
			c0.05-0.112,0.089-0.313,0.115-0.604l0.331,0.014l-0.085,2.6L556.805,413.007z"/>
		<path d="M546.63,417.267c-1.072-0.527-2.042-0.676-2.91-0.446c-0.867,0.23-1.474,0.701-1.819,1.413
			c-0.23,0.474-0.3,0.949-0.209,1.427s0.395,0.988,0.911,1.532l-0.276,0.169c-0.669-0.462-1.17-1.103-1.504-1.923
			c-0.335-0.82-0.308-1.631,0.082-2.433c0.422-0.869,1.122-1.449,2.101-1.739c0.978-0.291,2.039-0.158,3.183,0.397
			c1.238,0.602,2.05,1.388,2.435,2.36c0.385,0.972,0.344,1.937-0.122,2.896c-0.395,0.812-0.985,1.348-1.773,1.61
			c-0.789,0.262-1.631,0.175-2.527-0.26L546.63,417.267z M547.089,417.489l-1.628,3.353c0.477,0.198,0.83,0.302,1.061,0.31
			c0.359,0.012,0.687-0.072,0.981-0.251c0.296-0.179,0.513-0.41,0.65-0.695c0.213-0.438,0.233-0.911,0.061-1.422
			C548.042,418.273,547.667,417.842,547.089,417.489z"/>
		<path d="M543.845,427.881l-0.31,2.655l-0.161,0.293l-1.649-0.902c0.422,0.705,0.657,1.31,0.706,1.813
			c0.048,0.504-0.038,0.959-0.261,1.365c-0.388,0.71-0.988,1.149-1.803,1.318c-0.996,0.21-2.039,0.018-3.129-0.579
			c-1.219-0.666-2.035-1.566-2.45-2.701c-0.338-0.933-0.268-1.836,0.21-2.71c0.208-0.381,0.441-0.68,0.701-0.898
			c0.189-0.164,0.471-0.311,0.843-0.441l-2.152-1.176c-0.482-0.265-0.807-0.403-0.97-0.415c-0.163-0.013-0.323,0.033-0.48,0.138
			c-0.157,0.104-0.342,0.349-0.553,0.734l-0.285-0.156l2.023-3.701l0.286,0.156l-0.105,0.192c-0.16,0.28-0.238,0.551-0.234,0.813
			c0.003,0.129,0.053,0.254,0.149,0.377c0.096,0.123,0.401,0.325,0.915,0.606l6.679,3.65c0.458,0.25,0.76,0.389,0.905,0.415
			c0.146,0.026,0.274,0.011,0.386-0.045c0.11-0.057,0.208-0.162,0.292-0.315c0.067-0.124,0.117-0.301,0.149-0.53L543.845,427.881z
			 M541.27,429.678l-2.638-1.441c-0.571-0.312-0.959-0.494-1.164-0.546c-0.338-0.092-0.696-0.059-1.075,0.098
			c-0.38,0.157-0.686,0.448-0.919,0.875c-0.281,0.515-0.309,1.04-0.082,1.578c0.297,0.703,0.921,1.314,1.872,1.835
			c1.08,0.59,2.039,0.808,2.879,0.652c0.581-0.11,0.995-0.392,1.242-0.844c0.135-0.246,0.207-0.524,0.216-0.834
			C541.609,430.815,541.499,430.357,541.27,429.678z"/>
		<path d="M536.261,442.888l-4.2-2.48c-0.803-0.474-1.304-0.745-1.506-0.812c-0.201-0.068-0.361-0.081-0.481-0.04
			c-0.12,0.042-0.213,0.118-0.278,0.229c-0.092,0.156-0.153,0.358-0.184,0.606l-0.328-0.051l0.37-2.579l0.201-0.34l1.468,0.867
			c-0.294-0.978-0.432-1.671-0.414-2.082c0.019-0.411,0.131-0.791,0.336-1.139c0.229-0.389,0.541-0.659,0.934-0.812
			s0.799-0.18,1.218-0.082c0.418,0.098,0.95,0.337,1.597,0.719l3.095,1.828c0.328,0.193,0.576,0.292,0.744,0.296
			s0.326-0.043,0.477-0.142s0.33-0.331,0.539-0.697l0.28,0.165l-1.435,2.43l-4.64-2.74c-0.646-0.382-1.136-0.52-1.47-0.414
			c-0.334,0.104-0.596,0.316-0.783,0.635c-0.128,0.217-0.205,0.503-0.231,0.858s0.04,0.835,0.2,1.44l3.928,2.319
			c0.394,0.232,0.702,0.318,0.926,0.256c0.224-0.062,0.475-0.316,0.753-0.765l0.28,0.166L536.261,442.888z"/>
		<path d="M534.11,446.792l-1.533-0.964c0.663,1.213,0.807,2.119,0.429,2.72c-0.171,0.272-0.396,0.446-0.675,0.521
			s-0.526,0.042-0.745-0.095c-0.193-0.122-0.316-0.289-0.369-0.502c-0.053-0.214-0.023-0.409,0.089-0.588
			c0.109-0.174,0.317-0.314,0.624-0.423s0.493-0.214,0.559-0.318c0.056-0.09,0.067-0.218,0.033-0.384
			c-0.062-0.352-0.253-0.792-0.569-1.323l-3.267-2.054c-0.377-0.237-0.691-0.369-0.944-0.396c-0.175-0.021-0.357,0.023-0.55,0.132
			c-0.192,0.107-0.385,0.314-0.578,0.622l-0.269-0.168l2.194-3.49l0.268,0.169c-0.218,0.347-0.326,0.639-0.322,0.876
			c0.001,0.174,0.073,0.341,0.215,0.499c0.069,0.078,0.302,0.242,0.699,0.491l2.641,1.661c0.794,0.499,1.276,0.779,1.448,0.843
			c0.172,0.062,0.319,0.072,0.443,0.029s0.227-0.129,0.308-0.258c0.097-0.154,0.169-0.352,0.216-0.592l0.314,0.095l-0.462,2.585
			L534.11,446.792z"/>
		<path d="M531.555,448.94l-0.543,2.618l-0.186,0.277l-1.564-1.045c0.358,0.74,0.54,1.362,0.543,1.869
			c0.004,0.506-0.123,0.952-0.38,1.337c-0.449,0.672-1.086,1.057-1.912,1.153c-1.011,0.121-2.033-0.163-3.065-0.854
			c-1.155-0.771-1.889-1.74-2.201-2.907c-0.255-0.959-0.105-1.853,0.448-2.682c0.241-0.36,0.5-0.638,0.778-0.833
			c0.203-0.146,0.496-0.268,0.878-0.364l-2.039-1.362c-0.458-0.306-0.768-0.473-0.93-0.499c-0.161-0.027-0.325,0.005-0.491,0.095
			s-0.371,0.317-0.615,0.683l-0.271-0.181l2.344-3.508l0.271,0.181l-0.122,0.183c-0.184,0.265-0.286,0.528-0.306,0.79
			c-0.008,0.128,0.03,0.258,0.115,0.389c0.086,0.131,0.372,0.359,0.859,0.685l6.329,4.228c0.434,0.289,0.722,0.454,0.865,0.493
			c0.143,0.039,0.271,0.035,0.387-0.011c0.116-0.046,0.223-0.143,0.32-0.288c0.078-0.117,0.143-0.289,0.195-0.515L531.555,448.94z
			 M528.831,450.503l-2.5-1.669c-0.541-0.361-0.911-0.577-1.111-0.647c-0.328-0.12-0.688-0.12-1.079,0.003
			c-0.393,0.122-0.723,0.386-0.993,0.79c-0.325,0.487-0.399,1.009-0.221,1.564c0.233,0.727,0.801,1.392,1.702,1.993
			c1.023,0.684,1.96,0.985,2.81,0.904c0.589-0.058,1.026-0.301,1.312-0.729c0.156-0.234,0.252-0.505,0.288-0.812
			C529.068,451.666,528.999,451.2,528.831,450.503z"/>
		<path d="M524.691,460.812c-0.71,0.99-1.657,1.516-2.84,1.577c-1.008,0.048-1.929-0.227-2.762-0.823
			c-0.586-0.42-1.078-0.986-1.477-1.697s-0.573-1.422-0.525-2.134c0.049-0.711,0.29-1.369,0.724-1.974
			c0.707-0.986,1.661-1.487,2.863-1.505c1.014-0.017,1.933,0.271,2.756,0.861c0.601,0.431,1.09,1.007,1.47,1.729
			s0.537,1.429,0.472,2.117C525.308,459.652,525.08,460.269,524.691,460.812z M524.386,460.257c0.181-0.252,0.287-0.56,0.32-0.922
			c0.032-0.362-0.083-0.757-0.347-1.184s-0.69-0.852-1.281-1.275c-0.952-0.683-1.909-1.082-2.871-1.198
			c-0.962-0.117-1.665,0.135-2.108,0.754c-0.331,0.461-0.414,0.979-0.248,1.552s0.713,1.193,1.642,1.858
			c1.162,0.833,2.256,1.238,3.28,1.217C523.473,461.048,524.01,460.781,524.386,460.257z"/>
		<path d="M518.477,469.162l-2.181-1.663l0.176-0.23c0.819,0.345,1.459,0.473,1.917,0.385c0.459-0.09,0.852-0.349,1.178-0.777
			c0.249-0.326,0.363-0.655,0.344-0.986c-0.02-0.332-0.135-0.578-0.344-0.737c-0.262-0.199-0.542-0.296-0.842-0.288
			c-0.301-0.002-0.728,0.138-1.279,0.417l-1.274,0.642c-1.183,0.595-2.151,0.604-2.906,0.028c-0.582-0.444-0.884-1.022-0.904-1.734
			s0.177-1.341,0.592-1.886c0.299-0.392,0.71-0.785,1.233-1.182c0.163-0.119,0.283-0.227,0.357-0.324
			c0.082-0.107,0.085-0.237,0.01-0.391l0.176-0.23l2.286,1.742l-0.176,0.23c-0.752-0.366-1.434-0.492-2.045-0.376
			c-0.612,0.115-1.092,0.402-1.439,0.858c-0.245,0.322-0.351,0.656-0.316,1.003c0.034,0.346,0.184,0.621,0.449,0.823
			c0.321,0.245,0.678,0.338,1.069,0.279c0.392-0.06,1.013-0.299,1.863-0.719s1.49-0.632,1.921-0.635
			c0.425-0.008,0.841,0.144,1.246,0.452c0.526,0.401,0.829,0.918,0.908,1.549c0.078,0.631-0.101,1.233-0.537,1.807
			c-0.192,0.252-0.479,0.516-0.859,0.793c-0.251,0.185-0.406,0.316-0.467,0.396c-0.057,0.074-0.085,0.146-0.084,0.212
			c0,0.066,0.035,0.171,0.104,0.312L518.477,469.162z"/>
		<path d="M513.888,469.708c-0.926-0.755-1.838-1.118-2.735-1.089c-0.896,0.029-1.594,0.352-2.09,0.967
			c-0.331,0.411-0.507,0.858-0.525,1.344s0.162,1.052,0.544,1.698l-0.308,0.102c-0.548-0.6-0.893-1.337-1.033-2.211
			c-0.142-0.875,0.067-1.659,0.627-2.352c0.606-0.753,1.42-1.16,2.438-1.224c1.019-0.062,2.022,0.305,3.012,1.104
			c1.072,0.864,1.686,1.813,1.842,2.847s-0.101,1.965-0.77,2.795c-0.567,0.702-1.264,1.093-2.091,1.171s-1.629-0.196-2.403-0.821
			L513.888,469.708z M514.285,470.028l-2.341,2.9c0.42,0.301,0.741,0.48,0.964,0.54c0.348,0.093,0.686,0.084,1.014-0.023
			c0.328-0.108,0.591-0.285,0.79-0.531c0.306-0.379,0.432-0.836,0.378-1.372C515.037,471.006,514.769,470.501,514.285,470.028z"/>
		<path d="M506.554,483.5c-0.81,0.91-1.806,1.334-2.988,1.271c-1.008-0.058-1.895-0.427-2.661-1.107
			c-0.538-0.479-0.969-1.093-1.291-1.842c-0.321-0.749-0.422-1.475-0.299-2.177c0.123-0.703,0.432-1.332,0.926-1.889
			c0.806-0.906,1.808-1.306,3.005-1.197c1.01,0.09,1.894,0.472,2.651,1.146c0.552,0.49,0.979,1.115,1.28,1.873
			c0.302,0.759,0.384,1.477,0.248,2.155C507.288,482.412,506.998,483.001,506.554,483.5z M506.308,482.917
			c0.207-0.232,0.345-0.527,0.415-0.884c0.07-0.357-0.003-0.762-0.221-1.214c-0.217-0.452-0.598-0.919-1.141-1.402
			c-0.876-0.778-1.786-1.275-2.73-1.492c-0.944-0.216-1.669-0.04-2.176,0.529c-0.377,0.425-0.514,0.931-0.408,1.519
			c0.104,0.587,0.584,1.261,1.438,2.02c1.068,0.95,2.113,1.468,3.135,1.553C505.317,483.607,505.88,483.398,506.308,482.917z"/>
		<path d="M500.297,489.042l-3.856-3.623c-0.547-0.513-0.948-0.778-1.206-0.795c-0.336-0.019-0.629,0.104-0.878,0.369l-0.499,0.532
			l-0.23-0.217l3.291-3.504l0.23,0.216l-0.246,0.263c-0.16,0.171-0.265,0.367-0.312,0.588c-0.047,0.222-0.022,0.427,0.072,0.617
			c0.095,0.189,0.352,0.48,0.771,0.874l3.856,3.622l1.071-1.14l0.461,0.433l-1.071,1.141l0.385,0.361
			c0.585,0.549,0.992,1.108,1.222,1.678c0.229,0.568,0.287,1.164,0.174,1.785s-0.396,1.173-0.85,1.655
			c-0.421,0.449-0.954,0.725-1.597,0.828c-0.425,0.066-0.757-0.012-0.996-0.236c-0.129-0.121-0.197-0.29-0.206-0.507
			c-0.009-0.218,0.047-0.39,0.167-0.519c0.093-0.098,0.226-0.168,0.398-0.211c0.172-0.043,0.449-0.034,0.83,0.026
			c0.382,0.061,0.675,0.063,0.881,0.007c0.205-0.056,0.384-0.165,0.536-0.327c0.185-0.197,0.289-0.413,0.312-0.647
			c0.024-0.235-0.046-0.485-0.21-0.752s-0.702-0.829-1.616-1.688l-0.423-0.397l-1.42,1.513l-0.462-0.434L500.297,489.042z"/>
		<path d="M487.121,496.139c-0.587-0.909-0.854-1.79-0.801-2.641s0.354-1.545,0.901-2.081c0.653-0.64,1.492-0.923,2.515-0.85
			s1.99,0.577,2.904,1.511c0.886,0.905,1.335,1.903,1.351,2.995c0.015,1.092-0.354,2.007-1.108,2.744
			c-0.565,0.554-1.177,0.858-1.834,0.916c-0.657,0.057-1.145-0.076-1.46-0.398c-0.155-0.159-0.23-0.338-0.224-0.537
			c0.006-0.198,0.102-0.388,0.286-0.568c0.247-0.242,0.511-0.345,0.792-0.309c0.157,0.019,0.368,0.14,0.634,0.364
			c0.265,0.225,0.533,0.33,0.808,0.316c0.27-0.018,0.534-0.153,0.793-0.407c0.419-0.41,0.604-0.895,0.557-1.455
			c-0.062-0.742-0.423-1.45-1.083-2.125c-0.672-0.687-1.434-1.128-2.285-1.323c-0.852-0.196-1.563-0.014-2.138,0.548
			c-0.41,0.402-0.642,0.902-0.693,1.503c-0.042,0.418,0.076,0.987,0.354,1.707L487.121,496.139z"/>
		<path d="M486.919,503.464c-0.897,0.824-1.932,1.146-3.102,0.964c-0.997-0.158-1.842-0.614-2.536-1.369
			c-0.487-0.531-0.854-1.185-1.099-1.963c-0.245-0.777-0.271-1.509-0.079-2.195c0.193-0.687,0.563-1.282,1.111-1.785
			c0.893-0.821,1.93-1.117,3.11-0.89c0.995,0.191,1.836,0.66,2.521,1.406c0.5,0.544,0.862,1.208,1.086,1.993s0.234,1.508,0.03,2.169
			C487.758,502.455,487.41,503.012,486.919,503.464z M486.732,502.858c0.229-0.21,0.396-0.489,0.502-0.837
			c0.106-0.348,0.073-0.758-0.098-1.229s-0.502-0.975-0.993-1.51c-0.794-0.863-1.649-1.449-2.566-1.76
			c-0.918-0.311-1.657-0.208-2.219,0.308c-0.418,0.385-0.604,0.874-0.56,1.47c0.046,0.595,0.455,1.312,1.229,2.154
			c0.967,1.052,1.955,1.672,2.963,1.86C485.678,503.446,486.258,503.295,486.732,502.858z"/>
		<path d="M480.162,507.225c0.026,1.478-0.285,2.494-0.934,3.053c-0.334,0.286-0.691,0.449-1.075,0.489
			c-0.383,0.04-0.81-0.07-1.28-0.33c-0.327-0.183-0.728-0.55-1.201-1.101l-2.241-2.605c-0.332-0.386-0.589-0.621-0.77-0.706
			c-0.145-0.068-0.298-0.088-0.46-0.056c-0.162,0.031-0.39,0.173-0.684,0.425l-0.206-0.239l3.019-2.597l0.206,0.24l-0.126,0.108
			c-0.284,0.245-0.446,0.459-0.484,0.644c-0.039,0.184-0.008,0.379,0.093,0.586c0.039,0.082,0.21,0.299,0.512,0.649l2.149,2.499
			c0.478,0.556,0.896,0.896,1.257,1.023c0.36,0.126,0.711,0.043,1.053-0.251c0.529-0.455,0.808-1.196,0.835-2.225l-2.769-3.219
			c-0.355-0.413-0.6-0.647-0.732-0.703c-0.173-0.075-0.34-0.097-0.5-0.062c-0.16,0.033-0.407,0.193-0.74,0.48l-0.206-0.24
			l3.019-2.597l0.206,0.24l-0.133,0.114c-0.312,0.268-0.453,0.527-0.427,0.778c0.026,0.252,0.231,0.6,0.613,1.044l1.948,2.266
			c0.631,0.732,1.031,1.165,1.202,1.296c0.171,0.132,0.315,0.196,0.435,0.195c0.118-0.002,0.235-0.053,0.351-0.151
			c0.124-0.107,0.245-0.269,0.36-0.484l0.307,0.154l-1.197,2.328l-0.287,0.246L480.162,507.225z"/>
		<path d="M475.82,516.25l-1.673-2.05l-1.457,1.189l-0.39-0.477l1.457-1.189l-3.301-4.044c-0.33-0.404-0.61-0.629-0.841-0.675
			c-0.23-0.047-0.437,0.004-0.618,0.152c-0.15,0.123-0.257,0.288-0.322,0.495c-0.064,0.208-0.062,0.435,0.01,0.679l-0.266,0.217
			c-0.204-0.574-0.253-1.093-0.146-1.554c0.106-0.462,0.314-0.819,0.623-1.071c0.209-0.17,0.461-0.279,0.755-0.326
			c0.294-0.048,0.577-0.002,0.848,0.136c0.271,0.138,0.591,0.431,0.958,0.881l3.424,4.193l0.987-0.806l0.183,0.225
			c-0.168,0.304-0.285,0.681-0.352,1.133c-0.066,0.451-0.068,0.924-0.006,1.417c0.036,0.258,0.148,0.691,0.337,1.302L475.82,516.25z
			"/>
		<path d="M470.297,517.579l-1.116-1.426c0.214,1.366,0.042,2.268-0.517,2.705c-0.254,0.198-0.524,0.285-0.812,0.261
			s-0.51-0.138-0.669-0.341c-0.141-0.18-0.2-0.379-0.178-0.598s0.117-0.393,0.283-0.522c0.161-0.127,0.404-0.189,0.729-0.188
			s0.536-0.034,0.634-0.11c0.083-0.065,0.137-0.182,0.161-0.35c0.06-0.352,0.03-0.831-0.088-1.438l-2.38-3.037
			c-0.274-0.351-0.525-0.582-0.754-0.693c-0.158-0.077-0.346-0.098-0.562-0.062c-0.218,0.036-0.469,0.166-0.755,0.391l-0.195-0.25
			l3.245-2.541l0.195,0.249c-0.323,0.253-0.523,0.491-0.601,0.716c-0.058,0.164-0.046,0.345,0.034,0.542
			c0.038,0.097,0.202,0.329,0.491,0.698l1.924,2.457c0.578,0.737,0.938,1.165,1.077,1.282c0.141,0.117,0.276,0.177,0.407,0.178
			c0.132,0.002,0.258-0.045,0.377-0.139c0.144-0.112,0.277-0.272,0.403-0.483l0.265,0.195l-1.31,2.276L470.297,517.579z"/>
		<path d="M465.099,521.557l-3.885-5.172c-0.303-0.403-0.533-0.649-0.692-0.739c-0.158-0.09-0.32-0.124-0.484-0.104
			s-0.397,0.146-0.702,0.374l-0.19-0.253l3.127-2.349l0.19,0.253c-0.313,0.235-0.502,0.425-0.563,0.566
			c-0.062,0.142-0.072,0.307-0.03,0.495c0.043,0.188,0.214,0.48,0.513,0.879l1.863,2.481c0.524,0.697,0.885,1.134,1.082,1.309
			c0.146,0.125,0.274,0.19,0.39,0.196c0.113,0.006,0.231-0.037,0.354-0.128c0.131-0.099,0.265-0.254,0.398-0.465l0.289,0.179
			l-1.349,2.244L465.099,521.557z M468.211,524.484c-0.197,0.148-0.417,0.205-0.658,0.171c-0.242-0.035-0.438-0.15-0.585-0.348
			c-0.148-0.196-0.205-0.417-0.173-0.661s0.147-0.44,0.344-0.588c0.197-0.148,0.419-0.205,0.665-0.17s0.442,0.151,0.591,0.348
			c0.147,0.197,0.204,0.416,0.17,0.658S468.412,524.333,468.211,524.484z"/>
		<path d="M460.498,522.921c-0.007,1.335-0.377,2.264-1.112,2.787c-0.673,0.479-1.465,0.609-2.376,0.391
			c-0.91-0.218-1.721-0.826-2.431-1.824c-0.829-1.165-1.11-2.378-0.843-3.64c0.229-1.083,0.751-1.915,1.567-2.496
			c0.382-0.272,0.819-0.479,1.312-0.621c0.492-0.142,1.042-0.22,1.649-0.235l4.837,6.796c0.53,0.744,0.874,1.189,1.032,1.336
			s0.297,0.224,0.418,0.231c0.12,0.008,0.238-0.029,0.353-0.11c0.134-0.096,0.273-0.253,0.42-0.472l0.278,0.18l-1.398,2.203
			l-0.322,0.229L460.498,522.921z M460.172,522.463l-2.793-3.925c-0.413-0.065-0.793-0.066-1.14-0.003
			c-0.348,0.063-0.656,0.192-0.929,0.386c-0.435,0.31-0.669,0.836-0.704,1.58s0.271,1.572,0.921,2.483
			c0.598,0.841,1.245,1.353,1.94,1.537c0.696,0.185,1.282,0.107,1.76-0.232c0.253-0.181,0.46-0.425,0.622-0.733
			C459.972,523.324,460.08,522.96,460.172,522.463z"/>
		<path d="M449.719,531.982l-2.694-4.066c-0.515-0.776-0.848-1.239-0.999-1.389c-0.152-0.148-0.291-0.23-0.417-0.246
			c-0.126-0.015-0.242,0.014-0.35,0.085c-0.151,0.1-0.295,0.255-0.431,0.464l-0.272-0.188l1.459-2.158l0.33-0.219l0.941,1.422
			c0.162-1.008,0.341-1.691,0.537-2.054s0.462-0.654,0.8-0.878c0.376-0.249,0.773-0.356,1.193-0.322s0.798,0.188,1.132,0.458
			s0.708,0.718,1.122,1.344l1.986,2.996c0.21,0.317,0.39,0.515,0.539,0.592c0.149,0.076,0.313,0.104,0.491,0.08
			s0.441-0.153,0.79-0.392l0.18,0.271l-2.353,1.559l-2.976-4.491c-0.415-0.625-0.796-0.964-1.143-1.015
			c-0.347-0.052-0.674,0.025-0.981,0.229c-0.21,0.14-0.404,0.363-0.583,0.672c-0.179,0.308-0.328,0.77-0.449,1.383l2.521,3.803
			c0.253,0.381,0.493,0.592,0.721,0.635c0.229,0.042,0.565-0.078,1.012-0.359l0.18,0.271L449.719,531.982z"/>
		<path d="M447.401,536.568l-1.404-2.242l-1.594,0.999l-0.327-0.521l1.595-0.999l-2.771-4.424c-0.277-0.442-0.527-0.7-0.75-0.775
			c-0.223-0.074-0.434-0.05-0.633,0.075c-0.163,0.103-0.29,0.253-0.381,0.451c-0.09,0.198-0.115,0.423-0.075,0.675l-0.29,0.182
			c-0.131-0.596-0.115-1.116,0.049-1.561c0.164-0.445,0.415-0.773,0.752-0.984c0.229-0.144,0.492-0.22,0.79-0.23
			c0.298-0.01,0.572,0.07,0.824,0.24c0.252,0.171,0.532,0.502,0.84,0.994l2.874,4.588l1.08-0.677l0.154,0.246
			c-0.205,0.28-0.368,0.641-0.49,1.08c-0.123,0.439-0.184,0.908-0.183,1.405c0.004,0.26,0.061,0.705,0.171,1.334L447.401,536.568z"
			/>
		<path d="M441.394,537.416l-3.332-5.545c-0.26-0.432-0.464-0.7-0.612-0.806s-0.306-0.156-0.472-0.152
			c-0.165,0.003-0.41,0.104-0.737,0.3l-0.163-0.271l3.353-2.015l0.163,0.271c-0.336,0.202-0.543,0.37-0.619,0.505
			s-0.104,0.298-0.08,0.489c0.022,0.191,0.162,0.501,0.419,0.928l1.598,2.659c0.45,0.748,0.764,1.22,0.941,1.413
			c0.132,0.14,0.254,0.218,0.367,0.235s0.235-0.013,0.365-0.091c0.141-0.085,0.289-0.225,0.444-0.421l0.269,0.208l-1.572,2.093
			L441.394,537.416z M444.188,540.649c-0.211,0.126-0.436,0.16-0.673,0.101c-0.236-0.059-0.419-0.193-0.546-0.404
			c-0.126-0.211-0.161-0.437-0.104-0.677c0.058-0.239,0.192-0.423,0.403-0.549c0.211-0.127,0.437-0.16,0.678-0.101
			c0.241,0.061,0.426,0.196,0.552,0.407c0.127,0.211,0.161,0.435,0.102,0.672C444.541,540.336,444.403,540.52,444.188,540.649z"/>
		<path d="M436.488,538.316c-0.261,1.454-0.763,2.392-1.508,2.813c-0.382,0.216-0.765,0.307-1.148,0.271s-0.781-0.227-1.192-0.572
			c-0.286-0.242-0.607-0.68-0.966-1.312l-1.693-2.991c-0.251-0.443-0.457-0.724-0.618-0.842c-0.128-0.096-0.274-0.144-0.44-0.145
			c-0.165,0-0.416,0.095-0.752,0.285l-0.156-0.275l3.465-1.962l0.155,0.275l-0.146,0.082c-0.326,0.186-0.525,0.364-0.6,0.537
			c-0.073,0.173-0.081,0.371-0.022,0.594c0.023,0.088,0.148,0.333,0.377,0.736l1.624,2.868c0.36,0.637,0.705,1.053,1.034,1.247
			s0.689,0.18,1.082-0.042c0.606-0.344,1.023-1.018,1.25-2.021l-2.092-3.694c-0.269-0.475-0.463-0.752-0.582-0.832
			c-0.155-0.107-0.314-0.16-0.479-0.158s-0.438,0.111-0.82,0.328l-0.155-0.275l3.465-1.962l0.155,0.275l-0.152,0.086
			c-0.357,0.202-0.547,0.43-0.569,0.681c-0.022,0.252,0.11,0.633,0.399,1.143l1.473,2.601c0.477,0.842,0.785,1.343,0.928,1.505
			c0.142,0.162,0.271,0.254,0.388,0.275c0.117,0.021,0.241-0.006,0.374-0.081c0.143-0.08,0.292-0.216,0.447-0.404l0.271,0.21
			l-1.626,2.052l-0.328,0.187L436.488,538.316z"/>
		<path d="M426.998,539.395c0.548-0.016,1.038,0.106,1.472,0.366c0.433,0.259,0.771,0.619,1.012,1.082
			c0.37,0.706,0.422,1.452,0.155,2.239c-0.266,0.787-0.814,1.398-1.645,1.833c-0.681,0.355-1.356,0.498-2.028,0.427l-1.512,0.79
			c-0.223,0.117-0.356,0.178-0.399,0.185c-0.043,0.006-0.08-0.003-0.112-0.025c-0.056-0.031-0.114-0.105-0.177-0.226
			c-0.071-0.135-0.106-0.234-0.108-0.3c0.002-0.034,0.019-0.069,0.05-0.105c0.03-0.036,0.157-0.112,0.381-0.229l0.927-0.484
			c-0.486-0.222-0.882-0.623-1.186-1.205c-0.348-0.664-0.391-1.366-0.129-2.104c0.262-0.739,0.82-1.332,1.677-1.78
			c0.354-0.185,0.741-0.321,1.164-0.41c0.125-0.317,0.189-0.57,0.192-0.761c0.004-0.19-0.022-0.337-0.076-0.44
			c-0.047-0.089-0.135-0.152-0.264-0.19s-0.327-0.01-0.596,0.084c-0.156,0.055-0.529,0.228-1.119,0.516
			c-1.083,0.533-1.795,0.86-2.136,0.979c-0.519,0.186-0.998,0.208-1.438,0.068c-0.44-0.141-0.772-0.423-0.995-0.849
			c-0.307-0.587-0.319-1.281-0.038-2.083c0.413-1.182,1.271-2.113,2.575-2.795c1.002-0.524,1.966-0.741,2.893-0.651
			c0.525,0.057,0.861,0.225,1.008,0.505c0.065,0.124,0.103,0.264,0.11,0.419c0.013,0.238-0.029,0.601-0.126,1.087
			c-0.012,0.065-0.13,0.484-0.354,1.257c0.354,0.02,0.62,0.063,0.798,0.133c0.179,0.068,0.31,0.184,0.394,0.345
			c0.096,0.182,0.133,0.433,0.112,0.754C427.46,538.145,427.3,538.668,426.998,539.395z M425.716,536.752
			c0.105-0.393,0.16-0.735,0.165-1.028c0.006-0.294-0.042-0.537-0.143-0.729c-0.131-0.25-0.396-0.389-0.794-0.418
			c-0.688-0.051-1.522,0.181-2.503,0.694c-0.935,0.489-1.538,1.015-1.81,1.576s-0.31,1.029-0.113,1.403
			c0.141,0.271,0.374,0.394,0.698,0.369c0.33-0.027,0.9-0.239,1.71-0.638C424.111,537.403,425.041,536.993,425.716,536.752z
			 M427.929,544.472c0.385-0.201,0.626-0.522,0.726-0.964c0.1-0.442-0.017-0.98-0.349-1.613c-0.429-0.821-0.938-1.364-1.527-1.632
			c-0.449-0.201-0.882-0.193-1.297,0.024c-0.395,0.206-0.642,0.523-0.741,0.953c-0.1,0.429,0.017,0.96,0.348,1.594
			c0.432,0.825,0.949,1.378,1.552,1.658C427.084,544.696,427.514,544.689,427.929,544.472z"/>
		<path d="M418.036,552.537l-1.125-2.395l-1.702,0.801l-0.262-0.558l1.702-0.8l-2.22-4.725c-0.223-0.473-0.439-0.759-0.651-0.859
			c-0.213-0.101-0.425-0.102-0.638-0.002c-0.175,0.082-0.318,0.217-0.432,0.402s-0.166,0.406-0.156,0.661l-0.311,0.146
			c-0.059-0.607,0.021-1.121,0.236-1.543c0.217-0.423,0.505-0.718,0.865-0.888c0.244-0.114,0.515-0.159,0.812-0.134
			s0.56,0.139,0.79,0.338c0.229,0.199,0.468,0.562,0.714,1.087l2.303,4.9l1.153-0.542l0.124,0.262
			c-0.237,0.254-0.442,0.592-0.616,1.014c-0.175,0.422-0.291,0.879-0.351,1.373c-0.027,0.259-0.023,0.707,0.011,1.345
			L418.036,552.537z"/>
		<path d="M410.876,553.138c-1.116,0.489-2.198,0.459-3.246-0.093c-0.892-0.473-1.544-1.178-1.955-2.117
			c-0.29-0.66-0.425-1.397-0.404-2.212c0.02-0.815,0.232-1.517,0.637-2.104c0.405-0.587,0.948-1.03,1.63-1.329
			c1.11-0.486,2.188-0.432,3.23,0.167c0.88,0.503,1.522,1.219,1.93,2.147c0.297,0.676,0.424,1.422,0.382,2.237
			c-0.042,0.814-0.268,1.502-0.675,2.062S411.488,552.869,410.876,553.138z M410.896,552.505c0.284-0.124,0.533-0.334,0.746-0.629
			s0.314-0.693,0.306-1.195c-0.009-0.501-0.159-1.085-0.451-1.75c-0.471-1.073-1.09-1.905-1.857-2.496
			c-0.769-0.591-1.501-0.733-2.198-0.428c-0.521,0.229-0.855,0.631-1.006,1.209c-0.149,0.577,0.005,1.39,0.464,2.436
			c0.574,1.31,1.308,2.216,2.201,2.72C409.707,552.72,410.306,552.764,410.896,552.505z"/>
		<path d="M395.03,551.905c0.544-0.892,0.896-1.421,1.058-1.59c0.243-0.25,0.532-0.438,0.866-0.566
			c0.52-0.198,1.016-0.185,1.488,0.043c0.473,0.227,0.82,0.631,1.042,1.211c0.14,0.366,0.179,0.715,0.117,1.046
			c-0.082,0.458-0.338,0.958-0.768,1.498c-0.431,0.541-1.201,1.294-2.312,2.258l0.112,0.296c0.287,0.75,0.603,1.219,0.947,1.407
			c0.345,0.188,0.744,0.195,1.198,0.021c0.346-0.132,0.583-0.33,0.715-0.593c0.137-0.266,0.159-0.52,0.067-0.76l-0.199-0.47
			c-0.096-0.252-0.105-0.471-0.029-0.657c0.076-0.186,0.219-0.318,0.427-0.397c0.202-0.078,0.395-0.07,0.578,0.023
			c0.183,0.093,0.321,0.263,0.415,0.509c0.181,0.471,0.104,0.995-0.227,1.573c-0.33,0.578-0.932,1.034-1.802,1.366
			c-0.667,0.256-1.258,0.353-1.771,0.291c-0.388-0.046-0.728-0.221-1.019-0.523c-0.188-0.197-0.422-0.66-0.7-1.388l-0.976-2.554
			c-0.274-0.717-0.456-1.151-0.545-1.302c-0.089-0.151-0.176-0.242-0.26-0.272c-0.084-0.031-0.167-0.03-0.249,0.001
			c-0.087,0.033-0.156,0.082-0.208,0.146c-0.087,0.115-0.232,0.399-0.436,0.854l-0.176-0.46c0.3-1.056,0.728-1.689,1.286-1.903
			c0.269-0.103,0.518-0.091,0.747,0.034C394.65,551.173,394.854,551.459,395.03,551.905z M395.234,552.439l1.096,2.865
			c0.7-0.645,1.146-1.081,1.334-1.311c0.34-0.406,0.553-0.775,0.639-1.109s0.069-0.657-0.051-0.969
			c-0.15-0.395-0.393-0.677-0.728-0.847s-0.655-0.196-0.962-0.079C396.146,551.149,395.704,551.633,395.234,552.439z"/>
		<path d="M381.754,558.534c-0.127-1.075,0.021-1.983,0.443-2.725c0.422-0.74,0.997-1.231,1.727-1.472
			c0.867-0.286,1.745-0.172,2.631,0.345c0.886,0.516,1.533,1.395,1.942,2.635c0.396,1.202,0.361,2.297-0.105,3.284
			c-0.468,0.986-1.202,1.646-2.203,1.976c-0.752,0.248-1.435,0.253-2.05,0.015s-0.994-0.571-1.136-1
			c-0.069-0.211-0.058-0.405,0.035-0.58c0.094-0.176,0.263-0.305,0.508-0.385c0.328-0.108,0.61-0.085,0.847,0.071
			c0.134,0.086,0.27,0.288,0.408,0.606c0.14,0.317,0.335,0.531,0.586,0.64c0.25,0.103,0.548,0.097,0.893-0.017
			c0.557-0.184,0.937-0.538,1.14-1.062c0.271-0.694,0.259-1.489-0.037-2.385c-0.301-0.912-0.79-1.645-1.469-2.194
			c-0.679-0.551-1.398-0.7-2.161-0.449c-0.545,0.181-0.974,0.528-1.284,1.044c-0.222,0.357-0.366,0.92-0.434,1.688L381.754,558.534z
			"/>
		<path d="M378.369,565.013c-1.169,0.346-2.238,0.179-3.209-0.5c-0.825-0.581-1.383-1.363-1.673-2.347
			c-0.204-0.691-0.245-1.44-0.123-2.246c0.123-0.806,0.422-1.475,0.897-2.006s1.069-0.902,1.783-1.113
			c1.163-0.344,2.225-0.152,3.185,0.572c0.809,0.61,1.357,1.401,1.645,2.373c0.209,0.709,0.241,1.464,0.097,2.268
			s-0.454,1.457-0.929,1.96C379.567,564.478,379.01,564.824,378.369,565.013z M378.469,564.388c0.298-0.088,0.571-0.265,0.819-0.53
			s0.399-0.648,0.454-1.146c0.055-0.499-0.021-1.097-0.228-1.793c-0.332-1.124-0.841-2.028-1.528-2.711s-1.396-0.916-2.127-0.7
			c-0.545,0.16-0.929,0.518-1.149,1.072c-0.222,0.554-0.17,1.379,0.153,2.475c0.404,1.371,1.019,2.363,1.841,2.976
			C377.263,564.451,377.851,564.57,378.469,564.388z"/>
		<path d="M370.561,565.453c-0.427,0.71-0.681,1.12-0.762,1.231c-0.202,0.279-0.436,0.516-0.701,0.709
			c-0.267,0.193-0.544,0.326-0.834,0.398c-0.489,0.122-0.945,0.084-1.368-0.112c-0.424-0.196-0.763-0.55-1.017-1.06
			c-0.415,0.828-0.799,1.399-1.149,1.713c-0.35,0.313-0.738,0.524-1.165,0.63c-0.415,0.104-0.81,0.089-1.184-0.044
			c-0.375-0.133-0.716-0.418-1.024-0.854c-0.207-0.299-0.398-0.801-0.574-1.506l-0.838-3.359c-0.122-0.489-0.242-0.815-0.361-0.979
			c-0.088-0.111-0.22-0.191-0.396-0.241s-0.437-0.032-0.783,0.055l-0.077-0.307l3.855-0.961l0.076,0.307l-0.162,0.04
			c-0.335,0.084-0.581,0.215-0.735,0.392c-0.108,0.124-0.166,0.292-0.173,0.506c0.001,0.102,0.059,0.381,0.172,0.835l0.838,3.36
			c0.158,0.637,0.347,1.066,0.565,1.29c0.312,0.309,0.714,0.402,1.202,0.28c0.302-0.075,0.586-0.227,0.853-0.452
			c0.267-0.227,0.564-0.599,0.895-1.116l-0.006-0.098l-0.108-0.362l-0.93-3.727c-0.133-0.535-0.246-0.86-0.338-0.976
			c-0.093-0.116-0.232-0.197-0.419-0.244c-0.187-0.048-0.479-0.021-0.877,0.078l-0.077-0.308l3.948-0.984l0.077,0.308
			c-0.432,0.107-0.717,0.232-0.854,0.375c-0.136,0.144-0.21,0.324-0.222,0.545c-0.004,0.104,0.052,0.389,0.168,0.854l0.838,3.36
			c0.158,0.637,0.366,1.071,0.623,1.303c0.342,0.302,0.736,0.396,1.186,0.284c0.307-0.076,0.591-0.234,0.851-0.475
			c0.41-0.368,0.703-0.74,0.881-1.116l-1.044-4.188c-0.127-0.512-0.245-0.835-0.354-0.971s-0.243-0.225-0.402-0.267
			c-0.158-0.042-0.45-0.011-0.877,0.096l-0.076-0.307l3.863-0.963l0.076,0.307c-0.358,0.089-0.599,0.19-0.722,0.303
			c-0.123,0.111-0.2,0.261-0.232,0.447c-0.032,0.186,0.012,0.521,0.132,1.004l0.744,2.984c0.215,0.858,0.378,1.407,0.492,1.645
			c0.086,0.178,0.181,0.291,0.284,0.341c0.103,0.05,0.229,0.057,0.376,0.02c0.159-0.04,0.339-0.13,0.539-0.271l0.205,0.275
			l-2.116,1.542l-0.366,0.091L370.561,565.453z"/>
		<path d="M356.758,568.73c-0.463,0.687-0.738,1.084-0.825,1.19c-0.216,0.269-0.462,0.493-0.737,0.672s-0.561,0.297-0.854,0.354
			c-0.494,0.096-0.948,0.035-1.361-0.183c-0.412-0.219-0.732-0.589-0.959-1.112c-0.458,0.806-0.87,1.356-1.236,1.651
			s-0.766,0.485-1.197,0.569c-0.419,0.081-0.812,0.046-1.18-0.106s-0.693-0.454-0.979-0.906c-0.191-0.309-0.356-0.82-0.495-1.533
			l-0.662-3.399c-0.097-0.494-0.199-0.826-0.311-0.996c-0.082-0.115-0.209-0.202-0.382-0.261c-0.173-0.06-0.435-0.055-0.785,0.014
			l-0.061-0.311l3.899-0.759l0.061,0.311l-0.164,0.031c-0.339,0.066-0.591,0.184-0.755,0.354c-0.114,0.117-0.181,0.282-0.199,0.495
			c-0.004,0.103,0.039,0.384,0.129,0.844l0.661,3.398c0.126,0.645,0.292,1.084,0.499,1.318c0.296,0.324,0.691,0.438,1.186,0.342
			c0.305-0.06,0.597-0.195,0.874-0.407c0.278-0.213,0.596-0.568,0.952-1.067l-0.001-0.099l-0.09-0.367l-0.734-3.771
			c-0.105-0.54-0.201-0.871-0.287-0.991c-0.086-0.121-0.221-0.209-0.405-0.266s-0.478-0.046-0.88,0.032l-0.061-0.311l3.994-0.778
			l0.061,0.311c-0.438,0.086-0.728,0.196-0.871,0.331c-0.145,0.136-0.228,0.313-0.25,0.532c-0.01,0.104,0.031,0.391,0.123,0.862
			l0.662,3.399c0.125,0.645,0.311,1.089,0.555,1.334c0.325,0.318,0.715,0.434,1.169,0.345c0.311-0.061,0.602-0.203,0.874-0.43
			c0.429-0.346,0.741-0.702,0.938-1.069l-0.825-4.235c-0.101-0.518-0.202-0.848-0.305-0.988c-0.102-0.142-0.23-0.237-0.387-0.287
			c-0.156-0.051-0.45-0.034-0.882,0.05l-0.061-0.311l3.908-0.761l0.061,0.311c-0.362,0.07-0.607,0.159-0.736,0.265
			s-0.214,0.25-0.256,0.435c-0.041,0.185-0.015,0.521,0.081,1.01l0.588,3.02c0.169,0.868,0.304,1.424,0.405,1.667
			c0.077,0.182,0.166,0.3,0.266,0.355c0.101,0.055,0.226,0.068,0.375,0.039c0.161-0.031,0.346-0.112,0.553-0.242l0.19,0.285
			l-2.193,1.431l-0.371,0.072L356.758,568.73z"/>
		<path d="M341.557,573.183c-1.205,0.182-2.242-0.131-3.11-0.936c-0.737-0.688-1.184-1.54-1.336-2.554
			c-0.107-0.713-0.046-1.46,0.187-2.241c0.231-0.782,0.619-1.403,1.163-1.864c0.543-0.462,1.183-0.748,1.919-0.858
			c1.199-0.182,2.225,0.152,3.075,1.002c0.719,0.716,1.153,1.574,1.305,2.576c0.11,0.73,0.038,1.483-0.215,2.26
			c-0.253,0.775-0.649,1.381-1.188,1.814S342.217,573.082,341.557,573.183z M341.74,572.576c0.308-0.046,0.603-0.184,0.885-0.413
			s0.484-0.587,0.606-1.073c0.122-0.487,0.129-1.09,0.021-1.808c-0.175-1.159-0.556-2.124-1.143-2.895
			c-0.588-0.771-1.258-1.099-2.011-0.985c-0.562,0.085-0.991,0.387-1.286,0.905s-0.357,1.343-0.187,2.473
			c0.213,1.413,0.685,2.479,1.416,3.199C340.537,572.474,341.104,572.673,341.74,572.576z"/>
		<path d="M333.854,572.521c-0.805,1.238-1.632,1.907-2.481,2.007c-0.437,0.052-0.824-0.014-1.164-0.195s-0.632-0.512-0.877-0.99
			c-0.169-0.334-0.296-0.862-0.38-1.583l-0.4-3.414c-0.06-0.506-0.14-0.845-0.243-1.016c-0.08-0.138-0.197-0.239-0.35-0.304
			c-0.151-0.065-0.42-0.075-0.804-0.03l-0.037-0.313l3.954-0.464l0.037,0.314l-0.166,0.02c-0.372,0.044-0.626,0.131-0.761,0.262
			c-0.136,0.131-0.219,0.311-0.252,0.538c-0.013,0.09,0.008,0.365,0.062,0.825l0.384,3.273c0.085,0.728,0.241,1.244,0.469,1.551
			s0.565,0.434,1.014,0.382c0.692-0.082,1.338-0.541,1.937-1.378l-0.494-4.216c-0.063-0.541-0.135-0.872-0.214-0.993
			c-0.101-0.159-0.228-0.27-0.379-0.331c-0.152-0.062-0.446-0.067-0.883-0.017l-0.037-0.313l3.955-0.464l0.036,0.314l-0.174,0.021
			c-0.407,0.048-0.671,0.184-0.789,0.406c-0.118,0.224-0.144,0.626-0.075,1.208l0.348,2.968c0.112,0.961,0.202,1.543,0.271,1.747
			c0.068,0.205,0.152,0.339,0.251,0.404c0.1,0.065,0.225,0.089,0.376,0.071c0.163-0.02,0.353-0.086,0.569-0.199l0.168,0.299
			l-2.295,1.26l-0.376,0.044L333.854,572.521z"/>
		<path d="M322.113,575.425l-0.239-2.731l0.289-0.025c0.297,0.838,0.632,1.397,1.007,1.676c0.374,0.279,0.83,0.396,1.367,0.349
			c0.408-0.036,0.729-0.173,0.961-0.41c0.231-0.238,0.337-0.488,0.313-0.751c-0.028-0.327-0.146-0.6-0.354-0.816
			c-0.202-0.224-0.592-0.445-1.17-0.665l-1.333-0.51c-1.234-0.475-1.895-1.185-1.977-2.13c-0.064-0.73,0.16-1.342,0.673-1.837
			s1.11-0.772,1.793-0.832c0.49-0.043,1.059-0.004,1.704,0.116c0.198,0.041,0.358,0.057,0.48,0.046
			c0.135-0.012,0.233-0.097,0.296-0.255l0.289-0.025l0.25,2.863l-0.289,0.025c-0.234-0.804-0.601-1.392-1.099-1.766
			c-0.497-0.374-1.031-0.536-1.604-0.486c-0.402,0.035-0.721,0.182-0.954,0.44s-0.335,0.555-0.307,0.887
			c0.035,0.403,0.206,0.729,0.514,0.979c0.308,0.25,0.902,0.548,1.785,0.895c0.883,0.346,1.471,0.677,1.763,0.992
			c0.292,0.311,0.46,0.719,0.505,1.227c0.058,0.66-0.12,1.231-0.534,1.714c-0.413,0.483-0.979,0.757-1.697,0.819
			c-0.315,0.027-0.703-0.006-1.165-0.102c-0.305-0.062-0.507-0.088-0.606-0.079c-0.094,0.009-0.164,0.035-0.213,0.081
			c-0.05,0.045-0.104,0.141-0.16,0.287L322.113,575.425z"/>
		<path d="M311.643,576.048c-1.217,0.05-2.215-0.372-2.99-1.267c-0.659-0.764-1.01-1.658-1.053-2.683
			c-0.029-0.721,0.113-1.456,0.428-2.208s0.768-1.328,1.357-1.728c0.59-0.4,1.258-0.615,2.001-0.646
			c1.212-0.05,2.194,0.393,2.949,1.329c0.637,0.789,0.976,1.689,1.019,2.702c0.03,0.738-0.123,1.479-0.458,2.223
			s-0.795,1.303-1.378,1.676C312.936,575.819,312.311,576.02,311.643,576.048z M311.891,575.466
			c0.311-0.014,0.619-0.118,0.924-0.315c0.307-0.198,0.546-0.532,0.72-1.002c0.175-0.471,0.246-1.069,0.216-1.795
			c-0.049-1.171-0.322-2.171-0.824-3.001c-0.5-0.829-1.131-1.229-1.893-1.196c-0.566,0.023-1.025,0.276-1.375,0.761
			c-0.35,0.483-0.5,1.296-0.453,2.438c0.059,1.429,0.413,2.54,1.062,3.334C310.706,575.233,311.248,575.492,311.891,575.466z"/>
		<path d="M303.277,575.401l-0.086-5.291c-0.012-0.75-0.102-1.223-0.27-1.419c-0.221-0.255-0.512-0.379-0.875-0.373l-0.73,0.012
			l-0.005-0.316l4.808-0.078l0.005,0.316l-0.36,0.006c-0.234,0.004-0.447,0.066-0.639,0.187s-0.322,0.28-0.393,0.481
			c-0.07,0.2-0.1,0.587-0.091,1.161l0.086,5.291l1.564-0.025l0.011,0.632l-1.564,0.025l0.008,0.527
			c0.014,0.803-0.104,1.484-0.354,2.046c-0.248,0.561-0.635,1.017-1.16,1.367c-0.524,0.352-1.117,0.533-1.779,0.544
			c-0.616,0.01-1.184-0.181-1.706-0.57c-0.344-0.258-0.519-0.552-0.524-0.88c-0.003-0.176,0.071-0.342,0.221-0.5
			c0.15-0.157,0.312-0.238,0.488-0.24c0.135-0.003,0.277,0.043,0.429,0.138c0.151,0.094,0.337,0.299,0.559,0.615
			c0.222,0.315,0.424,0.527,0.608,0.636s0.387,0.161,0.609,0.157c0.27-0.004,0.496-0.08,0.682-0.227s0.316-0.371,0.394-0.674
			c0.077-0.304,0.105-1.082,0.085-2.336l-0.01-0.579l-2.073,0.033l-0.011-0.633L303.277,575.401z"/>
	</g>
</g>
<g id="Layer_2">
</g>
</svg>
