<?xml version="1.0" encoding="utf-8"?>
<!-- Generator: Adobe Illustrator 16.0.0, SVG Export Plug-In . SVG Version: 6.00 Build 0)  -->
<!DOCTYPE svg PUBLIC "-//W3C//DTD SVG 1.1//EN" "http://www.w3.org/Graphics/SVG/1.1/DTD/svg11.dtd">
<svg version="1.1" xmlns="http://www.w3.org/2000/svg" xmlns:xlink="http://www.w3.org/1999/xlink" x="0px" y="0px" width="600px"
	 height="600px" viewBox="0 0 600 600" enable-background="new 0 0 600 600" xml:space="preserve">
<g id="Layer_1">
	<g>
		<path d="M289.057,570.863c0.246-1.055,0.692-1.858,1.341-2.412c0.648-0.554,1.356-0.82,2.123-0.799
			c0.914,0.024,1.7,0.43,2.358,1.216c0.658,0.786,0.97,1.832,0.934,3.138c-0.035,1.266-0.439,2.283-1.213,3.054
			c-0.774,0.77-1.688,1.141-2.743,1.111c-0.791-0.021-1.435-0.249-1.933-0.682c-0.499-0.433-0.741-0.874-0.729-1.325
			c0.006-0.223,0.083-0.4,0.23-0.534c0.147-0.134,0.35-0.197,0.607-0.19c0.346,0.01,0.604,0.128,0.773,0.355
			c0.096,0.126,0.156,0.361,0.179,0.708c0.022,0.347,0.134,0.613,0.334,0.801c0.2,0.182,0.482,0.276,0.845,0.287
			c0.585,0.016,1.063-0.188,1.432-0.612c0.49-0.561,0.748-1.312,0.774-2.256c0.026-0.961-0.187-1.814-0.638-2.562
			c-0.452-0.748-1.079-1.133-1.881-1.155c-0.574-0.016-1.095,0.167-1.562,0.547c-0.33,0.261-0.656,0.741-0.98,1.441L289.057,570.863
			z"/>
		<path d="M285.261,575.9l0.096-1.808c-0.736,1.17-1.459,1.736-2.167,1.698c-0.322-0.017-0.583-0.129-0.783-0.336
			s-0.293-0.439-0.28-0.697c0.012-0.228,0.098-0.417,0.259-0.567c0.161-0.149,0.346-0.219,0.557-0.208
			c0.205,0.011,0.429,0.124,0.673,0.34c0.244,0.215,0.427,0.326,0.55,0.332c0.105,0.006,0.222-0.047,0.352-0.157
			c0.276-0.226,0.569-0.606,0.879-1.142l0.204-3.853c0.023-0.445-0.014-0.784-0.113-1.019c-0.068-0.162-0.195-0.301-0.383-0.416
			c-0.188-0.116-0.463-0.184-0.826-0.202l0.017-0.316l4.117,0.218l-0.017,0.316c-0.409-0.022-0.717,0.026-0.923,0.145
			c-0.151,0.086-0.261,0.229-0.331,0.432c-0.034,0.098-0.064,0.381-0.089,0.849l-0.165,3.116c-0.049,0.936-0.06,1.494-0.031,1.675
			s0.092,0.314,0.19,0.401c0.098,0.088,0.223,0.135,0.375,0.144c0.181,0.009,0.388-0.023,0.621-0.1l0.071,0.32l-2.483,0.854
			L285.261,575.9z"/>
		<path d="M280.422,572.335c0.1-1.191-0.116-2.148-0.647-2.872c-0.531-0.724-1.191-1.116-1.979-1.178
			c-0.525-0.042-0.994,0.067-1.405,0.326c-0.411,0.258-0.775,0.728-1.093,1.408l-0.258-0.196c0.185-0.791,0.599-1.492,1.24-2.103
			c0.642-0.611,1.406-0.882,2.294-0.812c0.964,0.075,1.759,0.516,2.387,1.319c0.627,0.805,0.892,1.841,0.792,3.108
			c-0.107,1.373-0.543,2.416-1.308,3.129s-1.678,1.027-2.741,0.944c-0.899-0.071-1.615-0.426-2.147-1.063
			c-0.532-0.639-0.759-1.454-0.681-2.447L280.422,572.335z M280.382,572.843l-3.715-0.291c-0.011,0.516,0.022,0.883,0.099,1.101
			c0.121,0.339,0.318,0.612,0.592,0.822s0.569,0.327,0.885,0.352c0.485,0.038,0.934-0.116,1.346-0.463
			S280.265,573.51,280.382,572.843z"/>
		<path d="M269.61,567.465c0.89-0.546,1.445-0.857,1.666-0.934c0.33-0.111,0.673-0.148,1.028-0.11
			c0.554,0.061,0.989,0.299,1.306,0.716c0.317,0.418,0.442,0.936,0.376,1.553c-0.042,0.391-0.167,0.719-0.372,0.985
			c-0.281,0.37-0.737,0.698-1.366,0.983c-0.629,0.286-1.658,0.604-3.087,0.957l-0.034,0.314c-0.086,0.799-0.019,1.359,0.202,1.685
			c0.221,0.324,0.574,0.513,1.057,0.564c0.367,0.04,0.669-0.027,0.906-0.202c0.243-0.174,0.378-0.39,0.406-0.646l0.037-0.509
			c0.029-0.269,0.12-0.468,0.272-0.599c0.153-0.131,0.34-0.184,0.561-0.16c0.216,0.023,0.384,0.118,0.504,0.284
			c0.121,0.166,0.167,0.381,0.139,0.643c-0.054,0.501-0.36,0.934-0.918,1.298s-1.3,0.496-2.227,0.396
			c-0.71-0.076-1.28-0.259-1.708-0.547c-0.324-0.218-0.547-0.528-0.669-0.93c-0.078-0.262-0.075-0.78,0.009-1.556l0.294-2.717
			c0.083-0.764,0.119-1.232,0.108-1.407c-0.011-0.176-0.046-0.296-0.107-0.361s-0.135-0.103-0.222-0.112
			c-0.093-0.01-0.177,0.002-0.251,0.035c-0.13,0.062-0.389,0.249-0.776,0.562l0.053-0.49c0.747-0.803,1.417-1.172,2.012-1.108
			c0.286,0.031,0.502,0.155,0.649,0.371S269.656,566.986,269.61,567.465z M269.549,568.033l-0.33,3.049
			c0.917-0.254,1.512-0.44,1.784-0.558c0.488-0.207,0.846-0.439,1.075-0.697c0.228-0.259,0.36-0.554,0.396-0.886
			c0.045-0.419-0.042-0.781-0.263-1.085s-0.494-0.473-0.82-0.509C270.948,567.3,270.334,567.528,269.549,568.033z"/>
		<path d="M262.678,576.218l0.347-2.622l-1.865-0.247l0.081-0.61l1.864,0.247l0.686-5.176c0.068-0.517,0.041-0.875-0.084-1.074
			c-0.124-0.2-0.302-0.315-0.535-0.346c-0.192-0.025-0.385,0.009-0.582,0.104c-0.195,0.095-0.358,0.253-0.488,0.472l-0.34-0.045
			c0.279-0.542,0.623-0.933,1.033-1.171c0.41-0.238,0.812-0.331,1.208-0.279c0.267,0.036,0.519,0.145,0.754,0.326
			c0.236,0.182,0.397,0.419,0.482,0.711s0.09,0.726,0.014,1.301l-0.71,5.367l1.263,0.167l-0.038,0.288
			c-0.336,0.085-0.691,0.259-1.066,0.52s-0.72,0.583-1.037,0.966c-0.163,0.203-0.402,0.582-0.718,1.138L262.678,576.218z"/>
		<path d="M257.626,577.316c-0.244-0.037-0.438-0.154-0.583-0.351c-0.145-0.197-0.199-0.417-0.163-0.66s0.154-0.439,0.351-0.587
			c0.197-0.148,0.417-0.204,0.661-0.167s0.439,0.155,0.586,0.355s0.203,0.422,0.166,0.665s-0.153,0.438-0.35,0.583
			C258.098,577.3,257.875,577.354,257.626,577.316z M257.534,573.044l0.967-6.396c0.075-0.498,0.089-0.836,0.042-1.012
			c-0.047-0.176-0.136-0.315-0.266-0.418c-0.129-0.103-0.382-0.183-0.759-0.239l0.047-0.312l3.867,0.584l-0.047,0.313
			c-0.388-0.059-0.654-0.061-0.799-0.006c-0.145,0.056-0.269,0.164-0.374,0.326s-0.194,0.489-0.269,0.981l-0.464,3.067
			c-0.13,0.863-0.189,1.427-0.175,1.689c0.013,0.191,0.057,0.33,0.133,0.416c0.076,0.085,0.189,0.14,0.34,0.162
			c0.163,0.024,0.366,0.011,0.611-0.041l0.074,0.331l-2.545,0.611L257.534,573.044z"/>
		<path d="M255.64,572.539l-3.729-0.663l0.057-0.32l0.242,0.043c0.225,0.04,0.406,0.016,0.544-0.073
			c0.138-0.088,0.223-0.225,0.256-0.409c0.036-0.202,0.018-0.452-0.054-0.751l-1.065-4.706l-2.66,4.214
			c-0.19,0.299-0.3,0.532-0.33,0.7c-0.015,0.08-0.003,0.151,0.034,0.211c0.048,0.098,0.119,0.172,0.211,0.221
			s0.289,0.101,0.588,0.153l-0.057,0.32l-2.587-0.46l0.057-0.32c0.304,0.03,0.523,0.007,0.656-0.07
			c0.232-0.138,0.466-0.394,0.699-0.769l4.022-6.302l0.354,0.063l1.641,7.192c0.071,0.334,0.153,0.579,0.244,0.734
			c0.091,0.156,0.218,0.297,0.38,0.421c0.089,0.069,0.273,0.152,0.554,0.25L255.64,572.539z"/>
		<path d="M245.508,567.588c0.252-1.169,0.161-2.146-0.272-2.932c-0.434-0.786-1.037-1.261-1.811-1.424
			c-0.516-0.108-0.995-0.061-1.436,0.143c-0.441,0.204-0.863,0.622-1.266,1.256l-0.23-0.228c0.286-0.761,0.786-1.402,1.501-1.926
			c0.715-0.522,1.508-0.692,2.38-0.509c0.946,0.199,1.678,0.738,2.197,1.616c0.519,0.879,0.647,1.94,0.385,3.185
			c-0.284,1.348-0.85,2.325-1.7,2.934s-1.796,0.803-2.84,0.583c-0.883-0.186-1.547-0.629-1.992-1.331
			c-0.445-0.701-0.565-1.539-0.36-2.514L245.508,567.588z M245.402,568.086l-3.646-0.768c-0.077,0.511-0.092,0.879-0.044,1.104
			c0.076,0.352,0.236,0.648,0.481,0.892s0.522,0.397,0.832,0.463c0.476,0.101,0.941,0.005,1.394-0.286
			C244.873,569.201,245.201,568.732,245.402,568.086z"/>
		<path d="M240.423,558.283l-0.088,0.376c-0.633,0.057-1.159,0.251-1.577,0.583s-0.681,0.726-0.788,1.183
			c-0.025,0.108-0.021,0.205,0.013,0.292c0.028,0.061,0.062,0.096,0.102,0.104c0.063,0.015,0.213-0.01,0.451-0.074
			c0.115-0.027,0.229-0.027,0.343-0.001c0.279,0.065,0.482,0.201,0.609,0.405c0.127,0.204,0.156,0.451,0.087,0.742
			c-0.065,0.279-0.229,0.494-0.49,0.644s-0.545,0.188-0.853,0.116c-0.376-0.089-0.673-0.332-0.89-0.729
			c-0.217-0.397-0.262-0.866-0.134-1.408c0.138-0.588,0.47-1.086,0.997-1.495S239.471,558.366,240.423,558.283z"/>
		<path d="M224.1,560.31c0.493-0.964,1.12-1.637,1.882-2.018c0.763-0.382,1.514-0.47,2.253-0.265
			c0.881,0.245,1.546,0.827,1.996,1.749c0.45,0.921,0.5,2.012,0.151,3.271c-0.338,1.22-0.976,2.109-1.913,2.671
			c-0.937,0.561-1.914,0.7-2.93,0.418c-0.762-0.211-1.333-0.587-1.712-1.127c-0.379-0.54-0.508-1.027-0.388-1.462
			c0.06-0.215,0.177-0.369,0.352-0.463c0.175-0.095,0.387-0.107,0.635-0.038c0.333,0.092,0.555,0.269,0.665,0.53
			c0.063,0.146,0.064,0.389,0.002,0.73s-0.018,0.628,0.131,0.857c0.151,0.225,0.401,0.385,0.751,0.482
			c0.564,0.156,1.077,0.073,1.537-0.249c0.611-0.426,1.042-1.094,1.294-2.003c0.257-0.926,0.256-1.807-0.001-2.641
			c-0.258-0.835-0.773-1.359-1.547-1.574c-0.553-0.153-1.103-0.103-1.648,0.154c-0.382,0.173-0.815,0.561-1.298,1.163L224.1,560.31z
			"/>
		<path d="M214.758,562.655l1.452-4.657c0.277-0.89,0.426-1.439,0.446-1.651c0.02-0.212-0.004-0.371-0.072-0.479
			c-0.068-0.106-0.163-0.18-0.286-0.218c-0.173-0.054-0.384-0.067-0.632-0.041l-0.026-0.33l2.594-0.231l0.378,0.118l-0.508,1.628
			c0.883-0.511,1.527-0.804,1.932-0.88c0.404-0.077,0.8-0.055,1.186,0.065c0.431,0.135,0.765,0.375,1.004,0.723
			c0.238,0.348,0.358,0.736,0.359,1.166s-0.11,1.003-0.333,1.719l-1.07,3.432c-0.113,0.364-0.152,0.628-0.118,0.792
			s0.117,0.309,0.247,0.432c0.13,0.124,0.398,0.245,0.802,0.365l-0.097,0.311l-2.693-0.84l1.604-5.144
			c0.223-0.716,0.246-1.225,0.066-1.526c-0.179-0.301-0.445-0.507-0.797-0.616c-0.241-0.075-0.537-0.085-0.889-0.028
			c-0.352,0.056-0.804,0.23-1.356,0.525l-1.357,4.354c-0.136,0.437-0.148,0.756-0.037,0.96c0.111,0.203,0.417,0.389,0.917,0.558
			l-0.097,0.311L214.758,562.655z"/>
		<path d="M208.743,565.315l3.442-10.108c0.163-0.478,0.235-0.805,0.219-0.984c-0.017-0.179-0.083-0.333-0.2-0.462
			c-0.117-0.13-0.372-0.262-0.766-0.396l0.102-0.3l3.736,1.272l-0.102,0.299c-0.35-0.118-0.6-0.164-0.752-0.135
			c-0.152,0.028-0.292,0.113-0.421,0.256c-0.128,0.142-0.273,0.448-0.434,0.92l-2.357,6.922c-0.293,0.859-0.453,1.395-0.481,1.604
			s-0.012,0.366,0.05,0.468c0.062,0.101,0.159,0.174,0.292,0.22c0.145,0.049,0.343,0.067,0.595,0.054l0.042,0.34l-2.588,0.158
			L208.743,565.315z"/>
		<path d="M204.875,562.037l0.899-2.488l-1.769-0.639l0.209-0.579l1.769,0.64l1.775-4.91c0.177-0.49,0.227-0.847,0.147-1.067
			c-0.079-0.222-0.228-0.373-0.449-0.452c-0.182-0.065-0.378-0.073-0.59-0.021c-0.211,0.051-0.404,0.17-0.577,0.356l-0.322-0.117
			c0.388-0.47,0.808-0.777,1.259-0.923s0.864-0.15,1.239-0.015c0.254,0.092,0.476,0.251,0.668,0.479s0.298,0.494,0.319,0.798
			c0.021,0.303-0.067,0.728-0.264,1.273l-1.841,5.092l1.199,0.433l-0.099,0.273c-0.347,0.012-0.731,0.104-1.152,0.279
			s-0.828,0.416-1.219,0.723c-0.203,0.164-0.517,0.483-0.944,0.958L204.875,562.037z"/>
		<path d="M196.559,556.033l1.777-4.543c0.339-0.868,0.527-1.406,0.562-1.616s0.022-0.37-0.038-0.482
			c-0.06-0.111-0.15-0.19-0.27-0.237c-0.169-0.066-0.378-0.095-0.627-0.085l-0.002-0.331l2.604-0.048l0.368,0.144l-0.621,1.588
			c0.917-0.446,1.58-0.693,1.989-0.741s0.801,0.002,1.178,0.149c0.42,0.165,0.737,0.429,0.95,0.792
			c0.213,0.363,0.306,0.76,0.276,1.188c-0.029,0.429-0.181,0.992-0.454,1.691l-1.31,3.348c-0.139,0.354-0.196,0.615-0.173,0.781
			s0.095,0.315,0.216,0.448c0.122,0.132,0.379,0.272,0.774,0.421l-0.119,0.303l-2.627-1.028l1.963-5.018
			c0.273-0.698,0.331-1.204,0.173-1.518c-0.157-0.312-0.408-0.537-0.751-0.671c-0.235-0.092-0.53-0.122-0.885-0.092
			c-0.355,0.031-0.818,0.174-1.39,0.429l-1.662,4.248c-0.167,0.426-0.201,0.744-0.104,0.955c0.097,0.211,0.389,0.417,0.875,0.62
			l-0.118,0.304L196.559,556.033z"/>
		<path d="M192.381,554.541l0.707-1.667c-1.091,0.849-1.963,1.135-2.616,0.858c-0.297-0.126-0.504-0.32-0.622-0.584
			c-0.118-0.263-0.126-0.513-0.026-0.75c0.089-0.211,0.235-0.358,0.437-0.445c0.202-0.086,0.4-0.088,0.594-0.006
			c0.189,0.08,0.361,0.263,0.517,0.549c0.156,0.285,0.29,0.452,0.403,0.5c0.097,0.041,0.225,0.031,0.384-0.028
			c0.336-0.118,0.742-0.376,1.215-0.773l1.505-3.553c0.174-0.41,0.254-0.742,0.24-0.996c-0.008-0.175-0.081-0.35-0.218-0.521
			c-0.137-0.173-0.373-0.33-0.707-0.472l0.124-0.291l3.795,1.607l-0.124,0.292c-0.377-0.16-0.683-0.22-0.917-0.179
			c-0.171,0.029-0.324,0.127-0.458,0.293c-0.066,0.08-0.19,0.336-0.373,0.768l-1.217,2.873c-0.366,0.863-0.566,1.384-0.601,1.563
			s-0.021,0.327,0.042,0.442c0.062,0.116,0.164,0.203,0.304,0.263c0.167,0.071,0.374,0.11,0.618,0.118l-0.042,0.326l-2.626-0.043
			L192.381,554.541z"/>
		<path d="M187.69,544.684c1.016-0.239,1.641-0.361,1.875-0.364c0.349-0.003,0.686,0.07,1.011,0.218
			c0.507,0.23,0.845,0.594,1.016,1.09s0.127,1.026-0.13,1.592c-0.163,0.357-0.383,0.63-0.662,0.819
			c-0.383,0.263-0.918,0.432-1.605,0.505c-0.687,0.074-1.764,0.055-3.231-0.06l-0.131,0.288c-0.333,0.731-0.444,1.285-0.336,1.663
			c0.108,0.377,0.384,0.667,0.827,0.868c0.336,0.152,0.644,0.183,0.924,0.092c0.285-0.09,0.481-0.252,0.587-0.486l0.195-0.471
			c0.111-0.246,0.26-0.406,0.446-0.483c0.186-0.076,0.38-0.068,0.583,0.024c0.197,0.09,0.327,0.232,0.389,0.428
			c0.062,0.195,0.039,0.413-0.07,0.653c-0.208,0.459-0.635,0.773-1.279,0.944c-0.644,0.171-1.39,0.063-2.238-0.322
			c-0.651-0.296-1.135-0.648-1.451-1.056c-0.239-0.309-0.354-0.673-0.343-1.093c0.008-0.273,0.174-0.765,0.496-1.474l1.131-2.488
			c0.318-0.699,0.499-1.133,0.544-1.303c0.045-0.169,0.049-0.295,0.012-0.376s-0.096-0.14-0.176-0.176
			c-0.085-0.039-0.168-0.055-0.25-0.046c-0.144,0.019-0.448,0.114-0.914,0.289l0.204-0.448c0.961-0.528,1.714-0.669,2.258-0.421
			c0.262,0.118,0.428,0.304,0.5,0.556C187.944,543.897,187.884,544.243,187.69,544.684z M187.454,545.203l-1.27,2.793
			c0.951,0.046,1.574,0.056,1.87,0.029c0.528-0.044,0.941-0.151,1.239-0.325s0.516-0.412,0.654-0.717
			c0.175-0.384,0.205-0.755,0.091-1.112s-0.321-0.604-0.619-0.74C189.013,544.946,188.358,544.971,187.454,545.203z"/>
		<path d="M177.207,552.262l4.652-9.612c0.22-0.454,0.332-0.771,0.338-0.95c0.005-0.179-0.042-0.341-0.142-0.483
			s-0.337-0.305-0.712-0.486l0.138-0.284l3.552,1.719l-0.138,0.285c-0.333-0.161-0.576-0.236-0.73-0.227
			c-0.155,0.01-0.305,0.077-0.45,0.202s-0.326,0.412-0.543,0.86l-3.186,6.582c-0.396,0.817-0.62,1.329-0.674,1.534
			s-0.057,0.361-0.008,0.47c0.048,0.108,0.136,0.192,0.263,0.254c0.137,0.066,0.332,0.108,0.583,0.126l0,0.342l-2.589-0.159
			L177.207,552.262z"/>
		<path d="M172.161,536.926c1.03-0.173,1.661-0.254,1.894-0.242c0.348,0.021,0.68,0.115,0.995,0.283
			c0.491,0.263,0.805,0.647,0.943,1.153c0.138,0.506,0.061,1.032-0.233,1.58c-0.185,0.346-0.423,0.604-0.713,0.774
			c-0.4,0.237-0.945,0.371-1.635,0.4c-0.69,0.029-1.764-0.061-3.221-0.269l-0.149,0.279c-0.379,0.707-0.526,1.253-0.443,1.637
			c0.084,0.384,0.34,0.69,0.769,0.92c0.325,0.175,0.631,0.225,0.916,0.151c0.291-0.07,0.497-0.22,0.618-0.446l0.225-0.458
			c0.127-0.237,0.286-0.389,0.477-0.453c0.19-0.063,0.384-0.043,0.58,0.062c0.191,0.103,0.312,0.253,0.361,0.453
			c0.049,0.199,0.012,0.415-0.113,0.647c-0.238,0.444-0.683,0.73-1.337,0.859c-0.654,0.128-1.392-0.027-2.213-0.467
			c-0.63-0.338-1.09-0.72-1.379-1.147c-0.219-0.323-0.31-0.694-0.272-1.112c0.026-0.272,0.223-0.752,0.59-1.438l1.29-2.41
			c0.362-0.677,0.571-1.098,0.627-1.265c0.056-0.166,0.068-0.291,0.036-0.374s-0.086-0.146-0.164-0.188
			c-0.083-0.044-0.165-0.064-0.246-0.062c-0.145,0.009-0.455,0.085-0.931,0.229l0.232-0.434c0.993-0.466,1.753-0.558,2.28-0.275
			c0.253,0.136,0.408,0.331,0.463,0.587C172.465,536.158,172.382,536.5,172.161,536.926z M171.891,537.43l-1.448,2.704
			c0.946,0.107,1.567,0.158,1.864,0.15c0.53-0.009,0.949-0.09,1.257-0.244c0.309-0.154,0.542-0.378,0.699-0.673
			c0.199-0.372,0.253-0.74,0.163-1.104s-0.281-0.623-0.57-0.778C173.463,537.274,172.808,537.256,171.891,537.43z"/>
		<path d="M164.451,538.853c-1.385,0.514-2.448,0.557-3.189,0.13c-0.381-0.22-0.653-0.504-0.818-0.853
			c-0.164-0.348-0.202-0.787-0.113-1.317c0.064-0.369,0.277-0.868,0.64-1.498l1.716-2.978c0.254-0.441,0.392-0.762,0.411-0.96
			c0.018-0.158-0.016-0.31-0.099-0.452s-0.292-0.311-0.627-0.504l0.158-0.274l3.45,1.988l-0.158,0.274l-0.145-0.084
			c-0.325-0.187-0.581-0.269-0.767-0.244s-0.361,0.118-0.523,0.282c-0.064,0.064-0.212,0.297-0.443,0.698l-1.646,2.855
			c-0.366,0.635-0.549,1.143-0.549,1.524c0,0.382,0.195,0.686,0.586,0.911c0.604,0.349,1.396,0.365,2.375,0.051l2.12-3.679
			c0.272-0.472,0.413-0.779,0.421-0.924c0.014-0.188-0.022-0.353-0.107-0.492c-0.085-0.141-0.317-0.32-0.698-0.54l0.158-0.273
			l3.45,1.988l-0.158,0.273l-0.152-0.088c-0.355-0.204-0.647-0.253-0.875-0.144c-0.229,0.108-0.489,0.416-0.781,0.924l-1.493,2.589
			c-0.482,0.838-0.758,1.359-0.825,1.563c-0.067,0.205-0.081,0.363-0.04,0.475s0.127,0.205,0.259,0.28
			c0.142,0.082,0.334,0.143,0.576,0.181l-0.044,0.34l-2.593-0.358l-0.327-0.189L164.451,538.853z"/>
		<path d="M156.768,527.632c0.55-0.142,1.031-0.189,1.444-0.143c0.413,0.046,0.804,0.184,1.172,0.412
			c0.747,0.464,1.204,1.182,1.374,2.152c0.169,0.971-0.051,1.946-0.66,2.927s-1.476,1.687-2.598,2.116
			c-1.123,0.43-2.169,0.344-3.14-0.26c-0.602-0.374-0.98-0.875-1.136-1.502l-0.784,1.261c-0.486,0.781-0.766,1.273-0.839,1.476
			c-0.074,0.202-0.091,0.361-0.052,0.475c0.04,0.114,0.119,0.209,0.238,0.283c0.129,0.08,0.326,0.147,0.589,0.2l-0.065,0.322
			l-2.557-0.431l-0.336-0.209l4.913-7.905c0.498-0.801,0.783-1.302,0.855-1.502c0.073-0.199,0.089-0.359,0.051-0.48
			c-0.039-0.121-0.113-0.215-0.223-0.283c-0.134-0.083-0.34-0.152-0.616-0.207l0.08-0.312l2.555,0.419l0.343,0.213L156.768,527.632z
			 M156.443,528.154l-2.19,3.523c-0.181,0.356-0.283,0.721-0.307,1.092c-0.024,0.372,0.043,0.705,0.201,1
			c0.158,0.295,0.354,0.516,0.588,0.66c0.438,0.272,0.951,0.318,1.539,0.139c0.774-0.235,1.471-0.852,2.089-1.847
			c0.625-1.006,0.885-1.911,0.779-2.719c-0.105-0.807-0.427-1.378-0.964-1.712C157.726,528.01,157.147,527.964,156.443,528.154z"/>
		<path d="M141.83,526.571l1.553-2.26l0.239,0.164c-0.304,0.837-0.401,1.481-0.29,1.935c0.112,0.453,0.39,0.833,0.833,1.138
			c0.338,0.232,0.672,0.331,1.003,0.295s0.57-0.163,0.72-0.38c0.186-0.271,0.268-0.556,0.246-0.854
			c-0.014-0.301-0.173-0.721-0.479-1.258l-0.704-1.241c-0.652-1.151-0.709-2.118-0.171-2.9c0.415-0.604,0.978-0.934,1.688-0.989
			c0.71-0.056,1.348,0.11,1.913,0.498c0.406,0.279,0.819,0.67,1.241,1.174c0.126,0.157,0.24,0.271,0.341,0.341
			c0.111,0.076,0.241,0.073,0.39-0.009l0.239,0.164l-1.628,2.368l-0.239-0.164c0.33-0.769,0.421-1.456,0.275-2.061
			c-0.146-0.605-0.456-1.07-0.929-1.396c-0.333-0.229-0.672-0.318-1.017-0.267c-0.345,0.051-0.611,0.214-0.8,0.489
			c-0.229,0.333-0.305,0.694-0.227,1.082c0.079,0.388,0.348,0.996,0.81,1.825c0.461,0.829,0.704,1.458,0.729,1.888
			c0.028,0.424-0.102,0.847-0.391,1.267c-0.375,0.546-0.875,0.873-1.502,0.983c-0.626,0.109-1.237-0.039-1.831-0.447
			c-0.261-0.18-0.539-0.452-0.834-0.819c-0.197-0.241-0.336-0.391-0.418-0.447c-0.077-0.053-0.149-0.077-0.216-0.073
			c-0.067,0.004-0.169,0.044-0.307,0.12L141.83,526.571z"/>
		<path d="M137.771,517.198c0.8-0.729,1.624-1.139,2.472-1.228s1.582,0.093,2.202,0.545c0.739,0.538,1.157,1.317,1.254,2.338
			c0.098,1.021-0.239,2.06-1.008,3.115c-0.746,1.022-1.655,1.632-2.729,1.828c-1.075,0.195-2.038-0.017-2.89-0.639
			c-0.64-0.466-1.042-1.018-1.207-1.656c-0.165-0.64-0.115-1.141,0.151-1.506c0.131-0.18,0.295-0.283,0.492-0.31
			c0.197-0.026,0.4,0.036,0.608,0.188c0.279,0.204,0.425,0.447,0.436,0.73c0.008,0.158-0.077,0.387-0.254,0.685
			c-0.178,0.299-0.237,0.582-0.178,0.85c0.062,0.263,0.24,0.501,0.534,0.715c0.474,0.345,0.982,0.448,1.527,0.308
			c0.722-0.185,1.36-0.658,1.916-1.42c0.566-0.777,0.875-1.602,0.927-2.474s-0.247-1.544-0.896-2.017
			c-0.464-0.339-0.996-0.483-1.597-0.436c-0.419,0.028-0.961,0.239-1.625,0.633L137.771,517.198z"/>
		<path d="M129.497,522.746c-0.195-0.149-0.309-0.346-0.341-0.588s0.026-0.462,0.176-0.657c0.149-0.195,0.347-0.31,0.591-0.345
			c0.244-0.034,0.463,0.023,0.659,0.173c0.195,0.15,0.309,0.348,0.342,0.595c0.033,0.246-0.026,0.467-0.175,0.662
			c-0.15,0.195-0.346,0.31-0.588,0.342S129.696,522.899,129.497,522.746z M131.477,518.96l3.934-5.136
			c0.307-0.399,0.481-0.688,0.525-0.865s0.033-0.342-0.031-0.494c-0.064-0.152-0.247-0.345-0.549-0.576l0.192-0.251l3.105,2.378
			l-0.192,0.251c-0.312-0.238-0.544-0.368-0.698-0.39s-0.315,0.013-0.484,0.104c-0.17,0.092-0.406,0.335-0.709,0.73l-1.886,2.463
			c-0.531,0.693-0.854,1.158-0.969,1.395c-0.082,0.174-0.109,0.316-0.084,0.429c0.025,0.111,0.099,0.213,0.219,0.306
			c0.13,0.1,0.315,0.187,0.555,0.259l-0.095,0.326l-2.524-0.693L131.477,518.96z"/>
		<path d="M130.613,514.144c0.754-0.928,1.116-1.84,1.085-2.736c-0.03-0.897-0.354-1.594-0.97-2.089
			c-0.411-0.331-0.859-0.505-1.344-0.523s-1.051,0.164-1.698,0.547l-0.102-0.309c0.599-0.548,1.336-0.894,2.21-1.036
			c0.875-0.143,1.659,0.065,2.353,0.623c0.753,0.606,1.162,1.419,1.227,2.437c0.065,1.019-0.302,2.022-1.099,3.014
			c-0.863,1.072-1.811,1.688-2.844,1.846c-1.033,0.158-1.965-0.098-2.796-0.766c-0.703-0.565-1.094-1.262-1.173-2.089
			c-0.08-0.827,0.193-1.629,0.817-2.405L130.613,514.144z M130.293,514.541l-2.904-2.336c-0.3,0.42-0.48,0.742-0.539,0.965
			c-0.092,0.348-0.083,0.686,0.025,1.014c0.108,0.327,0.286,0.591,0.532,0.789c0.379,0.305,0.836,0.431,1.373,0.376
			C129.316,515.295,129.821,515.025,130.293,514.541z"/>
		<path d="M122.604,509.6c-1.456,0.25-2.508,0.096-3.158-0.461c-0.333-0.286-0.549-0.615-0.646-0.988
			c-0.097-0.372-0.053-0.812,0.133-1.315c0.131-0.352,0.433-0.803,0.906-1.354l2.236-2.608c0.332-0.388,0.525-0.677,0.582-0.868
			c0.046-0.153,0.042-0.308-0.014-0.463c-0.055-0.156-0.23-0.359-0.523-0.611l0.206-0.24l3.023,2.591l-0.206,0.24l-0.127-0.108
			c-0.285-0.244-0.521-0.371-0.709-0.382c-0.188-0.011-0.376,0.05-0.565,0.181c-0.075,0.052-0.263,0.253-0.564,0.604l-2.145,2.502
			c-0.477,0.557-0.75,1.022-0.821,1.397s0.065,0.71,0.408,1.004c0.529,0.453,1.304,0.616,2.325,0.487l2.762-3.223
			c0.355-0.414,0.55-0.69,0.584-0.83c0.048-0.183,0.044-0.351-0.014-0.504c-0.058-0.154-0.253-0.374-0.587-0.659l0.206-0.24
			l3.023,2.591l-0.206,0.24l-0.133-0.114c-0.312-0.268-0.589-0.368-0.833-0.304c-0.245,0.064-0.557,0.319-0.939,0.764l-1.944,2.27
			c-0.629,0.733-0.996,1.195-1.1,1.384c-0.104,0.188-0.146,0.342-0.127,0.459c0.02,0.116,0.087,0.225,0.203,0.323
			c0.125,0.107,0.302,0.201,0.533,0.283l-0.105,0.326l-2.482-0.831l-0.287-0.246L122.604,509.6z"/>
		<path d="M113.009,506.656l1.772-1.964l-1.396-1.261l0.412-0.456l1.396,1.26l3.498-3.875c0.35-0.387,0.53-0.698,0.541-0.933
			c0.011-0.235-0.071-0.431-0.245-0.588c-0.144-0.13-0.323-0.211-0.539-0.243c-0.215-0.033-0.438,0.005-0.669,0.111l-0.254-0.229
			c0.537-0.289,1.042-0.415,1.515-0.379s0.857,0.188,1.153,0.454c0.2,0.181,0.346,0.413,0.437,0.696
			c0.091,0.284,0.089,0.57-0.006,0.859s-0.337,0.648-0.726,1.079l-3.628,4.02l0.946,0.854l-0.194,0.215
			c-0.325-0.12-0.716-0.179-1.172-0.176c-0.457,0.002-0.924,0.071-1.402,0.208c-0.25,0.075-0.662,0.252-1.236,0.53L113.009,506.656z
			"/>
		<path d="M108.207,504.682c-0.18-0.168-0.273-0.374-0.282-0.618c-0.008-0.245,0.072-0.457,0.24-0.637
			c0.168-0.179,0.376-0.274,0.622-0.284c0.247-0.01,0.459,0.069,0.639,0.237c0.18,0.168,0.274,0.376,0.282,0.625
			c0.008,0.248-0.072,0.462-0.24,0.642c-0.168,0.18-0.375,0.273-0.619,0.282C108.605,504.937,108.391,504.854,108.207,504.682z
			 M110.552,501.11l4.422-4.721c0.344-0.368,0.547-0.638,0.607-0.81c0.061-0.172,0.067-0.337,0.018-0.495
			c-0.048-0.158-0.212-0.367-0.49-0.628l0.216-0.23l2.854,2.674l-0.216,0.23c-0.287-0.269-0.505-0.421-0.655-0.457
			c-0.15-0.037-0.315-0.018-0.493,0.057s-0.437,0.293-0.778,0.656l-2.121,2.265c-0.597,0.637-0.964,1.067-1.102,1.292
			c-0.098,0.165-0.14,0.304-0.126,0.418c0.014,0.113,0.077,0.222,0.188,0.326c0.12,0.112,0.295,0.216,0.526,0.312l-0.126,0.314
			l-2.443-0.939L110.552,501.11z"/>
		<path d="M107.22,496.702l3.694-3.788c0.523-0.537,0.796-0.935,0.818-1.191c0.025-0.336-0.093-0.631-0.353-0.885l-0.522-0.509
			l0.221-0.227l3.442,3.356l-0.221,0.227l-0.258-0.252c-0.168-0.163-0.362-0.271-0.582-0.322c-0.22-0.051-0.426-0.03-0.618,0.061
			c-0.191,0.092-0.488,0.343-0.889,0.754l-3.694,3.788l1.12,1.093l-0.442,0.453l-1.12-1.093l-0.368,0.378
			c-0.561,0.574-1.127,0.972-1.701,1.189c-0.573,0.219-1.169,0.266-1.788,0.141c-0.619-0.124-1.166-0.418-1.64-0.88
			c-0.44-0.43-0.706-0.967-0.797-1.612c-0.059-0.426,0.025-0.757,0.254-0.991c0.123-0.126,0.293-0.191,0.511-0.196
			c0.217-0.005,0.389,0.054,0.515,0.177c0.097,0.094,0.165,0.228,0.204,0.401s0.025,0.45-0.042,0.83
			c-0.067,0.38-0.075,0.674-0.023,0.88c0.052,0.207,0.158,0.388,0.317,0.543c0.193,0.188,0.407,0.297,0.641,0.324
			c0.235,0.028,0.487-0.037,0.756-0.195c0.27-0.159,0.842-0.688,1.717-1.585l0.405-0.415l-1.485-1.448l0.442-0.453L107.22,496.702z"
			/>
		<path d="M100.062,496.734c-0.173-0.176-0.258-0.386-0.256-0.63c0.002-0.244,0.091-0.453,0.266-0.626s0.386-0.259,0.633-0.259
			s0.456,0.087,0.628,0.263c0.173,0.175,0.258,0.387,0.256,0.636c-0.002,0.248-0.09,0.459-0.266,0.632s-0.385,0.258-0.63,0.256
			C100.45,497.004,100.239,496.914,100.062,496.734z M102.55,493.261l4.609-4.539c0.359-0.354,0.572-0.615,0.64-0.785
			c0.068-0.169,0.081-0.334,0.038-0.493c-0.042-0.16-0.197-0.376-0.464-0.647l0.226-0.222l2.744,2.786l-0.225,0.223
			c-0.275-0.28-0.488-0.441-0.637-0.483c-0.148-0.043-0.313-0.03-0.494,0.036c-0.181,0.067-0.449,0.275-0.804,0.625l-2.21,2.177
			c-0.622,0.613-1.006,1.028-1.153,1.247c-0.105,0.16-0.152,0.298-0.143,0.412s0.068,0.226,0.174,0.334
			c0.115,0.116,0.287,0.228,0.514,0.333l-0.139,0.31l-2.403-1.037L102.55,493.261z"/>
		<path d="M100.027,483.019c0.922-0.567,1.807-0.816,2.657-0.746s1.537,0.386,2.062,0.945c0.626,0.666,0.892,1.51,0.797,2.53
			c-0.094,1.021-0.618,1.979-1.57,2.873c-0.923,0.866-1.93,1.296-3.022,1.288c-1.092-0.007-1.999-0.396-2.721-1.164
			c-0.542-0.577-0.834-1.194-0.877-1.853s0.099-1.143,0.428-1.451c0.162-0.152,0.343-0.224,0.542-0.213s0.386,0.109,0.562,0.298
			c0.237,0.252,0.334,0.518,0.292,0.799c-0.021,0.156-0.147,0.365-0.377,0.625c-0.23,0.261-0.341,0.527-0.333,0.801
			c0.012,0.271,0.143,0.537,0.392,0.803c0.401,0.427,0.882,0.622,1.443,0.586c0.743-0.047,1.459-0.394,2.146-1.039
			c0.701-0.658,1.158-1.41,1.371-2.258c0.213-0.847,0.045-1.563-0.504-2.148c-0.393-0.418-0.889-0.66-1.488-0.725
			c-0.417-0.05-0.988,0.056-1.714,0.319L100.027,483.019z"/>
		<path d="M92.688,482.396l-2.171-2.584l0.249-0.209c0.218,0.223,0.391,0.343,0.521,0.359c0.129,0.018,0.257-0.026,0.382-0.132
			c0.139-0.117,0.275-0.296,0.409-0.538l2.438-4.299l-4,1.1l-0.614,1.113c-0.179,0.334-0.246,0.632-0.202,0.894
			c0.02,0.151,0.137,0.367,0.349,0.648l-0.249,0.209l-2.465-2.934l0.249-0.209c0.285,0.312,0.536,0.491,0.751,0.539
			c0.147,0.029,0.299-0.022,0.457-0.154c0.09-0.075,0.167-0.17,0.23-0.285l2.363-4.374l-4.502,1.568
			c-0.317,0.114-0.548,0.23-0.692,0.352c-0.085,0.071-0.125,0.18-0.118,0.323c0.006,0.145,0.112,0.348,0.318,0.611l-0.249,0.209
			l-1.634-1.944l0.249-0.209c0.387,0.341,0.893,0.405,1.518,0.193l7.039-2.402l0.232,0.275l-2.642,4.85l5.446-1.512l0.209,0.249
			l-3.518,6.332c-0.218,0.405-0.332,0.719-0.341,0.94c-0.009,0.222,0.071,0.491,0.239,0.81L92.688,482.396z"/>
		<path d="M81.369,468.946c-0.746-0.964-0.979-2.021-0.698-3.172c0.242-0.979,0.768-1.783,1.579-2.411
			c0.57-0.441,1.252-0.751,2.048-0.929c0.795-0.179,1.527-0.144,2.194,0.107c0.668,0.25,1.229,0.669,1.685,1.258
			c0.742,0.959,0.95,2.018,0.623,3.174c-0.275,0.976-0.813,1.774-1.615,2.395c-0.584,0.452-1.276,0.756-2.077,0.913
			c-0.801,0.157-1.522,0.105-2.164-0.154C82.303,469.868,81.777,469.475,81.369,468.946z M81.987,468.812
			c0.19,0.246,0.454,0.437,0.792,0.571s0.749,0.137,1.233,0.007c0.484-0.131,1.014-0.418,1.588-0.862
			c0.927-0.718,1.584-1.521,1.971-2.408c0.387-0.889,0.347-1.634-0.119-2.236c-0.348-0.449-0.82-0.677-1.417-0.682
			c-0.597-0.006-1.347,0.342-2.25,1.041c-1.13,0.875-1.832,1.807-2.104,2.795C81.491,467.711,81.593,468.302,81.987,468.812z"/>
		<path d="M76.817,462.893l1.462-1.068c-1.372,0.169-2.267-0.034-2.686-0.606c-0.19-0.26-0.268-0.533-0.234-0.819
			c0.034-0.286,0.155-0.505,0.364-0.657c0.184-0.135,0.385-0.188,0.603-0.158c0.218,0.03,0.389,0.13,0.513,0.301
			c0.121,0.165,0.175,0.41,0.162,0.735c-0.013,0.325,0.017,0.537,0.089,0.637c0.062,0.085,0.177,0.143,0.344,0.173
			c0.35,0.071,0.83,0.059,1.44-0.04l3.115-2.275c0.36-0.263,0.599-0.507,0.718-0.731c0.083-0.155,0.11-0.342,0.081-0.56
			c-0.029-0.219-0.15-0.475-0.365-0.768l0.255-0.187l2.432,3.328l-0.255,0.187c-0.242-0.331-0.474-0.539-0.696-0.624
			c-0.162-0.062-0.343-0.058-0.543,0.016c-0.098,0.035-0.336,0.191-0.714,0.468l-2.52,1.841c-0.757,0.553-1.196,0.897-1.318,1.034
			c-0.122,0.136-0.186,0.27-0.191,0.4c-0.005,0.132,0.037,0.259,0.126,0.382c0.107,0.146,0.264,0.286,0.469,0.419l-0.204,0.258
			l-2.231-1.386L76.817,462.893z"/>
		<path d="M69.769,460.275l6.6-4.549l-2.703-0.624c-0.574-0.131-0.925-0.195-1.052-0.193c-0.084,0.002-0.155,0.022-0.213,0.062
			c-0.096,0.066-0.152,0.163-0.167,0.291c-0.015,0.128,0.036,0.287,0.152,0.477l-0.231,0.16l-1.985-2.881l0.231-0.159
			c0.282,0.389,0.57,0.677,0.862,0.863s0.688,0.338,1.189,0.455l2.742,0.619l0.978-3.183c0.268-0.882,0.424-1.459,0.47-1.733
			c0.067-0.388,0.075-0.691,0.023-0.912c-0.035-0.153-0.156-0.38-0.362-0.679l0.261-0.18l2.219,3.22l-0.26,0.18
			c-0.131-0.18-0.245-0.285-0.34-0.315s-0.189-0.014-0.281,0.05c-0.111,0.076-0.223,0.296-0.336,0.658l-1.197,3.824l2.2-1.516
			c0.43-0.296,0.691-0.521,0.784-0.675c0.094-0.153,0.131-0.305,0.113-0.456c-0.019-0.15-0.153-0.414-0.405-0.788l0.26-0.18
			l2.324,3.372l-0.26,0.18c-0.233-0.338-0.448-0.562-0.647-0.675c-0.123-0.065-0.258-0.086-0.405-0.062
			c-0.209,0.037-0.509,0.19-0.9,0.46l-6.036,4.16c-0.767,0.528-1.225,0.869-1.373,1.021s-0.228,0.289-0.24,0.411
			c-0.012,0.122,0.025,0.245,0.111,0.371c0.07,0.102,0.216,0.225,0.438,0.371l-0.168,0.298l-2.167-1.41L69.769,460.275z"/>
		<path d="M66.592,447.919l2.303-1.488l0.157,0.243c-0.602,0.654-0.939,1.213-1.011,1.674c-0.071,0.462,0.039,0.919,0.332,1.371
			c0.223,0.345,0.493,0.563,0.812,0.657c0.319,0.095,0.589,0.069,0.811-0.073c0.275-0.179,0.461-0.41,0.556-0.694
			c0.104-0.283,0.117-0.731,0.041-1.346l-0.173-1.416c-0.159-1.313,0.161-2.229,0.958-2.744c0.615-0.397,1.261-0.485,1.938-0.264
			c0.677,0.222,1.202,0.62,1.574,1.195c0.268,0.414,0.499,0.934,0.695,1.561c0.056,0.194,0.117,0.343,0.184,0.446
			c0.073,0.113,0.194,0.16,0.364,0.142l0.157,0.244l-2.414,1.561l-0.157-0.244c0.6-0.583,0.949-1.182,1.047-1.797
			c0.098-0.614-0.009-1.163-0.321-1.645c-0.22-0.34-0.498-0.552-0.836-0.638c-0.337-0.085-0.646-0.037-0.927,0.145
			c-0.339,0.22-0.547,0.523-0.625,0.911c-0.077,0.389-0.062,1.054,0.045,1.996c0.107,0.943,0.089,1.617-0.053,2.023
			c-0.137,0.402-0.42,0.742-0.848,1.019c-0.556,0.359-1.144,0.47-1.765,0.33s-1.126-0.512-1.518-1.117
			c-0.172-0.266-0.324-0.624-0.456-1.076c-0.088-0.299-0.16-0.49-0.214-0.573c-0.051-0.079-0.108-0.13-0.171-0.151
			c-0.063-0.022-0.173-0.024-0.329-0.007L66.592,447.919z"/>
		<path d="M70.776,432.039l0.28-0.165c0.066,0.988-0.007,1.889-0.221,2.702c-0.303,1.159-0.835,2.229-1.597,3.209
			c-0.761,0.98-1.677,1.786-2.747,2.418c-1.564,0.923-3.219,1.38-4.964,1.369c-1.745-0.011-3.261-0.474-4.549-1.387l0.318-0.188
			c0.709,0.418,1.479,0.65,2.31,0.697c0.831,0.047,1.761-0.101,2.791-0.443c1.029-0.342,2.041-0.807,3.035-1.394
			c1.08-0.638,2.012-1.3,2.796-1.988c0.619-0.542,1.084-1.031,1.395-1.467c0.311-0.435,0.567-0.925,0.77-1.47
			C70.597,433.389,70.724,432.758,70.776,432.039z"/>
		<path d="M58.935,432.563l-2.011,1.665l-0.834,0.687c-0.122,0.082-0.247,0.158-0.375,0.229c-0.323,0.18-0.598,0.239-0.826,0.179
			s-0.408-0.208-0.54-0.443c-0.123-0.221-0.15-0.445-0.083-0.674c0.067-0.229,0.226-0.412,0.477-0.553
			c0.435-0.242,0.933-0.456,1.494-0.642l2.493-0.816L58.935,432.563z M60.501,435.373l-2.037,1.689
			c-0.562,0.461-0.955,0.754-1.18,0.88c-0.327,0.183-0.603,0.247-0.827,0.194s-0.4-0.194-0.529-0.425
			c-0.125-0.225-0.154-0.454-0.086-0.687c0.068-0.232,0.228-0.419,0.479-0.559c0.2-0.111,0.7-0.303,1.5-0.575l2.496-0.849
			L60.501,435.373z"/>
		<path d="M48.207,423.145l3.483-2.088l0.124,0.243c-0.915,0.876-1.456,1.734-1.624,2.577c-0.167,0.843-0.037,1.685,0.393,2.524
			c0.36,0.704,0.865,1.249,1.513,1.635c0.648,0.386,1.447,0.542,2.396,0.467c0.95-0.074,2.006-0.408,3.169-1.004
			c0.96-0.491,1.713-1.07,2.26-1.738s0.85-1.407,0.909-2.218c0.06-0.811-0.114-1.611-0.52-2.404
			c-0.352-0.688-0.811-1.221-1.375-1.598c-0.564-0.376-1.446-0.655-2.646-0.838l0.032-0.322c1.217,0.049,2.225,0.315,3.026,0.801
			s1.451,1.216,1.95,2.191c0.899,1.758,0.944,3.453,0.134,5.085c-0.602,1.217-1.561,2.161-2.875,2.833
			c-1.059,0.542-2.153,0.803-3.283,0.781c-1.129-0.021-2.151-0.322-3.064-0.905c-0.914-0.582-1.623-1.366-2.127-2.353
			c-0.392-0.767-0.591-1.619-0.597-2.558c0.002-0.277-0.02-0.463-0.068-0.558c-0.072-0.141-0.184-0.237-0.337-0.291
			c-0.21-0.063-0.455-0.061-0.735,0.011L48.207,423.145z"/>
		<path d="M49.192,416.044c-0.512-1.106-0.504-2.188,0.026-3.248c0.454-0.901,1.146-1.567,2.077-1.998
			c0.654-0.304,1.388-0.453,2.204-0.45c0.815,0.003,1.521,0.201,2.116,0.594s1.049,0.927,1.362,1.602
			c0.51,1.101,0.477,2.179-0.1,3.233c-0.485,0.89-1.188,1.548-2.107,1.975c-0.67,0.311-1.413,0.452-2.229,0.427
			s-1.508-0.236-2.075-0.632S49.473,416.649,49.192,416.044z M49.825,416.051c0.131,0.281,0.346,0.526,0.645,0.732
			c0.299,0.207,0.7,0.301,1.201,0.281c0.501-0.019,1.082-0.181,1.741-0.486c1.063-0.493,1.883-1.129,2.458-1.909
			c0.575-0.78,0.702-1.516,0.382-2.206c-0.239-0.516-0.648-0.843-1.229-0.98s-1.389,0.033-2.426,0.514
			c-1.297,0.602-2.188,1.354-2.674,2.257C49.586,414.866,49.554,415.466,49.825,416.051z"/>
		<path d="M47.623,408.4c-0.765-0.317-1.208-0.509-1.33-0.573c-0.306-0.158-0.574-0.355-0.804-0.59s-0.402-0.49-0.516-0.767
			c-0.192-0.466-0.222-0.922-0.09-1.37c0.132-0.447,0.432-0.834,0.9-1.16c-0.88-0.29-1.501-0.585-1.863-0.886
			s-0.627-0.654-0.794-1.061c-0.163-0.396-0.206-0.788-0.129-1.178c0.077-0.39,0.309-0.77,0.695-1.138
			c0.265-0.249,0.733-0.512,1.405-0.789l3.201-1.321c0.466-0.191,0.771-0.358,0.915-0.501c0.097-0.104,0.157-0.245,0.181-0.426
			c0.024-0.182-0.033-0.437-0.169-0.768l0.292-0.12l1.515,3.672l-0.292,0.121l-0.063-0.154c-0.132-0.319-0.297-0.543-0.496-0.671
			c-0.138-0.089-0.313-0.121-0.525-0.097c-0.101,0.017-0.368,0.113-0.801,0.292l-3.201,1.321c-0.606,0.25-1.004,0.5-1.193,0.749
			c-0.259,0.354-0.293,0.765-0.101,1.23c0.118,0.287,0.309,0.546,0.572,0.776s0.674,0.471,1.234,0.722l0.096-0.021l0.343-0.16
			l3.551-1.466c0.509-0.21,0.814-0.369,0.915-0.477c0.102-0.108,0.162-0.259,0.181-0.45c0.019-0.192-0.05-0.478-0.206-0.856
			l0.292-0.121l1.552,3.762l-0.292,0.121c-0.17-0.412-0.335-0.675-0.497-0.789s-0.352-0.16-0.571-0.14
			c-0.103,0.011-0.377,0.108-0.821,0.291l-3.201,1.321c-0.607,0.25-1.006,0.52-1.198,0.808c-0.248,0.382-0.284,0.786-0.107,1.214
			c0.121,0.292,0.319,0.55,0.594,0.772c0.424,0.351,0.835,0.587,1.233,0.708l3.989-1.646c0.487-0.201,0.791-0.365,0.909-0.493
			c0.118-0.129,0.187-0.273,0.205-0.437c0.018-0.163-0.057-0.447-0.224-0.854l0.292-0.121l1.519,3.681l-0.292,0.12
			c-0.141-0.341-0.275-0.564-0.405-0.669c-0.129-0.105-0.288-0.16-0.477-0.165c-0.188-0.005-0.513,0.088-0.974,0.278l-2.844,1.173
			c-0.818,0.338-1.336,0.58-1.554,0.728c-0.163,0.111-0.262,0.222-0.296,0.331s-0.022,0.234,0.036,0.375
			c0.062,0.151,0.178,0.316,0.346,0.494l-0.242,0.242l-1.835-1.867l-0.145-0.349L47.623,408.4z"/>
		<path d="M42.352,395.21c-0.748-0.358-1.18-0.572-1.298-0.643c-0.298-0.174-0.555-0.385-0.773-0.631
			c-0.217-0.246-0.375-0.511-0.475-0.792c-0.167-0.476-0.174-0.934-0.019-1.373c0.156-0.44,0.475-0.811,0.959-1.112
			c-0.864-0.335-1.468-0.662-1.814-0.981s-0.592-0.686-0.738-1.101c-0.143-0.403-0.165-0.798-0.068-1.183
			c0.097-0.386,0.348-0.752,0.753-1.101c0.277-0.234,0.759-0.473,1.444-0.714l3.266-1.152c0.476-0.168,0.789-0.319,0.94-0.453
			c0.102-0.099,0.17-0.237,0.203-0.416c0.033-0.18-0.01-0.438-0.129-0.775l0.298-0.105l1.322,3.747l-0.298,0.104l-0.056-0.157
			c-0.115-0.326-0.269-0.558-0.46-0.695c-0.133-0.096-0.306-0.137-0.519-0.124c-0.102,0.011-0.374,0.095-0.816,0.25l-3.265,1.152
			c-0.619,0.219-1.029,0.447-1.231,0.687c-0.277,0.34-0.333,0.748-0.165,1.223c0.103,0.293,0.28,0.562,0.531,0.806
			c0.25,0.244,0.649,0.506,1.195,0.785l0.097-0.016l0.351-0.143l3.622-1.278c0.52-0.183,0.833-0.326,0.939-0.429
			c0.106-0.103,0.174-0.249,0.203-0.44c0.029-0.19-0.024-0.479-0.161-0.865l0.298-0.105l1.354,3.837l-0.298,0.105
			c-0.148-0.42-0.3-0.69-0.455-0.813c-0.155-0.122-0.342-0.179-0.563-0.169c-0.104,0.005-0.382,0.088-0.835,0.248l-3.266,1.152
			c-0.619,0.218-1.031,0.466-1.238,0.744c-0.268,0.368-0.325,0.771-0.171,1.207c0.105,0.298,0.29,0.565,0.553,0.802
			c0.405,0.373,0.804,0.63,1.195,0.771l4.07-1.437c0.497-0.175,0.808-0.323,0.933-0.445s0.201-0.264,0.228-0.426
			c0.027-0.161-0.033-0.449-0.179-0.863l0.298-0.105l1.325,3.754l-0.298,0.105c-0.123-0.348-0.246-0.578-0.369-0.689
			c-0.124-0.112-0.279-0.175-0.467-0.189c-0.188-0.015-0.518,0.062-0.987,0.228l-2.901,1.023c-0.834,0.294-1.364,0.509-1.59,0.645
			c-0.168,0.104-0.273,0.208-0.312,0.315c-0.04,0.107-0.035,0.233,0.016,0.377c0.055,0.154,0.161,0.325,0.32,0.511l-0.254,0.229
			l-1.736-1.96l-0.125-0.355L42.352,395.21z"/>
		<path d="M35.728,380.837c-0.356-1.166-0.199-2.236,0.47-3.213c0.573-0.831,1.351-1.396,2.331-1.696
			c0.689-0.21,1.438-0.258,2.245-0.144c0.807,0.115,1.479,0.408,2.014,0.878c0.536,0.471,0.913,1.062,1.13,1.773
			c0.354,1.16,0.174,2.224-0.542,3.189c-0.603,0.815-1.389,1.37-2.358,1.667c-0.706,0.216-1.461,0.255-2.266,0.118
			c-0.805-0.138-1.461-0.44-1.969-0.91C36.275,382.03,35.923,381.476,35.728,380.837z M36.354,380.931
			c0.091,0.297,0.27,0.568,0.538,0.814c0.268,0.245,0.652,0.394,1.151,0.443c0.5,0.049,1.097-0.032,1.792-0.244
			c1.121-0.343,2.019-0.86,2.695-1.555c0.677-0.693,0.904-1.404,0.681-2.133c-0.166-0.544-0.527-0.924-1.083-1.14
			s-1.38-0.157-2.473,0.177c-1.367,0.418-2.354,1.04-2.958,1.868C36.28,379.725,36.166,380.314,36.354,380.931z"/>
		<path d="M35.253,373.104c-1.343-0.615-2.125-1.336-2.348-2.162c-0.114-0.424-0.106-0.817,0.023-1.181
			c0.13-0.362,0.414-0.699,0.852-1.012c0.306-0.216,0.81-0.418,1.511-0.607l3.318-0.894c0.492-0.133,0.815-0.262,0.97-0.389
			c0.125-0.1,0.208-0.229,0.25-0.39c0.042-0.16,0.013-0.427-0.088-0.801l0.306-0.082l1.035,3.845l-0.306,0.082l-0.043-0.161
			c-0.097-0.362-0.221-0.601-0.37-0.715c-0.149-0.114-0.338-0.171-0.569-0.17c-0.091,0-0.36,0.061-0.807,0.181l-3.182,0.857
			c-0.708,0.19-1.196,0.42-1.466,0.69c-0.27,0.27-0.347,0.623-0.229,1.059c0.182,0.673,0.73,1.244,1.645,1.714l4.099-1.104
			c0.526-0.142,0.843-0.261,0.951-0.356c0.143-0.123,0.234-0.265,0.273-0.424s0.001-0.451-0.113-0.875l0.306-0.082l1.035,3.844
			l-0.306,0.083l-0.046-0.17c-0.106-0.396-0.279-0.637-0.517-0.721c-0.238-0.085-0.64-0.051-1.206,0.102l-2.885,0.776
			c-0.934,0.252-1.497,0.426-1.689,0.523c-0.192,0.097-0.313,0.199-0.363,0.307c-0.05,0.108-0.055,0.235-0.016,0.382
			c0.043,0.159,0.136,0.337,0.281,0.535l-0.271,0.209l-1.581-2.086l-0.098-0.365L35.253,373.104z"/>
		<path d="M30.667,361.907l2.668-0.634l0.067,0.282c-0.787,0.416-1.291,0.829-1.512,1.24c-0.221,0.411-0.27,0.879-0.145,1.403
			c0.095,0.398,0.277,0.695,0.546,0.891s0.532,0.262,0.789,0.201c0.319-0.076,0.571-0.232,0.756-0.469
			c0.192-0.232,0.354-0.65,0.488-1.254l0.311-1.393c0.29-1.292,0.896-2.047,1.819-2.267c0.712-0.169,1.351-0.036,1.915,0.398
			c0.564,0.436,0.925,0.986,1.084,1.653c0.114,0.479,0.158,1.046,0.133,1.703c-0.012,0.201-0.004,0.362,0.024,0.481
			c0.031,0.132,0.13,0.217,0.295,0.255l0.067,0.282l-2.796,0.665l-0.067-0.282c0.76-0.35,1.289-0.798,1.586-1.344
			c0.298-0.547,0.38-1.1,0.248-1.658c-0.093-0.394-0.285-0.687-0.575-0.88c-0.29-0.192-0.597-0.251-0.922-0.174
			c-0.393,0.094-0.691,0.311-0.893,0.65c-0.202,0.341-0.411,0.973-0.625,1.896c-0.214,0.925-0.456,1.554-0.726,1.889
			c-0.264,0.334-0.644,0.56-1.14,0.678c-0.644,0.153-1.235,0.061-1.773-0.278c-0.538-0.339-0.891-0.859-1.057-1.561
			c-0.073-0.308-0.096-0.696-0.07-1.167c0.017-0.311,0.013-0.515-0.01-0.611c-0.021-0.092-0.059-0.158-0.11-0.2
			c-0.052-0.041-0.155-0.08-0.308-0.116L30.667,361.907z"/>
		<path d="M30.512,355.352l-2.414,0.991l-1.001,0.407c-0.141,0.042-0.283,0.077-0.426,0.107c-0.361,0.076-0.642,0.051-0.842-0.075
			c-0.2-0.125-0.327-0.32-0.383-0.584c-0.052-0.246-0.011-0.469,0.121-0.667c0.132-0.198,0.339-0.327,0.62-0.386
			c0.487-0.103,1.026-0.158,1.617-0.169l2.623-0.038L30.512,355.352z M31.172,358.5l-2.447,1.007
			c-0.673,0.272-1.136,0.436-1.388,0.488c-0.367,0.077-0.649,0.058-0.848-0.06s-0.324-0.305-0.378-0.563
			c-0.053-0.252-0.012-0.479,0.122-0.681s0.342-0.332,0.623-0.392c0.224-0.047,0.758-0.081,1.604-0.103l2.635-0.067L31.172,358.5z"
			/>
		<path d="M24.969,353.522l-0.363,0.066c0.271-0.955,0.647-1.777,1.128-2.468c0.69-0.979,1.56-1.797,2.609-2.455
			c1.05-0.657,2.188-1.1,3.416-1.325c1.786-0.328,3.497-0.188,5.13,0.42c1.634,0.607,2.899,1.565,3.794,2.872l-0.32,0.059
			c-0.528-0.636-1.172-1.12-1.934-1.454c-0.761-0.333-1.685-0.515-2.772-0.545c-1.087-0.029-2.198,0.061-3.333,0.27
			c-1.228,0.226-2.331,0.526-3.31,0.903c-0.769,0.29-1.373,0.588-1.811,0.892s-0.847,0.676-1.225,1.114
			C25.601,352.311,25.264,352.86,24.969,353.522z"/>
		<path d="M24.182,340.194l2.618-0.382l-0.271-1.861l0.608-0.089l0.272,1.861l5.166-0.754c0.516-0.075,0.853-0.2,1.011-0.374
			c0.158-0.175,0.22-0.377,0.187-0.609c-0.028-0.191-0.115-0.368-0.26-0.53c-0.145-0.163-0.341-0.276-0.587-0.341l-0.05-0.339
			c0.598,0.12,1.067,0.344,1.409,0.673c0.341,0.33,0.541,0.691,0.598,1.086c0.039,0.267,0.003,0.538-0.108,0.814
			c-0.11,0.277-0.294,0.496-0.552,0.658c-0.257,0.162-0.673,0.285-1.248,0.369l-5.357,0.781l0.184,1.262l-0.287,0.041
			c-0.174-0.3-0.438-0.595-0.791-0.884c-0.353-0.288-0.757-0.533-1.212-0.733c-0.24-0.101-0.67-0.228-1.291-0.38L24.182,340.194z"/>
		<path d="M21.691,335.24l5.847-0.7c-0.787-0.562-1.303-1.019-1.549-1.373c-0.246-0.354-0.392-0.72-0.437-1.098
			c-0.054-0.454,0.024-0.858,0.235-1.215c0.211-0.355,0.575-0.645,1.091-0.865c0.359-0.155,1.033-0.292,2.022-0.41l2.827-0.339
			c0.506-0.061,0.848-0.143,1.024-0.246c0.133-0.075,0.231-0.188,0.296-0.337c0.064-0.149,0.075-0.41,0.03-0.782l0.314-0.037
			l0.47,3.927l-0.314,0.037l-0.022-0.183c-0.044-0.373-0.132-0.625-0.263-0.757s-0.31-0.214-0.538-0.245
			c-0.095-0.007-0.37,0.018-0.824,0.072l-2.827,0.338c-0.873,0.104-1.44,0.219-1.703,0.342s-0.45,0.291-0.563,0.505
			c-0.113,0.215-0.153,0.461-0.12,0.74c0.034,0.285,0.146,0.573,0.333,0.863c0.188,0.29,0.538,0.623,1.049,0.998l4.224-0.505
			c0.547-0.065,0.884-0.137,1.01-0.214s0.225-0.204,0.295-0.381s0.081-0.469,0.032-0.876l0.314-0.037l0.474,3.962l-0.314,0.037
			c-0.042-0.354-0.131-0.627-0.266-0.817c-0.072-0.109-0.194-0.189-0.365-0.24c-0.171-0.05-0.507-0.045-1.007,0.015l-7.234,0.866
			c-0.914,0.109-1.472,0.198-1.676,0.267c-0.205,0.069-0.339,0.153-0.404,0.252c-0.065,0.1-0.088,0.225-0.07,0.376
			c0.015,0.122,0.085,0.314,0.211,0.577l-0.291,0.158l-1.264-2.273L21.691,335.24z"/>
		<path d="M31.791,322.809c0.709,0.767,1.122,1.25,1.24,1.452c0.173,0.302,0.276,0.632,0.308,0.987
			c0.049,0.555-0.101,1.027-0.448,1.42s-0.831,0.616-1.45,0.671c-0.391,0.034-0.737-0.023-1.039-0.173
			c-0.418-0.205-0.828-0.588-1.23-1.149s-0.915-1.509-1.539-2.842l-0.315,0.027c-0.8,0.071-1.337,0.246-1.613,0.526
			c-0.275,0.279-0.392,0.662-0.349,1.146c0.032,0.367,0.157,0.65,0.375,0.85c0.218,0.204,0.456,0.295,0.712,0.272l0.506-0.062
			c0.269-0.023,0.482,0.026,0.64,0.151c0.158,0.124,0.247,0.297,0.266,0.52c0.019,0.215-0.041,0.398-0.181,0.549
			s-0.341,0.237-0.604,0.261c-0.502,0.044-0.986-0.172-1.451-0.648c-0.466-0.477-0.739-1.179-0.821-2.106
			c-0.063-0.713,0.005-1.307,0.205-1.783c0.15-0.36,0.411-0.639,0.782-0.836c0.242-0.128,0.75-0.226,1.527-0.294l2.723-0.24
			c0.765-0.067,1.232-0.123,1.401-0.167c0.17-0.045,0.281-0.104,0.333-0.176c0.053-0.072,0.075-0.152,0.067-0.239
			c-0.008-0.093-0.036-0.173-0.083-0.239c-0.086-0.116-0.32-0.334-0.702-0.653l0.49-0.044c0.933,0.577,1.426,1.163,1.479,1.759
			c0.025,0.286-0.054,0.522-0.237,0.709C32.6,322.643,32.269,322.76,31.791,322.809z M31.222,322.858l-3.056,0.269
			c0.428,0.852,0.726,1.398,0.895,1.643c0.297,0.438,0.595,0.744,0.893,0.918c0.298,0.174,0.613,0.246,0.946,0.217
			c0.42-0.037,0.758-0.193,1.013-0.469c0.255-0.275,0.369-0.576,0.34-0.903C32.212,324.089,31.869,323.531,31.222,322.858z"/>
		<path d="M21.857,317.711l2.64-0.17l-0.12-1.877l0.614-0.039l0.121,1.877l5.21-0.334c0.521-0.033,0.867-0.131,1.038-0.291
			c0.172-0.161,0.25-0.358,0.235-0.592c-0.012-0.193-0.084-0.377-0.216-0.551c-0.131-0.173-0.317-0.302-0.558-0.387l-0.022-0.342
			c0.586,0.168,1.036,0.43,1.35,0.785s0.483,0.732,0.508,1.13c0.018,0.269-0.04,0.537-0.173,0.804
			c-0.133,0.268-0.334,0.471-0.604,0.611c-0.27,0.141-0.694,0.229-1.273,0.267l-5.403,0.347l0.082,1.271l-0.29,0.02
			c-0.149-0.313-0.388-0.629-0.717-0.945c-0.328-0.316-0.711-0.593-1.149-0.829c-0.231-0.12-0.649-0.28-1.255-0.483L21.857,317.711z
			"/>
		<path d="M21.415,307.963l2.645-0.077l-0.056-1.88l0.615-0.019l0.055,1.88l5.219-0.154c0.521-0.015,0.871-0.1,1.047-0.254
			c0.177-0.155,0.263-0.35,0.255-0.584c-0.005-0.193-0.071-0.379-0.196-0.557s-0.307-0.313-0.544-0.406l-0.01-0.343
			c0.58,0.188,1.021,0.466,1.321,0.831c0.301,0.367,0.458,0.749,0.469,1.147c0.008,0.27-0.059,0.535-0.201,0.798
			c-0.142,0.262-0.35,0.458-0.625,0.59c-0.274,0.131-0.702,0.205-1.282,0.222l-5.412,0.159l0.038,1.274l-0.29,0.009
			c-0.138-0.318-0.366-0.642-0.684-0.969c-0.317-0.328-0.691-0.617-1.12-0.869c-0.227-0.127-0.639-0.303-1.238-0.525L21.415,307.963
			z"/>
		<path d="M19.531,302.859l5.888-0.096c-0.726-0.639-1.192-1.146-1.4-1.524c-0.208-0.378-0.316-0.757-0.322-1.138
			c-0.007-0.457,0.112-0.852,0.359-1.184s0.638-0.582,1.174-0.748c0.373-0.117,1.058-0.185,2.054-0.201l2.847-0.046
			c0.51-0.008,0.858-0.055,1.044-0.14c0.14-0.061,0.25-0.162,0.329-0.305c0.08-0.142,0.117-0.4,0.11-0.775l0.316-0.005l0.064,3.954
			l-0.316,0.006l-0.003-0.185c-0.006-0.375-0.067-0.635-0.184-0.779c-0.116-0.145-0.287-0.245-0.51-0.3
			c-0.094-0.016-0.369-0.02-0.826-0.013l-2.848,0.046c-0.878,0.015-1.455,0.069-1.729,0.164c-0.273,0.096-0.478,0.244-0.612,0.445
			s-0.199,0.443-0.195,0.725c0.005,0.287,0.086,0.584,0.243,0.893c0.157,0.308,0.471,0.675,0.94,1.101l4.253-0.069
			c0.551-0.008,0.893-0.045,1.027-0.108s0.245-0.18,0.333-0.349c0.088-0.168,0.128-0.457,0.122-0.867l0.316-0.006l0.064,3.99
			l-0.316,0.006c-0.006-0.357-0.066-0.639-0.181-0.842c-0.06-0.116-0.173-0.208-0.338-0.275c-0.165-0.068-0.5-0.098-1.003-0.09
			l-7.285,0.119c-0.92,0.014-1.485,0.045-1.695,0.093c-0.21,0.048-0.353,0.117-0.427,0.209c-0.075,0.093-0.111,0.214-0.108,0.366
			c0.002,0.123,0.052,0.322,0.15,0.596l-0.306,0.128l-1.023-2.392L19.531,302.859z"/>
		<path d="M27.025,294.65c1.195,0.037,2.14-0.228,2.835-0.795c0.695-0.568,1.053-1.247,1.074-2.037
			c0.014-0.527-0.119-0.99-0.398-1.387c-0.28-0.398-0.767-0.738-1.463-1.02l0.183-0.268c0.799,0.145,1.521,0.521,2.164,1.13
			c0.643,0.609,0.953,1.358,0.929,2.249c-0.026,0.967-0.424,1.784-1.195,2.452s-1.792,0.985-3.063,0.951
			c-1.376-0.036-2.44-0.419-3.191-1.145c-0.751-0.727-1.113-1.622-1.084-2.688c0.024-0.902,0.341-1.635,0.951-2.199
			s1.413-0.833,2.409-0.807L27.025,294.65z M26.516,294.637l0.1-3.726c-0.516,0.016-0.881,0.067-1.095,0.155
			c-0.332,0.138-0.595,0.35-0.791,0.634c-0.195,0.285-0.297,0.585-0.305,0.901c-0.013,0.486,0.164,0.927,0.532,1.32
			C25.324,294.316,25.844,294.554,26.516,294.637z"/>
		<path d="M25.18,283.826l-0.815-2.546l0.025-0.333l1.875,0.14c-0.676-0.468-1.141-0.921-1.393-1.359
			c-0.252-0.438-0.361-0.89-0.327-1.351c0.06-0.807,0.425-1.455,1.096-1.945c0.82-0.604,1.85-0.859,3.089-0.768
			c1.385,0.104,2.5,0.586,3.347,1.447c0.693,0.711,1.003,1.562,0.929,2.555c-0.032,0.434-0.121,0.803-0.267,1.109
			c-0.105,0.227-0.3,0.477-0.584,0.749l2.445,0.182c0.549,0.041,0.901,0.033,1.055-0.022c0.154-0.057,0.281-0.164,0.381-0.324
			s0.166-0.459,0.199-0.898l0.324,0.025l-0.312,4.207l-0.324-0.025l0.016-0.219c0.03-0.32-0.011-0.6-0.123-0.838
			c-0.056-0.115-0.154-0.209-0.292-0.281c-0.139-0.072-0.5-0.129-1.084-0.173l-7.59-0.563c-0.52-0.039-0.852-0.04-0.996-0.004
			c-0.144,0.036-0.254,0.104-0.333,0.2c-0.078,0.097-0.123,0.233-0.136,0.408c-0.011,0.14,0.017,0.321,0.083,0.544L25.18,283.826z
			 M26.782,281.125l2.998,0.223c0.648,0.049,1.077,0.054,1.286,0.017c0.345-0.057,0.658-0.235,0.938-0.534s0.439-0.691,0.475-1.176
			c0.043-0.585-0.149-1.075-0.578-1.471c-0.561-0.518-1.381-0.817-2.462-0.897c-1.227-0.091-2.191,0.107-2.891,0.597
			c-0.483,0.34-0.745,0.767-0.783,1.281c-0.021,0.279,0.029,0.562,0.148,0.848C26.002,280.23,26.292,280.602,26.782,281.125z"/>
		<path d="M25.878,267.053l4.85,0.521c0.926,0.1,1.495,0.139,1.707,0.117s0.363-0.076,0.455-0.162
			c0.092-0.088,0.145-0.195,0.159-0.324c0.02-0.18-0.008-0.39-0.083-0.627l0.319-0.09l0.73,2.5l-0.042,0.394l-1.695-0.183
			c0.672,0.768,1.084,1.343,1.238,1.725s0.208,0.773,0.166,1.176c-0.048,0.449-0.22,0.824-0.515,1.125s-0.653,0.494-1.074,0.578
			s-1.005,0.086-1.751,0.006l-3.574-0.384c-0.378-0.041-0.645-0.028-0.799,0.038c-0.154,0.065-0.28,0.174-0.375,0.326
			c-0.096,0.152-0.164,0.438-0.203,0.857l-0.324-0.035l0.302-2.805l5.357,0.576c0.746,0.08,1.249,0.004,1.51-0.23
			c0.261-0.234,0.411-0.535,0.451-0.902c0.027-0.25-0.021-0.543-0.145-0.877c-0.123-0.335-0.382-0.744-0.778-1.229l-4.535-0.488
			c-0.455-0.049-0.771,0.002-0.949,0.15s-0.301,0.484-0.369,1.008l-0.323-0.035L25.878,267.053z"/>
		<path d="M27.809,262.963c-0.964-0.922-1.383-1.831-1.257-2.725c0.116-0.818,0.566-1.482,1.351-1.992
			c0.786-0.511,1.784-0.68,2.997-0.51c1.416,0.201,2.49,0.832,3.221,1.894c0.629,0.911,0.873,1.863,0.733,2.855
			c-0.065,0.464-0.216,0.923-0.452,1.378s-0.557,0.908-0.964,1.359l-8.259-1.166c-0.905-0.128-1.465-0.185-1.68-0.171
			c-0.215,0.015-0.367,0.062-0.455,0.145s-0.143,0.192-0.163,0.332c-0.023,0.163-0.005,0.372,0.053,0.629l-0.322,0.079l-0.637-2.531
			l0.056-0.392L27.809,262.963z M28.366,263.043l4.769,0.673c0.332-0.255,0.594-0.53,0.787-0.825
			c0.193-0.295,0.312-0.608,0.359-0.939c0.075-0.527-0.146-1.061-0.662-1.598c-0.516-0.537-1.328-0.885-2.436-1.041
			c-1.021-0.145-1.838-0.027-2.451,0.352c-0.613,0.377-0.96,0.856-1.042,1.437c-0.043,0.308-0.008,0.626,0.105,0.956
			C27.878,262.305,28.068,262.633,28.366,263.043z"/>
		<path d="M23.515,252.463l10.532,1.766c0.497,0.084,0.833,0.104,1.006,0.058c0.174-0.045,0.315-0.136,0.424-0.272
			c0.109-0.136,0.198-0.408,0.267-0.819l0.312,0.053l-0.653,3.892l-0.312-0.053c0.061-0.363,0.065-0.618,0.012-0.764
			c-0.053-0.146-0.16-0.271-0.32-0.375c-0.161-0.104-0.486-0.197-0.978-0.279l-7.211-1.209c-0.896-0.15-1.45-0.223-1.662-0.217
			s-0.363,0.047-0.453,0.125c-0.09,0.076-0.147,0.184-0.17,0.322c-0.025,0.15-0.011,0.35,0.042,0.596l-0.328,0.097l-0.574-2.529
			L23.515,252.463z"/>
		<path d="M24.302,248.071c0.045-0.241,0.169-0.432,0.371-0.569c0.202-0.139,0.423-0.186,0.665-0.141
			c0.242,0.045,0.434,0.17,0.575,0.371c0.141,0.203,0.189,0.425,0.144,0.666c-0.045,0.242-0.17,0.434-0.375,0.574
			s-0.428,0.188-0.67,0.143c-0.242-0.045-0.432-0.168-0.57-0.37C24.302,248.544,24.255,248.318,24.302,248.071z M28.574,248.127
			l6.359,1.188c0.495,0.093,0.832,0.118,1.009,0.077s0.32-0.125,0.427-0.252c0.107-0.125,0.195-0.375,0.266-0.75l0.311,0.059
			l-0.718,3.844l-0.311-0.058c0.072-0.386,0.083-0.652,0.033-0.799c-0.05-0.146-0.154-0.274-0.312-0.385s-0.482-0.21-0.972-0.302
			l-3.05-0.57c-0.858-0.16-1.419-0.238-1.682-0.233c-0.192,0.006-0.332,0.045-0.42,0.118c-0.088,0.072-0.146,0.184-0.174,0.334
			c-0.03,0.161-0.023,0.365,0.02,0.611l-0.333,0.062l-0.522-2.564L28.574,248.127z"/>
		<path d="M35.536,240.211c0.992,0.432,1.703,1.016,2.13,1.754c0.428,0.737,0.562,1.481,0.403,2.232
			c-0.189,0.895-0.73,1.594-1.622,2.1c-0.892,0.506-1.977,0.623-3.255,0.353c-1.238-0.263-2.166-0.844-2.784-1.744
			c-0.618-0.9-0.817-1.866-0.599-2.898c0.164-0.774,0.504-1.366,1.02-1.778c0.515-0.412,0.994-0.571,1.435-0.479
			c0.218,0.047,0.379,0.154,0.484,0.323s0.13,0.38,0.077,0.632c-0.072,0.338-0.234,0.57-0.489,0.696
			c-0.141,0.071-0.384,0.088-0.729,0.048c-0.345-0.041-0.627,0.021-0.848,0.184c-0.214,0.164-0.359,0.424-0.435,0.779
			c-0.122,0.574-0.007,1.08,0.343,1.52c0.464,0.584,1.157,0.973,2.08,1.168c0.94,0.199,1.819,0.145,2.636-0.164
			c0.817-0.309,1.309-0.856,1.475-1.642c0.119-0.562,0.034-1.106-0.255-1.636c-0.197-0.371-0.61-0.779-1.241-1.225L35.536,240.211z"
			/>
		<path d="M38.565,228.078c0.972,0.478,1.654,1.094,2.047,1.852c0.393,0.756,0.493,1.506,0.299,2.248
			c-0.231,0.885-0.803,1.559-1.718,2.022c-0.914,0.464-2.003,0.531-3.268,0.201c-1.225-0.319-2.125-0.943-2.7-1.872
			c-0.575-0.928-0.729-1.902-0.463-2.923c0.2-0.765,0.567-1.342,1.101-1.729c0.534-0.387,1.02-0.523,1.456-0.41
			c0.215,0.057,0.372,0.172,0.469,0.345c0.097,0.174,0.113,0.386,0.048,0.635c-0.087,0.335-0.261,0.559-0.521,0.673
			c-0.144,0.065-0.387,0.07-0.73,0.014s-0.628-0.008-0.855,0.145c-0.222,0.154-0.378,0.407-0.47,0.758
			c-0.148,0.568-0.057,1.079,0.272,1.534c0.436,0.604,1.11,1.025,2.023,1.264c0.93,0.243,1.81,0.229,2.641-0.042
			c0.831-0.271,1.347-0.795,1.55-1.572c0.145-0.555,0.085-1.104-0.179-1.645c-0.179-0.38-0.574-0.807-1.183-1.281L38.565,228.078z"
			/>
		<path d="M41.971,223.139c0.381,0.973,0.589,1.574,0.625,1.805c0.052,0.344,0.027,0.688-0.073,1.031
			c-0.156,0.534-0.468,0.921-0.935,1.16c-0.467,0.238-0.998,0.271-1.594,0.096c-0.377-0.11-0.678-0.29-0.904-0.539
			c-0.315-0.343-0.558-0.85-0.728-1.519c-0.17-0.669-0.303-1.739-0.397-3.208l-0.304-0.088c-0.771-0.227-1.335-0.258-1.693-0.098
			s-0.606,0.475-0.743,0.941c-0.104,0.354-0.09,0.663,0.04,0.927c0.128,0.271,0.316,0.44,0.564,0.513l0.494,0.127
			c0.259,0.076,0.439,0.201,0.541,0.373c0.102,0.174,0.122,0.367,0.059,0.581c-0.061,0.208-0.184,0.356-0.369,0.446
			s-0.404,0.097-0.657,0.023c-0.484-0.143-0.855-0.52-1.116-1.133c-0.26-0.613-0.259-1.367,0.003-2.262
			c0.201-0.686,0.481-1.215,0.84-1.586c0.271-0.28,0.616-0.445,1.033-0.494c0.271-0.03,0.781,0.064,1.529,0.283l2.624,0.768
			c0.736,0.217,1.192,0.334,1.366,0.355c0.174,0.02,0.299,0.006,0.374-0.043c0.075-0.047,0.125-0.113,0.15-0.198
			c0.026-0.09,0.03-0.175,0.01-0.253c-0.039-0.141-0.177-0.428-0.416-0.863l0.473,0.138c0.659,0.877,0.904,1.603,0.736,2.175
			c-0.081,0.276-0.24,0.467-0.479,0.574C42.785,223.279,42.434,223.268,41.971,223.139z M41.423,222.979l-2.944-0.862
			c0.089,0.948,0.167,1.566,0.235,1.854c0.118,0.518,0.283,0.91,0.497,1.181s0.481,0.452,0.802,0.546
			c0.405,0.119,0.776,0.096,1.114-0.067c0.338-0.163,0.553-0.403,0.646-0.718C41.897,224.484,41.781,223.84,41.423,222.979z"/>
		<path d="M38.511,215.969c-0.786-1.25-1.046-2.281-0.78-3.094c0.137-0.418,0.359-0.743,0.666-0.976
			c0.308-0.231,0.73-0.358,1.267-0.38c0.374-0.014,0.907,0.094,1.597,0.319l3.266,1.069c0.484,0.159,0.826,0.228,1.024,0.206
			c0.159-0.016,0.3-0.079,0.423-0.189s0.244-0.351,0.364-0.718l0.301,0.099l-1.239,3.784l-0.301-0.1l0.052-0.158
			c0.117-0.356,0.144-0.623,0.082-0.801c-0.062-0.178-0.19-0.329-0.383-0.454c-0.076-0.05-0.334-0.146-0.774-0.29l-3.132-1.026
			c-0.696-0.228-1.231-0.303-1.605-0.226c-0.374,0.078-0.631,0.332-0.771,0.76c-0.217,0.664-0.071,1.441,0.438,2.336l4.034,1.321
			c0.518,0.17,0.848,0.244,0.991,0.223c0.187-0.024,0.34-0.093,0.46-0.205c0.12-0.112,0.249-0.376,0.385-0.794l0.301,0.098
			l-1.24,3.784l-0.301-0.099l0.055-0.167c0.127-0.39,0.115-0.685-0.038-0.886s-0.508-0.394-1.065-0.576l-2.84-0.93
			c-0.918-0.301-1.485-0.463-1.699-0.487s-0.372-0.005-0.472,0.058s-0.175,0.166-0.222,0.312c-0.051,0.155-0.07,0.356-0.058,0.601
			l-0.342,0.027l-0.18-2.612l0.118-0.359L38.511,215.969z"/>
		<path d="M41.417,202.479l1.694,0.64c-0.891-1.057-1.211-1.917-0.961-2.58c0.114-0.302,0.3-0.517,0.558-0.645
			c0.258-0.128,0.508-0.146,0.749-0.055c0.214,0.08,0.368,0.22,0.462,0.418c0.094,0.199,0.104,0.396,0.029,0.594
			c-0.073,0.191-0.249,0.371-0.527,0.539c-0.279,0.166-0.44,0.308-0.484,0.422c-0.038,0.1-0.023,0.227,0.043,0.383
			c0.132,0.332,0.406,0.727,0.821,1.185l3.61,1.362c0.417,0.158,0.751,0.225,1.004,0.201c0.175-0.015,0.346-0.094,0.513-0.238
			c0.167-0.144,0.315-0.385,0.443-0.725l0.296,0.111l-1.457,3.856l-0.296-0.112c0.145-0.383,0.192-0.691,0.142-0.923
			c-0.036-0.171-0.14-0.319-0.311-0.446c-0.083-0.062-0.344-0.177-0.782-0.342l-2.919-1.104c-0.877-0.33-1.406-0.51-1.586-0.537
			s-0.328-0.008-0.44,0.059c-0.113,0.067-0.196,0.172-0.25,0.314c-0.064,0.17-0.096,0.377-0.094,0.622l-0.327-0.029l-0.061-2.626
			L41.417,202.479z"/>
		<path d="M46.298,198.917c1.104,0.457,2.082,0.542,2.933,0.257c0.851-0.287,1.425-0.796,1.724-1.528
			c0.199-0.488,0.238-0.968,0.116-1.438c-0.122-0.47-0.458-0.96-1.009-1.469l0.266-0.187c0.697,0.417,1.239,1.024,1.625,1.821
			c0.387,0.797,0.413,1.607,0.076,2.432c-0.365,0.896-1.026,1.52-1.983,1.873s-2.024,0.29-3.202-0.19
			c-1.275-0.52-2.136-1.252-2.583-2.196c-0.447-0.945-0.469-1.911-0.067-2.898c0.341-0.836,0.896-1.41,1.666-1.723
			c0.77-0.312,1.616-0.281,2.538,0.096L46.298,198.917z M45.826,198.725l1.407-3.451c-0.488-0.167-0.848-0.247-1.079-0.24
			c-0.359,0.012-0.68,0.117-0.963,0.314s-0.484,0.443-0.604,0.736c-0.184,0.45-0.173,0.924,0.032,1.422
			S45.227,198.41,45.826,198.725z"/>
		<path d="M43.104,187.209l9.789,4.269c0.462,0.202,0.783,0.302,0.962,0.3s0.339-0.055,0.478-0.16s0.291-0.35,0.458-0.73l0.29,0.126
			l-1.578,3.617l-0.29-0.126c0.147-0.339,0.213-0.585,0.198-0.738c-0.016-0.154-0.089-0.302-0.22-0.441
			c-0.131-0.141-0.424-0.311-0.881-0.51l-6.703-2.922c-0.833-0.363-1.352-0.568-1.56-0.613c-0.207-0.046-0.363-0.042-0.47,0.011
			c-0.106,0.053-0.187,0.144-0.243,0.272c-0.061,0.14-0.095,0.336-0.103,0.588l-0.342,0.014l0.057-2.593L43.104,187.209z"/>
		<path d="M44.927,183.15c0.103-0.223,0.269-0.377,0.498-0.463c0.229-0.085,0.456-0.076,0.679,0.026
			c0.224,0.103,0.379,0.269,0.467,0.499s0.081,0.458-0.022,0.682s-0.271,0.379-0.503,0.465c-0.233,0.087-0.461,0.079-0.685-0.023
			s-0.378-0.269-0.463-0.498C44.812,183.609,44.822,183.38,44.927,183.15z M49.059,184.242l5.88,2.695
			c0.458,0.21,0.778,0.316,0.96,0.319c0.183,0.003,0.341-0.044,0.475-0.14c0.134-0.097,0.281-0.318,0.439-0.664l0.288,0.132
			l-1.629,3.556l-0.288-0.133c0.164-0.356,0.239-0.611,0.226-0.766c-0.013-0.154-0.083-0.305-0.21-0.449
			c-0.126-0.146-0.417-0.322-0.869-0.529l-2.82-1.293c-0.794-0.363-1.319-0.575-1.575-0.635c-0.188-0.041-0.333-0.037-0.436,0.013
			s-0.187,0.144-0.25,0.282c-0.068,0.148-0.111,0.348-0.129,0.598l-0.339-0.02l0.116-2.615L49.059,184.242z"/>
		<path d="M58.446,181.121c0.211,1.023,0.316,1.65,0.313,1.885c-0.007,0.348-0.089,0.684-0.246,1.004
			c-0.244,0.5-0.616,0.829-1.117,0.986c-0.5,0.156-1.029,0.099-1.587-0.174c-0.353-0.172-0.62-0.4-0.801-0.684
			c-0.253-0.391-0.407-0.93-0.462-1.619c-0.055-0.688-0.006-1.765,0.147-3.229l-0.284-0.139c-0.722-0.352-1.272-0.479-1.653-0.381
			s-0.677,0.365-0.89,0.803c-0.162,0.332-0.201,0.639-0.117,0.921c0.081,0.288,0.238,0.487,0.47,0.601l0.466,0.208
			c0.242,0.118,0.399,0.271,0.47,0.459s0.058,0.382-0.04,0.582c-0.095,0.194-0.241,0.321-0.438,0.378s-0.415,0.027-0.651-0.088
			c-0.453-0.221-0.756-0.656-0.909-1.305c-0.153-0.648-0.025-1.391,0.383-2.229c0.313-0.643,0.678-1.115,1.094-1.422
			c0.315-0.23,0.682-0.335,1.102-0.312c0.273,0.016,0.759,0.193,1.46,0.535l2.457,1.199c0.69,0.336,1.119,0.529,1.287,0.578
			c0.168,0.051,0.293,0.058,0.375,0.022c0.082-0.034,0.143-0.092,0.181-0.171c0.041-0.084,0.059-0.167,0.053-0.248
			c-0.015-0.145-0.103-0.451-0.265-0.921l0.442,0.216c0.502,0.975,0.622,1.73,0.36,2.268c-0.126,0.259-0.316,0.42-0.569,0.486
			C59.224,181.396,58.88,181.327,58.446,181.121z M57.932,180.871l-2.757-1.346c-0.072,0.95-0.099,1.572-0.08,1.869
			c0.029,0.529,0.126,0.944,0.292,1.246c0.166,0.303,0.398,0.527,0.698,0.674c0.379,0.185,0.749,0.225,1.11,0.121
			c0.36-0.104,0.613-0.305,0.756-0.6C58.146,182.436,58.14,181.781,57.932,180.871z"/>
		<path d="M56.091,173.582c-0.595-1.195-0.682-2.191-0.261-2.99c0.385-0.73,1.034-1.203,1.945-1.418s1.909-0.037,2.992,0.535
			c1.265,0.666,2.062,1.623,2.391,2.87c0.283,1.071,0.191,2.049-0.276,2.935c-0.219,0.415-0.516,0.797-0.892,1.145
			c-0.375,0.349-0.831,0.666-1.367,0.953l-7.377-3.891c-0.809-0.426-1.316-0.67-1.523-0.729c-0.207-0.06-0.366-0.066-0.477-0.019
			c-0.111,0.048-0.2,0.134-0.265,0.258c-0.077,0.146-0.131,0.349-0.163,0.61l-0.33-0.035l0.257-2.598l0.185-0.35L56.091,173.582z
			 M56.589,173.844l4.26,2.248c0.399-0.129,0.739-0.299,1.02-0.512c0.281-0.213,0.5-0.467,0.656-0.762
			c0.249-0.472,0.221-1.047-0.083-1.728s-0.951-1.281-1.94-1.804c-0.912-0.48-1.721-0.646-2.425-0.498
			c-0.705,0.148-1.193,0.481-1.467,1c-0.145,0.274-0.22,0.586-0.225,0.935C56.38,172.985,56.448,173.359,56.589,173.844z"/>
		<path d="M55.601,162.248l9.314,5.224c0.439,0.247,0.749,0.378,0.927,0.395c0.179,0.017,0.343-0.021,0.492-0.112
			c0.148-0.092,0.324-0.318,0.528-0.682l0.276,0.155l-1.93,3.441l-0.276-0.155c0.18-0.321,0.271-0.56,0.27-0.715
			c0-0.154-0.059-0.309-0.175-0.461c-0.116-0.152-0.391-0.35-0.826-0.594l-6.378-3.577c-0.792-0.444-1.289-0.699-1.49-0.765
			c-0.202-0.066-0.358-0.078-0.469-0.037c-0.111,0.043-0.201,0.125-0.27,0.247c-0.074,0.134-0.128,0.325-0.161,0.575l-0.341-0.021
			l0.315-2.574L55.601,162.248z"/>
		<path d="M60.397,162.746l1.92-3.225l0.279,0.166l-0.094,0.158c-0.135,0.227-0.187,0.426-0.156,0.598
			c0.03,0.172,0.119,0.301,0.265,0.389c0.197,0.116,0.518,0.195,0.964,0.236l4.492,0.393l-2.899-3.823
			c-0.156-0.208-0.334-0.372-0.536-0.492c-0.09-0.054-0.169-0.077-0.235-0.069c-0.079,0.008-0.161,0.045-0.245,0.111
			c-0.083,0.065-0.19,0.207-0.319,0.424l-0.279-0.167l1.34-2.251l0.28,0.167c-0.091,0.198-0.136,0.366-0.136,0.503
			s0.048,0.314,0.142,0.534c0.043,0.087,0.186,0.288,0.429,0.603l5.225,6.927c0.507,0.671,0.801,1.328,0.881,1.973
			c0.08,0.644-0.001,1.171-0.244,1.578c-0.177,0.297-0.408,0.49-0.693,0.579c-0.285,0.09-0.538,0.068-0.76-0.063
			c-0.211-0.126-0.34-0.296-0.386-0.511s0.003-0.443,0.147-0.686c0.099-0.166,0.289-0.359,0.571-0.58
			c0.195-0.156,0.308-0.26,0.338-0.311c0.09-0.15,0.11-0.362,0.06-0.634c-0.049-0.271-0.244-0.632-0.584-1.079l-0.909-1.206
			l-6.697-0.622c-0.201-0.018-0.467-0.013-0.797,0.016c-0.251,0.021-0.431,0.054-0.54,0.098c-0.149,0.068-0.331,0.213-0.544,0.434
			L60.397,162.746z"/>
		<path d="M76.053,150.63c0.077,1.042,0.098,1.678,0.064,1.908c-0.053,0.345-0.178,0.667-0.375,0.964
			c-0.307,0.465-0.719,0.742-1.236,0.832c-0.516,0.09-1.033-0.037-1.551-0.379c-0.327-0.217-0.562-0.479-0.705-0.783
			c-0.199-0.42-0.282-0.976-0.246-1.666c0.035-0.689,0.225-1.75,0.568-3.182l-0.264-0.174c-0.669-0.443-1.199-0.642-1.589-0.594
			c-0.39,0.047-0.719,0.273-0.988,0.68c-0.204,0.307-0.282,0.606-0.236,0.897c0.043,0.296,0.172,0.515,0.387,0.657l0.435,0.267
			c0.225,0.148,0.36,0.321,0.406,0.517c0.046,0.195,0.007,0.387-0.115,0.572c-0.12,0.181-0.281,0.286-0.484,0.316
			c-0.203,0.031-0.415-0.026-0.634-0.172c-0.42-0.278-0.664-0.749-0.73-1.412c-0.067-0.662,0.156-1.383,0.671-2.159
			c0.395-0.596,0.818-1.019,1.271-1.267c0.342-0.188,0.72-0.243,1.133-0.166c0.269,0.051,0.728,0.291,1.377,0.722l2.279,1.509
			c0.64,0.424,1.04,0.672,1.2,0.742c0.161,0.072,0.284,0.096,0.37,0.071s0.153-0.072,0.202-0.146
			c0.051-0.078,0.08-0.158,0.084-0.239c0.004-0.145-0.043-0.46-0.142-0.948l0.411,0.271c0.37,1.033,0.391,1.799,0.061,2.297
			c-0.159,0.239-0.368,0.375-0.628,0.406C76.789,151.005,76.457,150.891,76.053,150.63z M75.577,150.314l-2.558-1.693
			c-0.195,0.932-0.303,1.545-0.323,1.841c-0.041,0.528,0.001,0.954,0.125,1.274c0.125,0.322,0.326,0.574,0.604,0.759
			c0.352,0.233,0.713,0.321,1.084,0.265s0.647-0.221,0.829-0.494C75.584,151.895,75.664,151.244,75.577,150.314z"/>
		<path d="M74.861,142.762c-0.382-1.427-0.326-2.489,0.168-3.188c0.254-0.358,0.562-0.604,0.924-0.734
			c0.362-0.131,0.803-0.127,1.322,0.011c0.361,0.099,0.839,0.356,1.432,0.776l2.804,1.986c0.416,0.295,0.722,0.461,0.917,0.5
			c0.157,0.031,0.31,0.013,0.46-0.057c0.15-0.07,0.337-0.263,0.56-0.578l0.258,0.183l-2.301,3.249l-0.258-0.184l0.097-0.136
			c0.217-0.306,0.322-0.553,0.315-0.741c-0.007-0.188-0.084-0.369-0.232-0.547c-0.059-0.069-0.276-0.238-0.654-0.506l-2.689-1.904
			c-0.598-0.424-1.086-0.653-1.467-0.689c-0.38-0.036-0.701,0.131-0.961,0.498c-0.403,0.569-0.494,1.355-0.271,2.36l3.464,2.454
			c0.445,0.314,0.738,0.483,0.881,0.505c0.186,0.032,0.353,0.011,0.5-0.06c0.147-0.072,0.348-0.287,0.602-0.646l0.258,0.183
			l-2.301,3.249l-0.258-0.183l0.102-0.144c0.237-0.335,0.312-0.62,0.226-0.858c-0.087-0.236-0.369-0.525-0.847-0.863l-2.439-1.728
			c-0.789-0.56-1.282-0.882-1.479-0.968s-0.354-0.113-0.468-0.084c-0.115,0.03-0.216,0.107-0.304,0.232
			c-0.095,0.133-0.172,0.318-0.232,0.557l-0.334-0.076l0.599-2.548l0.218-0.309L74.861,142.762z"/>
		<path d="M86.745,136.163c0.089,0.562,0.092,1.045,0.007,1.451c-0.084,0.407-0.258,0.783-0.52,1.128
			c-0.531,0.701-1.289,1.09-2.271,1.168s-1.933-0.232-2.853-0.93c-0.919-0.698-1.541-1.627-1.865-2.784
			c-0.324-1.158-0.14-2.192,0.551-3.103c0.428-0.564,0.962-0.895,1.602-0.99l-1.183-0.898c-0.732-0.557-1.196-0.881-1.391-0.973
			c-0.195-0.094-0.351-0.125-0.468-0.096c-0.117,0.027-0.218,0.098-0.303,0.211c-0.092,0.121-0.177,0.311-0.255,0.567l-0.314-0.095
			l0.667-2.507l0.239-0.315l7.414,5.629c0.751,0.57,1.223,0.9,1.416,0.991c0.192,0.091,0.35,0.122,0.474,0.095
			c0.124-0.027,0.225-0.092,0.302-0.195c0.096-0.125,0.184-0.323,0.264-0.594l0.304,0.109l-0.655,2.504l-0.244,0.322L86.745,136.163
			z M86.254,135.791l-3.304-2.508c-0.338-0.213-0.691-0.349-1.06-0.407c-0.367-0.058-0.706-0.022-1.014,0.107
			c-0.309,0.13-0.546,0.305-0.712,0.524c-0.312,0.41-0.406,0.917-0.281,1.519c0.163,0.794,0.711,1.544,1.645,2.253
			c0.943,0.715,1.821,1.059,2.634,1.028s1.412-0.296,1.794-0.801C86.278,137.082,86.378,136.51,86.254,135.791z"/>
		<path d="M85.756,125.79l2.19-2.567l0.248,0.211c-0.184,0.252-0.273,0.442-0.27,0.572c0.004,0.131,0.069,0.25,0.193,0.356
			c0.138,0.118,0.338,0.223,0.599,0.313l4.642,1.696l-1.745-3.765l-1.199-0.422c-0.359-0.121-0.664-0.139-0.915-0.053
			c-0.146,0.045-0.34,0.195-0.582,0.451l-0.247-0.211l2.487-2.915l0.248,0.211c-0.26,0.333-0.396,0.609-0.408,0.831
			c-0.004,0.149,0.071,0.291,0.227,0.424c0.089,0.076,0.196,0.137,0.32,0.181l4.704,1.609l-2.289-4.183
			c-0.165-0.295-0.318-0.502-0.461-0.624c-0.085-0.072-0.198-0.094-0.339-0.063c-0.141,0.029-0.324,0.168-0.55,0.414l-0.248-0.211
			l1.648-1.932l0.248,0.211c-0.273,0.438-0.253,0.946,0.059,1.528l3.53,6.547l-0.234,0.274l-5.218-1.807l2.389,5.123l-0.211,0.247
			l-6.826-2.427c-0.436-0.147-0.764-0.208-0.984-0.18c-0.22,0.027-0.473,0.15-0.759,0.368L85.756,125.79z"/>
		<path d="M92.748,110.985c0.166-0.182,0.371-0.278,0.615-0.29c0.244-0.011,0.458,0.066,0.639,0.232s0.279,0.371,0.293,0.617
			c0.013,0.246-0.063,0.461-0.229,0.643c-0.166,0.182-0.373,0.278-0.621,0.29c-0.249,0.011-0.463-0.065-0.646-0.231
			c-0.182-0.166-0.278-0.371-0.29-0.615S92.578,111.172,92.748,110.985z M96.35,113.283l4.78,4.357
			c0.373,0.34,0.645,0.539,0.818,0.598c0.172,0.059,0.337,0.062,0.495,0.012c0.157-0.051,0.364-0.217,0.621-0.499l0.234,0.214
			l-2.635,2.89l-0.233-0.214c0.264-0.289,0.414-0.51,0.448-0.661c0.035-0.15,0.014-0.314-0.063-0.491
			c-0.077-0.178-0.299-0.434-0.667-0.77l-2.292-2.09c-0.645-0.588-1.081-0.949-1.307-1.084c-0.166-0.096-0.306-0.137-0.419-0.121
			s-0.222,0.08-0.324,0.192c-0.11,0.121-0.212,0.298-0.305,0.53l-0.317-0.122l0.907-2.456L96.35,113.283z"/>
		<path d="M97.781,108.22l1.922,1.817l1.292-1.365l0.447,0.422l-1.292,1.367l3.792,3.588c0.379,0.357,0.686,0.545,0.92,0.562
			c0.235,0.017,0.433-0.062,0.594-0.231c0.133-0.141,0.218-0.317,0.256-0.532c0.038-0.214,0.005-0.438-0.097-0.672l0.236-0.249
			c0.276,0.544,0.391,1.051,0.344,1.523c-0.047,0.471-0.208,0.852-0.481,1.142c-0.185,0.196-0.42,0.336-0.706,0.421
			c-0.286,0.084-0.572,0.076-0.859-0.026s-0.641-0.353-1.062-0.751l-3.933-3.721l-0.875,0.926l-0.211-0.199
			c0.128-0.322,0.196-0.712,0.204-1.168c0.008-0.456-0.051-0.926-0.176-1.406c-0.069-0.251-0.236-0.667-0.501-1.248L97.781,108.22z"
			/>
		<path d="M100.14,103.182l4.172,4.156c-0.048-0.966-0.009-1.654,0.117-2.066c0.125-0.413,0.323-0.754,0.591-1.024
			c0.323-0.323,0.689-0.513,1.099-0.567s0.862,0.052,1.355,0.32c0.344,0.186,0.869,0.63,1.575,1.333l2.018,2.009
			c0.361,0.36,0.637,0.577,0.828,0.651c0.141,0.058,0.29,0.065,0.447,0.024c0.157-0.042,0.368-0.195,0.633-0.462l0.225,0.224
			l-2.791,2.803l-0.224-0.224l0.13-0.131c0.265-0.266,0.408-0.491,0.431-0.675c0.022-0.185-0.024-0.377-0.141-0.575
			c-0.054-0.078-0.243-0.278-0.566-0.602l-2.018-2.009c-0.623-0.621-1.063-0.996-1.323-1.126s-0.508-0.173-0.746-0.129
			s-0.457,0.165-0.655,0.364c-0.203,0.204-0.36,0.47-0.471,0.797c-0.111,0.328-0.156,0.809-0.134,1.442l3.014,3.002
			c0.39,0.389,0.655,0.608,0.793,0.66c0.139,0.052,0.3,0.05,0.482-0.005c0.182-0.053,0.418-0.227,0.707-0.517l0.225,0.224
			l-2.816,2.827l-0.224-0.224c0.252-0.253,0.411-0.492,0.477-0.715c0.041-0.125,0.028-0.27-0.038-0.436
			c-0.067-0.166-0.279-0.426-0.636-0.781l-5.163-5.143c-0.652-0.648-1.068-1.032-1.249-1.15c-0.18-0.117-0.33-0.17-0.448-0.16
			c-0.118,0.011-0.231,0.07-0.338,0.178c-0.087,0.088-0.194,0.262-0.322,0.523l-0.305-0.131l1.002-2.4L100.14,103.182z"/>
		<path d="M110.806,98.652c0.888-0.834,1.918-1.168,3.09-0.998c0.999,0.146,1.849,0.594,2.551,1.34
			c0.494,0.525,0.867,1.176,1.121,1.95s0.288,1.507,0.103,2.195s-0.549,1.288-1.091,1.798c-0.884,0.83-1.917,1.139-3.1,0.924
			c-0.998-0.181-1.843-0.641-2.538-1.379c-0.506-0.537-0.875-1.197-1.108-1.98c-0.233-0.781-0.251-1.505-0.054-2.168
			C109.978,99.67,110.319,99.109,110.806,98.652z M110.999,99.256c-0.226,0.213-0.39,0.493-0.492,0.842
			c-0.102,0.35-0.065,0.76,0.111,1.229c0.176,0.471,0.513,0.97,1.01,1.499c0.803,0.854,1.665,1.431,2.586,1.73
			c0.921,0.3,1.66,0.189,2.215-0.333c0.414-0.389,0.595-0.881,0.543-1.475c-0.052-0.595-0.47-1.309-1.252-2.141
			c-0.979-1.041-1.974-1.65-2.984-1.827C112.047,98.656,111.468,98.814,110.999,99.256z"/>
		<path d="M120.086,90.602l3.222,3.662c0.616,0.7,1.008,1.113,1.179,1.24s0.319,0.189,0.446,0.188
			c0.127-0.002,0.239-0.046,0.335-0.131c0.136-0.12,0.257-0.293,0.363-0.519l0.295,0.149l-1.152,2.336l-0.297,0.262l-1.126-1.28
			c-0.024,1.021-0.108,1.723-0.253,2.107c-0.145,0.386-0.369,0.712-0.673,0.979c-0.339,0.298-0.719,0.458-1.139,0.481
			c-0.421,0.023-0.815-0.077-1.183-0.301c-0.368-0.223-0.799-0.615-1.295-1.178l-2.374-2.699c-0.251-0.286-0.457-0.457-0.615-0.513
			c-0.159-0.056-0.324-0.061-0.498-0.013c-0.173,0.047-0.416,0.211-0.729,0.494l-0.215-0.244l2.118-1.863l3.559,4.045
			c0.496,0.563,0.918,0.848,1.269,0.851c0.351,0.004,0.664-0.116,0.941-0.36c0.189-0.166,0.352-0.414,0.487-0.744
			c0.135-0.329,0.221-0.807,0.256-1.432l-3.013-3.424c-0.302-0.344-0.569-0.521-0.8-0.531c-0.232-0.011-0.55,0.154-0.954,0.493
			l-0.215-0.244L120.086,90.602z"/>
		<path d="M121.779,85.727l1.695,2.031l1.444-1.206l0.395,0.472l-1.444,1.206l3.346,4.007c0.334,0.4,0.617,0.623,0.848,0.666
			c0.231,0.044,0.437-0.01,0.616-0.16c0.148-0.123,0.254-0.289,0.316-0.498s0.057-0.436-0.017-0.679l0.263-0.22
			c0.211,0.572,0.265,1.09,0.163,1.553s-0.306,0.822-0.612,1.078c-0.207,0.172-0.457,0.284-0.75,0.334
			c-0.294,0.051-0.577,0.009-0.85-0.126c-0.272-0.134-0.595-0.425-0.967-0.87l-3.47-4.155l-0.978,0.817l-0.186-0.223
			c0.165-0.307,0.278-0.686,0.339-1.137c0.062-0.452,0.058-0.925-0.01-1.418c-0.04-0.257-0.157-0.689-0.352-1.298L121.779,85.727z"
			/>
		<path d="M132.047,81.7l3.24,4.183c0.459,0.594,0.814,0.918,1.066,0.975c0.329,0.072,0.637-0.004,0.925-0.227l0.577-0.447
			l0.194,0.251l-3.801,2.944l-0.194-0.25l0.285-0.221c0.186-0.145,0.319-0.321,0.4-0.532c0.081-0.212,0.089-0.418,0.025-0.62
			c-0.064-0.203-0.272-0.531-0.624-0.984l-3.24-4.184l-1.237,0.959l-0.388-0.501l1.237-0.958l-0.323-0.417
			c-0.492-0.634-0.806-1.251-0.943-1.849s-0.101-1.195,0.108-1.791s0.576-1.096,1.099-1.502c0.486-0.376,1.056-0.564,1.707-0.565
			c0.43,0.001,0.746,0.13,0.947,0.39c0.107,0.139,0.148,0.316,0.123,0.532s-0.107,0.378-0.246,0.485
			c-0.107,0.083-0.249,0.132-0.426,0.146c-0.178,0.016-0.45-0.037-0.816-0.156c-0.367-0.12-0.657-0.168-0.868-0.145
			c-0.212,0.022-0.406,0.103-0.582,0.238c-0.213,0.166-0.35,0.362-0.41,0.59c-0.061,0.229-0.031,0.487,0.089,0.776
			c0.12,0.289,0.564,0.929,1.332,1.92l0.355,0.458l1.64-1.27l0.387,0.5L132.047,81.7z"/>
		<path d="M136.906,81.019c0.703,0.967,1.491,1.552,2.366,1.752c0.875,0.201,1.631,0.067,2.269-0.4
			c0.425-0.312,0.708-0.7,0.851-1.165s0.112-1.058-0.092-1.781l0.324-0.02c0.376,0.721,0.521,1.521,0.434,2.402
			c-0.087,0.883-0.489,1.586-1.207,2.113c-0.779,0.572-1.669,0.759-2.67,0.559c-1-0.199-1.877-0.811-2.63-1.836
			c-0.814-1.109-1.166-2.184-1.053-3.223c0.113-1.039,0.6-1.875,1.459-2.506c0.727-0.533,1.5-0.732,2.32-0.597
			c0.819,0.136,1.524,0.605,2.113,1.409L136.906,81.019z M136.604,80.607l3.004-2.205c-0.329-0.398-0.593-0.654-0.794-0.77
			c-0.312-0.178-0.641-0.256-0.985-0.236c-0.345,0.021-0.645,0.125-0.9,0.312c-0.392,0.287-0.631,0.697-0.716,1.229
			C136.127,79.47,136.258,80.026,136.604,80.607z"/>
		<path d="M148.265,77.651c-0.317,0.995-0.535,1.593-0.652,1.795c-0.177,0.3-0.413,0.552-0.707,0.755
			c-0.458,0.316-0.944,0.42-1.457,0.311c-0.513-0.108-0.946-0.418-1.299-0.93c-0.223-0.323-0.343-0.652-0.362-0.989
			c-0.028-0.464,0.102-1.01,0.392-1.638c0.29-0.627,0.861-1.54,1.713-2.74l-0.18-0.26c-0.456-0.661-0.874-1.042-1.253-1.144
			c-0.379-0.101-0.77-0.014-1.169,0.263c-0.304,0.209-0.489,0.458-0.554,0.745c-0.07,0.29-0.032,0.542,0.114,0.754l0.304,0.409
			c0.153,0.223,0.215,0.433,0.185,0.631c-0.03,0.199-0.137,0.361-0.32,0.488c-0.178,0.123-0.368,0.161-0.567,0.113
			c-0.2-0.047-0.375-0.179-0.524-0.396c-0.286-0.414-0.337-0.941-0.152-1.582c0.185-0.64,0.661-1.225,1.428-1.754
			c0.588-0.405,1.139-0.639,1.651-0.701c0.388-0.047,0.759,0.043,1.113,0.268c0.23,0.147,0.566,0.542,1.009,1.184l1.552,2.25
			c0.436,0.632,0.715,1.011,0.837,1.137c0.122,0.125,0.228,0.193,0.316,0.203s0.169-0.01,0.242-0.061
			c0.077-0.053,0.133-0.116,0.167-0.189c0.058-0.133,0.132-0.443,0.222-0.934l0.279,0.406c-0.041,1.096-0.308,1.812-0.799,2.152
			c-0.236,0.164-0.481,0.211-0.734,0.144S148.542,78.043,148.265,77.651z M147.94,77.182l-1.742-2.525
			c-0.529,0.792-0.857,1.321-0.986,1.588c-0.235,0.476-0.354,0.885-0.358,1.23c-0.004,0.344,0.088,0.654,0.278,0.929
			c0.24,0.347,0.542,0.563,0.908,0.649c0.365,0.086,0.683,0.037,0.953-0.15C147.359,78.65,147.675,78.076,147.94,77.182z"/>
		<path d="M149.133,68.502l0.99,1.516c-0.096-1.379,0.154-2.262,0.748-2.649c0.27-0.177,0.547-0.239,0.831-0.19
			c0.284,0.049,0.497,0.182,0.637,0.396c0.125,0.191,0.167,0.396,0.125,0.611c-0.041,0.216-0.15,0.381-0.327,0.496
			c-0.171,0.113-0.419,0.154-0.743,0.123c-0.324-0.029-0.538-0.011-0.641,0.057c-0.088,0.058-0.152,0.169-0.191,0.334
			c-0.089,0.346-0.102,0.826-0.036,1.441l2.108,3.23c0.244,0.373,0.474,0.625,0.692,0.756c0.15,0.09,0.335,0.127,0.555,0.109
			c0.22-0.018,0.481-0.125,0.786-0.324l0.173,0.266l-3.452,2.253l-0.173-0.265c0.343-0.225,0.563-0.445,0.66-0.662
			c0.071-0.158,0.076-0.34,0.013-0.543c-0.03-0.1-0.173-0.346-0.429-0.738l-1.705-2.613c-0.512-0.785-0.833-1.242-0.963-1.371
			c-0.13-0.129-0.26-0.199-0.391-0.212c-0.13-0.013-0.26,0.022-0.387,0.106c-0.152,0.099-0.3,0.248-0.443,0.446l-0.247-0.218
			l1.501-2.154L149.133,68.502z"/>
		<path d="M159.588,62.002c1.049-0.62,2.127-0.72,3.233-0.299c0.942,0.362,1.674,0.984,2.196,1.867
			c0.367,0.621,0.589,1.336,0.667,2.148c0.078,0.811-0.048,1.532-0.379,2.164c-0.332,0.631-0.817,1.137-1.458,1.515
			c-1.044,0.618-2.12,0.692-3.227,0.224c-0.934-0.395-1.659-1.027-2.175-1.9c-0.375-0.635-0.592-1.359-0.647-2.174
			c-0.056-0.814,0.084-1.523,0.421-2.129C158.557,62.814,159.013,62.342,159.588,62.002z M159.644,62.633
			c-0.268,0.158-0.489,0.396-0.665,0.715s-0.229,0.726-0.16,1.223c0.069,0.496,0.289,1.059,0.659,1.684
			c0.596,1.009,1.311,1.76,2.145,2.254s1.578,0.548,2.233,0.16c0.489-0.289,0.773-0.729,0.853-1.32
			c0.08-0.592-0.172-1.379-0.753-2.363c-0.728-1.23-1.564-2.042-2.512-2.436C160.798,62.277,160.199,62.305,159.644,62.633z"/>
		<path d="M167.262,58.621l2.565,4.628c0.364,0.656,0.666,1.031,0.906,1.126c0.314,0.121,0.63,0.092,0.948-0.084l0.638-0.354
			l0.153,0.277l-4.205,2.33l-0.153-0.276l0.315-0.175c0.205-0.113,0.364-0.268,0.476-0.465c0.112-0.195,0.152-0.398,0.12-0.609
			c-0.033-0.209-0.188-0.564-0.466-1.067l-2.566-4.628l-1.368,0.76l-0.307-0.554l1.368-0.759l-0.256-0.461
			c-0.389-0.702-0.606-1.359-0.65-1.971c-0.044-0.612,0.082-1.197,0.379-1.754c0.298-0.557,0.736-0.996,1.315-1.316
			c0.538-0.299,1.129-0.398,1.773-0.3c0.425,0.065,0.717,0.242,0.876,0.528c0.085,0.154,0.099,0.336,0.041,0.546
			c-0.058,0.21-0.164,0.356-0.318,0.442c-0.118,0.065-0.266,0.092-0.443,0.08c-0.178-0.013-0.438-0.105-0.783-0.279
			c-0.344-0.174-0.623-0.266-0.836-0.275s-0.417,0.04-0.611,0.148c-0.236,0.13-0.401,0.304-0.495,0.52
			c-0.094,0.217-0.104,0.477-0.03,0.781c0.075,0.303,0.416,1.004,1.024,2.1l0.281,0.508l1.814-1.006l0.307,0.553L167.262,58.621z"/>
		<path d="M174.053,49.302l4.829,9.524c0.228,0.449,0.412,0.73,0.551,0.844s0.296,0.174,0.471,0.18
			c0.174,0.008,0.447-0.084,0.818-0.271l0.144,0.282l-3.52,1.784l-0.143-0.281c0.329-0.168,0.537-0.315,0.623-0.444
			c0.086-0.128,0.123-0.288,0.111-0.479s-0.13-0.51-0.355-0.953l-3.307-6.522c-0.411-0.81-0.682-1.298-0.812-1.466
			c-0.131-0.166-0.254-0.264-0.369-0.291c-0.116-0.026-0.236-0.008-0.361,0.056c-0.136,0.069-0.288,0.198-0.454,0.388l-0.272-0.207
			l1.695-1.963L174.053,49.302z"/>
		<path d="M185.247,56.455c-0.471,0.932-0.78,1.488-0.927,1.669c-0.223,0.269-0.495,0.479-0.817,0.634
			c-0.502,0.24-0.999,0.266-1.488,0.076c-0.489-0.188-0.867-0.562-1.135-1.123c-0.169-0.354-0.236-0.699-0.201-1.033
			c0.045-0.463,0.26-0.982,0.646-1.555c0.385-0.574,1.093-1.386,2.125-2.436l-0.136-0.286c-0.346-0.725-0.698-1.167-1.057-1.327
			c-0.359-0.159-0.758-0.135-1.197,0.074c-0.333,0.16-0.555,0.375-0.665,0.648c-0.115,0.275-0.117,0.53-0.006,0.763l0.235,0.452
			c0.116,0.244,0.144,0.461,0.082,0.652c-0.061,0.191-0.192,0.336-0.393,0.432c-0.196,0.094-0.389,0.102-0.578,0.022
			c-0.19-0.078-0.342-0.236-0.455-0.474c-0.217-0.455-0.184-0.984,0.1-1.587s0.846-1.104,1.687-1.506
			c0.645-0.308,1.226-0.452,1.742-0.433c0.39,0.016,0.743,0.162,1.057,0.441c0.204,0.182,0.473,0.624,0.809,1.327l1.177,2.468
			c0.331,0.692,0.546,1.11,0.647,1.254c0.101,0.143,0.194,0.227,0.28,0.25c0.086,0.024,0.169,0.018,0.248-0.021
			c0.084-0.04,0.15-0.095,0.196-0.161c0.078-0.122,0.2-0.418,0.366-0.886l0.212,0.444c-0.214,1.076-0.59,1.742-1.13,2
			c-0.259,0.123-0.508,0.131-0.748,0.025C185.685,57.154,185.459,56.886,185.247,56.455z M185.001,55.939l-1.321-2.769
			c-0.647,0.698-1.056,1.169-1.225,1.412c-0.307,0.433-0.49,0.817-0.548,1.157s-0.016,0.66,0.128,0.962
			c0.182,0.381,0.446,0.643,0.793,0.785c0.347,0.143,0.668,0.144,0.965,0.002C184.195,57.298,184.598,56.781,185.001,55.939z"/>
		<path d="M186.56,45.363l1.082,2.414l1.716-0.77l0.251,0.562l-1.716,0.768l2.134,4.766c0.213,0.476,0.425,0.766,0.636,0.871
			c0.21,0.104,0.423,0.109,0.637,0.013c0.176-0.079,0.323-0.21,0.439-0.394c0.117-0.185,0.173-0.404,0.168-0.658l0.313-0.141
			c0.047,0.608-0.041,1.121-0.265,1.539s-0.517,0.709-0.881,0.871c-0.246,0.11-0.517,0.15-0.813,0.119s-0.558-0.148-0.784-0.352
			c-0.226-0.204-0.458-0.57-0.695-1.1l-2.213-4.941l-1.163,0.521l-0.119-0.265c0.242-0.25,0.453-0.584,0.635-1.002
			s0.307-0.874,0.375-1.367c0.032-0.258,0.037-0.706,0.014-1.344L186.56,45.363z"/>
		<path d="M192.601,48.91c0.457,1.104,1.086,1.857,1.89,2.258s1.57,0.447,2.299,0.141c0.486-0.203,0.853-0.514,1.1-0.933
			c0.247-0.418,0.356-1.002,0.328-1.753l0.319,0.057c0.197,0.789,0.15,1.601-0.141,2.438c-0.291,0.836-0.847,1.428-1.668,1.771
			c-0.892,0.374-1.801,0.347-2.727-0.082c-0.926-0.428-1.635-1.229-2.126-2.4c-0.533-1.27-0.622-2.396-0.269-3.381
			c0.354-0.982,1.021-1.682,2.005-2.094c0.832-0.349,1.63-0.361,2.396-0.037s1.34,0.946,1.725,1.865L192.601,48.91z M192.403,48.439
			l3.437-1.44c-0.227-0.464-0.424-0.775-0.592-0.934c-0.262-0.245-0.563-0.399-0.903-0.46s-0.656-0.03-0.948,0.092
			c-0.448,0.188-0.777,0.531-0.984,1.027C192.206,47.223,192.202,47.794,192.403,48.439z"/>
		<path d="M199.795,42.446l0.656,1.688c0.19-1.369,0.616-2.183,1.277-2.439c0.3-0.116,0.584-0.122,0.852-0.016
			c0.268,0.106,0.448,0.28,0.542,0.521c0.083,0.213,0.082,0.42-0.002,0.623s-0.225,0.342-0.422,0.419
			c-0.191,0.074-0.442,0.063-0.753-0.032c-0.311-0.096-0.523-0.122-0.638-0.077c-0.098,0.038-0.184,0.134-0.256,0.288
			c-0.159,0.319-0.269,0.787-0.332,1.402l1.399,3.596c0.162,0.415,0.335,0.709,0.522,0.881c0.128,0.12,0.302,0.194,0.52,0.223
			c0.219,0.027,0.497-0.023,0.836-0.156l0.115,0.295l-3.842,1.495l-0.115-0.295c0.382-0.148,0.643-0.319,0.782-0.512
			c0.103-0.14,0.144-0.317,0.124-0.529c-0.009-0.103-0.098-0.374-0.268-0.811l-1.131-2.907c-0.34-0.874-0.56-1.387-0.661-1.54
			c-0.1-0.153-0.213-0.249-0.338-0.288c-0.125-0.039-0.259-0.031-0.401,0.023c-0.169,0.066-0.344,0.182-0.525,0.346l-0.197-0.262
			l1.912-1.801L199.795,42.446z"/>
		<path d="M215.771,42.261c0.137,1.074-0.002,1.983-0.417,2.728c-0.415,0.746-0.985,1.242-1.712,1.489
			c-0.865,0.294-1.743,0.188-2.634-0.319c-0.891-0.508-1.547-1.379-1.968-2.616c-0.408-1.198-0.383-2.293,0.074-3.284
			c0.458-0.992,1.186-1.658,2.184-1.998c0.749-0.254,1.432-0.266,2.05-0.033c0.617,0.231,0.999,0.561,1.145,0.988
			c0.072,0.211,0.062,0.404-0.03,0.581c-0.091,0.177-0.259,0.307-0.503,0.39c-0.328,0.111-0.61,0.09-0.848-0.064
			c-0.134-0.084-0.272-0.284-0.414-0.602c-0.142-0.316-0.339-0.527-0.592-0.634c-0.25-0.101-0.548-0.092-0.892,0.025
			c-0.555,0.188-0.932,0.546-1.13,1.071c-0.264,0.697-0.244,1.492,0.06,2.385c0.31,0.91,0.807,1.637,1.49,2.181
			s1.405,0.687,2.165,0.428c0.544-0.185,0.969-0.537,1.274-1.056c0.218-0.359,0.357-0.924,0.417-1.693L215.771,42.261z"/>
		<path d="M216.691,32.083l3.198,10.188c0.151,0.48,0.286,0.789,0.405,0.923c0.119,0.135,0.264,0.22,0.435,0.255
			c0.171,0.035,0.455-0.009,0.852-0.133l0.095,0.301L217.91,44.8l-0.095-0.302c0.353-0.111,0.582-0.223,0.687-0.336
			c0.106-0.113,0.169-0.265,0.189-0.455s-0.044-0.523-0.194-0.998l-2.19-6.978c-0.272-0.866-0.459-1.393-0.56-1.579
			c-0.102-0.186-0.207-0.302-0.316-0.348c-0.109-0.045-0.231-0.047-0.366-0.005c-0.145,0.046-0.315,0.148-0.511,0.308l-0.234-0.248
			l1.994-1.658L216.691,32.083z"/>
		<path d="M226.552,40.98c-0.618,0.843-1.014,1.341-1.189,1.494c-0.264,0.229-0.567,0.393-0.911,0.491
			c-0.535,0.153-1.028,0.098-1.479-0.169c-0.452-0.266-0.763-0.697-0.935-1.295c-0.108-0.377-0.118-0.729-0.028-1.053
			c0.121-0.449,0.418-0.925,0.893-1.428c0.474-0.502,1.306-1.186,2.496-2.053l-0.088-0.304c-0.222-0.771-0.496-1.266-0.824-1.482
			s-0.725-0.258-1.192-0.124c-0.355,0.103-0.609,0.279-0.762,0.53c-0.159,0.253-0.203,0.503-0.131,0.751l0.158,0.485
			c0.074,0.259,0.065,0.478-0.026,0.657c-0.092,0.179-0.245,0.299-0.458,0.36c-0.208,0.06-0.4,0.036-0.574-0.073
			c-0.174-0.107-0.298-0.289-0.371-0.542c-0.139-0.484-0.02-1.001,0.36-1.548c0.378-0.549,1.016-0.951,1.911-1.209
			c0.687-0.197,1.283-0.244,1.789-0.139c0.382,0.078,0.706,0.281,0.971,0.607c0.171,0.213,0.364,0.693,0.579,1.443l0.756,2.627
			c0.212,0.737,0.356,1.186,0.432,1.343c0.076,0.158,0.154,0.257,0.235,0.294c0.081,0.037,0.164,0.045,0.249,0.02
			c0.09-0.025,0.163-0.068,0.219-0.127c0.097-0.107,0.266-0.378,0.507-0.812l0.136,0.473c-0.388,1.025-0.869,1.621-1.443,1.787
			c-0.276,0.078-0.523,0.046-0.741-0.098C226.869,41.744,226.69,41.441,226.552,40.98z M226.394,40.432l-0.848-2.947
			c-0.753,0.582-1.233,0.979-1.44,1.191c-0.374,0.376-0.618,0.727-0.731,1.052c-0.114,0.325-0.125,0.648-0.032,0.97
			c0.116,0.405,0.334,0.707,0.653,0.904c0.319,0.198,0.636,0.252,0.952,0.161C225.375,41.64,225.858,41.195,226.394,40.432z"/>
		<path d="M230.71,32.474l1.637,6.258c0.127,0.487,0.248,0.804,0.361,0.946c0.113,0.143,0.25,0.236,0.409,0.279
			s0.423,0.016,0.792-0.08l0.08,0.306l-3.784,0.989l-0.08-0.306c0.379-0.099,0.625-0.202,0.736-0.311
			c0.111-0.108,0.183-0.257,0.215-0.446c0.032-0.191-0.015-0.527-0.141-1.008L230.15,36.1c-0.221-0.845-0.39-1.385-0.506-1.621
			c-0.087-0.172-0.182-0.281-0.286-0.33c-0.104-0.049-0.229-0.053-0.376-0.015c-0.159,0.042-0.341,0.134-0.545,0.278l-0.199-0.275
			l2.098-1.565L230.71,32.474z M228.939,28.585c0.238-0.062,0.463-0.031,0.674,0.092c0.211,0.124,0.348,0.304,0.41,0.542
			c0.062,0.238,0.032,0.465-0.091,0.678c-0.123,0.215-0.303,0.353-0.541,0.414c-0.238,0.062-0.464,0.031-0.679-0.094
			c-0.214-0.126-0.353-0.309-0.415-0.546c-0.062-0.238-0.032-0.463,0.092-0.674S228.695,28.648,228.939,28.585z"/>
		<path d="M235.736,32.958c0.444-0.7,0.708-1.104,0.791-1.213c0.208-0.274,0.448-0.506,0.719-0.692
			c0.27-0.188,0.551-0.312,0.843-0.379c0.492-0.109,0.947-0.062,1.365,0.145c0.419,0.207,0.749,0.568,0.991,1.084
			c0.435-0.818,0.832-1.379,1.189-1.686c0.358-0.305,0.751-0.506,1.18-0.602c0.417-0.094,0.812-0.069,1.183,0.072
			c0.371,0.143,0.706,0.436,1.003,0.879c0.2,0.303,0.38,0.81,0.539,1.519l0.758,3.379c0.11,0.491,0.223,0.821,0.338,0.987
			c0.085,0.113,0.215,0.196,0.389,0.25c0.174,0.055,0.436,0.042,0.785-0.036l0.069,0.309l-3.876,0.869l-0.069-0.309l0.163-0.036
			c0.337-0.076,0.585-0.201,0.745-0.375c0.111-0.121,0.172-0.287,0.185-0.5c0.001-0.103-0.05-0.383-0.152-0.84l-0.757-3.379
			c-0.144-0.641-0.322-1.075-0.536-1.304c-0.305-0.315-0.703-0.419-1.195-0.308c-0.303,0.067-0.591,0.211-0.862,0.432
			c-0.272,0.22-0.579,0.584-0.921,1.094l0.004,0.098l0.1,0.365l0.84,3.748c0.121,0.537,0.226,0.865,0.315,0.982
			c0.09,0.119,0.227,0.203,0.413,0.255c0.186,0.052,0.479,0.032,0.878-0.058l0.069,0.309l-3.971,0.891L239.18,38.6
			c0.435-0.098,0.722-0.217,0.862-0.355c0.14-0.14,0.218-0.319,0.235-0.539c0.007-0.104-0.042-0.391-0.147-0.859l-0.757-3.379
			c-0.144-0.641-0.341-1.079-0.593-1.316c-0.333-0.311-0.726-0.414-1.178-0.312c-0.309,0.068-0.596,0.221-0.862,0.454
			c-0.418,0.358-0.721,0.723-0.908,1.095l0.944,4.211c0.115,0.515,0.226,0.842,0.332,0.979c0.106,0.138,0.238,0.23,0.395,0.276
			s0.451,0.021,0.879-0.076l0.069,0.309l-3.885,0.871l-0.069-0.309c0.36-0.08,0.603-0.176,0.729-0.285
			c0.125-0.109,0.207-0.256,0.243-0.441s0-0.521-0.109-1.007l-0.673-3.001c-0.193-0.863-0.344-1.416-0.452-1.656
			c-0.083-0.18-0.174-0.295-0.276-0.348c-0.102-0.052-0.227-0.062-0.375-0.028c-0.16,0.036-0.342,0.122-0.546,0.258l-0.198-0.28
			l2.151-1.491l0.369-0.083L235.736,32.958z"/>
		<path d="M252.026,27.854l0.495,2.697l-0.285,0.053c-0.375-0.807-0.761-1.332-1.16-1.574c-0.399-0.242-0.864-0.314-1.394-0.218
			c-0.403,0.074-0.709,0.241-0.918,0.499c-0.209,0.259-0.289,0.518-0.242,0.777c0.059,0.322,0.202,0.582,0.429,0.779
			c0.222,0.203,0.631,0.387,1.227,0.552l1.375,0.382c1.274,0.355,1.998,1,2.169,1.935c0.132,0.72-0.034,1.351-0.497,1.892
			c-0.464,0.541-1.033,0.873-1.707,0.997c-0.484,0.089-1.053,0.104-1.708,0.046c-0.201-0.023-0.361-0.023-0.482-0.002
			c-0.133,0.025-0.223,0.119-0.27,0.283l-0.285,0.052l-0.519-2.827l0.285-0.053c0.31,0.777,0.729,1.329,1.26,1.654
			c0.53,0.326,1.078,0.438,1.643,0.334c0.397-0.074,0.7-0.25,0.908-0.529c0.208-0.279,0.281-0.584,0.221-0.912
			c-0.073-0.397-0.274-0.706-0.604-0.926c-0.329-0.219-0.95-0.46-1.861-0.721c-0.912-0.262-1.528-0.536-1.849-0.822
			c-0.319-0.281-0.525-0.673-0.617-1.174c-0.12-0.651,0.003-1.236,0.37-1.757c0.366-0.521,0.903-0.845,1.612-0.976
			c0.312-0.057,0.701-0.061,1.169-0.009c0.31,0.032,0.514,0.04,0.612,0.021c0.092-0.017,0.161-0.05,0.205-0.101
			c0.044-0.049,0.088-0.15,0.132-0.301L252.026,27.854z"/>
		<path d="M262.395,26.25c1.208-0.164,2.24,0.162,3.096,0.98c0.728,0.699,1.161,1.557,1.299,2.572
			c0.097,0.715,0.024,1.461-0.219,2.239s-0.64,1.394-1.19,1.847s-1.194,0.73-1.931,0.831c-1.202,0.163-2.222-0.186-3.061-1.047
			c-0.708-0.726-1.13-1.591-1.267-2.595c-0.1-0.732-0.018-1.484,0.247-2.256c0.264-0.772,0.669-1.371,1.214-1.797
			C261.129,26.599,261.733,26.341,262.395,26.25z M262.202,26.854c-0.308,0.041-0.604,0.176-0.89,0.4s-0.493,0.58-0.622,1.064
			c-0.129,0.485-0.145,1.088-0.047,1.808c0.158,1.161,0.525,2.132,1.102,2.91s1.241,1.117,1.996,1.015
			c0.563-0.077,0.996-0.373,1.299-0.887c0.302-0.514,0.376-1.338,0.223-2.47c-0.193-1.417-0.649-2.489-1.37-3.22
			C263.404,26.974,262.84,26.767,262.202,26.854z"/>
		<path d="M270.768,26.115l0.569,5.26c0.081,0.746,0.213,1.209,0.397,1.39c0.243,0.233,0.545,0.329,0.907,0.29l0.725-0.078
			l0.034,0.314l-4.78,0.518l-0.034-0.314l0.358-0.039c0.233-0.025,0.439-0.106,0.619-0.244c0.18-0.137,0.295-0.309,0.347-0.515
			c0.051-0.206,0.046-0.595-0.016-1.165l-0.569-5.26l-1.555,0.168l-0.068-0.629l1.556-0.169l-0.057-0.524
			c-0.086-0.798-0.032-1.487,0.165-2.068c0.196-0.581,0.54-1.07,1.03-1.469c0.49-0.397,1.064-0.633,1.723-0.703
			c0.611-0.066,1.195,0.07,1.75,0.412c0.366,0.225,0.567,0.501,0.602,0.827c0.019,0.175-0.039,0.348-0.174,0.519
			c-0.135,0.17-0.29,0.266-0.464,0.284c-0.134,0.015-0.281-0.019-0.439-0.099c-0.159-0.08-0.364-0.267-0.613-0.561
			c-0.25-0.295-0.471-0.487-0.664-0.578c-0.193-0.092-0.4-0.125-0.621-0.102c-0.268,0.029-0.487,0.125-0.658,0.288
			c-0.171,0.163-0.281,0.399-0.331,0.708c-0.049,0.309-0.006,1.086,0.129,2.333l0.062,0.577l2.062-0.224l0.068,0.63L270.768,26.115z
			"/>
		<path d="M280.959,24.357l0.458,6.451c0.036,0.504,0.096,0.835,0.181,0.996c0.085,0.162,0.202,0.278,0.351,0.35
			c0.149,0.072,0.413,0.094,0.793,0.067l0.022,0.315l-3.901,0.277l-0.022-0.315c0.391-0.028,0.652-0.085,0.781-0.17
			s0.227-0.219,0.293-0.399c0.066-0.182,0.082-0.52,0.047-1.018l-0.22-3.094c-0.062-0.871-0.128-1.434-0.199-1.688
			c-0.054-0.184-0.127-0.309-0.221-0.376c-0.093-0.066-0.215-0.095-0.367-0.084c-0.164,0.012-0.359,0.069-0.587,0.175l-0.145-0.308
			l2.35-1.153L280.959,24.357z M279.933,20.209c0.245-0.018,0.46,0.055,0.645,0.215s0.286,0.362,0.303,0.607
			c0.018,0.246-0.054,0.463-0.214,0.65c-0.16,0.188-0.362,0.289-0.608,0.307s-0.462-0.055-0.65-0.218
			c-0.188-0.163-0.291-0.366-0.308-0.612s0.054-0.461,0.214-0.646C279.476,20.328,279.682,20.227,279.933,20.209z"/>
		<path d="M285.713,25.777c0.891-1.178,1.763-1.787,2.618-1.826c0.439-0.02,0.821,0.073,1.147,0.278s0.594,0.556,0.805,1.05
			c0.145,0.346,0.233,0.881,0.267,1.607l0.156,3.432c0.023,0.51,0.08,0.854,0.17,1.031c0.071,0.144,0.18,0.253,0.327,0.328
			c0.147,0.076,0.414,0.104,0.8,0.087l0.014,0.315l-3.977,0.182l-0.015-0.316l0.167-0.008c0.375-0.017,0.634-0.086,0.778-0.207
			s0.24-0.293,0.289-0.519c0.02-0.089,0.019-0.364-0.002-0.827l-0.15-3.293c-0.033-0.73-0.153-1.258-0.358-1.58
			s-0.533-0.473-0.984-0.452c-0.697,0.032-1.373,0.444-2.029,1.236l0.193,4.241c0.025,0.544,0.072,0.879,0.143,1.005
			c0.09,0.166,0.208,0.285,0.355,0.357c0.147,0.073,0.44,0.099,0.879,0.079l0.014,0.316l-3.978,0.181l-0.014-0.315l0.176-0.009
			c0.41-0.019,0.681-0.135,0.815-0.35c0.134-0.214,0.188-0.614,0.161-1.199l-0.136-2.985c-0.044-0.966-0.093-1.553-0.146-1.762
			c-0.054-0.209-0.127-0.35-0.222-0.421s-0.217-0.104-0.37-0.098c-0.164,0.007-0.358,0.061-0.582,0.159l-0.146-0.311l2.378-1.094
			l0.378-0.018L285.713,25.777z"/>
		<path d="M295.601,24.615l0.096,5.291c0.014,0.75,0.104,1.223,0.272,1.419c0.222,0.254,0.514,0.378,0.877,0.37l0.729-0.013
			l0.006,0.316l-4.807,0.087l-0.006-0.316l0.36-0.006c0.234-0.004,0.447-0.066,0.638-0.188s0.321-0.281,0.391-0.482
			c0.07-0.199,0.099-0.588,0.089-1.162l-0.096-5.289l-1.564,0.028l-0.011-0.633l1.564-0.028l-0.01-0.527
			c-0.015-0.803,0.102-1.484,0.35-2.046s0.633-1.019,1.158-1.37c0.523-0.353,1.117-0.535,1.779-0.547
			c0.615-0.012,1.184,0.178,1.707,0.566c0.345,0.258,0.52,0.551,0.526,0.879c0.003,0.176-0.07,0.342-0.219,0.5
			s-0.312,0.238-0.488,0.242c-0.135,0.002-0.278-0.043-0.429-0.137c-0.151-0.095-0.338-0.299-0.561-0.615
			c-0.222-0.314-0.426-0.526-0.609-0.635c-0.184-0.107-0.387-0.16-0.609-0.156c-0.27,0.006-0.497,0.082-0.682,0.229
			c-0.185,0.146-0.316,0.372-0.392,0.676c-0.077,0.303-0.104,1.081-0.081,2.335l0.011,0.579l2.074-0.037l0.011,0.633L295.601,24.615
			z"/>
		<path d="M300.977,23.713l-0.029,1.811c0.693-1.195,1.395-1.788,2.104-1.776c0.322,0.005,0.587,0.108,0.795,0.308
			c0.207,0.199,0.31,0.428,0.305,0.686c-0.003,0.229-0.082,0.421-0.237,0.576c-0.155,0.156-0.338,0.232-0.549,0.229
			c-0.205-0.003-0.433-0.107-0.685-0.314c-0.252-0.205-0.439-0.311-0.562-0.312c-0.105-0.001-0.221,0.056-0.346,0.171
			c-0.268,0.235-0.546,0.627-0.836,1.173l-0.062,3.857c-0.007,0.445,0.043,0.783,0.15,1.014c0.074,0.16,0.206,0.294,0.398,0.402
			c0.191,0.108,0.469,0.166,0.832,0.172l-0.006,0.316l-4.121-0.066l0.005-0.316c0.41,0.006,0.716-0.053,0.917-0.18
			c0.148-0.091,0.253-0.238,0.314-0.442c0.031-0.099,0.05-0.384,0.058-0.853l0.05-3.119c0.015-0.938,0.005-1.496-0.03-1.675
			c-0.035-0.18-0.104-0.312-0.205-0.395c-0.101-0.084-0.228-0.127-0.38-0.13c-0.182-0.002-0.387,0.038-0.617,0.123l-0.083-0.318
			l2.45-0.945L300.977,23.713z"/>
		<path d="M307.438,23.809l-0.151,6.467c-0.012,0.504,0.017,0.84,0.086,1.009s0.175,0.296,0.316,0.382
			c0.142,0.085,0.402,0.132,0.783,0.141l-0.008,0.316l-3.909-0.092l0.007-0.316c0.393,0.01,0.657-0.022,0.794-0.096
			c0.136-0.072,0.246-0.196,0.329-0.37c0.084-0.174,0.131-0.51,0.143-1.008l0.072-3.102c0.021-0.872,0.008-1.438-0.039-1.698
			c-0.036-0.188-0.098-0.319-0.184-0.395c-0.086-0.076-0.205-0.115-0.357-0.119c-0.164-0.004-0.365,0.035-0.602,0.118l-0.115-0.319
			l2.448-0.927L307.438,23.809z M306.809,19.582c0.246,0.006,0.453,0.098,0.621,0.274c0.169,0.177,0.25,0.389,0.245,0.635
			c-0.006,0.245-0.097,0.454-0.274,0.626c-0.177,0.172-0.389,0.255-0.635,0.249c-0.246-0.005-0.454-0.099-0.626-0.278
			c-0.171-0.18-0.255-0.393-0.249-0.639s0.098-0.453,0.274-0.622S306.557,19.576,306.809,19.582z"/>
		<path d="M312.042,25.672c0.998-1.09,1.924-1.613,2.778-1.571c0.439,0.021,0.811,0.149,1.117,0.385
			c0.305,0.235,0.539,0.608,0.701,1.121c0.111,0.357,0.15,0.899,0.114,1.624l-0.168,3.434c-0.024,0.509-0.001,0.855,0.072,1.041
			c0.058,0.15,0.155,0.27,0.295,0.357c0.14,0.09,0.402,0.144,0.788,0.162l-0.016,0.316l-3.977-0.195l0.016-0.315l0.167,0.009
			c0.374,0.018,0.64-0.027,0.794-0.133c0.154-0.107,0.268-0.271,0.336-0.49c0.028-0.086,0.053-0.361,0.076-0.823l0.16-3.292
			c0.037-0.731-0.033-1.268-0.207-1.607s-0.486-0.521-0.937-0.543c-0.696-0.034-1.409,0.312-2.136,1.039l-0.208,4.24
			c-0.026,0.545-0.011,0.883,0.048,1.015c0.072,0.174,0.18,0.304,0.318,0.39c0.141,0.086,0.43,0.14,0.868,0.161l-0.015,0.315
			l-3.978-0.193l0.016-0.316l0.176,0.008c0.409,0.021,0.69-0.07,0.845-0.271c0.153-0.2,0.244-0.594,0.273-1.179l0.146-2.984
			c0.048-0.967,0.054-1.556,0.021-1.769c-0.033-0.212-0.094-0.359-0.181-0.44c-0.087-0.08-0.206-0.124-0.358-0.131
			c-0.164-0.008-0.362,0.025-0.596,0.103l-0.115-0.323l2.471-0.864l0.377,0.019L312.042,25.672z"/>
		<path d="M320.648,29.834c-0.471-0.279-0.819-0.645-1.047-1.096c-0.229-0.451-0.32-0.936-0.277-1.455
			c0.064-0.795,0.42-1.453,1.065-1.977s1.436-0.746,2.37-0.67c0.765,0.062,1.412,0.304,1.941,0.724l1.699,0.14
			c0.252,0.02,0.396,0.039,0.438,0.057c0.039,0.019,0.066,0.046,0.082,0.082c0.029,0.056,0.039,0.15,0.029,0.285
			c-0.014,0.152-0.037,0.256-0.07,0.312c-0.02,0.028-0.053,0.048-0.098,0.062c-0.045,0.014-0.193,0.011-0.445-0.01l-1.041-0.085
			c0.291,0.447,0.412,0.998,0.357,1.651c-0.061,0.747-0.4,1.363-1.016,1.849c-0.615,0.484-1.405,0.687-2.369,0.607
			c-0.396-0.032-0.798-0.124-1.203-0.275c-0.275,0.201-0.465,0.381-0.568,0.541c-0.104,0.158-0.161,0.297-0.171,0.413
			c-0.009,0.1,0.032,0.2,0.121,0.301c0.089,0.102,0.271,0.185,0.548,0.248c0.162,0.036,0.568,0.091,1.222,0.161
			c1.2,0.129,1.978,0.232,2.329,0.314c0.537,0.121,0.953,0.357,1.252,0.711c0.297,0.354,0.426,0.771,0.387,1.249
			c-0.055,0.66-0.414,1.254-1.082,1.781c-0.98,0.778-2.203,1.106-3.67,0.987c-1.127-0.094-2.058-0.426-2.793-0.996
			c-0.414-0.328-0.607-0.65-0.582-0.965c0.012-0.141,0.055-0.278,0.131-0.413c0.117-0.208,0.346-0.492,0.688-0.853
			c0.045-0.049,0.369-0.34,0.971-0.873c-0.289-0.205-0.49-0.385-0.604-0.539c-0.114-0.152-0.164-0.32-0.148-0.501
			c0.016-0.204,0.119-0.437,0.309-0.698C319.591,30.645,320.006,30.287,320.648,29.834z M320.322,32.753
			c-0.299,0.274-0.529,0.536-0.69,0.78c-0.161,0.246-0.251,0.477-0.269,0.693c-0.023,0.279,0.127,0.539,0.447,0.777
			c0.555,0.41,1.384,0.66,2.487,0.75c1.052,0.086,1.843-0.035,2.372-0.365s0.811-0.705,0.846-1.125
			c0.025-0.305-0.105-0.533-0.395-0.686c-0.293-0.153-0.887-0.279-1.785-0.375C322.025,33.061,321.02,32.91,320.322,32.753z
			 M322.576,25.045c-0.432-0.035-0.809,0.107-1.129,0.428s-0.51,0.838-0.568,1.55c-0.074,0.923,0.064,1.654,0.42,2.194
			c0.272,0.41,0.643,0.635,1.109,0.674c0.443,0.036,0.822-0.101,1.136-0.41c0.313-0.309,0.499-0.82,0.558-1.533
			c0.076-0.928-0.066-1.672-0.426-2.23C323.41,25.307,323.043,25.083,322.576,25.045z"/>
		<path d="M329.063,28.502c-0.141,1.188,0.042,2.152,0.548,2.893c0.505,0.742,1.151,1.158,1.937,1.246
			c0.524,0.061,0.996-0.032,1.416-0.276s0.801-0.701,1.142-1.37l0.251,0.205c-0.213,0.784-0.65,1.471-1.312,2.059
			s-1.437,0.832-2.321,0.731c-0.96-0.108-1.74-0.576-2.34-1.402c-0.599-0.825-0.826-1.87-0.684-3.134
			c0.155-1.367,0.628-2.395,1.416-3.081c0.788-0.686,1.713-0.969,2.772-0.849c0.896,0.102,1.6,0.481,2.108,1.138
			c0.51,0.656,0.708,1.479,0.596,2.469L329.063,28.502z M329.121,27.996l3.703,0.42c0.028-0.516,0.009-0.883-0.061-1.104
			c-0.108-0.342-0.297-0.623-0.563-0.842c-0.268-0.219-0.558-0.347-0.872-0.383c-0.483-0.055-0.938,0.084-1.361,0.416
			S329.261,27.334,329.121,27.996z"/>
		<path d="M338.339,28.052c0.669-0.489,1.062-0.77,1.18-0.841c0.295-0.18,0.602-0.307,0.922-0.381
			c0.32-0.076,0.628-0.09,0.923-0.045c0.498,0.078,0.904,0.289,1.219,0.634c0.313,0.345,0.489,0.802,0.525,1.371
			c0.704-0.603,1.278-0.981,1.724-1.134c0.444-0.154,0.884-0.197,1.318-0.13c0.422,0.065,0.78,0.231,1.074,0.5
			c0.293,0.268,0.498,0.663,0.612,1.185c0.075,0.355,0.058,0.893-0.054,1.609l-0.529,3.423c-0.077,0.498-0.093,0.845-0.046,1.042
			c0.038,0.137,0.129,0.262,0.271,0.376c0.143,0.114,0.391,0.198,0.744,0.253l-0.049,0.312l-3.926-0.607l0.049-0.312l0.165,0.025
			c0.341,0.053,0.618,0.027,0.83-0.076c0.147-0.072,0.266-0.205,0.354-0.398c0.038-0.096,0.094-0.374,0.165-0.838l0.53-3.422
			c0.101-0.648,0.093-1.118-0.022-1.408c-0.168-0.406-0.501-0.647-0.999-0.725c-0.308-0.047-0.628-0.018-0.961,0.088
			c-0.334,0.105-0.753,0.332-1.257,0.681l-0.032,0.093l-0.041,0.377l-0.587,3.795c-0.085,0.545-0.106,0.888-0.066,1.03
			c0.04,0.144,0.137,0.272,0.291,0.388s0.434,0.205,0.839,0.268l-0.048,0.312l-4.021-0.622l0.048-0.313
			c0.44,0.068,0.751,0.063,0.933-0.016c0.181-0.078,0.319-0.217,0.415-0.416c0.044-0.094,0.104-0.378,0.177-0.853l0.529-3.423
			c0.101-0.648,0.077-1.129-0.069-1.441c-0.198-0.41-0.525-0.651-0.982-0.723c-0.312-0.048-0.636-0.012-0.969,0.109
			c-0.52,0.18-0.935,0.409-1.245,0.688l-0.66,4.264c-0.08,0.521-0.097,0.866-0.049,1.033c0.049,0.168,0.138,0.302,0.268,0.402
			c0.13,0.1,0.411,0.184,0.846,0.25l-0.048,0.313l-3.935-0.609l0.048-0.312c0.365,0.056,0.626,0.057,0.782,0.001
			c0.157-0.056,0.286-0.163,0.389-0.322c0.102-0.159,0.19-0.484,0.267-0.977l0.471-3.041c0.135-0.874,0.196-1.442,0.184-1.705
			c-0.011-0.197-0.054-0.34-0.13-0.425c-0.075-0.086-0.188-0.141-0.339-0.164c-0.162-0.024-0.363-0.012-0.603,0.04l-0.082-0.332
			l2.548-0.602l0.374,0.057L338.339,28.052z"/>
		<path d="M350.97,31.724c-0.236,1.172-0.133,2.147,0.311,2.928c0.444,0.78,1.054,1.246,1.83,1.399
			c0.518,0.102,0.995,0.048,1.434-0.162c0.438-0.209,0.854-0.633,1.249-1.271l0.233,0.225c-0.275,0.764-0.768,1.412-1.476,1.944
			s-1.498,0.713-2.372,0.541c-0.949-0.187-1.688-0.716-2.219-1.587c-0.53-0.873-0.672-1.932-0.427-3.18
			c0.266-1.352,0.819-2.336,1.661-2.956s1.785-0.827,2.832-0.62c0.885,0.174,1.555,0.609,2.01,1.305
			c0.454,0.695,0.585,1.531,0.393,2.509L350.97,31.724z M351.068,31.224l3.656,0.72c0.071-0.512,0.081-0.881,0.029-1.105
			c-0.08-0.35-0.244-0.645-0.493-0.885c-0.248-0.24-0.527-0.391-0.838-0.452c-0.478-0.094-0.94,0.008-1.39,0.304
			C351.583,30.102,351.262,30.574,351.068,31.224z"/>
		<path d="M360.195,32.032c1.174-0.896,2.178-1.249,3.012-1.058c0.429,0.099,0.772,0.291,1.031,0.575
			c0.259,0.285,0.424,0.694,0.493,1.228c0.047,0.371-0.011,0.911-0.174,1.619l-0.77,3.35c-0.114,0.496-0.151,0.843-0.112,1.038
			c0.03,0.157,0.105,0.292,0.228,0.403c0.121,0.113,0.371,0.212,0.747,0.299l-0.07,0.309l-3.88-0.893l0.07-0.309l0.163,0.038
			c0.365,0.084,0.634,0.087,0.805,0.009s0.311-0.219,0.417-0.422c0.043-0.081,0.116-0.347,0.22-0.798l0.738-3.212
			c0.164-0.714,0.19-1.254,0.079-1.619c-0.112-0.365-0.388-0.598-0.827-0.699c-0.68-0.156-1.441,0.06-2.286,0.646l-0.95,4.138
			c-0.122,0.531-0.167,0.866-0.133,1.007c0.042,0.184,0.124,0.33,0.246,0.439s0.397,0.213,0.826,0.312l-0.071,0.308l-3.88-0.892
			l0.07-0.309l0.172,0.039c0.399,0.092,0.692,0.053,0.879-0.117c0.187-0.171,0.346-0.542,0.477-1.113l0.67-2.912
			c0.216-0.941,0.327-1.521,0.331-1.736c0.005-0.215-0.029-0.371-0.101-0.465c-0.071-0.095-0.182-0.159-0.33-0.193
			c-0.159-0.037-0.36-0.037-0.604-0.004l-0.058-0.338l2.585-0.416l0.368,0.086L360.195,32.032z"/>
		<path d="M370.03,30.178l-0.659,2.562l1.821,0.469l-0.153,0.596l-1.821-0.469l-1.302,5.056c-0.13,0.505-0.145,0.864-0.045,1.077
			c0.099,0.213,0.263,0.35,0.489,0.408c0.188,0.047,0.384,0.036,0.59-0.035c0.205-0.07,0.386-0.207,0.541-0.41l0.332,0.086
			c-0.342,0.505-0.73,0.852-1.166,1.039s-0.846,0.23-1.231,0.132c-0.262-0.067-0.498-0.205-0.711-0.414
			c-0.212-0.209-0.344-0.464-0.394-0.764s-0.002-0.731,0.143-1.293l1.349-5.243l-1.233-0.318l0.072-0.28
			c0.344-0.044,0.717-0.174,1.12-0.388c0.403-0.215,0.785-0.492,1.146-0.836c0.186-0.182,0.469-0.529,0.849-1.043L370.03,30.178z"/>
	</g>
</g>
<g id="Layer_2">
</g>
</svg>
