<?xml version="1.0" encoding="utf-8"?>
<!-- Generator: Adobe Illustrator 16.0.0, SVG Export Plug-In . SVG Version: 6.00 Build 0)  -->
<!DOCTYPE svg PUBLIC "-//W3C//DTD SVG 1.1//EN" "http://www.w3.org/Graphics/SVG/1.1/DTD/svg11.dtd">
<svg version="1.1" xmlns="http://www.w3.org/2000/svg" xmlns:xlink="http://www.w3.org/1999/xlink" x="0px" y="0px" width="600px"
	 height="600px" viewBox="0 0 600 600" enable-background="new 0 0 600 600" xml:space="preserve">
<g id="Layer_1">
	<g>
		<path d="M298.614,578.687l0.042-2.644l-1.88-0.031l0.01-0.615l1.881,0.03l0.084-5.22c0.009-0.521-0.061-0.875-0.207-1.059
			c-0.146-0.185-0.336-0.278-0.571-0.282c-0.193-0.003-0.382,0.055-0.565,0.172c-0.184,0.116-0.327,0.292-0.431,0.524l-0.343-0.006
			c0.214-0.57,0.512-0.998,0.891-1.282c0.38-0.283,0.769-0.422,1.167-0.416c0.27,0.005,0.532,0.084,0.788,0.237
			s0.442,0.37,0.561,0.65s0.173,0.711,0.164,1.291l-0.088,5.413l1.274,0.021l-0.005,0.29c-0.324,0.124-0.657,0.337-0.999,0.639
			s-0.648,0.662-0.918,1.079c-0.138,0.221-0.333,0.625-0.583,1.213L298.614,578.687z"/>
		<path d="M291.985,576.174c-1.218-0.034-2.183-0.525-2.895-1.472c-0.604-0.809-0.892-1.726-0.863-2.75
			c0.021-0.721,0.214-1.444,0.581-2.173s0.858-1.271,1.475-1.629s1.297-0.525,2.041-0.504c1.212,0.034,2.162,0.545,2.849,1.531
			c0.58,0.832,0.855,1.754,0.827,2.768c-0.021,0.737-0.225,1.466-0.612,2.185c-0.387,0.719-0.884,1.244-1.491,1.575
			C293.29,576.037,292.653,576.193,291.985,576.174z M292.273,575.61c0.311,0.01,0.625-0.074,0.944-0.25
			c0.318-0.175,0.581-0.491,0.788-0.949c0.206-0.457,0.32-1.049,0.34-1.774c0.034-1.172-0.17-2.188-0.612-3.051
			c-0.441-0.863-1.043-1.305-1.804-1.327c-0.568-0.016-1.043,0.205-1.426,0.663s-0.59,1.258-0.623,2.4
			c-0.041,1.43,0.235,2.562,0.827,3.399C291.107,575.296,291.629,575.593,292.273,575.61z"/>
		<path d="M280.425,570.244c0.472,0.277,0.823,0.642,1.052,1.092c0.229,0.449,0.324,0.934,0.283,1.454
			c-0.062,0.794-0.415,1.454-1.058,1.98c-0.644,0.525-1.433,0.752-2.367,0.68c-0.765-0.061-1.414-0.299-1.945-0.717l-1.7-0.132
			c-0.251-0.02-0.396-0.039-0.437-0.057c-0.04-0.018-0.067-0.045-0.082-0.081c-0.031-0.056-0.041-0.15-0.031-0.284
			c0.012-0.152,0.035-0.256,0.068-0.312c0.02-0.027,0.052-0.049,0.098-0.062c0.045-0.015,0.193-0.012,0.444,0.008l1.043,0.081
			c-0.294-0.445-0.416-0.996-0.365-1.65c0.059-0.748,0.395-1.365,1.008-1.852c0.614-0.487,1.403-0.693,2.367-0.618
			c0.397,0.031,0.799,0.121,1.205,0.271c0.274-0.202,0.463-0.383,0.567-0.542s0.16-0.298,0.169-0.414
			c0.007-0.1-0.033-0.2-0.122-0.301c-0.089-0.102-0.272-0.183-0.55-0.246c-0.162-0.036-0.569-0.088-1.222-0.156
			c-1.201-0.123-1.978-0.225-2.33-0.306c-0.538-0.118-0.956-0.354-1.254-0.706c-0.299-0.353-0.43-0.768-0.392-1.246
			c0.051-0.661,0.409-1.256,1.074-1.786c0.978-0.781,2.2-1.115,3.666-1.001c1.127,0.088,2.06,0.416,2.797,0.985
			c0.416,0.326,0.611,0.646,0.586,0.962c-0.011,0.141-0.054,0.278-0.129,0.413c-0.116,0.209-0.344,0.493-0.684,0.854
			c-0.045,0.05-0.368,0.342-0.968,0.877c0.29,0.205,0.492,0.384,0.606,0.536c0.115,0.153,0.165,0.32,0.151,0.502
			c-0.016,0.204-0.118,0.437-0.306,0.698C281.481,569.43,281.066,569.788,280.425,570.244z M280.741,567.324
			c0.298-0.276,0.527-0.538,0.687-0.784c0.161-0.246,0.249-0.478,0.266-0.693c0.022-0.28-0.128-0.539-0.451-0.775
			c-0.556-0.408-1.386-0.655-2.49-0.741c-1.052-0.082-1.842,0.043-2.37,0.375s-0.809,0.709-0.842,1.129
			c-0.023,0.304,0.108,0.532,0.396,0.684c0.294,0.152,0.89,0.275,1.787,0.368C279.037,567.023,280.042,567.17,280.741,567.324z
			 M278.518,575.041c0.432,0.033,0.808-0.11,1.127-0.433s0.506-0.839,0.562-1.552c0.072-0.923-0.071-1.654-0.428-2.193
			c-0.274-0.409-0.644-0.632-1.112-0.668c-0.444-0.035-0.822,0.103-1.134,0.414c-0.312,0.311-0.496,0.821-0.551,1.534
			c-0.073,0.929,0.072,1.672,0.434,2.229C277.683,574.781,278.05,575.004,278.518,575.041z"/>
		<path d="M269.267,567.427c0.891-0.545,1.446-0.855,1.667-0.932c0.33-0.111,0.673-0.147,1.028-0.108
			c0.554,0.061,0.989,0.3,1.305,0.718c0.317,0.418,0.441,0.936,0.374,1.553c-0.043,0.39-0.167,0.72-0.373,0.984
			c-0.282,0.37-0.738,0.697-1.367,0.982s-1.659,0.603-3.088,0.953l-0.035,0.314c-0.087,0.798-0.021,1.36,0.2,1.684
			c0.221,0.325,0.573,0.514,1.057,0.567c0.367,0.04,0.669-0.027,0.906-0.202c0.243-0.174,0.378-0.389,0.407-0.645l0.038-0.509
			c0.029-0.269,0.121-0.468,0.273-0.598c0.153-0.131,0.34-0.185,0.561-0.16c0.216,0.023,0.384,0.118,0.504,0.285
			c0.12,0.166,0.166,0.381,0.137,0.643c-0.055,0.501-0.361,0.934-0.92,1.297c-0.558,0.363-1.301,0.494-2.227,0.393
			c-0.71-0.078-1.28-0.261-1.708-0.55c-0.324-0.218-0.546-0.528-0.667-0.931c-0.078-0.262-0.074-0.78,0.011-1.555l0.297-2.717
			c0.083-0.764,0.12-1.232,0.11-1.407s-0.046-0.296-0.106-0.36c-0.061-0.066-0.135-0.104-0.222-0.113
			c-0.093-0.011-0.177,0.001-0.251,0.034c-0.131,0.062-0.39,0.249-0.777,0.561l0.053-0.489c0.748-0.803,1.419-1.171,2.013-1.106
			c0.286,0.031,0.502,0.155,0.649,0.372C269.263,566.602,269.313,566.948,269.267,567.427z M269.205,567.995l-0.334,3.049
			c0.918-0.253,1.513-0.438,1.785-0.557c0.488-0.205,0.847-0.438,1.075-0.694c0.229-0.259,0.361-0.554,0.397-0.886
			c0.046-0.419-0.042-0.78-0.262-1.085c-0.22-0.305-0.493-0.475-0.819-0.51C270.605,567.264,269.991,567.491,269.205,567.995z"/>
		<path d="M262.373,577.995c-0.244-0.033-0.44-0.146-0.588-0.341s-0.206-0.413-0.174-0.657c0.033-0.243,0.146-0.441,0.341-0.593
			c0.194-0.151,0.414-0.211,0.658-0.178c0.244,0.032,0.441,0.147,0.592,0.345c0.151,0.198,0.21,0.419,0.177,0.662
			c-0.033,0.244-0.146,0.44-0.34,0.589C262.845,577.971,262.623,578.028,262.373,577.995z M262.208,573.726l0.857-6.412
			c0.067-0.499,0.075-0.837,0.025-1.012c-0.051-0.175-0.142-0.313-0.273-0.413c-0.131-0.101-0.386-0.176-0.763-0.227l0.042-0.313
			l3.877,0.519l-0.042,0.313c-0.389-0.052-0.655-0.05-0.799,0.008c-0.144,0.058-0.266,0.169-0.368,0.333
			c-0.102,0.163-0.186,0.492-0.251,0.985l-0.411,3.075c-0.116,0.865-0.165,1.43-0.146,1.692c0.016,0.19,0.062,0.328,0.14,0.413
			c0.078,0.084,0.192,0.137,0.343,0.156c0.163,0.022,0.366,0.005,0.61-0.051l0.08,0.329l-2.535,0.654L262.208,573.726z"/>
		<path d="M257.821,571.367c-1.111,0.974-2.089,1.393-2.934,1.257c-0.434-0.069-0.79-0.237-1.067-0.505
			c-0.277-0.267-0.469-0.664-0.575-1.19c-0.071-0.368-0.05-0.91,0.065-1.628l0.543-3.394c0.081-0.503,0.095-0.851,0.042-1.043
			c-0.041-0.155-0.125-0.284-0.254-0.388c-0.129-0.104-0.384-0.187-0.766-0.248l0.05-0.311l3.931,0.628l-0.05,0.312l-0.165-0.026
			c-0.37-0.06-0.638-0.044-0.804,0.045s-0.295,0.239-0.388,0.449c-0.037,0.084-0.092,0.354-0.165,0.811l-0.521,3.255
			c-0.116,0.723-0.105,1.263,0.03,1.62c0.136,0.356,0.426,0.571,0.872,0.643c0.688,0.11,1.434-0.156,2.237-0.799l0.671-4.192
			c0.086-0.536,0.107-0.875,0.064-1.013c-0.054-0.181-0.146-0.321-0.275-0.423c-0.129-0.101-0.411-0.185-0.845-0.255l0.05-0.312
			l3.931,0.63l-0.05,0.312l-0.174-0.027c-0.405-0.064-0.695-0.006-0.869,0.178c-0.175,0.182-0.309,0.562-0.401,1.141l-0.472,2.951
			c-0.153,0.954-0.225,1.539-0.214,1.755c0.01,0.215,0.054,0.367,0.131,0.457s0.192,0.146,0.342,0.171
			c0.162,0.025,0.363,0.013,0.602-0.037l0.08,0.333l-2.551,0.588l-0.373-0.06L257.821,571.367z"/>
		<path d="M244.036,570.615l0.366-1.773c-0.904,1.047-1.703,1.498-2.397,1.355c-0.315-0.065-0.557-0.215-0.724-0.45
			c-0.167-0.234-0.225-0.479-0.172-0.73c0.046-0.224,0.16-0.398,0.341-0.522s0.375-0.165,0.582-0.122
			c0.201,0.041,0.406,0.187,0.615,0.436c0.209,0.25,0.374,0.387,0.494,0.412c0.103,0.021,0.227-0.014,0.371-0.104
			c0.307-0.182,0.653-0.515,1.04-0.997l0.779-3.779c0.09-0.436,0.103-0.777,0.04-1.023c-0.042-0.17-0.148-0.326-0.316-0.469
			s-0.43-0.25-0.786-0.323l0.064-0.311l4.038,0.832l-0.064,0.311c-0.402-0.083-0.713-0.082-0.935,0.005
			c-0.162,0.062-0.293,0.188-0.392,0.377c-0.049,0.091-0.121,0.366-0.215,0.826l-0.63,3.056c-0.189,0.918-0.283,1.469-0.282,1.651
			c0.001,0.183,0.044,0.324,0.128,0.426c0.084,0.101,0.2,0.167,0.35,0.197c0.178,0.037,0.388,0.035,0.629-0.005l0.022,0.327
			l-2.583,0.474L244.036,570.615z"/>
		<path d="M239.751,566.355c0.277-1.163,0.208-2.142-0.208-2.937s-1.01-1.283-1.78-1.463c-0.514-0.119-0.993-0.082-1.438,0.111
			c-0.445,0.194-0.876,0.604-1.293,1.229l-0.225-0.233c0.302-0.754,0.816-1.384,1.542-1.892s1.522-0.66,2.39-0.458
			c0.941,0.22,1.662,0.774,2.161,1.664s0.604,1.954,0.316,3.192c-0.313,1.341-0.9,2.306-1.763,2.896s-1.813,0.765-2.852,0.521
			c-0.878-0.205-1.533-0.663-1.963-1.374c-0.43-0.711-0.531-1.551-0.305-2.521L239.751,566.355z M239.636,566.852l-3.629-0.847
			c-0.088,0.509-0.111,0.877-0.068,1.104c0.068,0.353,0.222,0.653,0.462,0.902c0.24,0.248,0.514,0.408,0.822,0.48
			c0.474,0.11,0.94,0.025,1.4-0.256S239.42,567.493,239.636,566.852z"/>
		<path d="M233.214,567.131l-2.653,0.329l-0.322-0.087l0.485-1.817c-0.585,0.578-1.116,0.95-1.594,1.117
			c-0.478,0.166-0.941,0.189-1.388,0.07c-0.781-0.208-1.351-0.688-1.708-1.438c-0.44-0.918-0.5-1.977-0.18-3.177
			c0.358-1.342,1.039-2.349,2.043-3.021c0.826-0.55,1.72-0.696,2.683-0.439c0.419,0.111,0.766,0.268,1.04,0.468
			c0.204,0.146,0.413,0.384,0.628,0.714l0.632-2.369c0.142-0.532,0.2-0.879,0.173-1.041c-0.026-0.162-0.109-0.307-0.248-0.435
			s-0.42-0.249-0.845-0.362l0.084-0.313l4.076,1.089l-0.084,0.312l-0.212-0.057c-0.31-0.088-0.592-0.1-0.846-0.034
			c-0.124,0.033-0.235,0.112-0.331,0.234c-0.097,0.123-0.22,0.468-0.371,1.033l-1.963,7.354c-0.134,0.504-0.197,0.829-0.188,0.978
			c0.009,0.147,0.054,0.269,0.135,0.363c0.081,0.095,0.207,0.164,0.376,0.21c0.136,0.036,0.319,0.042,0.55,0.019L233.214,567.131z
			 M230.857,565.055l0.775-2.904c0.167-0.628,0.252-1.048,0.254-1.26c0.008-0.35-0.108-0.69-0.351-1.021s-0.598-0.56-1.068-0.686
			c-0.566-0.15-1.083-0.052-1.553,0.296c-0.612,0.455-1.059,1.206-1.338,2.253c-0.317,1.189-0.301,2.173,0.049,2.952
			c0.245,0.538,0.616,0.874,1.114,1.007c0.272,0.072,0.559,0.076,0.861,0.011C229.833,565.655,230.251,565.439,230.857,565.055z"/>
		<path d="M216.831,563.317l1.415-4.668c0.271-0.892,0.415-1.443,0.433-1.655c0.019-0.212-0.007-0.371-0.076-0.478
			c-0.068-0.106-0.165-0.179-0.288-0.216c-0.174-0.053-0.384-0.064-0.632-0.035l-0.029-0.33l2.593-0.252l0.378,0.114l-0.494,1.632
			c0.879-0.517,1.521-0.815,1.924-0.896c0.404-0.079,0.799-0.061,1.186,0.057c0.432,0.131,0.768,0.369,1.009,0.715
			s0.364,0.733,0.369,1.163s-0.103,1.004-0.32,1.722l-1.043,3.44c-0.11,0.364-0.147,0.628-0.111,0.792s0.12,0.308,0.251,0.43
			c0.131,0.123,0.399,0.242,0.805,0.359l-0.094,0.311l-2.7-0.818l1.562-5.155c0.218-0.718,0.236-1.228,0.054-1.527
			s-0.449-0.503-0.802-0.61c-0.241-0.073-0.538-0.08-0.889-0.021c-0.352,0.06-0.802,0.237-1.352,0.536l-1.323,4.367
			c-0.133,0.436-0.143,0.756-0.029,0.959c0.113,0.202,0.42,0.386,0.921,0.55l-0.094,0.312L216.831,563.317z"/>
		<path d="M211.808,564.451l0.833-2.511l-1.785-0.593l0.193-0.584l1.785,0.593l1.644-4.956c0.164-0.494,0.204-0.852,0.119-1.071
			c-0.084-0.22-0.238-0.366-0.46-0.439c-0.184-0.062-0.38-0.063-0.591-0.007c-0.21,0.058-0.399,0.182-0.568,0.372l-0.325-0.107
			c0.375-0.479,0.787-0.8,1.234-0.957s0.86-0.173,1.238-0.047c0.256,0.084,0.483,0.238,0.68,0.461
			c0.198,0.224,0.311,0.486,0.34,0.789s-0.047,0.729-0.23,1.28l-1.705,5.139l1.21,0.401l-0.091,0.275
			c-0.347,0.021-0.728,0.124-1.145,0.311c-0.417,0.186-0.816,0.438-1.199,0.755c-0.198,0.169-0.504,0.496-0.919,0.982
			L211.808,564.451z"/>
		<path d="M208.036,553.043c0.993-0.321,1.606-0.494,1.838-0.517c0.347-0.031,0.689,0.014,1.025,0.135
			c0.524,0.188,0.891,0.521,1.102,1.002c0.21,0.48,0.211,1.013,0.001,1.597c-0.132,0.37-0.33,0.66-0.592,0.871
			c-0.361,0.294-0.88,0.506-1.559,0.636c-0.679,0.13-1.754,0.199-3.226,0.206l-0.107,0.298c-0.271,0.756-0.337,1.317-0.198,1.685
			c0.139,0.367,0.437,0.634,0.895,0.798c0.347,0.124,0.657,0.13,0.928,0.016c0.277-0.113,0.458-0.29,0.546-0.533l0.155-0.485
			c0.091-0.254,0.226-0.427,0.405-0.518c0.179-0.092,0.374-0.1,0.583-0.024c0.204,0.073,0.345,0.204,0.423,0.395
			s0.073,0.409-0.016,0.657c-0.17,0.475-0.569,0.823-1.197,1.046c-0.627,0.223-1.38,0.177-2.257-0.138
			c-0.673-0.241-1.184-0.552-1.533-0.933c-0.264-0.288-0.408-0.642-0.432-1.061c-0.014-0.272,0.11-0.776,0.374-1.51l0.923-2.572
			c0.259-0.723,0.404-1.17,0.435-1.343s0.024-0.298-0.02-0.376c-0.043-0.078-0.106-0.132-0.189-0.161
			c-0.088-0.032-0.172-0.04-0.252-0.025c-0.142,0.03-0.437,0.151-0.887,0.363l0.166-0.463c0.915-0.605,1.653-0.808,2.216-0.605
			c0.271,0.097,0.452,0.268,0.544,0.513C208.225,552.239,208.192,552.589,208.036,553.043z M207.843,553.581l-1.036,2.888
			c0.952-0.032,1.573-0.074,1.865-0.125c0.523-0.086,0.926-0.229,1.208-0.426c0.283-0.197,0.48-0.453,0.593-0.768
			c0.143-0.397,0.142-0.77-0.001-1.116s-0.369-0.576-0.678-0.687C209.375,553.197,208.725,553.275,207.843,553.581z"/>
		<path d="M199.243,559.923l0.953-2.468l-1.754-0.678l0.222-0.573l1.754,0.677l1.881-4.869c0.188-0.487,0.245-0.842,0.171-1.065
			c-0.074-0.223-0.22-0.377-0.439-0.461c-0.18-0.07-0.377-0.081-0.59-0.035c-0.212,0.047-0.408,0.161-0.585,0.345l-0.32-0.124
			c0.398-0.462,0.825-0.76,1.279-0.896c0.455-0.136,0.867-0.132,1.239,0.012c0.251,0.098,0.47,0.262,0.657,0.494
			c0.187,0.232,0.288,0.501,0.302,0.805c0.015,0.304-0.083,0.727-0.292,1.268l-1.951,5.051l1.188,0.459l-0.104,0.271
			c-0.347,0.004-0.733,0.089-1.158,0.254c-0.425,0.166-0.836,0.398-1.234,0.696c-0.206,0.159-0.528,0.472-0.965,0.938
			L199.243,559.923z"/>
		<path d="M194.067,559.801c-0.228-0.093-0.389-0.252-0.484-0.478c-0.095-0.226-0.096-0.452-0.002-0.68
			c0.093-0.228,0.252-0.391,0.479-0.488c0.226-0.098,0.453-0.1,0.681-0.007s0.39,0.254,0.486,0.483
			c0.097,0.229,0.098,0.457,0.005,0.686c-0.093,0.228-0.252,0.389-0.477,0.483C194.529,559.896,194.3,559.896,194.067,559.801z
			 M194.98,555.627l2.442-5.99c0.19-0.467,0.283-0.791,0.278-0.974c-0.004-0.182-0.058-0.338-0.16-0.469
			c-0.102-0.13-0.329-0.267-0.682-0.41l0.119-0.293l3.622,1.477l-0.12,0.293c-0.363-0.148-0.622-0.213-0.776-0.193
			c-0.153,0.02-0.3,0.096-0.439,0.229c-0.14,0.133-0.303,0.43-0.492,0.891l-1.171,2.873c-0.33,0.809-0.519,1.342-0.567,1.601
			c-0.033,0.189-0.022,0.334,0.032,0.436c0.054,0.101,0.151,0.18,0.292,0.237c0.152,0.062,0.353,0.097,0.603,0.104l-0.005,0.34
			l-2.618-0.005L194.98,555.627z"/>
		<path d="M189.172,553.159c-1.116-0.489-1.826-1.307-2.131-2.45c-0.256-0.977-0.179-1.935,0.233-2.873
			c0.289-0.66,0.74-1.259,1.354-1.797c0.613-0.537,1.272-0.855,1.979-0.956c0.706-0.1,1.4,0,2.081,0.299
			c1.111,0.487,1.8,1.316,2.066,2.489c0.226,0.988,0.135,1.946-0.271,2.875c-0.296,0.676-0.759,1.274-1.387,1.797
			c-0.628,0.52-1.286,0.82-1.974,0.899C190.434,553.521,189.784,553.427,189.172,553.159z M189.651,552.745
			c0.285,0.125,0.607,0.165,0.969,0.122c0.361-0.043,0.723-0.237,1.086-0.584s0.69-0.853,0.982-1.518
			c0.471-1.073,0.663-2.093,0.578-3.058s-0.477-1.601-1.175-1.906c-0.521-0.229-1.044-0.202-1.57,0.079
			c-0.526,0.281-1.019,0.945-1.478,1.991c-0.574,1.31-0.744,2.464-0.51,3.462C188.688,552.016,189.061,552.486,189.651,552.745z"/>
		<path d="M182.998,548.483c-1.342,0.617-2.398,0.741-3.17,0.372c-0.396-0.189-0.69-0.452-0.88-0.787
			c-0.19-0.334-0.261-0.77-0.213-1.305c0.036-0.373,0.21-0.887,0.524-1.543l1.484-3.099c0.22-0.46,0.333-0.79,0.337-0.989
			c0.005-0.16-0.039-0.308-0.133-0.443c-0.094-0.137-0.315-0.288-0.664-0.455l0.136-0.285l3.591,1.72l-0.137,0.285l-0.15-0.072
			c-0.338-0.162-0.6-0.224-0.784-0.185c-0.184,0.038-0.351,0.146-0.5,0.32c-0.059,0.069-0.189,0.312-0.389,0.73l-1.423,2.973
			c-0.316,0.66-0.46,1.182-0.431,1.562c0.029,0.38,0.247,0.668,0.653,0.863c0.629,0.301,1.42,0.257,2.373-0.131l1.833-3.829
			c0.235-0.491,0.352-0.81,0.349-0.953c0-0.189-0.048-0.35-0.144-0.483s-0.341-0.295-0.738-0.484l0.137-0.286l3.591,1.72
			l-0.137,0.285l-0.159-0.075c-0.37-0.178-0.665-0.203-0.884-0.078c-0.219,0.126-0.456,0.453-0.708,0.981l-1.291,2.695
			c-0.417,0.872-0.652,1.413-0.704,1.622c-0.051,0.209-0.052,0.367-0.003,0.476c0.049,0.107,0.142,0.194,0.28,0.261
			c0.148,0.07,0.344,0.116,0.588,0.136l-0.018,0.342l-2.613-0.16l-0.341-0.163L182.998,548.483z"/>
		<path d="M168.575,543.086c-1.071-0.58-1.711-1.453-1.919-2.619c-0.174-0.994-0.018-1.942,0.471-2.844
			c0.344-0.634,0.843-1.192,1.499-1.677c0.656-0.484,1.339-0.747,2.051-0.788s1.395,0.116,2.049,0.471
			c1.066,0.577,1.684,1.462,1.852,2.652c0.143,1.003-0.027,1.951-0.51,2.842c-0.352,0.649-0.862,1.207-1.532,1.675
			c-0.669,0.467-1.35,0.711-2.042,0.732C169.802,543.553,169.162,543.404,168.575,543.086z M169.086,542.714
			c0.273,0.147,0.591,0.215,0.955,0.202c0.363-0.013,0.741-0.177,1.131-0.491c0.391-0.315,0.759-0.792,1.105-1.431
			c0.558-1.031,0.835-2.03,0.83-2.999c-0.005-0.97-0.342-1.635-1.012-1.998c-0.5-0.271-1.023-0.288-1.572-0.052
			c-0.548,0.236-1.094,0.857-1.638,1.861c-0.681,1.257-0.946,2.393-0.796,3.407C168.188,541.907,168.52,542.406,169.086,542.714z"/>
		<path d="M161.974,539.393l0.906-1.567c-1.187,0.707-2.088,0.884-2.702,0.529c-0.279-0.161-0.46-0.38-0.545-0.655
			s-0.062-0.525,0.067-0.748c0.114-0.198,0.277-0.327,0.488-0.388s0.408-0.039,0.59,0.067c0.178,0.103,0.326,0.305,0.446,0.607
			c0.119,0.303,0.232,0.484,0.339,0.546c0.091,0.053,0.22,0.06,0.385,0.02c0.349-0.076,0.782-0.282,1.301-0.618l1.931-3.34
			c0.223-0.386,0.344-0.705,0.361-0.959c0.014-0.175-0.037-0.356-0.152-0.545c-0.115-0.188-0.329-0.373-0.644-0.555l0.158-0.273
			l3.569,2.062l-0.159,0.274c-0.355-0.205-0.651-0.302-0.888-0.29c-0.173,0.008-0.337,0.086-0.49,0.234
			c-0.075,0.071-0.23,0.31-0.465,0.716l-1.562,2.701c-0.469,0.812-0.732,1.304-0.789,1.478c-0.056,0.174-0.061,0.322-0.013,0.444
			c0.048,0.122,0.138,0.222,0.27,0.298c0.157,0.091,0.357,0.155,0.599,0.195l-0.082,0.316l-2.601-0.366L161.974,539.393z"/>
		<path d="M155.835,529.444c0.286,0.468,0.423,0.953,0.414,1.458c-0.009,0.505-0.155,0.978-0.436,1.417
			c-0.429,0.672-1.051,1.088-1.866,1.248s-1.618-0.012-2.408-0.517c-0.646-0.413-1.106-0.929-1.378-1.548l-1.437-0.917
			c-0.212-0.137-0.332-0.222-0.358-0.256c-0.026-0.034-0.038-0.071-0.034-0.11c-0.001-0.063,0.035-0.152,0.107-0.266
			c0.082-0.128,0.151-0.209,0.208-0.243c0.03-0.015,0.069-0.018,0.116-0.009c0.046,0.009,0.176,0.081,0.388,0.217l0.881,0.562
			c-0.049-0.532,0.103-1.075,0.456-1.628c0.404-0.632,0.991-1.018,1.762-1.158c0.771-0.14,1.564,0.05,2.378,0.57
			c0.336,0.215,0.647,0.483,0.935,0.806c0.337-0.049,0.589-0.119,0.755-0.211s0.281-0.187,0.344-0.285
			c0.054-0.084,0.065-0.191,0.034-0.323c-0.031-0.131-0.154-0.289-0.369-0.476c-0.125-0.107-0.46-0.346-1.004-0.714
			c-1.001-0.675-1.638-1.13-1.911-1.367c-0.418-0.357-0.676-0.762-0.773-1.214c-0.097-0.451-0.017-0.88,0.242-1.284
			c0.356-0.559,0.953-0.914,1.789-1.069c1.231-0.229,2.466,0.053,3.705,0.845c0.953,0.609,1.621,1.338,2.003,2.188
			c0.213,0.483,0.234,0.858,0.063,1.125c-0.076,0.118-0.178,0.22-0.309,0.304c-0.201,0.129-0.536,0.272-1.006,0.432
			c-0.063,0.022-0.485,0.128-1.267,0.316c0.159,0.317,0.253,0.57,0.282,0.759c0.029,0.189-0.005,0.36-0.103,0.514
			c-0.11,0.173-0.31,0.33-0.599,0.472C157.149,529.224,156.615,529.345,155.835,529.444z M151.892,532.776
			c0.366,0.233,0.765,0.283,1.198,0.149c0.433-0.133,0.842-0.502,1.227-1.104c0.499-0.779,0.717-1.492,0.656-2.137
			c-0.048-0.49-0.27-0.861-0.665-1.113c-0.375-0.24-0.774-0.297-1.196-0.17s-0.825,0.492-1.21,1.095
			c-0.501,0.785-0.724,1.508-0.667,2.171C151.277,532.154,151.497,532.523,151.892,532.776z M157.49,527.018
			c0.393-0.104,0.718-0.225,0.975-0.367c0.257-0.142,0.444-0.304,0.561-0.486c0.151-0.237,0.141-0.536-0.032-0.896
			c-0.298-0.622-0.914-1.23-1.847-1.827c-0.889-0.567-1.644-0.83-2.267-0.786s-1.047,0.244-1.274,0.6
			c-0.164,0.257-0.155,0.52,0.027,0.789c0.188,0.272,0.655,0.662,1.403,1.167C156.128,525.949,156.946,526.553,157.49,527.018z"/>
		<path d="M145.132,528.836l1.017-1.499c-1.235,0.621-2.146,0.732-2.733,0.334c-0.267-0.181-0.433-0.412-0.497-0.692
			c-0.064-0.281-0.024-0.528,0.121-0.741c0.128-0.189,0.3-0.307,0.515-0.353c0.215-0.045,0.41-0.008,0.584,0.11
			c0.17,0.115,0.303,0.327,0.401,0.638c0.097,0.311,0.197,0.5,0.299,0.569c0.087,0.06,0.215,0.075,0.382,0.047
			c0.353-0.051,0.801-0.225,1.343-0.522l2.166-3.193c0.25-0.368,0.393-0.679,0.429-0.93c0.026-0.174-0.012-0.358-0.112-0.555
			c-0.101-0.195-0.301-0.396-0.602-0.6l0.178-0.262l3.411,2.314l-0.177,0.262c-0.339-0.23-0.628-0.348-0.865-0.354
			c-0.174-0.005-0.342,0.062-0.506,0.198c-0.08,0.066-0.251,0.293-0.515,0.681l-1.752,2.582c-0.526,0.776-0.824,1.249-0.893,1.418
			s-0.084,0.316-0.045,0.442c0.039,0.125,0.122,0.23,0.248,0.316c0.15,0.102,0.345,0.181,0.583,0.236l-0.105,0.311l-2.567-0.552
			L145.132,528.836z"/>
		<path d="M142.805,523.26c0.701-0.969,1.012-1.899,0.931-2.793c-0.08-0.894-0.442-1.571-1.084-2.032
			c-0.429-0.307-0.886-0.456-1.372-0.447s-1.041,0.222-1.665,0.64l-0.119-0.302c0.567-0.581,1.284-0.967,2.149-1.157
			c0.865-0.191,1.659-0.027,2.383,0.491c0.786,0.563,1.239,1.352,1.36,2.365c0.121,1.013-0.189,2.036-0.93,3.069
			c-0.802,1.119-1.714,1.786-2.737,2.001c-1.022,0.215-1.967,0.012-2.834-0.609c-0.733-0.525-1.162-1.199-1.288-2.021
			c-0.125-0.821,0.103-1.637,0.683-2.446L142.805,523.26z M142.508,523.674l-3.029-2.171c-0.277,0.436-0.438,0.768-0.485,0.993
			c-0.072,0.353-0.044,0.688,0.082,1.01s0.318,0.574,0.575,0.759c0.396,0.283,0.859,0.384,1.391,0.3
			C141.574,524.48,142.063,524.184,142.508,523.674z"/>
		<path d="M136.102,513.525c1.044-0.007,1.681,0.014,1.909,0.062c0.34,0.075,0.653,0.222,0.937,0.438
			c0.443,0.337,0.692,0.767,0.748,1.288c0.056,0.521-0.105,1.028-0.481,1.522c-0.238,0.312-0.514,0.529-0.828,0.651
			c-0.433,0.171-0.992,0.216-1.678,0.136c-0.686-0.081-1.732-0.341-3.137-0.777l-0.192,0.251c-0.486,0.639-0.719,1.154-0.697,1.546
			c0.021,0.393,0.226,0.736,0.612,1.031c0.293,0.224,0.587,0.321,0.88,0.295c0.298-0.023,0.525-0.138,0.681-0.343l0.295-0.416
			c0.164-0.215,0.344-0.339,0.542-0.372c0.198-0.032,0.386,0.019,0.563,0.153c0.173,0.132,0.268,0.301,0.285,0.504
			c0.017,0.205-0.054,0.412-0.214,0.622c-0.306,0.4-0.791,0.612-1.457,0.636c-0.666,0.022-1.369-0.248-2.11-0.813
			c-0.568-0.433-0.961-0.884-1.18-1.352c-0.165-0.354-0.195-0.734-0.091-1.142c0.069-0.265,0.339-0.706,0.812-1.326l1.657-2.174
			c0.465-0.61,0.739-0.993,0.82-1.148c0.082-0.155,0.113-0.277,0.095-0.364c-0.018-0.088-0.062-0.158-0.132-0.211
			c-0.075-0.056-0.152-0.091-0.233-0.101c-0.144-0.014-0.462,0.013-0.956,0.079l0.298-0.392c1.055-0.302,1.82-0.271,2.295,0.092
			c0.229,0.174,0.35,0.392,0.364,0.652C136.524,512.816,136.388,513.141,136.102,513.525z M135.755,513.98l-1.859,2.439
			c0.917,0.257,1.522,0.405,1.816,0.444c0.525,0.076,0.951,0.062,1.28-0.041c0.329-0.103,0.595-0.287,0.797-0.553
			c0.256-0.336,0.368-0.69,0.336-1.064s-0.178-0.66-0.439-0.859C137.332,514.077,136.688,513.954,135.755,513.98z"/>
		<path d="M125.632,517.423l1.653-2.065l-1.468-1.175l0.385-0.48l1.468,1.176l3.263-4.076c0.326-0.407,0.487-0.729,0.484-0.963
			c-0.003-0.235-0.096-0.426-0.279-0.572c-0.151-0.121-0.335-0.191-0.552-0.211c-0.217-0.021-0.437,0.03-0.662,0.151l-0.268-0.215
			c0.519-0.32,1.016-0.476,1.49-0.468c0.474,0.008,0.866,0.137,1.177,0.386c0.21,0.168,0.37,0.392,0.478,0.669
			s0.123,0.563,0.045,0.857c-0.078,0.295-0.298,0.668-0.661,1.121l-3.384,4.227l0.995,0.796l-0.182,0.227
			c-0.332-0.101-0.726-0.137-1.181-0.106c-0.455,0.029-0.917,0.126-1.387,0.291c-0.245,0.09-0.646,0.29-1.203,0.602L125.632,517.423
			z"/>
		<path d="M126.035,510.437c0.774-0.911,1.155-1.815,1.144-2.713s-0.32-1.601-0.925-2.109c-0.404-0.34-0.848-0.523-1.333-0.552
			c-0.485-0.029-1.054,0.141-1.708,0.51l-0.096-0.311c0.611-0.535,1.355-0.864,2.232-0.988c0.877-0.124,1.657,0.101,2.338,0.674
			c0.74,0.622,1.132,1.442,1.174,2.462s-0.345,2.016-1.163,2.989c-0.886,1.054-1.847,1.648-2.883,1.784s-1.962-0.14-2.779-0.825
			c-0.69-0.581-1.066-1.285-1.128-2.114c-0.062-0.828,0.228-1.624,0.869-2.387L126.035,510.437z M125.708,510.826l-2.853-2.397
			c-0.309,0.414-0.496,0.731-0.56,0.953c-0.099,0.346-0.098,0.684,0.004,1.014c0.101,0.33,0.273,0.597,0.515,0.801
			c0.373,0.312,0.827,0.448,1.364,0.405C124.714,511.56,125.225,511.301,125.708,510.826z"/>
		<path d="M116.986,506.985l1.2-1.355c-1.305,0.457-2.222,0.45-2.753-0.02c-0.241-0.214-0.375-0.464-0.403-0.751
			s0.043-0.526,0.214-0.72c0.151-0.171,0.337-0.266,0.556-0.282c0.219-0.018,0.407,0.043,0.565,0.183
			c0.153,0.137,0.259,0.364,0.315,0.685c0.057,0.32,0.131,0.521,0.224,0.604c0.079,0.069,0.203,0.102,0.373,0.095
			c0.357-0.005,0.823-0.12,1.398-0.346l2.558-2.89c0.295-0.333,0.477-0.622,0.545-0.867c0.048-0.169,0.035-0.356-0.041-0.564
			c-0.075-0.207-0.248-0.431-0.52-0.672l0.209-0.236l3.086,2.732l-0.21,0.236c-0.307-0.271-0.578-0.425-0.812-0.461
			c-0.171-0.026-0.347,0.018-0.527,0.132c-0.088,0.056-0.287,0.258-0.598,0.609l-2.068,2.336c-0.622,0.702-0.977,1.133-1.067,1.291
			c-0.09,0.159-0.124,0.304-0.101,0.434c0.022,0.129,0.09,0.244,0.205,0.345c0.136,0.121,0.319,0.224,0.548,0.31l-0.144,0.295
			l-2.475-0.877L116.986,506.985z"/>
		<path d="M111.833,492.11c0.567-0.021,1.048,0.033,1.442,0.165c0.394,0.133,0.747,0.35,1.058,0.651
			c0.632,0.61,0.928,1.409,0.889,2.394s-0.46,1.892-1.263,2.723c-0.803,0.829-1.798,1.335-2.986,1.519
			c-1.188,0.184-2.193-0.121-3.014-0.916c-0.51-0.492-0.774-1.062-0.793-1.708l-1.032,1.067c-0.64,0.661-1.017,1.083-1.132,1.266
			c-0.115,0.183-0.166,0.333-0.151,0.453s0.072,0.229,0.173,0.326c0.109,0.106,0.288,0.213,0.534,0.321l-0.132,0.3l-2.409-0.96
			l-0.284-0.275l6.47-6.69c0.656-0.679,1.04-1.107,1.153-1.287c0.113-0.181,0.163-0.334,0.15-0.46
			c-0.012-0.126-0.065-0.233-0.158-0.323c-0.114-0.11-0.3-0.221-0.559-0.333l0.145-0.288l2.409,0.948l0.291,0.281L111.833,492.11z
			 M111.405,492.553l-2.884,2.982c-0.251,0.311-0.428,0.645-0.53,1.003c-0.102,0.358-0.106,0.698-0.014,1.02
			c0.092,0.322,0.238,0.578,0.436,0.77c0.371,0.358,0.862,0.512,1.475,0.461c0.807-0.068,1.618-0.522,2.432-1.365
			c0.823-0.851,1.268-1.682,1.335-2.493c0.067-0.812-0.126-1.437-0.582-1.877C112.689,492.683,112.134,492.516,111.405,492.553z"/>
		<path d="M99.823,496.491c-0.172-0.175-0.258-0.385-0.255-0.63c0.002-0.244,0.091-0.452,0.267-0.625
			c0.175-0.173,0.386-0.259,0.633-0.259s0.456,0.088,0.628,0.264c0.173,0.177,0.258,0.388,0.255,0.636
			c-0.002,0.25-0.091,0.46-0.267,0.632c-0.175,0.173-0.385,0.258-0.63,0.256C100.21,496.763,100,496.671,99.823,496.491z
			 M102.315,493.021l4.614-4.533c0.36-0.354,0.573-0.614,0.641-0.783c0.068-0.17,0.081-0.334,0.039-0.494s-0.197-0.376-0.463-0.647
			l0.226-0.222l2.741,2.79l-0.226,0.222c-0.275-0.28-0.487-0.441-0.636-0.484c-0.148-0.043-0.313-0.03-0.495,0.036
			c-0.181,0.066-0.449,0.274-0.804,0.624l-2.213,2.174c-0.623,0.612-1.008,1.027-1.155,1.245c-0.105,0.161-0.152,0.298-0.143,0.412
			s0.067,0.227,0.174,0.334c0.115,0.117,0.286,0.229,0.513,0.334l-0.14,0.31l-2.402-1.04L102.315,493.021z"/>
		<path d="M97.102,487.546l1.998-1.878l0.199,0.211c-0.475,0.752-0.707,1.361-0.694,1.828c0.012,0.467,0.203,0.896,0.572,1.29
			c0.281,0.299,0.587,0.466,0.917,0.501c0.331,0.034,0.592-0.038,0.784-0.219c0.239-0.225,0.38-0.485,0.422-0.783
			c0.051-0.297-0.017-0.74-0.202-1.33l-0.424-1.362c-0.392-1.264-0.242-2.222,0.449-2.871c0.534-0.502,1.153-0.704,1.859-0.608
			c0.706,0.097,1.293,0.395,1.763,0.895c0.337,0.358,0.658,0.828,0.963,1.41c0.09,0.181,0.177,0.316,0.261,0.405
			c0.092,0.099,0.22,0.123,0.383,0.074l0.198,0.212l-2.094,1.968l-0.199-0.211c0.485-0.682,0.721-1.333,0.707-1.955
			c-0.014-0.622-0.217-1.143-0.611-1.562c-0.277-0.294-0.589-0.453-0.937-0.477s-0.643,0.08-0.886,0.309
			c-0.294,0.277-0.445,0.613-0.451,1.009c-0.006,0.396,0.128,1.048,0.402,1.956c0.275,0.907,0.378,1.574,0.312,1.999
			c-0.063,0.421-0.28,0.806-0.651,1.155c-0.482,0.453-1.042,0.667-1.677,0.641c-0.635-0.025-1.2-0.301-1.694-0.826
			c-0.217-0.23-0.43-0.557-0.641-0.978c-0.141-0.277-0.245-0.453-0.313-0.525c-0.064-0.068-0.129-0.107-0.195-0.118
			s-0.174,0.007-0.325,0.052L97.102,487.546z"/>
		<path d="M92.458,486.009l1.967-1.769l-1.258-1.398l0.458-0.412l1.258,1.398l3.881-3.491c0.388-0.349,0.599-0.639,0.634-0.871
			c0.035-0.233-0.025-0.437-0.182-0.61c-0.129-0.145-0.299-0.243-0.51-0.298c-0.21-0.055-0.437-0.041-0.677,0.042l-0.229-0.255
			c0.564-0.231,1.08-0.305,1.546-0.221c0.466,0.085,0.833,0.276,1.099,0.572c0.18,0.2,0.301,0.446,0.362,0.738
			c0.062,0.291,0.03,0.576-0.095,0.854c-0.125,0.277-0.403,0.61-0.834,0.998l-4.025,3.621l0.852,0.947l-0.216,0.193
			c-0.311-0.153-0.694-0.252-1.148-0.296c-0.454-0.046-0.926-0.025-1.416,0.061c-0.255,0.049-0.684,0.182-1.284,0.399
			L92.458,486.009z"/>
		<path d="M90.869,480.559l1.37-1.184c-1.354,0.279-2.263,0.15-2.726-0.387c-0.21-0.243-0.311-0.51-0.3-0.798
			c0.011-0.287,0.114-0.516,0.309-0.685c0.173-0.149,0.369-0.218,0.588-0.206s0.398,0.098,0.536,0.258
			c0.134,0.155,0.208,0.395,0.222,0.72s0.061,0.534,0.141,0.628c0.069,0.079,0.188,0.128,0.357,0.145
			c0.354,0.042,0.832-0.01,1.432-0.157l2.92-2.522c0.337-0.291,0.556-0.553,0.656-0.786c0.07-0.161,0.082-0.35,0.035-0.564
			c-0.047-0.216-0.188-0.461-0.426-0.735l0.24-0.207l2.694,3.119l-0.239,0.207c-0.268-0.311-0.516-0.499-0.744-0.565
			c-0.167-0.05-0.347-0.029-0.541,0.061c-0.094,0.043-0.319,0.217-0.674,0.523l-2.361,2.04c-0.709,0.612-1.12,0.991-1.23,1.138
			c-0.11,0.146-0.163,0.283-0.158,0.415c0.005,0.131,0.057,0.254,0.157,0.369c0.119,0.138,0.286,0.265,0.502,0.38l-0.182,0.273
			l-2.336-1.199L90.869,480.559z"/>
		<path d="M83.875,478.81c-0.157-0.189-0.224-0.405-0.202-0.649c0.023-0.242,0.129-0.443,0.318-0.601s0.407-0.224,0.653-0.204
			c0.246,0.021,0.447,0.126,0.604,0.315c0.157,0.189,0.224,0.408,0.201,0.655c-0.023,0.248-0.129,0.45-0.319,0.607
			s-0.406,0.224-0.649,0.201C84.237,479.112,84.035,479.004,83.875,478.81z M86.65,475.562l4.98-4.128
			c0.388-0.322,0.623-0.563,0.705-0.727c0.082-0.163,0.108-0.326,0.08-0.489c-0.028-0.163-0.164-0.391-0.407-0.684l0.244-0.202
			l2.496,3.011l-0.244,0.202c-0.25-0.302-0.448-0.48-0.593-0.536c-0.145-0.055-0.31-0.057-0.496-0.006
			c-0.186,0.052-0.47,0.236-0.854,0.554l-2.389,1.979c-0.672,0.558-1.09,0.938-1.255,1.144c-0.118,0.151-0.177,0.284-0.178,0.398
			s0.048,0.23,0.146,0.348c0.104,0.127,0.266,0.252,0.483,0.376l-0.165,0.297l-2.306-1.239L86.65,475.562z"/>
		<path d="M85.057,471.019c-1.333,0.058-2.279-0.269-2.837-0.978c-0.511-0.649-0.679-1.435-0.504-2.354s0.743-1.759,1.706-2.516
			c1.124-0.884,2.322-1.223,3.595-1.016c1.093,0.176,1.949,0.658,2.569,1.445c0.29,0.369,0.517,0.796,0.683,1.28
			c0.165,0.485,0.27,1.031,0.314,1.637l-6.556,5.156c-0.719,0.565-1.147,0.931-1.286,1.096s-0.209,0.308-0.211,0.429
			c-0.002,0.12,0.041,0.236,0.127,0.347c0.102,0.129,0.265,0.261,0.491,0.396l-0.166,0.287l-2.268-1.292l-0.244-0.31L85.057,471.019
			z M85.499,470.671l3.786-2.978c0.046-0.416,0.028-0.796-0.052-1.139c-0.08-0.344-0.223-0.646-0.429-0.909
			c-0.33-0.419-0.867-0.629-1.612-0.628c-0.745,0.001-1.557,0.347-2.437,1.039c-0.811,0.638-1.292,1.308-1.442,2.012
			s-0.045,1.286,0.317,1.747c0.192,0.244,0.446,0.439,0.763,0.585C84.629,470.513,84.998,470.603,85.499,470.671z"/>
		<path d="M75.498,460.697l3.932-2.887c0.751-0.551,1.197-0.906,1.339-1.064c0.142-0.159,0.217-0.302,0.226-0.428
			c0.009-0.127-0.025-0.241-0.101-0.346c-0.107-0.146-0.269-0.282-0.485-0.407l0.175-0.281l2.226,1.354l0.234,0.318l-1.375,1.01
			c1.014,0.113,1.706,0.259,2.077,0.438c0.371,0.179,0.676,0.431,0.915,0.756c0.267,0.364,0.394,0.757,0.379,1.178
			c-0.014,0.421-0.148,0.805-0.403,1.151c-0.254,0.348-0.684,0.742-1.288,1.186l-2.897,2.128c-0.307,0.226-0.495,0.414-0.565,0.567
			c-0.069,0.152-0.088,0.317-0.057,0.494c0.031,0.177,0.174,0.434,0.429,0.77l-0.262,0.193l-1.669-2.274l4.343-3.188
			c0.604-0.444,0.924-0.841,0.958-1.189c0.035-0.349-0.057-0.672-0.276-0.97c-0.149-0.202-0.382-0.387-0.698-0.55
			c-0.316-0.164-0.784-0.291-1.403-0.382l-3.677,2.699c-0.369,0.271-0.568,0.521-0.599,0.751c-0.031,0.229,0.104,0.561,0.407,0.993
			l-0.262,0.192L75.498,460.697z"/>
		<path d="M70.797,458.592l2.172-1.51l-1.074-1.545l0.505-0.351l1.074,1.544l4.287-2.98c0.428-0.298,0.674-0.56,0.738-0.786
			c0.064-0.227,0.029-0.436-0.105-0.628c-0.11-0.159-0.267-0.278-0.469-0.359c-0.202-0.08-0.428-0.095-0.678-0.042l-0.195-0.282
			c0.588-0.159,1.109-0.168,1.561-0.025s0.792,0.377,1.02,0.704c0.154,0.222,0.243,0.48,0.268,0.777s-0.042,0.575-0.201,0.836
			c-0.158,0.26-0.476,0.555-0.952,0.886l-4.445,3.091l0.728,1.047l-0.238,0.165c-0.29-0.19-0.657-0.337-1.102-0.438
			c-0.445-0.102-0.916-0.14-1.413-0.115c-0.26,0.017-0.701,0.095-1.324,0.235L70.797,458.592z"/>
		<path d="M66.574,455.586c-0.137-0.204-0.181-0.427-0.134-0.666c0.048-0.24,0.174-0.429,0.378-0.565s0.428-0.182,0.67-0.136
			s0.432,0.172,0.568,0.376c0.137,0.205,0.181,0.429,0.132,0.673c-0.048,0.243-0.175,0.434-0.379,0.57s-0.427,0.182-0.667,0.134
			S66.714,455.796,66.574,455.586z M69.668,452.641l5.378-3.595c0.419-0.28,0.678-0.497,0.776-0.65
			c0.098-0.154,0.142-0.313,0.13-0.478c-0.012-0.166-0.123-0.406-0.335-0.723l0.263-0.176l2.173,3.251l-0.263,0.176
			c-0.218-0.326-0.396-0.524-0.535-0.594c-0.138-0.069-0.302-0.089-0.492-0.057c-0.19,0.032-0.492,0.187-0.906,0.463l-2.58,1.724
			c-0.726,0.485-1.181,0.821-1.366,1.009c-0.133,0.139-0.206,0.265-0.218,0.378c-0.012,0.114,0.024,0.234,0.109,0.36
			c0.091,0.137,0.238,0.278,0.442,0.424l-0.195,0.278l-2.167-1.47L69.668,452.641z"/>
		<path d="M66.238,447.343c-0.65-1.03-0.782-2.104-0.393-3.224c0.334-0.951,0.934-1.701,1.801-2.25
			c0.609-0.385,1.318-0.628,2.127-0.73c0.809-0.102,1.534,0.004,2.175,0.316s1.16,0.783,1.557,1.412
			c0.648,1.025,0.754,2.099,0.318,3.22c-0.366,0.944-0.978,1.688-1.835,2.229c-0.625,0.395-1.343,0.631-2.155,0.711
			c-0.812,0.08-1.526-0.039-2.14-0.358S66.595,447.907,66.238,447.343z M66.867,447.269c0.166,0.263,0.41,0.477,0.734,0.644
			c0.323,0.166,0.732,0.207,1.227,0.124c0.495-0.084,1.049-0.32,1.663-0.708c0.991-0.626,1.721-1.362,2.191-2.21
			c0.469-0.848,0.501-1.593,0.094-2.237c-0.304-0.48-0.752-0.752-1.346-0.813c-0.593-0.062-1.373,0.213-2.339,0.822
			c-1.209,0.764-1.996,1.625-2.361,2.583C66.478,446.125,66.523,446.724,66.867,447.269z"/>
		<path d="M63.749,440.024c-1.458-0.239-2.403-0.728-2.835-1.466c-0.222-0.379-0.318-0.761-0.289-1.145
			c0.03-0.385,0.214-0.785,0.554-1.201c0.238-0.289,0.671-0.617,1.297-0.984l2.965-1.738c0.44-0.258,0.717-0.468,0.833-0.631
			c0.094-0.129,0.14-0.276,0.138-0.441c-0.002-0.166-0.101-0.416-0.296-0.749l0.273-0.16l2.014,3.435l-0.273,0.16l-0.084-0.144
			c-0.19-0.324-0.372-0.521-0.546-0.593c-0.174-0.07-0.372-0.074-0.594-0.014c-0.087,0.024-0.331,0.154-0.73,0.388l-2.843,1.667
			c-0.632,0.37-1.042,0.722-1.232,1.053c-0.189,0.332-0.17,0.692,0.058,1.082c0.353,0.602,1.033,1.008,2.039,1.219l3.663-2.146
			c0.47-0.275,0.745-0.474,0.823-0.595c0.105-0.156,0.156-0.316,0.151-0.48c-0.004-0.163-0.118-0.436-0.34-0.814l0.273-0.16
			L70.779,439l-0.273,0.16l-0.089-0.151c-0.208-0.354-0.437-0.54-0.689-0.559s-0.631,0.12-1.136,0.416l-2.578,1.511
			c-0.834,0.489-1.331,0.806-1.491,0.95c-0.16,0.146-0.25,0.275-0.27,0.393c-0.02,0.117,0.009,0.241,0.086,0.372
			c0.083,0.142,0.22,0.289,0.412,0.441l-0.207,0.274l-2.076-1.596l-0.191-0.325L63.749,440.024z"/>
		<path d="M55.959,427.788l4.679-2.471c0.664-0.35,1.045-0.644,1.145-0.882c0.127-0.312,0.105-0.629-0.064-0.95l-0.341-0.646
			l0.28-0.147l2.245,4.252l-0.28,0.147l-0.168-0.319c-0.109-0.207-0.261-0.368-0.455-0.484c-0.194-0.117-0.396-0.161-0.606-0.133
			c-0.21,0.028-0.569,0.177-1.077,0.445l-4.679,2.47l0.73,1.384l-0.56,0.295l-0.73-1.383l-0.466,0.246
			c-0.71,0.375-1.371,0.578-1.984,0.61c-0.613,0.031-1.194-0.106-1.745-0.416c-0.551-0.309-0.98-0.756-1.29-1.342
			c-0.288-0.544-0.375-1.137-0.264-1.778c0.075-0.424,0.257-0.713,0.547-0.865c0.156-0.082,0.338-0.093,0.546-0.03
			c0.208,0.062,0.354,0.171,0.436,0.326c0.063,0.12,0.086,0.268,0.071,0.445c-0.016,0.177-0.114,0.437-0.295,0.777
			s-0.279,0.617-0.292,0.83c-0.013,0.212,0.032,0.417,0.136,0.614c0.126,0.238,0.296,0.406,0.51,0.505
			c0.215,0.1,0.475,0.114,0.78,0.047c0.305-0.069,1.012-0.396,2.121-0.981l0.513-0.271l-0.968-1.835l0.56-0.295L55.959,427.788z"/>
		<path d="M52.051,422.022c-0.539-1.093-0.556-2.176-0.052-3.247c0.432-0.912,1.108-1.595,2.028-2.048
			c0.646-0.319,1.377-0.486,2.192-0.503c0.815-0.017,1.525,0.164,2.129,0.542c0.604,0.379,1.071,0.901,1.4,1.569
			c0.537,1.087,0.529,2.166-0.022,3.234c-0.463,0.901-1.15,1.576-2.059,2.024c-0.662,0.326-1.401,0.486-2.218,0.48
			c-0.816-0.006-1.513-0.198-2.09-0.581C52.783,423.112,52.346,422.622,52.051,422.022z M52.684,422.015
			c0.137,0.278,0.358,0.518,0.662,0.717s0.707,0.283,1.207,0.252c0.501-0.031,1.077-0.207,1.729-0.528
			c1.051-0.519,1.855-1.174,2.411-1.968c0.556-0.794,0.666-1.532,0.329-2.215c-0.251-0.51-0.669-0.827-1.252-0.95
			c-0.584-0.124-1.388,0.066-2.413,0.572c-1.282,0.632-2.155,1.405-2.619,2.319C52.417,420.836,52.399,421.437,52.684,422.015z"/>
		<path d="M48.796,415.186l1.646-0.755c-1.378-0.109-2.215-0.485-2.51-1.13c-0.135-0.293-0.157-0.576-0.066-0.85
			c0.091-0.274,0.253-0.465,0.487-0.572c0.208-0.095,0.415-0.106,0.623-0.034c0.208,0.073,0.355,0.205,0.443,0.396
			c0.085,0.187,0.09,0.438,0.012,0.754c-0.077,0.315-0.09,0.529-0.039,0.642c0.044,0.096,0.145,0.175,0.303,0.238
			c0.328,0.139,0.801,0.222,1.419,0.248l3.506-1.609c0.405-0.187,0.688-0.377,0.849-0.573c0.112-0.136,0.176-0.313,0.191-0.533
			s-0.053-0.494-0.205-0.824l0.288-0.132l1.719,3.746l-0.288,0.132c-0.171-0.373-0.356-0.623-0.557-0.75
			c-0.146-0.094-0.325-0.125-0.536-0.093c-0.103,0.016-0.367,0.12-0.793,0.315l-2.835,1.302c-0.852,0.391-1.352,0.641-1.498,0.75
			s-0.236,0.228-0.268,0.355c-0.032,0.127-0.016,0.26,0.048,0.398c0.076,0.165,0.201,0.333,0.376,0.504l-0.251,0.212l-1.91-1.802
			L48.796,415.186z"/>
		<path d="M42.308,406.33l2.443-1.014l-0.72-1.737l0.568-0.235l0.721,1.737l4.822-2.001c0.482-0.199,0.778-0.403,0.889-0.61
			c0.11-0.208,0.121-0.42,0.031-0.637c-0.074-0.179-0.202-0.328-0.382-0.45c-0.18-0.122-0.398-0.184-0.653-0.186l-0.131-0.317
			c0.609-0.03,1.12,0.072,1.531,0.308s0.693,0.537,0.846,0.904c0.103,0.249,0.135,0.521,0.096,0.817
			c-0.04,0.295-0.164,0.553-0.374,0.773c-0.21,0.22-0.583,0.441-1.119,0.663l-5.001,2.074l0.488,1.178l-0.268,0.11
			c-0.242-0.248-0.57-0.469-0.983-0.662s-0.865-0.331-1.356-0.413c-0.257-0.039-0.705-0.056-1.344-0.052L42.308,406.33z"/>
		<path d="M38.672,402.128l5.497-2.114c-0.901-0.351-1.514-0.667-1.839-0.95c-0.325-0.282-0.556-0.602-0.693-0.957
			c-0.164-0.427-0.188-0.839-0.07-1.235c0.118-0.396,0.399-0.766,0.846-1.106c0.31-0.238,0.93-0.537,1.859-0.895l2.658-1.021
			c0.476-0.184,0.787-0.347,0.932-0.49c0.11-0.105,0.178-0.238,0.204-0.399c0.026-0.16-0.028-0.416-0.163-0.766l0.295-0.114
			l1.419,3.691l-0.295,0.114l-0.066-0.173c-0.135-0.35-0.282-0.572-0.441-0.668s-0.353-0.131-0.582-0.105
			c-0.094,0.017-0.354,0.107-0.781,0.271l-2.658,1.022c-0.82,0.315-1.343,0.564-1.567,0.748c-0.224,0.184-0.365,0.394-0.422,0.629
			s-0.035,0.484,0.066,0.747c0.103,0.268,0.281,0.521,0.535,0.754c0.253,0.235,0.674,0.473,1.262,0.711l3.971-1.527
			c0.514-0.197,0.823-0.349,0.927-0.455c0.104-0.105,0.168-0.253,0.192-0.441c0.025-0.188-0.036-0.474-0.184-0.856l0.295-0.113
			l1.433,3.724l-0.295,0.113c-0.128-0.333-0.281-0.575-0.459-0.728c-0.097-0.088-0.234-0.136-0.413-0.143s-0.502,0.081-0.973,0.262
			l-6.8,2.615c-0.858,0.33-1.378,0.554-1.56,0.671c-0.181,0.116-0.291,0.23-0.33,0.343c-0.038,0.112-0.03,0.239,0.024,0.383
			c0.044,0.113,0.16,0.282,0.346,0.506l-0.243,0.226l-1.783-1.895L38.672,402.128z"/>
		<path d="M42.828,391.9c1.131-0.389,1.92-0.971,2.369-1.748s0.543-1.539,0.283-2.286c-0.174-0.498-0.462-0.883-0.864-1.155
			c-0.402-0.272-0.979-0.417-1.729-0.435l0.076-0.315c0.798-0.148,1.606-0.051,2.424,0.291c0.817,0.341,1.373,0.933,1.666,1.773
			c0.318,0.913,0.236,1.818-0.249,2.716c-0.484,0.898-1.327,1.557-2.527,1.976c-1.3,0.453-2.43,0.474-3.39,0.061
			s-1.616-1.123-1.967-2.13c-0.297-0.852-0.26-1.649,0.11-2.394c0.371-0.743,1.026-1.279,1.967-1.606L42.828,391.9z M42.346,392.068
			l-1.227-3.52c-0.477,0.198-0.8,0.376-0.968,0.533c-0.262,0.247-0.433,0.538-0.515,0.873c-0.082,0.336-0.07,0.653,0.034,0.952
			c0.16,0.459,0.481,0.808,0.965,1.046C41.119,392.19,41.689,392.229,42.346,392.068z"/>
		<path d="M32.91,385.922c-0.075-0.234-0.057-0.46,0.054-0.678c0.112-0.218,0.285-0.364,0.519-0.439
			c0.234-0.075,0.461-0.058,0.682,0.053c0.22,0.111,0.368,0.283,0.443,0.518c0.076,0.234,0.057,0.462-0.057,0.684
			c-0.113,0.221-0.287,0.369-0.521,0.444c-0.234,0.076-0.46,0.058-0.678-0.054C33.134,386.338,32.987,386.162,32.91,385.922z
			 M36.694,383.938l6.157-1.982c0.48-0.154,0.788-0.292,0.924-0.412c0.137-0.121,0.222-0.263,0.256-0.425
			c0.034-0.161-0.007-0.424-0.124-0.786l0.301-0.097l1.198,3.723l-0.301,0.097c-0.12-0.373-0.237-0.612-0.351-0.718
			c-0.114-0.104-0.267-0.168-0.458-0.189c-0.192-0.021-0.524,0.044-0.999,0.196l-2.953,0.951c-0.831,0.268-1.361,0.466-1.591,0.595
			c-0.166,0.097-0.27,0.198-0.313,0.304c-0.042,0.106-0.041,0.232,0.006,0.377c0.05,0.156,0.153,0.333,0.309,0.528l-0.263,0.215
			l-1.681-2.008L36.694,383.938z"/>
		<path d="M35.312,379.463l1.734-0.519c-1.35-0.3-2.126-0.789-2.33-1.468c-0.092-0.309-0.075-0.593,0.053-0.85
			c0.127-0.26,0.315-0.426,0.562-0.5c0.219-0.065,0.426-0.048,0.622,0.053s0.323,0.252,0.384,0.454
			c0.059,0.196,0.028,0.445-0.093,0.748c-0.121,0.302-0.163,0.512-0.128,0.63c0.03,0.101,0.119,0.193,0.267,0.277
			c0.306,0.185,0.763,0.332,1.371,0.443l3.696-1.107c0.427-0.128,0.733-0.277,0.92-0.45c0.13-0.118,0.217-0.285,0.263-0.5
			c0.045-0.216,0.016-0.497-0.088-0.846l0.303-0.091l1.183,3.949l-0.303,0.091c-0.117-0.394-0.267-0.667-0.447-0.82
			c-0.132-0.113-0.304-0.169-0.518-0.165c-0.104,0-0.38,0.066-0.83,0.201l-2.989,0.896c-0.898,0.269-1.427,0.447-1.587,0.535
			s-0.265,0.192-0.314,0.313c-0.049,0.122-0.052,0.256-0.008,0.402c0.052,0.174,0.153,0.357,0.303,0.551l-0.278,0.176l-1.642-2.05
			L35.312,379.463z"/>
		<path d="M25.694,356.662l0.316-0.075c0.072,0.302,0.184,0.534,0.337,0.697c0.153,0.162,0.398,0.294,0.735,0.395
			c0.227,0.066,0.745,0.134,1.556,0.2l10.114,1.018l0.081,0.342l-6.788,4.399l8.037,0.868l0.073,0.309l-8.813,5.729
			c-0.657,0.427-1.043,0.69-1.159,0.79c-0.189,0.165-0.313,0.358-0.373,0.58s-0.048,0.501,0.031,0.837l-0.316,0.075l-1.018-4.293
			l0.316-0.075l0.049,0.205c0.071,0.303,0.195,0.518,0.369,0.645c0.175,0.127,0.359,0.168,0.553,0.122
			c0.2-0.048,0.629-0.282,1.288-0.703l5.967-3.826l-5.989-0.612l-0.894,0.573l-0.713,0.458c-0.256,0.188-0.476,0.381-0.657,0.58
			c-0.091,0.1-0.16,0.213-0.209,0.339c-0.069,0.167-0.109,0.327-0.121,0.48c-0.009,0.116,0.015,0.291,0.07,0.525l-0.317,0.074
			l-1.07-4.516l0.316-0.074l0.073,0.308c0.076,0.319,0.2,0.537,0.372,0.652c0.172,0.116,0.375,0.146,0.608,0.091
			c0.291-0.069,0.768-0.317,1.431-0.746l5.776-3.717l-6.911-0.692c-0.767-0.083-1.287-0.093-1.561-0.027
			c-0.131,0.031-0.244,0.102-0.338,0.211c-0.094,0.109-0.149,0.232-0.165,0.369c-0.029,0.235-0.001,0.527,0.081,0.875l-0.316,0.074
			L25.694,356.662z"/>
		<path d="M28.687,352.451c-0.23-1.197,0.04-2.245,0.81-3.146c0.658-0.765,1.491-1.244,2.498-1.438
			c0.708-0.136,1.457-0.104,2.247,0.097c0.79,0.2,1.427,0.562,1.909,1.087c0.483,0.524,0.794,1.152,0.935,1.883
			c0.229,1.192-0.064,2.229-0.878,3.114c-0.686,0.746-1.526,1.215-2.522,1.406c-0.725,0.14-1.48,0.098-2.266-0.124
			c-0.786-0.222-1.406-0.594-1.861-1.114C29.103,353.695,28.812,353.107,28.687,352.451z M29.299,352.61
			c0.059,0.306,0.208,0.595,0.448,0.867c0.241,0.274,0.606,0.461,1.098,0.563c0.491,0.103,1.093,0.086,1.807-0.052
			c1.151-0.222,2.1-0.641,2.846-1.259c0.747-0.618,1.048-1.301,0.904-2.049c-0.107-0.558-0.426-0.975-0.956-1.248
			c-0.53-0.274-1.356-0.304-2.478-0.088c-1.404,0.271-2.451,0.784-3.14,1.544C29.353,351.404,29.177,351.978,29.299,352.61z"/>
		<path d="M27.356,344.979l1.787-0.292c-1.3-0.47-2.007-1.055-2.122-1.755c-0.052-0.317,0.002-0.597,0.162-0.837
			c0.16-0.239,0.367-0.38,0.621-0.422c0.226-0.037,0.429,0.007,0.609,0.132s0.288,0.291,0.322,0.5
			c0.033,0.202-0.03,0.446-0.188,0.729c-0.159,0.284-0.228,0.487-0.208,0.608c0.017,0.104,0.093,0.207,0.229,0.31
			c0.279,0.222,0.714,0.427,1.303,0.615l3.808-0.622c0.439-0.072,0.763-0.182,0.971-0.328c0.144-0.101,0.252-0.255,0.325-0.463
			s0.08-0.491,0.021-0.85l0.312-0.051l0.665,4.068l-0.312,0.051c-0.066-0.404-0.179-0.695-0.338-0.871
			c-0.116-0.129-0.28-0.206-0.492-0.231c-0.103-0.013-0.386,0.019-0.848,0.095l-3.08,0.503c-0.925,0.151-1.473,0.261-1.643,0.327
			c-0.17,0.066-0.288,0.156-0.352,0.271c-0.064,0.115-0.084,0.247-0.06,0.397c0.029,0.18,0.106,0.375,0.229,0.586l-0.298,0.138
			l-1.364-2.244L27.356,344.979z"/>
		<path d="M22.254,339.47l7.943-1.074l-2.13-1.778c-0.453-0.376-0.736-0.592-0.85-0.647c-0.076-0.037-0.149-0.051-0.219-0.042
			c-0.116,0.016-0.209,0.077-0.281,0.185s-0.098,0.272-0.08,0.494l-0.279,0.038l-0.469-3.467l0.279-0.038
			c0.076,0.475,0.202,0.862,0.378,1.16s0.461,0.613,0.855,0.944l2.167,1.791l2.31-2.396c0.637-0.666,1.038-1.11,1.203-1.334
			c0.235-0.315,0.379-0.583,0.432-0.803c0.039-0.153,0.034-0.41-0.015-0.77l0.313-0.043l0.524,3.876l-0.313,0.042
			c-0.036-0.22-0.089-0.364-0.161-0.435c-0.072-0.07-0.163-0.098-0.273-0.083c-0.133,0.019-0.333,0.163-0.597,0.436l-2.796,2.87
			l2.647-0.357c0.517-0.07,0.852-0.152,1.004-0.247c0.153-0.095,0.255-0.213,0.307-0.356c0.052-0.142,0.05-0.438-0.004-0.886
			l0.313-0.043l0.549,4.059l-0.313,0.043c-0.055-0.406-0.146-0.705-0.272-0.895c-0.08-0.113-0.191-0.193-0.333-0.239
			c-0.204-0.061-0.541-0.06-1.011,0.004l-7.264,0.982c-0.923,0.126-1.485,0.222-1.686,0.29s-0.334,0.154-0.4,0.258
			s-0.088,0.231-0.068,0.382c0.017,0.122,0.09,0.298,0.222,0.528l-0.285,0.189l-1.296-2.237L22.254,339.47z"/>
		<path d="M20.69,325.982c-0.022-0.244,0.044-0.461,0.2-0.648c0.157-0.188,0.357-0.294,0.602-0.316
			c0.245-0.023,0.463,0.044,0.654,0.199c0.191,0.156,0.297,0.357,0.32,0.602c0.022,0.246-0.046,0.464-0.205,0.655
			c-0.159,0.19-0.361,0.298-0.606,0.32s-0.461-0.044-0.649-0.2S20.713,326.234,20.69,325.982z M24.815,324.869l6.441-0.594
			c0.502-0.047,0.833-0.113,0.992-0.202c0.159-0.089,0.273-0.208,0.342-0.358c0.069-0.15,0.085-0.415,0.05-0.795l0.315-0.028
			l0.36,3.895L33,326.815c-0.036-0.392-0.098-0.65-0.187-0.777c-0.088-0.128-0.223-0.222-0.406-0.285
			c-0.182-0.062-0.521-0.071-1.017-0.024l-3.089,0.285c-0.87,0.08-1.43,0.158-1.682,0.234c-0.183,0.058-0.307,0.134-0.372,0.229
			c-0.065,0.094-0.09,0.217-0.076,0.368c0.015,0.164,0.077,0.358,0.186,0.583l-0.304,0.152l-1.203-2.325L24.815,324.869z"/>
		<path d="M26.134,320.062c-1.197-0.866-1.824-1.726-1.88-2.579c-0.029-0.438,0.055-0.822,0.253-1.153
			c0.198-0.33,0.543-0.605,1.033-0.826c0.342-0.151,0.876-0.251,1.601-0.3l3.429-0.229c0.508-0.033,0.851-0.098,1.026-0.191
			c0.142-0.074,0.249-0.186,0.321-0.334c0.073-0.148,0.096-0.416,0.07-0.802l0.315-0.021l0.264,3.973l-0.315,0.021l-0.011-0.167
			c-0.025-0.373-0.099-0.631-0.223-0.773c-0.124-0.141-0.299-0.234-0.525-0.277c-0.089-0.018-0.365-0.012-0.827,0.02l-3.289,0.219
			c-0.731,0.049-1.255,0.179-1.573,0.391c-0.318,0.212-0.462,0.543-0.432,0.993c0.046,0.696,0.472,1.363,1.278,2.003l4.236-0.281
			c0.544-0.037,0.878-0.091,1.002-0.164c0.165-0.093,0.281-0.214,0.351-0.362s0.089-0.442,0.06-0.88l0.316-0.021l0.264,3.973
			l-0.316,0.021l-0.012-0.176c-0.027-0.409-0.149-0.679-0.366-0.809c-0.217-0.129-0.618-0.174-1.203-0.135l-2.981,0.197
			c-0.965,0.064-1.551,0.125-1.759,0.184c-0.208,0.058-0.346,0.135-0.416,0.23s-0.1,0.219-0.09,0.371
			c0.011,0.164,0.068,0.356,0.17,0.578l-0.307,0.152l-1.143-2.354l-0.025-0.377L26.134,320.062z"/>
		<path d="M24.868,309.348l-1.044-2.461l-0.006-0.334l1.88-0.031c-0.716-0.404-1.219-0.813-1.511-1.228
			c-0.292-0.413-0.441-0.853-0.449-1.315c-0.014-0.809,0.291-1.487,0.915-2.037c0.762-0.676,1.764-1.023,3.006-1.045
			c1.388-0.023,2.543,0.355,3.465,1.136c0.755,0.644,1.142,1.463,1.159,2.459c0.007,0.434-0.048,0.81-0.165,1.128
			c-0.084,0.236-0.255,0.502-0.514,0.8l2.452-0.042c0.551-0.01,0.9-0.049,1.048-0.119s0.265-0.189,0.35-0.357
			c0.085-0.169,0.124-0.473,0.116-0.912l0.325-0.006l0.073,4.219l-0.325,0.006l-0.004-0.221c0-0.322-0.066-0.596-0.199-0.822
			c-0.066-0.11-0.172-0.195-0.316-0.254s-0.51-0.084-1.096-0.074l-7.61,0.132c-0.521,0.009-0.852,0.038-0.992,0.087
			c-0.14,0.05-0.244,0.126-0.312,0.23c-0.068,0.104-0.101,0.242-0.098,0.418c0.002,0.141,0.046,0.319,0.132,0.535L24.868,309.348z
			 M26.217,306.512l3.005-0.052c0.65-0.011,1.078-0.045,1.282-0.101c0.338-0.088,0.634-0.294,0.886-0.617
			c0.252-0.324,0.374-0.729,0.366-1.216c-0.01-0.585-0.247-1.056-0.71-1.411c-0.606-0.465-1.451-0.688-2.534-0.669
			c-1.23,0.021-2.172,0.308-2.825,0.857c-0.451,0.383-0.671,0.832-0.663,1.348c0.005,0.281,0.08,0.558,0.226,0.831
			C25.359,305.691,25.681,306.035,26.217,306.512z"/>
		<path d="M30.883,295.172c0.625,0.837,0.986,1.361,1.082,1.574c0.142,0.318,0.209,0.656,0.204,1.014
			c-0.009,0.557-0.207,1.012-0.594,1.367c-0.386,0.354-0.89,0.525-1.511,0.516c-0.393-0.007-0.731-0.1-1.015-0.281
			c-0.395-0.246-0.763-0.67-1.104-1.27c-0.342-0.601-0.753-1.596-1.235-2.987l-0.316-0.005c-0.803-0.014-1.355,0.105-1.659,0.355
			c-0.303,0.25-0.458,0.618-0.466,1.104c-0.006,0.369,0.089,0.663,0.284,0.884c0.196,0.226,0.422,0.34,0.68,0.345l0.51-0.009
			c0.27,0.004,0.477,0.076,0.621,0.217c0.145,0.14,0.215,0.32,0.211,0.543c-0.003,0.217-0.082,0.393-0.237,0.528
			s-0.364,0.2-0.627,0.196c-0.504-0.008-0.962-0.273-1.376-0.796s-0.612-1.249-0.598-2.181c0.012-0.715,0.142-1.299,0.389-1.752
			c0.187-0.342,0.476-0.593,0.865-0.75c0.253-0.102,0.77-0.146,1.549-0.134l2.733,0.044c0.768,0.013,1.238,0.006,1.411-0.021
			s0.29-0.073,0.35-0.14s0.09-0.144,0.091-0.231c0.002-0.093-0.018-0.176-0.057-0.247c-0.074-0.124-0.284-0.365-0.63-0.723
			l0.492,0.009c0.868,0.671,1.297,1.304,1.288,1.901c-0.005,0.287-0.108,0.515-0.31,0.682
			C31.705,295.092,31.364,295.174,30.883,295.172z M30.312,295.163l-3.067-0.05c0.337,0.891,0.577,1.466,0.719,1.726
			c0.25,0.468,0.515,0.803,0.792,1.007c0.278,0.203,0.584,0.308,0.918,0.313c0.422,0.007,0.774-0.114,1.056-0.36
			c0.283-0.248,0.426-0.535,0.432-0.863C31.169,296.49,30.886,295.898,30.312,295.163z"/>
		<path d="M23.92,289.156l1.809,0.07c-1.18-0.721-1.756-1.436-1.729-2.144c0.013-0.321,0.121-0.585,0.325-0.788
			c0.205-0.203,0.436-0.299,0.693-0.289c0.228,0.009,0.418,0.092,0.57,0.25c0.152,0.159,0.225,0.344,0.216,0.555
			c-0.008,0.205-0.118,0.43-0.33,0.678c-0.212,0.246-0.32,0.432-0.325,0.555c-0.004,0.105,0.05,0.221,0.162,0.349
			c0.23,0.272,0.615,0.561,1.154,0.863l3.855,0.149c0.445,0.018,0.784-0.025,1.017-0.127c0.161-0.07,0.298-0.199,0.411-0.389
			c0.113-0.189,0.177-0.465,0.191-0.828l0.316,0.012l-0.16,4.119l-0.316-0.012c0.016-0.41-0.037-0.717-0.158-0.922
			c-0.088-0.149-0.233-0.258-0.436-0.324c-0.099-0.033-0.382-0.059-0.85-0.077l-3.118-0.121c-0.937-0.036-1.495-0.039-1.675-0.009
			c-0.18,0.031-0.313,0.098-0.399,0.196c-0.086,0.099-0.132,0.226-0.138,0.378c-0.007,0.181,0.029,0.387,0.108,0.619l-0.32,0.076
			l-0.889-2.472L23.92,289.156z"/>
		<path d="M21.817,282.934l2.641,0.156l0.111-1.878l0.614,0.036l-0.111,1.877l5.212,0.309c0.521,0.03,0.876-0.023,1.066-0.162
			c0.19-0.139,0.292-0.324,0.306-0.559c0.011-0.193-0.038-0.384-0.147-0.572c-0.109-0.188-0.278-0.339-0.506-0.452l0.02-0.343
			c0.562,0.24,0.976,0.555,1.243,0.945c0.267,0.392,0.389,0.786,0.366,1.184c-0.016,0.27-0.106,0.528-0.27,0.777
			c-0.165,0.248-0.389,0.426-0.674,0.531c-0.285,0.107-0.717,0.143-1.296,0.109l-5.405-0.319l-0.075,1.272l-0.29-0.018
			c-0.11-0.329-0.308-0.671-0.596-1.025c-0.287-0.354-0.633-0.676-1.039-0.964c-0.214-0.147-0.61-0.358-1.187-0.634L21.817,282.934z
			"/>
		<path d="M22.578,273.18l2.634,0.248l0.176-1.872L26,271.613l-0.176,1.873l5.198,0.488c0.52,0.049,0.876,0.008,1.071-0.124
			s0.303-0.314,0.325-0.548c0.018-0.192-0.024-0.385-0.127-0.576c-0.103-0.193-0.266-0.35-0.49-0.471l0.032-0.342
			c0.553,0.259,0.956,0.588,1.209,0.988c0.254,0.4,0.362,0.799,0.325,1.195c-0.025,0.27-0.125,0.524-0.297,0.768
			c-0.173,0.242-0.404,0.412-0.692,0.508c-0.289,0.097-0.722,0.118-1.299,0.063l-5.39-0.507l-0.119,1.269l-0.289-0.027
			c-0.098-0.333-0.285-0.681-0.559-1.046c-0.275-0.363-0.61-0.697-1.005-0.998c-0.209-0.156-0.597-0.381-1.164-0.676L22.578,273.18z
			"/>
		<path d="M21.33,267.773l5.846,0.703c-0.632-0.731-1.026-1.298-1.181-1.7s-0.21-0.792-0.165-1.171
			c0.054-0.453,0.227-0.828,0.516-1.124c0.29-0.296,0.711-0.489,1.265-0.583c0.386-0.065,1.073-0.039,2.062,0.08l2.827,0.34
			c0.506,0.061,0.857,0.062,1.053,0.002c0.146-0.041,0.269-0.127,0.367-0.257s0.169-0.381,0.214-0.753l0.314,0.037l-0.472,3.928
			l-0.314-0.038l0.022-0.184c0.045-0.372,0.019-0.638-0.077-0.797c-0.096-0.159-0.251-0.28-0.465-0.366
			c-0.091-0.027-0.363-0.07-0.817-0.124l-2.828-0.34c-0.873-0.104-1.451-0.128-1.735-0.071c-0.284,0.058-0.506,0.177-0.667,0.358
			c-0.16,0.181-0.257,0.411-0.291,0.69c-0.034,0.285,0.006,0.592,0.12,0.918s0.375,0.732,0.783,1.218l4.223,0.507
			c0.547,0.066,0.891,0.076,1.032,0.031s0.267-0.145,0.377-0.299c0.11-0.156,0.189-0.437,0.238-0.844l0.314,0.037l-0.476,3.962
			l-0.314-0.038c0.042-0.354,0.021-0.641-0.065-0.857c-0.044-0.123-0.144-0.229-0.298-0.318c-0.155-0.09-0.482-0.164-0.982-0.225
			l-7.234-0.869c-0.914-0.109-1.478-0.155-1.692-0.137c-0.214,0.019-0.365,0.068-0.452,0.149s-0.139,0.197-0.157,0.349
			c-0.015,0.122,0.008,0.326,0.068,0.609l-0.32,0.086l-0.69-2.508L21.33,267.773z"/>
		<path d="M26.702,259.22l1.791,0.266c-1.095-0.844-1.591-1.616-1.487-2.317c0.047-0.318,0.184-0.568,0.409-0.748
			s0.465-0.251,0.72-0.213c0.226,0.033,0.406,0.137,0.54,0.311c0.134,0.174,0.186,0.365,0.155,0.574
			c-0.03,0.203-0.164,0.416-0.401,0.639c-0.237,0.222-0.365,0.395-0.383,0.516c-0.015,0.104,0.026,0.227,0.124,0.365
			c0.199,0.296,0.55,0.623,1.054,0.982l3.816,0.566c0.44,0.064,0.782,0.059,1.024-0.018c0.167-0.053,0.318-0.166,0.451-0.342
			c0.132-0.176,0.226-0.443,0.279-0.803l0.313,0.047l-0.604,4.076l-0.313-0.046c0.06-0.405,0.041-0.716-0.057-0.933
			c-0.071-0.158-0.204-0.281-0.398-0.369c-0.094-0.044-0.373-0.101-0.837-0.169l-3.086-0.458c-0.927-0.137-1.482-0.2-1.665-0.189
			c-0.182,0.012-0.322,0.062-0.418,0.152c-0.096,0.089-0.155,0.209-0.178,0.359c-0.026,0.18-0.013,0.389,0.04,0.629l-0.326,0.04
			l-0.617-2.552L26.702,259.22z"/>
		<path d="M27.938,251.607c0.212-1.2,0.838-2.083,1.878-2.648c0.888-0.48,1.837-0.631,2.847-0.453
			c0.71,0.126,1.398,0.423,2.065,0.893c0.667,0.469,1.132,1.033,1.396,1.696s0.331,1.36,0.201,2.093
			c-0.211,1.194-0.854,2.06-1.931,2.596c-0.907,0.452-1.859,0.59-2.858,0.414c-0.727-0.129-1.417-0.437-2.072-0.924
			c-0.655-0.488-1.102-1.057-1.341-1.705C27.883,252.919,27.822,252.266,27.938,251.607z M28.453,251.975
			c-0.054,0.307-0.018,0.63,0.109,0.971c0.127,0.341,0.402,0.646,0.824,0.918c0.422,0.271,0.991,0.469,1.707,0.596
			c1.154,0.203,2.19,0.15,3.107-0.16c0.918-0.312,1.443-0.842,1.576-1.592c0.099-0.56-0.05-1.062-0.448-1.508
			c-0.397-0.444-1.159-0.767-2.284-0.965c-1.408-0.249-2.569-0.143-3.484,0.321C28.934,250.867,28.565,251.34,28.453,251.975z"/>
		<path d="M30.564,239.586l4.772,1.01c0.911,0.191,1.474,0.288,1.686,0.288c0.212,0.001,0.369-0.038,0.469-0.116
			c0.101-0.078,0.164-0.18,0.19-0.306c0.038-0.178,0.031-0.389-0.019-0.633l0.327-0.057l0.474,2.562l-0.082,0.387l-1.668-0.353
			c0.591,0.831,0.943,1.445,1.057,1.841c0.114,0.395,0.129,0.791,0.046,1.186c-0.094,0.442-0.302,0.798-0.625,1.068
			c-0.324,0.27-0.699,0.426-1.127,0.467c-0.428,0.041-1.009-0.016-1.743-0.172l-3.517-0.742c-0.373-0.079-0.639-0.094-0.8-0.043
			c-0.16,0.049-0.295,0.145-0.406,0.286s-0.207,0.419-0.289,0.833l-0.318-0.067l0.583-2.761l5.271,1.115
			c0.734,0.154,1.243,0.129,1.525-0.078c0.284-0.207,0.463-0.49,0.54-0.852c0.052-0.246,0.034-0.542-0.055-0.887
			c-0.089-0.346-0.306-0.779-0.65-1.301l-4.463-0.943c-0.447-0.096-0.767-0.077-0.959,0.053c-0.192,0.131-0.349,0.451-0.469,0.965
			l-0.318-0.066L30.564,239.586z"/>
		<path d="M36.502,236.666c-0.351,0.421-0.767,0.707-1.249,0.86c-0.481,0.153-0.975,0.167-1.481,0.042
			c-0.773-0.19-1.367-0.646-1.781-1.367c-0.414-0.721-0.508-1.535-0.284-2.445c0.184-0.746,0.525-1.347,1.024-1.803l0.408-1.656
			c0.06-0.244,0.103-0.385,0.126-0.42c0.024-0.037,0.055-0.061,0.094-0.068c0.06-0.021,0.155-0.016,0.286,0.016
			c0.148,0.037,0.247,0.076,0.296,0.119c0.024,0.023,0.04,0.059,0.046,0.105c0.006,0.047-0.021,0.193-0.081,0.438l-0.25,1.016
			c0.488-0.217,1.051-0.248,1.688-0.091c0.729,0.18,1.283,0.612,1.663,1.298c0.38,0.685,0.455,1.496,0.224,2.436
			c-0.096,0.387-0.25,0.768-0.463,1.144c0.155,0.304,0.302,0.52,0.442,0.647c0.141,0.129,0.268,0.207,0.381,0.234
			c0.097,0.023,0.202,0,0.316-0.071s0.225-0.239,0.332-0.502c0.062-0.153,0.18-0.547,0.354-1.181
			c0.317-1.164,0.544-1.914,0.681-2.248c0.205-0.512,0.505-0.885,0.901-1.123c0.396-0.236,0.828-0.298,1.294-0.183
			c0.643,0.159,1.171,0.608,1.586,1.351c0.612,1.092,0.742,2.353,0.39,3.78c-0.271,1.099-0.747,1.964-1.428,2.599
			c-0.39,0.357-0.738,0.497-1.045,0.422c-0.136-0.034-0.265-0.099-0.386-0.195c-0.187-0.148-0.431-0.42-0.732-0.814
			c-0.041-0.052-0.277-0.418-0.707-1.098c-0.249,0.253-0.458,0.424-0.628,0.512s-0.343,0.109-0.519,0.066
			c-0.199-0.049-0.412-0.188-0.64-0.416S36.847,237.373,36.502,236.666z M32.081,234.002c-0.104,0.42-0.023,0.814,0.243,1.182
			s0.746,0.637,1.439,0.808c0.899,0.222,1.644,0.2,2.234-0.065c0.448-0.203,0.729-0.531,0.841-0.987
			c0.106-0.433,0.032-0.827-0.224-1.187c-0.255-0.358-0.73-0.623-1.424-0.795c-0.905-0.223-1.661-0.201-2.27,0.065
			C32.473,233.22,32.193,233.547,32.081,234.002z M39.331,237.454c0.224,0.339,0.445,0.608,0.662,0.806
			c0.216,0.199,0.43,0.324,0.641,0.375c0.273,0.068,0.553-0.038,0.839-0.318c0.493-0.48,0.872-1.26,1.137-2.335
			c0.252-1.024,0.258-1.824,0.017-2.399c-0.241-0.576-0.566-0.914-0.976-1.015c-0.296-0.073-0.542,0.021-0.739,0.279
			c-0.198,0.265-0.417,0.833-0.655,1.704C39.906,235.822,39.598,236.79,39.331,237.454z"/>
		<path d="M29.599,225.148l5.667,1.6c-0.511-0.82-0.812-1.441-0.903-1.863c-0.091-0.421-0.085-0.814,0.019-1.182
			c0.124-0.439,0.352-0.783,0.684-1.03s0.778-0.374,1.34-0.38c0.391-0.005,1.066,0.127,2.024,0.398l2.741,0.773
			c0.49,0.139,0.837,0.193,1.04,0.166c0.151-0.018,0.286-0.084,0.403-0.197s0.227-0.35,0.329-0.711l0.305,0.086l-1.075,3.807
			l-0.305-0.086l0.05-0.178c0.102-0.361,0.118-0.627,0.047-0.799c-0.07-0.172-0.204-0.316-0.403-0.434
			c-0.085-0.043-0.348-0.126-0.788-0.25l-2.741-0.773c-0.846-0.239-1.414-0.352-1.703-0.34c-0.29,0.013-0.528,0.096-0.715,0.25
			c-0.187,0.154-0.318,0.367-0.395,0.638c-0.078,0.276-0.086,0.585-0.023,0.925c0.062,0.341,0.257,0.782,0.585,1.325l4.094,1.155
			c0.53,0.15,0.868,0.214,1.015,0.191c0.146-0.023,0.286-0.102,0.419-0.238c0.133-0.136,0.255-0.401,0.366-0.796l0.304,0.086
			l-1.084,3.84l-0.305-0.086c0.097-0.344,0.12-0.63,0.069-0.857c-0.024-0.128-0.106-0.249-0.245-0.361s-0.451-0.237-0.936-0.374
			l-7.012-1.979c-0.885-0.25-1.435-0.382-1.65-0.397c-0.215-0.015-0.371,0.012-0.469,0.078s-0.167,0.173-0.209,0.319
			c-0.034,0.118-0.042,0.323-0.027,0.614l-0.329,0.034l-0.293-2.585L29.599,225.148z"/>
		<path d="M35.347,212.416l2.513,0.828l0.588-1.787l0.584,0.192l-0.588,1.786l4.959,1.633c0.495,0.163,0.853,0.201,1.072,0.117
			c0.219-0.086,0.365-0.239,0.438-0.462c0.061-0.185,0.062-0.381,0.005-0.591c-0.057-0.21-0.182-0.398-0.373-0.566l0.107-0.326
			c0.481,0.375,0.801,0.785,0.959,1.232c0.158,0.446,0.175,0.859,0.051,1.237c-0.084,0.257-0.238,0.483-0.46,0.681
			c-0.223,0.199-0.485,0.312-0.788,0.343s-0.729-0.046-1.281-0.228l-5.143-1.692l-0.398,1.21l-0.275-0.09
			c-0.021-0.347-0.126-0.729-0.313-1.145s-0.439-0.815-0.758-1.197c-0.169-0.197-0.497-0.504-0.984-0.916L35.347,212.416z"/>
		<path d="M35.329,206.878l5.544,1.985c-0.454-0.854-0.711-1.493-0.773-1.92c-0.062-0.427-0.028-0.819,0.1-1.178
			c0.154-0.43,0.405-0.758,0.753-0.981s0.802-0.319,1.363-0.286c0.391,0.021,1.055,0.2,1.993,0.535l2.681,0.961
			c0.48,0.172,0.822,0.251,1.026,0.236c0.152-0.008,0.291-0.063,0.415-0.168c0.125-0.105,0.25-0.334,0.377-0.688l0.298,0.107
			l-1.334,3.723l-0.298-0.105l0.062-0.174c0.126-0.354,0.16-0.618,0.102-0.795c-0.058-0.176-0.182-0.33-0.372-0.46
			c-0.082-0.048-0.338-0.149-0.769-0.304l-2.681-0.96c-0.827-0.296-1.386-0.448-1.676-0.456c-0.29-0.007-0.533,0.061-0.73,0.201
			s-0.343,0.344-0.438,0.609c-0.097,0.27-0.126,0.577-0.087,0.92c0.039,0.345,0.203,0.799,0.493,1.363l4.004,1.434
			c0.519,0.186,0.852,0.273,1,0.26c0.147-0.012,0.292-0.082,0.434-0.208c0.142-0.127,0.282-0.384,0.42-0.769l0.298,0.105
			l-1.346,3.757l-0.298-0.106c0.121-0.336,0.163-0.62,0.127-0.851c-0.016-0.13-0.089-0.256-0.22-0.378
			c-0.131-0.121-0.433-0.267-0.908-0.437l-6.859-2.457c-0.866-0.31-1.406-0.48-1.619-0.511c-0.213-0.029-0.371-0.014-0.474,0.046
			s-0.179,0.161-0.23,0.305c-0.042,0.116-0.064,0.319-0.069,0.61l-0.331,0.012l-0.115-2.6L35.329,206.878z"/>
		<path d="M45.158,201.823c1.11,0.444,2.088,0.519,2.936,0.222c0.847-0.295,1.416-0.811,1.706-1.547
			c0.193-0.49,0.227-0.971,0.1-1.439s-0.469-0.955-1.026-1.457l0.263-0.189c0.702,0.408,1.25,1.01,1.647,1.802
			c0.396,0.792,0.431,1.603,0.104,2.431c-0.354,0.9-1.008,1.531-1.961,1.896c-0.953,0.364-2.021,0.312-3.204-0.154
			c-1.281-0.504-2.15-1.227-2.608-2.166c-0.458-0.939-0.491-1.905-0.1-2.897c0.331-0.839,0.88-1.42,1.646-1.741
			c0.766-0.322,1.612-0.3,2.539,0.066L45.158,201.823z M44.684,201.637l1.367-3.467c-0.49-0.162-0.851-0.238-1.082-0.229
			c-0.359,0.016-0.679,0.125-0.959,0.326c-0.281,0.2-0.479,0.448-0.595,0.742c-0.179,0.453-0.163,0.927,0.048,1.422
			C43.674,200.928,44.081,201.329,44.684,201.637z"/>
		<path d="M49.535,183.738l4.446,2.006c0.85,0.384,1.378,0.598,1.585,0.644c0.208,0.046,0.369,0.041,0.483-0.013
			c0.115-0.055,0.198-0.141,0.251-0.258c0.075-0.166,0.114-0.373,0.117-0.623l0.331,0.015l-0.085,2.604l-0.163,0.36l-1.554-0.701
			c0.399,0.939,0.612,1.613,0.639,2.023c0.027,0.412-0.042,0.801-0.209,1.17c-0.186,0.41-0.465,0.714-0.839,0.908
			c-0.374,0.195-0.774,0.266-1.201,0.215s-0.982-0.23-1.666-0.539l-3.276-1.479c-0.347-0.156-0.604-0.229-0.772-0.213
			c-0.167,0.014-0.32,0.078-0.458,0.193c-0.139,0.113-0.292,0.365-0.46,0.752l-0.296-0.135l1.16-2.571l4.911,2.216
			c0.684,0.309,1.186,0.393,1.507,0.251s0.557-0.38,0.709-0.717c0.104-0.229,0.149-0.522,0.136-0.878
			c-0.013-0.357-0.132-0.826-0.357-1.41l-4.158-1.877c-0.417-0.188-0.732-0.238-0.948-0.152c-0.215,0.086-0.437,0.367-0.665,0.843
			l-0.296-0.134L49.535,183.738z"/>
		<path d="M52.49,177.071l2.465,1.201l-0.127,0.261c-0.872-0.177-1.523-0.177-1.956,0c-0.432,0.178-0.766,0.509-1.002,0.993
			c-0.18,0.368-0.228,0.714-0.143,1.035s0.246,0.54,0.482,0.655c0.295,0.145,0.589,0.184,0.882,0.117
			c0.295-0.058,0.686-0.277,1.172-0.66l1.123-0.881c1.042-0.814,1.991-1.014,2.844-0.598c0.659,0.32,1.068,0.828,1.228,1.521
			c0.161,0.694,0.09,1.35-0.21,1.966c-0.215,0.442-0.541,0.909-0.976,1.401c-0.137,0.148-0.233,0.277-0.287,0.389
			c-0.059,0.121-0.037,0.249,0.067,0.385l-0.127,0.26l-2.583-1.259l0.127-0.261c0.809,0.212,1.502,0.201,2.079-0.033
			c0.577-0.233,0.991-0.608,1.242-1.125c0.177-0.363,0.215-0.711,0.113-1.045c-0.102-0.332-0.302-0.572-0.603-0.719
			c-0.364-0.178-0.731-0.198-1.104-0.063s-0.934,0.491-1.685,1.071c-0.751,0.578-1.338,0.912-1.759,1
			c-0.416,0.09-0.853,0.024-1.311-0.199c-0.595-0.29-0.993-0.736-1.195-1.34c-0.201-0.604-0.144-1.229,0.172-1.877
			c0.138-0.284,0.367-0.6,0.686-0.946c0.21-0.229,0.336-0.39,0.38-0.479c0.041-0.084,0.055-0.159,0.041-0.225
			s-0.069-0.16-0.164-0.285L52.49,177.071z"/>
		<path d="M56.875,175.644c1.057,0.559,2.022,0.735,2.896,0.53c0.874-0.204,1.494-0.657,1.86-1.358
			c0.244-0.468,0.328-0.94,0.251-1.421c-0.077-0.479-0.366-0.999-0.867-1.559l0.282-0.16c0.655,0.48,1.137,1.137,1.448,1.966
			c0.31,0.83,0.259,1.64-0.153,2.429c-0.448,0.857-1.165,1.416-2.15,1.678c-0.986,0.263-2.043,0.1-3.17-0.49
			c-1.221-0.637-2.009-1.446-2.365-2.43c-0.356-0.982-0.288-1.945,0.206-2.891c0.418-0.801,1.024-1.32,1.82-1.559
			s1.635-0.127,2.518,0.333L56.875,175.644z M56.423,175.408l1.725-3.304c-0.471-0.213-0.821-0.326-1.052-0.341
			c-0.358-0.021-0.688,0.053-0.988,0.223c-0.301,0.17-0.524,0.396-0.67,0.676c-0.225,0.432-0.259,0.904-0.102,1.42
			C55.493,174.597,55.855,175.039,56.423,175.408z"/>
		<path d="M67.82,163.75c0.136,1.035,0.194,1.67,0.174,1.902c-0.033,0.347-0.139,0.675-0.319,0.983
			c-0.28,0.481-0.675,0.781-1.186,0.901c-0.51,0.119-1.034,0.023-1.571-0.289c-0.339-0.198-0.588-0.445-0.748-0.742
			c-0.224-0.408-0.337-0.957-0.342-1.648c-0.005-0.69,0.124-1.76,0.384-3.209l-0.273-0.158c-0.693-0.404-1.233-0.572-1.62-0.502
			c-0.386,0.07-0.702,0.314-0.947,0.735c-0.186,0.319-0.247,0.622-0.184,0.909c0.06,0.293,0.202,0.504,0.424,0.635l0.449,0.24
			c0.233,0.137,0.378,0.301,0.435,0.494c0.058,0.191,0.03,0.385-0.082,0.576c-0.109,0.188-0.264,0.303-0.465,0.345
			c-0.201,0.042-0.416-0.003-0.644-0.136c-0.435-0.254-0.706-0.709-0.811-1.367s0.077-1.389,0.546-2.193
			c0.36-0.618,0.758-1.064,1.196-1.338c0.331-0.207,0.705-0.285,1.121-0.232c0.271,0.036,0.743,0.25,1.417,0.643l2.362,1.375
			c0.664,0.387,1.077,0.611,1.241,0.672c0.164,0.062,0.289,0.078,0.373,0.05s0.149-0.081,0.193-0.157
			c0.047-0.08,0.07-0.162,0.07-0.243c-0.004-0.145-0.069-0.458-0.196-0.938l0.425,0.248c0.429,1.01,0.493,1.772,0.192,2.289
			c-0.145,0.248-0.346,0.395-0.603,0.441C68.576,164.082,68.238,163.986,67.82,163.75z M67.326,163.463l-2.651-1.544
			c-0.142,0.941-0.214,1.561-0.217,1.856c-0.01,0.53,0.056,0.951,0.199,1.266c0.143,0.313,0.358,0.555,0.647,0.723
			c0.365,0.213,0.73,0.279,1.098,0.202c0.368-0.077,0.634-0.259,0.799-0.542C67.425,165.039,67.467,164.385,67.326,163.463z"/>
		<path d="M66.176,155.969c-0.464-1.402-0.469-2.467-0.015-3.191c0.233-0.373,0.526-0.635,0.88-0.787s0.794-0.174,1.321-0.065
			c0.366,0.077,0.857,0.308,1.474,0.693l2.914,1.821c0.432,0.271,0.747,0.42,0.945,0.446c0.158,0.022,0.31-0.005,0.456-0.083
			c0.146-0.078,0.321-0.281,0.526-0.609l0.268,0.168l-2.111,3.376l-0.268-0.168l0.088-0.142c0.199-0.318,0.29-0.57,0.272-0.758
			s-0.105-0.365-0.263-0.532c-0.062-0.066-0.29-0.223-0.682-0.468l-2.794-1.748c-0.621-0.388-1.122-0.589-1.504-0.604
			c-0.381-0.014-0.692,0.17-0.931,0.553c-0.37,0.592-0.415,1.383-0.136,2.372l3.6,2.251c0.462,0.289,0.765,0.44,0.908,0.453
			c0.188,0.021,0.353-0.008,0.496-0.088c0.143-0.08,0.331-0.307,0.564-0.679l0.269,0.167l-2.111,3.377l-0.269-0.168l0.093-0.149
			c0.217-0.348,0.276-0.638,0.176-0.87c-0.1-0.231-0.399-0.503-0.896-0.813l-2.534-1.585c-0.82-0.512-1.331-0.806-1.533-0.88
			c-0.202-0.075-0.36-0.094-0.473-0.058c-0.112,0.037-0.209,0.12-0.29,0.249c-0.087,0.14-0.154,0.329-0.201,0.569l-0.338-0.057
			l0.451-2.578l0.201-0.32L66.176,155.969z"/>
		<path d="M77.657,148.704c0.121,0.555,0.151,1.038,0.091,1.448c-0.061,0.411-0.212,0.797-0.455,1.156
			c-0.49,0.729-1.224,1.161-2.2,1.295c-0.976,0.135-1.943-0.12-2.901-0.764c-0.958-0.645-1.632-1.535-2.021-2.673
			s-0.266-2.181,0.372-3.128c0.396-0.589,0.91-0.949,1.542-1.082l-1.232-0.828c-0.763-0.514-1.245-0.811-1.444-0.893
			c-0.2-0.08-0.357-0.104-0.473-0.068c-0.116,0.035-0.213,0.111-0.291,0.229c-0.085,0.126-0.159,0.32-0.222,0.582l-0.319-0.078
			l0.522-2.539l0.221-0.329l7.724,5.193c0.783,0.526,1.273,0.829,1.47,0.909c0.197,0.079,0.356,0.102,0.479,0.067
			s0.219-0.104,0.291-0.212c0.088-0.132,0.165-0.334,0.229-0.609l0.309,0.092l-0.509,2.538l-0.226,0.335L77.657,148.704z
			 M77.146,148.361l-3.442-2.315c-0.351-0.192-0.711-0.308-1.081-0.345c-0.371-0.037-0.706,0.018-1.006,0.165
			s-0.527,0.335-0.681,0.563c-0.288,0.429-0.352,0.939-0.193,1.533c0.208,0.783,0.798,1.5,1.771,2.154
			c0.982,0.66,1.878,0.953,2.689,0.876c0.811-0.076,1.392-0.378,1.745-0.902C77.244,149.648,77.311,149.072,77.146,148.361z"/>
		<path d="M79.599,138.827c0.956,0.718,1.881,1.046,2.776,0.981s1.579-0.414,2.051-1.049c0.314-0.423,0.472-0.877,0.472-1.363
			c0-0.485-0.204-1.044-0.61-1.676l0.304-0.113c0.571,0.578,0.944,1.301,1.119,2.17c0.175,0.868-0.002,1.659-0.534,2.373
			c-0.577,0.776-1.374,1.215-2.389,1.318s-2.032-0.226-3.053-0.984c-1.104-0.822-1.755-1.746-1.952-2.773
			c-0.196-1.025,0.023-1.967,0.66-2.822c0.539-0.725,1.22-1.141,2.043-1.252c0.823-0.109,1.635,0.133,2.434,0.727L79.599,138.827z
			 M79.19,138.523l2.225-2.99c-0.431-0.284-0.759-0.451-0.984-0.502c-0.351-0.079-0.688-0.058-1.011,0.062
			c-0.324,0.121-0.58,0.309-0.769,0.562c-0.291,0.391-0.399,0.852-0.325,1.385C78.4,137.575,78.688,138.068,79.19,138.523z"/>
		<path d="M83.672,129.52l4.162,3.266c0.59,0.464,1.014,0.692,1.272,0.686c0.336-0.011,0.617-0.159,0.841-0.445l0.45-0.574
			l0.249,0.196l-2.968,3.781l-0.249-0.195l0.223-0.283c0.145-0.185,0.23-0.389,0.258-0.613s-0.015-0.427-0.126-0.607
			s-0.393-0.448-0.845-0.803l-4.162-3.267l-0.966,1.23l-0.498-0.391l0.966-1.23l-0.415-0.326c-0.631-0.496-1.086-1.017-1.365-1.563
			c-0.278-0.546-0.389-1.134-0.331-1.763c0.058-0.629,0.291-1.203,0.7-1.725c0.38-0.484,0.886-0.806,1.518-0.965
			c0.417-0.104,0.755-0.056,1.013,0.146c0.138,0.109,0.221,0.271,0.25,0.486c0.028,0.217-0.012,0.393-0.121,0.531
			c-0.083,0.105-0.209,0.188-0.377,0.246c-0.168,0.058-0.445,0.073-0.83,0.047c-0.385-0.027-0.677-0.003-0.877,0.07
			c-0.2,0.074-0.369,0.199-0.506,0.375c-0.167,0.211-0.251,0.436-0.254,0.672s0.089,0.479,0.276,0.73
			c0.187,0.251,0.773,0.764,1.759,1.537l0.457,0.358l1.281-1.632l0.498,0.391L83.672,129.52z"/>
		<path d="M87.271,125.053l4.093,3.354c0.58,0.475,1,0.713,1.257,0.711c0.337-0.004,0.621-0.146,0.851-0.428l0.462-0.564
			l0.245,0.201l-3.046,3.719l-0.245-0.2l0.229-0.278c0.148-0.182,0.239-0.385,0.271-0.608s-0.006-0.427-0.114-0.61
			c-0.108-0.183-0.384-0.456-0.828-0.82l-4.093-3.352l-0.991,1.21l-0.49-0.401l0.991-1.21l-0.408-0.334
			c-0.621-0.509-1.065-1.039-1.333-1.591c-0.267-0.553-0.366-1.143-0.295-1.77c0.071-0.628,0.316-1.197,0.736-1.71
			c0.39-0.476,0.902-0.787,1.537-0.934c0.419-0.096,0.756-0.04,1.01,0.168c0.136,0.111,0.216,0.275,0.239,0.491
			c0.023,0.217-0.02,0.393-0.132,0.529c-0.085,0.104-0.212,0.184-0.382,0.237c-0.17,0.054-0.447,0.064-0.831,0.03
			c-0.384-0.035-0.677-0.018-0.878,0.053s-0.373,0.191-0.514,0.363c-0.17,0.209-0.26,0.431-0.268,0.666
			c-0.008,0.236,0.079,0.482,0.261,0.736c0.181,0.255,0.757,0.779,1.727,1.574l0.449,0.367l1.314-1.604l0.49,0.401L87.271,125.053z"
			/>
		<path d="M91.087,119.188c0.798-0.922,1.789-1.357,2.972-1.311c1.008,0.045,1.9,0.402,2.675,1.074
			c0.545,0.471,0.983,1.08,1.314,1.824c0.332,0.745,0.441,1.469,0.327,2.173s-0.414,1.337-0.901,1.899
			c-0.794,0.917-1.791,1.329-2.989,1.236c-1.011-0.076-1.899-0.447-2.666-1.111c-0.558-0.482-0.993-1.102-1.304-1.856
			s-0.404-1.472-0.276-2.151S90.65,119.691,91.087,119.188z M91.341,119.768c-0.203,0.234-0.338,0.531-0.403,0.889
			c-0.066,0.357,0.013,0.762,0.236,1.211s0.609,0.911,1.159,1.387c0.886,0.768,1.802,1.253,2.749,1.457
			c0.947,0.205,1.67,0.019,2.169-0.557c0.372-0.43,0.502-0.938,0.389-1.523c-0.112-0.586-0.601-1.254-1.464-2.002
			c-1.081-0.936-2.132-1.439-3.155-1.512C92.323,119.063,91.763,119.28,91.341,119.768z"/>
		<path d="M96.099,113.561l1.335,1.223c-0.436-1.312-0.414-2.23,0.065-2.753c0.217-0.237,0.47-0.368,0.757-0.392
			c0.287-0.023,0.526,0.053,0.716,0.227c0.168,0.154,0.26,0.342,0.273,0.561c0.014,0.219-0.05,0.406-0.193,0.562
			c-0.138,0.15-0.368,0.252-0.689,0.304s-0.523,0.122-0.606,0.214c-0.071,0.077-0.105,0.201-0.102,0.371
			c-0.001,0.357,0.107,0.824,0.323,1.404l2.846,2.605c0.328,0.301,0.614,0.486,0.858,0.559c0.168,0.051,0.356,0.041,0.564-0.031
			c0.208-0.071,0.435-0.24,0.681-0.509l0.233,0.214l-2.783,3.041l-0.233-0.215c0.277-0.302,0.435-0.57,0.474-0.805
			c0.03-0.171-0.011-0.348-0.123-0.529c-0.054-0.089-0.253-0.291-0.599-0.607l-2.302-2.107c-0.691-0.633-1.116-0.996-1.273-1.088
			c-0.158-0.093-0.301-0.129-0.431-0.109c-0.129,0.021-0.246,0.088-0.349,0.199c-0.123,0.135-0.229,0.315-0.318,0.543l-0.292-0.148
			l0.917-2.461L96.099,113.561z"/>
		<path d="M98.52,107.444l1.915,1.825l1.298-1.361l0.445,0.424l-1.298,1.361l3.779,3.604c0.377,0.359,0.684,0.548,0.918,0.564
			c0.235,0.018,0.433-0.059,0.595-0.229c0.133-0.14,0.219-0.316,0.258-0.531c0.038-0.215,0.007-0.438-0.094-0.672l0.237-0.248
			c0.274,0.545,0.387,1.053,0.338,1.523c-0.049,0.473-0.211,0.852-0.485,1.141c-0.186,0.195-0.422,0.334-0.708,0.418
			c-0.286,0.084-0.572,0.074-0.859-0.029c-0.286-0.104-0.64-0.355-1.059-0.755l-3.919-3.735L99,111.666l-0.21-0.199
			c0.129-0.322,0.198-0.712,0.208-1.168c0.01-0.457-0.047-0.926-0.171-1.407c-0.068-0.251-0.233-0.668-0.496-1.25L98.52,107.444z"/>
		<path d="M105.848,103.416l1.943,1.936l-0.205,0.205c-0.768-0.449-1.384-0.661-1.85-0.633c-0.466,0.027-0.889,0.232-1.27,0.614
			c-0.289,0.29-0.446,0.602-0.47,0.933c-0.024,0.332,0.057,0.591,0.244,0.777c0.233,0.23,0.498,0.363,0.796,0.396
			c0.298,0.041,0.74-0.04,1.323-0.245l1.348-0.469c1.25-0.434,2.212-0.314,2.884,0.355c0.519,0.517,0.742,1.129,0.669,1.838
			s-0.352,1.307-0.835,1.791c-0.348,0.35-0.807,0.686-1.378,1.01c-0.178,0.096-0.311,0.188-0.397,0.274
			c-0.095,0.096-0.116,0.224-0.062,0.386l-0.205,0.205l-2.037-2.027l0.205-0.206c0.697,0.463,1.356,0.677,1.978,0.643
			c0.621-0.034,1.135-0.255,1.54-0.662c0.285-0.286,0.434-0.604,0.445-0.952c0.012-0.348-0.101-0.639-0.337-0.875
			c-0.286-0.285-0.627-0.424-1.023-0.418c-0.396,0.008-1.043,0.163-1.941,0.467c-0.898,0.305-1.561,0.43-1.988,0.377
			c-0.423-0.049-0.814-0.253-1.176-0.613c-0.469-0.467-0.701-1.018-0.696-1.654c0.005-0.636,0.262-1.209,0.771-1.72
			c0.223-0.225,0.542-0.448,0.956-0.673c0.273-0.15,0.445-0.26,0.515-0.331c0.066-0.065,0.104-0.132,0.112-0.198
			s-0.013-0.175-0.063-0.324L105.848,103.416z"/>
		<path d="M113.464,96.187c0.898-0.823,1.933-1.143,3.103-0.958c0.997,0.16,1.841,0.617,2.534,1.373
			c0.487,0.532,0.852,1.188,1.096,1.965c0.243,0.778,0.269,1.51,0.074,2.196c-0.194,0.687-0.565,1.28-1.114,1.782
			c-0.895,0.82-1.932,1.114-3.112,0.884c-0.995-0.192-1.835-0.663-2.52-1.411c-0.499-0.544-0.859-1.209-1.082-1.994
			s-0.231-1.508-0.026-2.17C112.622,97.193,112.971,96.638,113.464,96.187z M113.648,96.791c-0.229,0.211-0.397,0.489-0.503,0.837
			c-0.106,0.349-0.075,0.758,0.095,1.229c0.17,0.473,0.5,0.977,0.991,1.512c0.792,0.865,1.646,1.453,2.563,1.765
			c0.917,0.312,1.657,0.211,2.219-0.304c0.419-0.384,0.606-0.873,0.562-1.469c-0.044-0.594-0.452-1.313-1.224-2.156
			c-0.966-1.055-1.952-1.676-2.96-1.865C114.705,96.205,114.124,96.356,113.648,96.791z"/>
		<path d="M120.256,91.312l3.465,3.999c0.491,0.566,0.864,0.872,1.118,0.915c0.333,0.053,0.636-0.04,0.911-0.277l0.551-0.479
			l0.207,0.239l-3.633,3.148l-0.207-0.239l0.272-0.236c0.177-0.152,0.3-0.338,0.37-0.553s0.066-0.422-0.009-0.62
			c-0.075-0.198-0.3-0.515-0.677-0.948l-3.465-4l-1.182,1.025l-0.415-0.479l1.182-1.024l-0.345-0.398
			c-0.526-0.606-0.874-1.204-1.043-1.794c-0.17-0.59-0.167-1.188,0.01-1.794s0.515-1.126,1.015-1.56
			c0.465-0.402,1.022-0.623,1.673-0.66c0.429-0.023,0.751,0.09,0.966,0.338c0.115,0.133,0.166,0.308,0.152,0.524
			c-0.013,0.218-0.086,0.384-0.219,0.499c-0.102,0.088-0.241,0.145-0.417,0.169s-0.451-0.013-0.824-0.112
			c-0.373-0.099-0.665-0.131-0.875-0.096c-0.21,0.034-0.399,0.125-0.567,0.271c-0.204,0.177-0.33,0.38-0.377,0.611
			c-0.047,0.231-0.003,0.488,0.132,0.771c0.135,0.281,0.614,0.896,1.435,1.844l0.38,0.438l1.567-1.357l0.415,0.479L120.256,91.312z"
			/>
		<path d="M128.564,83.318c0.956-0.756,2.01-1.002,3.164-0.734c0.982,0.23,1.792,0.748,2.429,1.552
			c0.447,0.565,0.765,1.244,0.952,2.038c0.188,0.793,0.16,1.525-0.083,2.195c-0.242,0.67-0.655,1.236-1.238,1.699
			c-0.951,0.753-2.007,0.973-3.167,0.658c-0.979-0.264-1.783-0.793-2.412-1.587c-0.458-0.579-0.771-1.268-0.937-2.067
			c-0.166-0.799-0.123-1.521,0.129-2.165C127.653,84.264,128.041,83.733,128.564,83.318z M128.706,83.936
			c-0.244,0.193-0.431,0.459-0.562,0.799c-0.131,0.339-0.128,0.75,0.007,1.232c0.136,0.483,0.429,1.01,0.88,1.579
			c0.728,0.919,1.538,1.565,2.431,1.942s1.638,0.329,2.235-0.145c0.445-0.353,0.667-0.827,0.666-1.424s-0.357-1.343-1.067-2.238
			c-0.888-1.121-1.828-1.812-2.819-2.072C129.801,83.426,129.21,83.535,128.706,83.936z"/>
		<path d="M133.104,76.781l1.589,2.115l1.504-1.129l0.369,0.491l-1.504,1.13l3.135,4.174c0.313,0.418,0.584,0.654,0.813,0.709
			c0.229,0.056,0.437,0.014,0.624-0.128c0.155-0.116,0.269-0.276,0.342-0.481s0.079-0.432,0.018-0.679l0.274-0.206
			c0.181,0.582,0.208,1.102,0.083,1.559c-0.126,0.458-0.348,0.807-0.667,1.045c-0.215,0.162-0.471,0.261-0.767,0.297
			c-0.296,0.035-0.577-0.021-0.842-0.17c-0.265-0.149-0.572-0.455-0.92-0.92l-3.251-4.328l-1.019,0.766l-0.174-0.232
			c0.18-0.297,0.312-0.669,0.397-1.117c0.084-0.449,0.105-0.92,0.063-1.416c-0.026-0.26-0.121-0.697-0.284-1.314L133.104,76.781z"/>
		<path d="M136.269,72.218l3.414,4.798c0.116-0.959,0.27-1.632,0.463-2.018c0.193-0.385,0.445-0.688,0.755-0.91
			c0.372-0.264,0.765-0.389,1.179-0.374c0.413,0.015,0.841,0.196,1.282,0.544c0.308,0.24,0.751,0.768,1.328,1.578l1.651,2.32
			c0.295,0.416,0.531,0.676,0.707,0.781c0.129,0.08,0.275,0.113,0.437,0.099s0.396-0.13,0.702-0.349l0.183,0.258l-3.222,2.294
			l-0.184-0.258l0.15-0.107c0.306-0.218,0.485-0.415,0.538-0.593c0.053-0.178,0.039-0.375-0.042-0.59
			c-0.04-0.087-0.192-0.316-0.458-0.689l-1.651-2.32c-0.51-0.715-0.881-1.159-1.115-1.331c-0.234-0.172-0.472-0.256-0.714-0.253
			c-0.242,0.004-0.478,0.087-0.707,0.25c-0.234,0.166-0.433,0.402-0.598,0.705c-0.165,0.305-0.29,0.771-0.375,1.4l2.466,3.465
			c0.319,0.449,0.543,0.711,0.671,0.785c0.128,0.074,0.287,0.1,0.475,0.076c0.189-0.022,0.45-0.152,0.785-0.391l0.183,0.258
			l-3.251,2.313l-0.184-0.258c0.292-0.207,0.488-0.415,0.591-0.625c0.062-0.116,0.073-0.261,0.036-0.435
			c-0.038-0.176-0.203-0.468-0.495-0.879l-4.224-5.936c-0.533-0.75-0.879-1.197-1.037-1.344c-0.158-0.146-0.296-0.225-0.415-0.234
			s-0.239,0.03-0.363,0.119c-0.101,0.07-0.235,0.225-0.406,0.461l-0.278-0.18l1.392-2.198L136.269,72.218z"/>
		<path d="M147.197,73.705c0.658,0.998,1.418,1.619,2.283,1.859c0.864,0.242,1.626,0.143,2.284-0.295
			c0.439-0.293,0.74-0.668,0.904-1.125c0.164-0.457,0.161-1.051-0.01-1.783l0.324-0.004c0.342,0.736,0.45,1.543,0.322,2.42
			c-0.127,0.876-0.562,1.561-1.303,2.055c-0.805,0.535-1.703,0.681-2.693,0.436c-0.99-0.246-1.837-0.897-2.542-1.956
			c-0.763-1.146-1.064-2.235-0.903-3.269c0.161-1.032,0.685-1.844,1.573-2.436c0.751-0.5,1.533-0.662,2.346-0.488
			s1.495,0.675,2.046,1.504L147.197,73.705z M146.915,73.281l3.103-2.064c-0.311-0.414-0.563-0.682-0.758-0.806
			c-0.304-0.192-0.628-0.286-0.974-0.28c-0.345,0.004-0.649,0.094-0.913,0.27c-0.405,0.27-0.662,0.668-0.772,1.195
			C146.49,72.123,146.595,72.685,146.915,73.281z"/>
		<path d="M153.031,66.003l0.964,1.532c-0.072-1.38,0.191-2.26,0.792-2.637c0.273-0.172,0.551-0.23,0.834-0.176
			c0.283,0.053,0.493,0.189,0.63,0.408c0.122,0.193,0.16,0.396,0.116,0.611c-0.045,0.216-0.157,0.379-0.335,0.492
			c-0.174,0.109-0.422,0.146-0.746,0.11c-0.323-0.036-0.537-0.021-0.642,0.045c-0.089,0.056-0.155,0.167-0.196,0.331
			c-0.095,0.344-0.115,0.824-0.06,1.439l2.054,3.267c0.237,0.377,0.463,0.632,0.679,0.767c0.149,0.094,0.333,0.133,0.553,0.119
			c0.22-0.014,0.484-0.117,0.791-0.311l0.168,0.268l-3.489,2.195l-0.168-0.268c0.347-0.219,0.571-0.436,0.671-0.65
			c0.074-0.158,0.082-0.339,0.022-0.543c-0.028-0.101-0.167-0.349-0.417-0.746l-1.661-2.641c-0.499-0.793-0.812-1.256-0.939-1.387
			c-0.127-0.131-0.256-0.204-0.387-0.219c-0.13-0.016-0.26,0.018-0.389,0.1c-0.154,0.096-0.304,0.242-0.45,0.438l-0.243-0.221
			l1.537-2.13L153.031,66.003z"/>
		<path d="M160.704,61.336l1.404,2.355l-0.249,0.148c-0.632-0.626-1.178-0.983-1.636-1.072c-0.458-0.088-0.919,0.006-1.382,0.282
			c-0.352,0.21-0.581,0.473-0.687,0.788c-0.105,0.314-0.091,0.586,0.044,0.812c0.168,0.281,0.392,0.475,0.673,0.58
			c0.279,0.113,0.727,0.145,1.343,0.09l1.422-0.12c1.318-0.11,2.221,0.241,2.707,1.058c0.375,0.629,0.439,1.277,0.193,1.945
			c-0.246,0.669-0.664,1.179-1.252,1.529c-0.423,0.252-0.951,0.465-1.584,0.638c-0.196,0.049-0.347,0.104-0.453,0.167
			c-0.116,0.07-0.167,0.189-0.155,0.359l-0.249,0.148l-1.471-2.469l0.249-0.148c0.561,0.62,1.146,0.99,1.757,1.111
			c0.61,0.12,1.163,0.033,1.656-0.261c0.347-0.207,0.57-0.478,0.667-0.812c0.098-0.334,0.061-0.645-0.11-0.932
			c-0.207-0.348-0.503-0.566-0.888-0.658c-0.385-0.091-1.051-0.1-1.997-0.027s-1.619,0.029-2.02-0.127
			c-0.397-0.152-0.727-0.447-0.987-0.885c-0.339-0.568-0.428-1.16-0.265-1.775c0.162-0.615,0.553-1.107,1.171-1.477
			c0.272-0.162,0.636-0.301,1.093-0.416c0.302-0.076,0.495-0.141,0.581-0.191c0.08-0.049,0.133-0.104,0.157-0.166
			s0.031-0.172,0.019-0.328L160.704,61.336z"/>
		<path d="M167.077,65.271c0.24-0.137,0.488-0.168,0.745-0.094c0.257,0.072,0.452,0.227,0.585,0.461s0.164,0.48,0.092,0.74
			c-0.072,0.26-0.225,0.457-0.459,0.59s-0.481,0.163-0.741,0.092c-0.26-0.072-0.456-0.225-0.589-0.459
			c-0.136-0.24-0.167-0.488-0.094-0.745C166.689,65.6,166.843,65.404,167.077,65.271z"/>
	</g>
</g>
<g id="Layer_2">
</g>
</svg>
