<?xml version="1.0" encoding="utf-8"?>
<!-- Generator: Adobe Illustrator 16.0.0, SVG Export Plug-In . SVG Version: 6.00 Build 0)  -->
<!DOCTYPE svg PUBLIC "-//W3C//DTD SVG 1.1//EN" "http://www.w3.org/Graphics/SVG/1.1/DTD/svg11.dtd">
<svg version="1.1" xmlns="http://www.w3.org/2000/svg" xmlns:xlink="http://www.w3.org/1999/xlink" x="0px" y="0px" width="600px"
	 height="600px" viewBox="0 0 600 600" enable-background="new 0 0 600 600" xml:space="preserve">
<g id="Layer_1">
	<g>
		<path d="M302.848,19.738l0.339,4.047l-0.272,0.004c-0.383-1.206-0.916-2.07-1.598-2.593c-0.683-0.522-1.496-0.776-2.439-0.761
			c-0.791,0.014-1.502,0.226-2.134,0.637c-0.632,0.412-1.124,1.061-1.476,1.945s-0.517,1.98-0.496,3.286
			c0.018,1.078,0.206,2.01,0.564,2.795c0.358,0.786,0.888,1.384,1.589,1.794s1.497,0.609,2.387,0.594
			c0.773-0.012,1.453-0.188,2.04-0.529c0.586-0.34,1.226-1.009,1.918-2.004l0.275,0.171c-0.58,1.07-1.265,1.857-2.053,2.362
			c-0.79,0.506-1.731,0.767-2.827,0.785c-1.974,0.031-3.515-0.676-4.623-2.123c-0.826-1.076-1.251-2.354-1.275-3.83
			c-0.019-1.189,0.229-2.285,0.747-3.291c0.517-1.004,1.238-1.787,2.164-2.351c0.925-0.563,1.942-0.854,3.049-0.872
			c0.861-0.014,1.714,0.184,2.558,0.592c0.248,0.125,0.426,0.188,0.531,0.186c0.158-0.003,0.295-0.061,0.41-0.174
			c0.149-0.161,0.254-0.383,0.314-0.664L302.848,19.738z"/>
		<path d="M308.848,23.852c1.218,0.038,2.182,0.531,2.891,1.48c0.602,0.811,0.887,1.728,0.854,2.752
			c-0.022,0.721-0.219,1.444-0.587,2.172c-0.368,0.727-0.862,1.268-1.479,1.624c-0.619,0.355-1.299,0.521-2.043,0.498
			c-1.213-0.038-2.16-0.552-2.845-1.54c-0.577-0.833-0.851-1.756-0.818-2.77c0.022-0.738,0.229-1.466,0.618-2.184
			c0.389-0.717,0.888-1.24,1.496-1.57C307.541,23.984,308.18,23.83,308.848,23.852z M308.557,24.414
			c-0.311-0.01-0.625,0.072-0.943,0.247c-0.32,0.175-0.583,0.49-0.791,0.946c-0.207,0.457-0.323,1.049-0.346,1.774
			c-0.037,1.171,0.164,2.188,0.603,3.053s1.039,1.308,1.801,1.331c0.567,0.019,1.044-0.201,1.427-0.658
			c0.385-0.457,0.594-1.256,0.631-2.398c0.045-1.429-0.229-2.562-0.816-3.402C309.723,24.732,309.201,24.434,308.557,24.414z"/>
		<path d="M316.373,25.877c0.627-0.541,0.997-0.852,1.109-0.932c0.279-0.203,0.574-0.355,0.888-0.455
			c0.313-0.101,0.618-0.14,0.917-0.117c0.502,0.036,0.924,0.215,1.265,0.533s0.552,0.76,0.634,1.324
			c0.653-0.656,1.195-1.08,1.627-1.269c0.431-0.188,0.865-0.267,1.304-0.234c0.427,0.031,0.797,0.169,1.111,0.412
			c0.313,0.243,0.549,0.62,0.705,1.132c0.104,0.348,0.129,0.885,0.076,1.609l-0.254,3.453c-0.037,0.503-0.024,0.85,0.037,1.043
			c0.049,0.133,0.149,0.25,0.301,0.353c0.15,0.103,0.404,0.166,0.761,0.192l-0.022,0.315l-3.962-0.291l0.023-0.315l0.166,0.012
			c0.345,0.025,0.618-0.021,0.821-0.143c0.141-0.083,0.248-0.225,0.322-0.426c0.03-0.098,0.062-0.379,0.098-0.848l0.254-3.453
			c0.048-0.654,0.003-1.121-0.136-1.402c-0.2-0.391-0.551-0.604-1.055-0.642c-0.309-0.022-0.626,0.032-0.949,0.164
			c-0.324,0.132-0.725,0.392-1.199,0.78l-0.025,0.095l-0.01,0.378l-0.281,3.83c-0.041,0.55-0.035,0.895,0.017,1.033
			s0.159,0.26,0.321,0.363c0.163,0.103,0.449,0.169,0.857,0.199l-0.022,0.315l-4.059-0.298l0.023-0.316
			c0.444,0.033,0.753,0.003,0.927-0.09c0.175-0.094,0.302-0.242,0.382-0.448c0.036-0.097,0.072-0.386,0.107-0.864l0.254-3.454
			c0.048-0.654-0.014-1.132-0.186-1.433c-0.229-0.393-0.575-0.605-1.037-0.641c-0.315-0.022-0.634,0.039-0.956,0.186
			c-0.504,0.223-0.899,0.484-1.186,0.785l-0.316,4.305c-0.039,0.525-0.027,0.87,0.033,1.033c0.062,0.163,0.161,0.289,0.299,0.379
			c0.137,0.09,0.425,0.15,0.863,0.183l-0.023,0.315l-3.971-0.292l0.023-0.315c0.368,0.027,0.628,0.006,0.78-0.062
			c0.151-0.068,0.272-0.186,0.36-0.353c0.089-0.166,0.151-0.498,0.188-0.995l0.227-3.067c0.064-0.883,0.08-1.455,0.046-1.716
			c-0.026-0.196-0.081-0.333-0.163-0.413c-0.082-0.079-0.199-0.125-0.352-0.136c-0.164-0.013-0.363,0.018-0.597,0.089l-0.108-0.326
			l2.491-0.804l0.377,0.028L316.373,25.877z"/>
		<path d="M330.517,27.074c0.654-0.509,1.039-0.801,1.154-0.874c0.29-0.188,0.593-0.324,0.911-0.409
			c0.317-0.084,0.625-0.107,0.921-0.07c0.5,0.063,0.912,0.263,1.236,0.599c0.323,0.336,0.512,0.788,0.564,1.355
			c0.687-0.622,1.25-1.017,1.69-1.183c0.439-0.167,0.878-0.223,1.314-0.168c0.424,0.053,0.787,0.209,1.088,0.469
			s0.517,0.648,0.646,1.166c0.085,0.354,0.083,0.891-0.008,1.611l-0.431,3.436c-0.063,0.501-0.068,0.849-0.016,1.044
			c0.042,0.136,0.136,0.258,0.281,0.368c0.146,0.109,0.396,0.187,0.75,0.23l-0.039,0.314l-3.941-0.494l0.039-0.314l0.166,0.021
			c0.343,0.043,0.618,0.01,0.827-0.1c0.146-0.076,0.26-0.212,0.344-0.409c0.035-0.096,0.083-0.376,0.141-0.842l0.432-3.436
			c0.082-0.65,0.061-1.12-0.062-1.407c-0.18-0.4-0.521-0.632-1.021-0.694c-0.308-0.039-0.627-0.001-0.957,0.113
			c-0.331,0.115-0.743,0.355-1.237,0.718l-0.029,0.094l-0.03,0.378l-0.478,3.811c-0.069,0.547-0.081,0.891-0.037,1.031
			c0.044,0.142,0.146,0.268,0.303,0.379s0.439,0.193,0.846,0.244l-0.039,0.314l-4.037-0.508l0.039-0.313
			c0.441,0.056,0.752,0.041,0.931-0.042c0.179-0.084,0.313-0.227,0.403-0.428c0.042-0.096,0.093-0.382,0.152-0.858l0.432-3.437
			c0.081-0.65,0.044-1.131-0.112-1.439c-0.209-0.404-0.543-0.635-1.002-0.693c-0.314-0.039-0.636,0.006-0.965,0.137
			c-0.515,0.195-0.923,0.436-1.225,0.723l-0.538,4.281c-0.065,0.523-0.071,0.869-0.019,1.035s0.146,0.297,0.278,0.393
			c0.133,0.097,0.417,0.172,0.853,0.227l-0.039,0.314l-3.95-0.496l0.039-0.313c0.366,0.046,0.627,0.038,0.782-0.021
			s0.281-0.171,0.379-0.333c0.097-0.162,0.177-0.49,0.238-0.984l0.383-3.053c0.11-0.877,0.155-1.447,0.136-1.71
			c-0.018-0.197-0.064-0.337-0.143-0.421s-0.192-0.135-0.344-0.154c-0.163-0.02-0.363-0.001-0.601,0.058l-0.092-0.33l2.529-0.675
			l0.375,0.047L330.517,27.074z"/>
		<path d="M346.342,27.582c1.202,0.203,2.09,0.823,2.663,1.859c0.486,0.884,0.645,1.832,0.474,2.843
			c-0.12,0.71-0.412,1.401-0.876,2.071s-1.025,1.141-1.686,1.408c-0.661,0.27-1.358,0.342-2.092,0.218
			c-1.196-0.202-2.065-0.839-2.609-1.911c-0.46-0.904-0.605-1.855-0.437-2.855c0.123-0.728,0.426-1.421,0.909-2.079
			c0.482-0.658,1.047-1.109,1.694-1.354S345.684,27.471,346.342,27.582z M345.979,28.101c-0.307-0.052-0.63-0.013-0.97,0.117
			s-0.644,0.407-0.911,0.831s-0.462,0.994-0.583,1.711c-0.195,1.155-0.134,2.191,0.184,3.105c0.318,0.916,0.853,1.438,1.604,1.564
			c0.561,0.094,1.062-0.059,1.504-0.459c0.442-0.401,0.758-1.165,0.948-2.291c0.238-1.41,0.122-2.57-0.348-3.482
			C347.09,28.574,346.613,28.208,345.979,28.101z"/>
		<path d="M353.483,30.619c1.151-0.926,2.146-1.303,2.984-1.133c0.431,0.088,0.779,0.271,1.046,0.549
			c0.266,0.279,0.44,0.684,0.523,1.215c0.057,0.37,0.012,0.911-0.133,1.623l-0.686,3.367c-0.102,0.5-0.13,0.847-0.086,1.041
			c0.034,0.156,0.113,0.289,0.237,0.398s0.376,0.202,0.755,0.279l-0.062,0.31l-3.902-0.794l0.063-0.311l0.164,0.034
			c0.367,0.075,0.636,0.071,0.805-0.011s0.305-0.227,0.406-0.434c0.041-0.082,0.107-0.35,0.199-0.803l0.657-3.229
			c0.146-0.718,0.159-1.258,0.038-1.62c-0.12-0.362-0.401-0.588-0.844-0.679c-0.684-0.139-1.439,0.096-2.269,0.704l-0.847,4.16
			c-0.109,0.534-0.145,0.871-0.107,1.01c0.047,0.184,0.133,0.327,0.258,0.434c0.124,0.105,0.402,0.203,0.833,0.291l-0.063,0.31
			l-3.901-0.794l0.063-0.311l0.172,0.035c0.402,0.082,0.694,0.035,0.876-0.14c0.183-0.175,0.332-0.55,0.449-1.124l0.596-2.928
			c0.192-0.948,0.288-1.529,0.287-1.745s-0.038-0.369-0.112-0.462c-0.073-0.093-0.185-0.154-0.334-0.186
			c-0.161-0.032-0.362-0.028-0.604,0.012l-0.066-0.336l2.573-0.48l0.371,0.075L353.483,30.619z"/>
		<path d="M365.531,31.521l-0.626,2.67l-0.282-0.066c-0.021-0.889-0.165-1.524-0.434-1.906c-0.269-0.383-0.665-0.635-1.189-0.758
			c-0.399-0.094-0.747-0.064-1.041,0.09c-0.295,0.153-0.473,0.358-0.533,0.615c-0.074,0.319-0.048,0.615,0.081,0.886
			c0.122,0.275,0.424,0.608,0.904,0.997l1.106,0.9c1.025,0.836,1.43,1.717,1.213,2.641c-0.167,0.713-0.571,1.225-1.213,1.535
			c-0.642,0.31-1.296,0.387-1.963,0.23c-0.479-0.113-1.007-0.327-1.583-0.643c-0.175-0.102-0.322-0.166-0.441-0.193
			c-0.132-0.031-0.252,0.019-0.36,0.149l-0.283-0.065l0.657-2.799l0.282,0.066c-0.028,0.836,0.136,1.51,0.492,2.02
			c0.355,0.512,0.812,0.832,1.372,0.963c0.394,0.093,0.741,0.053,1.044-0.12c0.302-0.173,0.491-0.422,0.567-0.747
			c0.093-0.394,0.031-0.757-0.182-1.09c-0.214-0.333-0.687-0.802-1.417-1.406c-0.731-0.605-1.187-1.104-1.365-1.494
			c-0.181-0.385-0.213-0.826-0.096-1.322c0.15-0.645,0.498-1.133,1.042-1.462c0.544-0.33,1.167-0.413,1.868-0.248
			c0.309,0.072,0.666,0.226,1.075,0.46c0.271,0.154,0.454,0.242,0.552,0.265c0.091,0.021,0.167,0.019,0.228-0.01
			s0.142-0.103,0.242-0.224L365.531,31.521z"/>
		<path d="M374.761,31.447l-0.704,2.551l1.812,0.5l-0.163,0.594l-1.813-0.501l-1.39,5.032c-0.14,0.502-0.161,0.861-0.065,1.076
			s0.257,0.354,0.482,0.416c0.187,0.051,0.383,0.043,0.591-0.023c0.207-0.068,0.39-0.201,0.548-0.4l0.33,0.091
			c-0.351,0.499-0.745,0.838-1.184,1.019c-0.438,0.18-0.851,0.216-1.234,0.109c-0.26-0.071-0.494-0.214-0.702-0.426
			c-0.209-0.213-0.336-0.471-0.38-0.771c-0.045-0.301,0.01-0.73,0.165-1.29l1.441-5.218l-1.229-0.34l0.077-0.279
			c0.345-0.039,0.721-0.162,1.128-0.368c0.406-0.207,0.793-0.479,1.159-0.815c0.189-0.178,0.479-0.521,0.867-1.027L374.761,31.447z"
			/>
		<path d="M380.583,35.65c1.166,0.355,1.967,1.083,2.404,2.184c0.369,0.939,0.404,1.899,0.105,2.881
			c-0.21,0.689-0.588,1.336-1.133,1.941c-0.546,0.605-1.164,1-1.854,1.182c-0.688,0.183-1.39,0.166-2.102-0.051
			c-1.16-0.354-1.941-1.098-2.344-2.23c-0.34-0.955-0.362-1.917-0.067-2.887c0.215-0.706,0.604-1.355,1.167-1.946
			c0.562-0.591,1.181-0.966,1.854-1.126C379.288,35.438,379.944,35.456,380.583,35.65z M380.156,36.117
			c-0.297-0.09-0.623-0.093-0.977-0.008c-0.354,0.086-0.69,0.322-1.01,0.708c-0.32,0.387-0.586,0.927-0.797,1.622
			c-0.342,1.121-0.413,2.156-0.215,3.104s0.661,1.534,1.39,1.756c0.544,0.165,1.061,0.077,1.551-0.263
			c0.489-0.342,0.9-1.059,1.233-2.151c0.416-1.368,0.45-2.534,0.101-3.497C381.198,36.729,380.772,36.305,380.156,36.117z"/>
		<path d="M389.03,39.428l2.672-0.102l0.313,0.112l-0.637,1.771c0.631-0.527,1.192-0.853,1.683-0.979
			c0.49-0.125,0.953-0.109,1.389,0.048c0.761,0.274,1.288,0.8,1.581,1.578c0.36,0.952,0.33,2.013-0.091,3.181
			c-0.47,1.307-1.234,2.252-2.292,2.837c-0.869,0.478-1.772,0.548-2.71,0.21c-0.408-0.146-0.739-0.332-0.996-0.555
			c-0.19-0.162-0.379-0.417-0.565-0.764l-0.831,2.307c-0.187,0.518-0.273,0.859-0.261,1.022s0.083,0.314,0.211,0.454
			c0.127,0.139,0.397,0.283,0.811,0.432l-0.11,0.307l-3.969-1.43l0.11-0.307l0.207,0.075c0.301,0.114,0.581,0.149,0.84,0.106
			c0.126-0.023,0.242-0.092,0.35-0.206c0.106-0.114,0.259-0.446,0.457-0.998l2.579-7.161c0.177-0.49,0.267-0.811,0.271-0.958
			c0.004-0.148-0.031-0.272-0.104-0.374c-0.073-0.101-0.191-0.182-0.357-0.24c-0.132-0.048-0.314-0.07-0.546-0.066L389.03,39.428z
			 M391.203,41.696l-1.019,2.828c-0.221,0.612-0.341,1.022-0.36,1.233c-0.038,0.348,0.049,0.697,0.263,1.048
			c0.213,0.351,0.548,0.608,1.006,0.773c0.551,0.198,1.075,0.145,1.571-0.163c0.649-0.4,1.157-1.111,1.525-2.131
			c0.416-1.158,0.483-2.14,0.201-2.945c-0.198-0.557-0.54-0.924-1.025-1.098c-0.265-0.096-0.55-0.123-0.856-0.084
			C392.274,41.186,391.839,41.365,391.203,41.696z"/>
		<path d="M400.721,42.647l-0.66,1.686c1.067-0.878,1.932-1.188,2.592-0.929c0.3,0.117,0.512,0.307,0.637,0.566
			s0.141,0.51,0.046,0.75c-0.083,0.212-0.225,0.364-0.424,0.456c-0.2,0.092-0.397,0.099-0.594,0.022
			c-0.191-0.075-0.368-0.254-0.532-0.535c-0.163-0.281-0.303-0.443-0.417-0.488c-0.099-0.039-0.226-0.025-0.384,0.038
			c-0.333,0.128-0.73,0.396-1.193,0.807l-1.408,3.593c-0.163,0.414-0.233,0.748-0.214,1.002c0.014,0.174,0.091,0.346,0.232,0.516
			c0.142,0.168,0.381,0.318,0.72,0.451l-0.115,0.295l-3.838-1.504l0.115-0.295c0.382,0.149,0.689,0.201,0.922,0.153
			c0.17-0.034,0.32-0.136,0.449-0.305c0.064-0.082,0.182-0.341,0.353-0.778l1.139-2.904c0.342-0.873,0.528-1.399,0.558-1.58
			c0.03-0.18,0.012-0.327-0.054-0.441c-0.065-0.113-0.169-0.198-0.311-0.254c-0.169-0.066-0.376-0.1-0.621-0.102l0.033-0.326
			l2.626-0.028L400.721,42.647z"/>
		<path d="M407.861,45.561c1.121,0.477,1.842,1.285,2.159,2.426c0.269,0.973,0.202,1.932-0.198,2.875
			c-0.282,0.663-0.727,1.268-1.333,1.812c-0.606,0.545-1.263,0.871-1.967,0.979c-0.705,0.107-1.399,0.018-2.085-0.273
			c-1.116-0.475-1.814-1.296-2.095-2.465c-0.237-0.986-0.158-1.945,0.237-2.878c0.289-0.68,0.744-1.284,1.366-1.812
			c0.622-0.529,1.276-0.837,1.963-0.924C406.596,45.213,407.246,45.299,407.861,45.561z M407.387,45.98
			c-0.286-0.122-0.609-0.158-0.97-0.111s-0.721,0.246-1.079,0.597s-0.681,0.86-0.964,1.529c-0.458,1.079-0.639,2.101-0.542,3.063
			c0.097,0.965,0.496,1.596,1.197,1.893c0.523,0.223,1.046,0.189,1.569-0.098c0.522-0.287,1.008-0.957,1.454-2.008
			c0.559-1.316,0.715-2.473,0.469-3.468C408.358,46.697,407.98,46.232,407.387,45.98z"/>
		<path d="M414.168,50.182c0.78-0.277,1.237-0.433,1.371-0.467c0.333-0.088,0.664-0.121,0.992-0.102s0.627,0.094,0.896,0.223
			c0.455,0.216,0.784,0.535,0.986,0.955c0.202,0.421,0.239,0.908,0.111,1.465c0.847-0.377,1.505-0.574,1.976-0.594
			c0.47-0.02,0.903,0.064,1.3,0.254c0.387,0.184,0.682,0.445,0.887,0.787c0.204,0.34,0.287,0.777,0.248,1.31
			c-0.03,0.362-0.201,0.872-0.513,1.527l-1.488,3.127c-0.217,0.456-0.33,0.784-0.342,0.985c-0.003,0.143,0.048,0.288,0.151,0.438
			c0.104,0.15,0.317,0.303,0.641,0.455l-0.137,0.286l-3.587-1.706l0.136-0.286l0.15,0.071c0.312,0.148,0.585,0.204,0.817,0.165
			c0.162-0.026,0.313-0.12,0.455-0.28c0.063-0.08,0.196-0.331,0.397-0.754l1.487-3.127c0.282-0.594,0.41-1.045,0.383-1.356
			c-0.045-0.437-0.296-0.764-0.75-0.979c-0.281-0.135-0.596-0.197-0.945-0.192c-0.351,0.005-0.816,0.103-1.4,0.292l-0.058,0.08
			l-0.146,0.35l-1.649,3.468c-0.237,0.497-0.356,0.82-0.358,0.968c-0.003,0.148,0.054,0.301,0.168,0.455
			c0.114,0.155,0.356,0.32,0.728,0.497l-0.137,0.286l-3.675-1.748l0.137-0.286c0.401,0.19,0.701,0.274,0.897,0.251
			c0.195-0.023,0.368-0.116,0.517-0.279c0.069-0.077,0.207-0.332,0.414-0.767l1.487-3.127c0.282-0.593,0.397-1.06,0.347-1.402
			c-0.072-0.449-0.317-0.773-0.735-0.972c-0.285-0.137-0.605-0.194-0.958-0.174c-0.551,0.023-1.014,0.124-1.39,0.302l-1.854,3.897
			c-0.227,0.476-0.341,0.801-0.343,0.975c-0.002,0.175,0.045,0.328,0.141,0.462c0.096,0.133,0.342,0.294,0.739,0.482l-0.136,0.286
			l-3.596-1.711l0.136-0.285c0.334,0.158,0.583,0.233,0.75,0.225c0.166-0.008,0.32-0.074,0.464-0.197
			c0.143-0.123,0.321-0.41,0.535-0.859l1.321-2.778c0.381-0.799,0.603-1.326,0.665-1.581c0.046-0.193,0.045-0.341-0.003-0.445
			c-0.048-0.104-0.141-0.188-0.278-0.254c-0.147-0.07-0.344-0.115-0.588-0.134l0.017-0.343l2.613,0.154l0.342,0.162L414.168,50.182z
			"/>
		<path d="M429.031,55.631c1.077,0.57,1.726,1.438,1.945,2.602c0.185,0.992,0.037,1.941-0.442,2.848
			c-0.338,0.637-0.831,1.201-1.482,1.691c-0.65,0.491-1.332,0.761-2.043,0.809c-0.712,0.048-1.396-0.103-2.054-0.45
			c-1.072-0.567-1.698-1.445-1.878-2.634c-0.152-1.002,0.008-1.951,0.482-2.848c0.345-0.652,0.85-1.216,1.515-1.689
			c0.665-0.473,1.343-0.725,2.034-0.753S428.44,55.319,429.031,55.631z M428.523,56.01c-0.274-0.146-0.594-0.211-0.957-0.193
			c-0.363,0.016-0.738,0.184-1.126,0.502c-0.388,0.319-0.751,0.8-1.091,1.441c-0.548,1.037-0.815,2.039-0.801,3.008
			s0.358,1.631,1.032,1.987c0.502,0.266,1.026,0.278,1.571,0.036c0.546-0.242,1.086-0.867,1.62-1.877
			c0.668-1.264,0.923-2.402,0.763-3.415C429.43,56.807,429.093,56.311,428.523,56.01z"/>
		<path d="M436.838,57.156l-1.298,2.305l1.64,0.923l-0.302,0.536l-1.64-0.922l-2.56,4.549c-0.256,0.455-0.363,0.799-0.322,1.029
			c0.041,0.232,0.164,0.405,0.368,0.52c0.168,0.096,0.361,0.135,0.578,0.119c0.218-0.016,0.427-0.102,0.629-0.256l0.299,0.168
			c-0.461,0.399-0.926,0.634-1.395,0.703c-0.469,0.068-0.877,0.006-1.225-0.189c-0.234-0.133-0.428-0.327-0.579-0.584
			s-0.213-0.536-0.184-0.84c0.029-0.303,0.187-0.707,0.471-1.212l2.655-4.718l-1.11-0.625l0.143-0.254
			c0.344,0.047,0.738,0.018,1.183-0.086c0.444-0.102,0.885-0.273,1.321-0.512c0.227-0.127,0.59-0.391,1.09-0.788L436.838,57.156z"/>
		<path d="M437.581,64.121c-0.616,1.025-0.846,1.979-0.689,2.863c0.156,0.883,0.574,1.527,1.254,1.932
			c0.453,0.27,0.921,0.379,1.404,0.329s1.018-0.31,1.604-0.779l0.144,0.29c-0.516,0.627-1.196,1.072-2.042,1.337
			c-0.846,0.264-1.651,0.168-2.417-0.287c-0.831-0.494-1.35-1.241-1.557-2.239c-0.207-1,0.015-2.045,0.665-3.139
			c0.704-1.184,1.556-1.926,2.557-2.227c1.001-0.302,1.959-0.18,2.876,0.365c0.775,0.461,1.261,1.096,1.455,1.904
			c0.194,0.807,0.037,1.639-0.472,2.495L437.581,64.121z M437.842,63.684l3.203,1.904c0.238-0.457,0.371-0.801,0.398-1.03
			c0.042-0.356-0.014-0.69-0.168-0.999c-0.153-0.311-0.365-0.545-0.638-0.707c-0.418-0.249-0.889-0.309-1.411-0.18
			C438.703,62.8,438.241,63.138,437.842,63.684z"/>
		<path d="M452.188,66.488l-1.443,2.217l1.576,1.026l-0.336,0.516l-1.576-1.026l-2.849,4.375c-0.284,0.438-0.413,0.773-0.387,1.007
			c0.025,0.233,0.137,0.415,0.333,0.542c0.162,0.105,0.353,0.158,0.57,0.156s0.432-0.073,0.644-0.215l0.287,0.187
			c-0.485,0.369-0.964,0.573-1.437,0.611s-0.876-0.051-1.21-0.269c-0.226-0.146-0.405-0.354-0.54-0.619s-0.178-0.549-0.129-0.85
			c0.049-0.3,0.231-0.693,0.548-1.18l2.953-4.537l-1.067-0.695l0.158-0.243c0.34,0.067,0.735,0.065,1.186-0.009
			s0.901-0.217,1.353-0.426c0.234-0.113,0.613-0.352,1.138-0.717L452.188,66.488z"/>
		<path d="M457.569,67.903l-3.339,4.851c0.941-0.221,1.626-0.305,2.055-0.256c0.428,0.049,0.799,0.182,1.112,0.398
			c0.377,0.259,0.629,0.585,0.756,0.979c0.128,0.395,0.104,0.857-0.071,1.391c-0.121,0.373-0.464,0.969-1.029,1.789l-1.614,2.346
			c-0.289,0.42-0.453,0.73-0.491,0.932c-0.032,0.148-0.013,0.297,0.057,0.444s0.258,0.327,0.567,0.54l-0.18,0.261l-3.258-2.243
			l0.18-0.26l0.151,0.104c0.31,0.213,0.557,0.314,0.742,0.303c0.185-0.011,0.365-0.092,0.539-0.242
			c0.068-0.066,0.231-0.289,0.49-0.665l1.615-2.346c0.498-0.724,0.788-1.226,0.869-1.503c0.081-0.279,0.079-0.531-0.007-0.758
			s-0.245-0.419-0.477-0.578c-0.236-0.163-0.525-0.27-0.868-0.32c-0.342-0.051-0.823-0.008-1.442,0.127l-2.412,3.504
			c-0.312,0.454-0.481,0.754-0.507,0.899c-0.026,0.146,0.004,0.304,0.09,0.474s0.299,0.37,0.637,0.603l-0.18,0.261l-3.287-2.262
			l0.18-0.262c0.294,0.203,0.558,0.316,0.79,0.342c0.129,0.018,0.27-0.021,0.421-0.116c0.15-0.095,0.369-0.351,0.654-0.766
			l4.132-6.001c0.521-0.758,0.824-1.236,0.907-1.436c0.084-0.198,0.109-0.354,0.078-0.469c-0.032-0.114-0.11-0.215-0.236-0.301
			c-0.101-0.07-0.292-0.145-0.571-0.223l0.073-0.324l2.541,0.555L457.569,67.903z"/>
		<path d="M459.93,78.693c-0.713,0.959-1.034,1.887-0.965,2.781s0.422,1.576,1.06,2.045c0.425,0.312,0.88,0.468,1.366,0.465
			c0.485-0.003,1.043-0.209,1.672-0.619l0.115,0.303c-0.575,0.574-1.296,0.951-2.163,1.131c-0.867,0.181-1.66,0.007-2.377-0.521
			c-0.779-0.573-1.223-1.366-1.331-2.382c-0.108-1.014,0.214-2.033,0.967-3.057c0.816-1.109,1.736-1.766,2.762-1.969
			c1.025-0.201,1.968,0.014,2.827,0.645c0.727,0.535,1.147,1.214,1.263,2.037c0.114,0.822-0.123,1.635-0.713,2.438L459.93,78.693z
			 M460.232,78.283l3.002,2.208c0.281-0.433,0.447-0.763,0.497-0.987c0.076-0.352,0.053-0.688-0.069-1.012
			c-0.123-0.322-0.312-0.578-0.566-0.766c-0.392-0.287-0.854-0.393-1.387-0.316C461.176,77.487,460.684,77.778,460.232,78.283z"/>
		<path d="M473.086,84.633l-4.04,5.053c-0.315,0.394-0.496,0.678-0.543,0.854s-0.04,0.341,0.021,0.495
			c0.061,0.153,0.24,0.35,0.537,0.587l-0.197,0.247l-3.055-2.442l0.197-0.247c0.307,0.245,0.537,0.38,0.689,0.404
			c0.153,0.025,0.315-0.006,0.486-0.094c0.172-0.088,0.413-0.327,0.725-0.716l1.938-2.423c0.545-0.682,0.878-1.141,0.997-1.375
			c0.086-0.172,0.116-0.313,0.094-0.426c-0.022-0.111-0.094-0.216-0.213-0.311c-0.128-0.103-0.312-0.193-0.549-0.271l0.102-0.323
			l2.509,0.746L473.086,84.633z M475.146,80.891c0.191,0.153,0.302,0.352,0.328,0.594c0.027,0.244-0.036,0.461-0.189,0.653
			c-0.154,0.192-0.354,0.303-0.598,0.333c-0.245,0.029-0.464-0.033-0.655-0.188c-0.192-0.153-0.303-0.354-0.33-0.602
			c-0.027-0.246,0.036-0.466,0.189-0.658s0.352-0.302,0.595-0.329C474.729,80.668,474.948,80.732,475.146,80.891z"/>
		<path d="M474.517,95.404c-0.564,0.061-1.048,0.038-1.45-0.066c-0.401-0.105-0.769-0.298-1.1-0.577
			c-0.673-0.566-1.022-1.343-1.051-2.327c-0.027-0.985,0.33-1.919,1.074-2.802c0.743-0.883,1.702-1.456,2.875-1.721
			s2.196-0.028,3.07,0.708c0.542,0.457,0.845,1.007,0.907,1.65l0.958-1.137c0.593-0.703,0.94-1.149,1.042-1.34
			c0.103-0.189,0.143-0.344,0.12-0.462c-0.023-0.118-0.088-0.224-0.195-0.313c-0.117-0.099-0.302-0.193-0.555-0.283l0.111-0.309
			l2.469,0.793l0.303,0.255l-5.998,7.117c-0.607,0.722-0.962,1.176-1.062,1.363s-0.14,0.344-0.119,0.469
			c0.021,0.125,0.081,0.229,0.18,0.312c0.121,0.103,0.314,0.2,0.58,0.294l-0.124,0.298l-2.469-0.781l-0.309-0.261L474.517,95.404z
			 M474.913,94.934l2.673-3.172c0.229-0.328,0.383-0.674,0.46-1.038s0.059-0.704-0.056-1.019s-0.276-0.561-0.487-0.737
			c-0.394-0.333-0.895-0.452-1.502-0.358c-0.801,0.123-1.578,0.632-2.334,1.527c-0.763,0.906-1.149,1.766-1.161,2.579
			s0.225,1.425,0.709,1.833C473.622,94.892,474.188,95.02,474.913,94.934z"/>
		<path d="M480.754,95.369c-0.803,0.887-1.214,1.777-1.231,2.675s0.268,1.61,0.856,2.138c0.393,0.354,0.83,0.551,1.314,0.596
			c0.483,0.045,1.058-0.107,1.724-0.454l0.086,0.313c-0.628,0.515-1.382,0.82-2.263,0.915s-1.652-0.155-2.315-0.749
			c-0.72-0.646-1.084-1.479-1.094-2.5c-0.01-1.02,0.41-2.003,1.26-2.949c0.92-1.024,1.899-1.588,2.94-1.689
			c1.04-0.102,1.956,0.203,2.75,0.916c0.672,0.602,1.024,1.318,1.06,2.148c0.034,0.83-0.281,1.616-0.947,2.357L480.754,95.369z
			 M481.094,94.99l2.773,2.489c0.323-0.403,0.52-0.715,0.591-0.935c0.11-0.342,0.12-0.68,0.029-1.013s-0.254-0.605-0.489-0.817
			c-0.361-0.324-0.812-0.475-1.35-0.449C482.11,94.29,481.592,94.531,481.094,94.99z"/>
		<path d="M486.358,105.785c-1.039-0.106-1.669-0.197-1.891-0.27c-0.33-0.112-0.625-0.291-0.884-0.538
			c-0.403-0.384-0.604-0.838-0.603-1.362c0.002-0.523,0.217-1.012,0.645-1.461c0.271-0.285,0.569-0.471,0.895-0.557
			c0.448-0.123,1.01-0.107,1.683,0.049c0.673,0.154,1.684,0.527,3.033,1.115l0.218-0.229c0.554-0.581,0.841-1.067,0.862-1.46
			s-0.144-0.756-0.496-1.092c-0.268-0.254-0.548-0.384-0.843-0.389c-0.299-0.01-0.536,0.079-0.714,0.266l-0.339,0.381
			c-0.187,0.195-0.38,0.299-0.58,0.311c-0.201,0.011-0.382-0.061-0.543-0.214c-0.157-0.149-0.233-0.327-0.228-0.532
			c0.005-0.205,0.099-0.403,0.28-0.594c0.348-0.365,0.854-0.523,1.518-0.473c0.664,0.049,1.334,0.396,2.009,1.038
			c0.518,0.493,0.859,0.983,1.025,1.473c0.125,0.37,0.113,0.751-0.034,1.146c-0.098,0.254-0.415,0.664-0.952,1.229l-1.885,1.98
			c-0.529,0.556-0.843,0.906-0.94,1.052s-0.143,0.263-0.134,0.352c0.008,0.089,0.044,0.163,0.107,0.224
			c0.068,0.064,0.142,0.107,0.221,0.125c0.142,0.03,0.461,0.039,0.958,0.027l-0.339,0.355c-1.081,0.185-1.839,0.07-2.271-0.342
			c-0.208-0.197-0.305-0.428-0.291-0.688C485.86,106.444,486.031,106.138,486.358,105.785z M486.752,105.371l2.115-2.221
			c-0.884-0.355-1.47-0.569-1.757-0.641c-0.514-0.133-0.938-0.166-1.277-0.1c-0.338,0.066-0.622,0.221-0.853,0.463
			c-0.291,0.306-0.44,0.646-0.45,1.021s0.104,0.676,0.343,0.902C485.195,105.104,485.821,105.295,486.752,105.371z"/>
		<path d="M498.763,102.078l-7.545,7.557c-0.355,0.356-0.566,0.619-0.63,0.787c-0.064,0.168-0.072,0.336-0.024,0.503
			c0.048,0.168,0.219,0.398,0.514,0.692l-0.224,0.225l-2.793-2.789l0.224-0.224c0.261,0.261,0.466,0.412,0.615,0.453
			c0.149,0.042,0.312,0.026,0.491-0.044c0.178-0.07,0.443-0.281,0.795-0.635l5.166-5.175c0.642-0.643,1.021-1.052,1.14-1.228
			c0.118-0.177,0.172-0.324,0.161-0.441c-0.011-0.119-0.065-0.228-0.165-0.326c-0.107-0.108-0.277-0.212-0.51-0.311l0.111-0.324
			l2.394,0.999L498.763,102.078z"/>
		<path d="M503.323,112.93c0.825,0.896,1.147,1.93,0.967,3.1c-0.157,0.997-0.613,1.843-1.368,2.537
			c-0.53,0.488-1.184,0.855-1.961,1.101s-1.51,0.272-2.196,0.081c-0.687-0.193-1.282-0.562-1.786-1.11
			c-0.821-0.892-1.118-1.929-0.891-3.109c0.19-0.995,0.658-1.837,1.404-2.523c0.543-0.5,1.207-0.862,1.991-1.087
			c0.785-0.225,1.508-0.235,2.169-0.031C502.314,112.09,502.871,112.438,503.323,112.93z M502.719,113.115
			c-0.211-0.229-0.49-0.396-0.838-0.501c-0.349-0.105-0.758-0.073-1.229,0.099c-0.472,0.171-0.975,0.503-1.509,0.994
			c-0.862,0.795-1.448,1.65-1.758,2.568s-0.207,1.657,0.31,2.218c0.385,0.418,0.874,0.604,1.47,0.559
			c0.595-0.046,1.312-0.456,2.153-1.229c1.052-0.969,1.671-1.957,1.857-2.965C503.307,114.17,503.155,113.59,502.719,113.115z"/>
		<path d="M508.23,119.729l-3.989,3.475c-0.565,0.493-0.87,0.867-0.912,1.121c-0.052,0.333,0.041,0.637,0.279,0.91l0.479,0.551
			l-0.238,0.207l-3.158-3.625l0.239-0.208l0.236,0.272c0.154,0.176,0.339,0.299,0.554,0.367c0.216,0.069,0.423,0.066,0.621-0.01
			s0.514-0.302,0.947-0.68l3.989-3.475l-1.027-1.18l0.478-0.416l1.027,1.18l0.397-0.346c0.605-0.527,1.202-0.877,1.792-1.047
			c0.589-0.172,1.187-0.17,1.793,0.004c0.607,0.176,1.128,0.512,1.562,1.012c0.404,0.464,0.625,1.021,0.664,1.672
			c0.024,0.43-0.088,0.752-0.335,0.967c-0.133,0.115-0.308,0.167-0.524,0.154c-0.218-0.014-0.384-0.086-0.499-0.219
			c-0.089-0.102-0.146-0.24-0.171-0.416s0.012-0.451,0.11-0.824c0.098-0.373,0.13-0.665,0.095-0.875
			c-0.036-0.21-0.127-0.398-0.272-0.566c-0.178-0.203-0.382-0.329-0.613-0.376c-0.231-0.048-0.487-0.003-0.769,0.134
			c-0.282,0.137-0.896,0.616-1.841,1.439l-0.438,0.381l1.362,1.564l-0.478,0.416L508.23,119.729z"/>
		<path d="M511.061,132.944c-1.015-0.247-1.627-0.421-1.836-0.523c-0.312-0.155-0.58-0.373-0.803-0.652
			c-0.348-0.435-0.485-0.911-0.413-1.431s0.352-0.973,0.837-1.361c0.307-0.244,0.627-0.389,0.961-0.431
			c0.461-0.062,1.015,0.03,1.66,0.276c0.646,0.244,1.598,0.75,2.854,1.516l0.247-0.197c0.628-0.502,0.979-0.945,1.053-1.331
			s-0.041-0.769-0.345-1.147c-0.23-0.289-0.491-0.455-0.782-0.5c-0.295-0.051-0.542,0.006-0.744,0.166l-0.387,0.332
			c-0.211,0.169-0.416,0.245-0.616,0.229c-0.201-0.016-0.37-0.111-0.51-0.285c-0.135-0.169-0.187-0.355-0.153-0.558
			s0.152-0.386,0.358-0.551c0.394-0.315,0.916-0.402,1.567-0.263c0.652,0.139,1.269,0.572,1.851,1.301
			c0.446,0.558,0.718,1.09,0.815,1.598c0.074,0.383,0.012,0.76-0.188,1.129c-0.131,0.24-0.5,0.604-1.109,1.09l-2.135,1.707
			c-0.6,0.479-0.958,0.784-1.074,0.915c-0.117,0.131-0.177,0.241-0.181,0.33s0.021,0.168,0.076,0.237
			c0.059,0.072,0.126,0.124,0.202,0.153c0.137,0.048,0.451,0.101,0.945,0.155l-0.384,0.307c-1.097,0.037-1.831-0.178-2.204-0.645
			c-0.18-0.225-0.244-0.466-0.195-0.723C510.479,133.529,510.689,133.249,511.061,132.944z M511.507,132.588l2.396-1.916
			c-0.827-0.471-1.379-0.762-1.654-0.871c-0.49-0.201-0.907-0.291-1.252-0.271c-0.344,0.02-0.646,0.135-0.907,0.343
			c-0.329,0.264-0.524,0.581-0.584,0.951c-0.061,0.37,0.012,0.685,0.217,0.94C510.001,132.111,510.596,132.387,511.507,132.588z"/>
		<path d="M522.765,138.008l-4.269,3.126c-0.604,0.442-0.939,0.79-1.003,1.04c-0.08,0.326-0.013,0.637,0.202,0.93l0.431,0.589
			l-0.255,0.187L515.03,140l0.255-0.186l0.213,0.29c0.139,0.188,0.312,0.327,0.521,0.413c0.209,0.088,0.415,0.102,0.619,0.043
			s0.537-0.258,1.001-0.598l4.269-3.125l-0.925-1.263l0.511-0.374l0.925,1.262l0.425-0.311c0.648-0.475,1.272-0.772,1.874-0.893
			c0.602-0.121,1.197-0.069,1.787,0.156c0.59,0.225,1.08,0.604,1.472,1.139c0.363,0.496,0.536,1.07,0.52,1.723
			c-0.012,0.43-0.15,0.741-0.415,0.936c-0.142,0.104-0.32,0.14-0.535,0.108c-0.216-0.031-0.375-0.118-0.479-0.259
			c-0.08-0.109-0.125-0.252-0.136-0.43c-0.01-0.178,0.05-0.449,0.18-0.812c0.129-0.363,0.186-0.651,0.168-0.863
			c-0.018-0.213-0.093-0.408-0.224-0.588c-0.159-0.218-0.353-0.359-0.579-0.426s-0.485-0.044-0.777,0.068
			c-0.292,0.111-0.944,0.538-1.956,1.279l-0.468,0.342l1.226,1.674l-0.511,0.374L522.765,138.008z"/>
		<path d="M526.551,141.815l-1.484,1.037c1.376-0.14,2.267,0.081,2.673,0.663c0.185,0.264,0.257,0.539,0.217,0.824
			s-0.166,0.502-0.377,0.649c-0.188,0.131-0.39,0.179-0.606,0.146c-0.217-0.035-0.386-0.139-0.507-0.311
			c-0.117-0.169-0.166-0.415-0.146-0.74c0.02-0.324-0.006-0.537-0.076-0.639c-0.061-0.086-0.174-0.146-0.341-0.18
			c-0.348-0.078-0.828-0.075-1.44,0.01l-3.162,2.211c-0.365,0.255-0.609,0.494-0.733,0.716c-0.086,0.153-0.116,0.339-0.093,0.558
			c0.024,0.219,0.141,0.478,0.35,0.775l-0.26,0.182l-2.361-3.379l0.259-0.182c0.235,0.336,0.463,0.549,0.683,0.639
			c0.16,0.066,0.342,0.064,0.543-0.004c0.099-0.033,0.34-0.185,0.725-0.453l2.557-1.787c0.769-0.537,1.215-0.873,1.34-1.006
			c0.124-0.135,0.191-0.267,0.199-0.397c0.009-0.132-0.03-0.259-0.118-0.384c-0.104-0.149-0.257-0.292-0.46-0.43l0.209-0.252
			l2.201,1.431L526.551,141.815z"/>
		<path d="M526.727,147.836c-1.001,0.654-1.622,1.414-1.866,2.277s-0.147,1.625,0.289,2.285c0.291,0.439,0.665,0.742,1.122,0.906
			c0.457,0.166,1.051,0.164,1.783-0.004l0.004,0.324c-0.738,0.34-1.545,0.445-2.421,0.315s-1.561-0.566-2.052-1.31
			c-0.533-0.806-0.676-1.703-0.428-2.693s0.902-1.835,1.963-2.537c1.148-0.76,2.239-1.057,3.271-0.893
			c1.031,0.163,1.842,0.689,2.431,1.579c0.497,0.753,0.658,1.535,0.482,2.347c-0.176,0.812-0.68,1.492-1.51,2.043L526.727,147.836z
			 M527.151,147.555l2.056,3.107c0.414-0.309,0.684-0.561,0.808-0.755c0.192-0.304,0.287-0.628,0.283-0.973
			c-0.003-0.345-0.093-0.649-0.267-0.914c-0.269-0.405-0.666-0.664-1.193-0.775C528.312,147.133,527.749,147.236,527.151,147.555z"
			/>
		<path d="M531.13,154.599c-1.02,0.624-1.663,1.364-1.933,2.222c-0.27,0.855-0.195,1.619,0.222,2.292
			c0.277,0.448,0.643,0.762,1.095,0.94c0.451,0.178,1.046,0.193,1.782,0.048l-0.006,0.324c-0.747,0.318-1.557,0.399-2.429,0.243
			c-0.872-0.155-1.543-0.611-2.012-1.369c-0.51-0.821-0.626-1.723-0.349-2.705c0.277-0.981,0.956-1.808,2.037-2.478
			c1.171-0.726,2.27-0.991,3.296-0.796c1.027,0.193,1.821,0.744,2.383,1.65c0.476,0.767,0.613,1.554,0.413,2.359
			c-0.199,0.807-0.723,1.473-1.569,1.997L531.13,154.599z M531.562,154.33l1.964,3.168c0.423-0.297,0.699-0.541,0.829-0.731
			c0.201-0.298,0.306-0.618,0.312-0.964c0.006-0.346-0.074-0.652-0.24-0.922c-0.257-0.413-0.646-0.684-1.17-0.811
			S532.169,154.029,531.562,154.33z"/>
		<path d="M538.544,171.123c-1.032,0.328-1.951,0.354-2.759,0.08c-0.808-0.275-1.397-0.747-1.771-1.418
			c-0.445-0.798-0.498-1.681-0.159-2.648c0.339-0.967,1.079-1.77,2.221-2.406c1.105-0.615,2.187-0.788,3.244-0.516
			c1.058,0.271,1.844,0.869,2.357,1.789c0.385,0.691,0.519,1.361,0.401,2.011s-0.373,1.084-0.768,1.304
			c-0.194,0.108-0.387,0.133-0.577,0.075c-0.189-0.058-0.348-0.2-0.474-0.425c-0.168-0.303-0.198-0.584-0.089-0.846
			c0.059-0.147,0.231-0.319,0.518-0.516c0.286-0.197,0.459-0.429,0.518-0.696c0.054-0.265-0.008-0.556-0.186-0.873
			c-0.285-0.512-0.704-0.817-1.257-0.919c-0.732-0.135-1.511,0.027-2.335,0.487c-0.839,0.468-1.465,1.087-1.877,1.857
			c-0.413,0.771-0.424,1.505-0.032,2.206c0.279,0.502,0.702,0.857,1.268,1.064c0.393,0.15,0.973,0.186,1.74,0.106L538.544,171.123z"
			/>
		<path d="M546.777,176.118l-4.332,2.241c-0.828,0.428-1.324,0.709-1.488,0.844c-0.165,0.135-0.262,0.264-0.29,0.387
			c-0.028,0.124-0.013,0.242,0.047,0.357c0.083,0.161,0.222,0.32,0.415,0.479l-0.217,0.25l-1.988-1.683l-0.182-0.352l1.515-0.783
			c-0.984-0.27-1.646-0.521-1.984-0.755c-0.338-0.234-0.601-0.531-0.786-0.89c-0.207-0.401-0.271-0.808-0.191-1.222
			c0.079-0.414,0.271-0.772,0.576-1.075c0.306-0.304,0.791-0.627,1.457-0.972l3.193-1.651c0.338-0.175,0.554-0.333,0.646-0.473
			c0.093-0.14,0.137-0.3,0.133-0.479c-0.003-0.18-0.104-0.455-0.304-0.827l0.289-0.149l1.296,2.506l-4.785,2.475
			c-0.667,0.346-1.044,0.688-1.132,1.026c-0.089,0.339-0.048,0.673,0.121,1.001c0.116,0.224,0.317,0.441,0.604,0.652
			c0.288,0.211,0.729,0.409,1.327,0.595l4.052-2.096c0.406-0.21,0.643-0.427,0.709-0.648s-0.017-0.57-0.248-1.044l0.288-0.15
			L546.777,176.118z"/>
		<path d="M552.904,178.535l-9.609,4.658c-0.453,0.22-0.737,0.398-0.854,0.535c-0.115,0.138-0.179,0.293-0.188,0.468
			s0.076,0.448,0.258,0.823l-0.285,0.138l-1.722-3.552l0.285-0.137c0.161,0.332,0.305,0.541,0.433,0.63
			c0.127,0.088,0.286,0.128,0.478,0.12c0.191-0.009,0.512-0.121,0.96-0.338l6.58-3.19c0.816-0.396,1.31-0.658,1.479-0.786
			c0.169-0.127,0.269-0.248,0.297-0.363c0.029-0.115,0.013-0.236-0.048-0.363c-0.067-0.137-0.193-0.29-0.38-0.46l0.212-0.269
			l1.932,1.729L552.904,178.535z"/>
		<path d="M553.295,183.596l-2.401,1.109l0.788,1.707l-0.559,0.259l-0.788-1.708l-4.739,2.19c-0.474,0.219-0.762,0.435-0.864,0.646
			c-0.102,0.212-0.104,0.424-0.006,0.637c0.081,0.176,0.215,0.32,0.399,0.436c0.186,0.114,0.405,0.168,0.66,0.16l0.144,0.311
			c-0.607,0.055-1.121-0.027-1.542-0.246c-0.42-0.219-0.714-0.509-0.881-0.871c-0.113-0.244-0.156-0.515-0.129-0.812
			s0.142-0.56,0.343-0.788s0.565-0.464,1.092-0.707l4.915-2.271l-0.535-1.156l0.264-0.121c0.252,0.238,0.589,0.445,1.009,0.622
			c0.421,0.177,0.878,0.296,1.371,0.358c0.259,0.029,0.707,0.029,1.346-0.001L553.295,183.596z"/>
		<path d="M554.856,193.697l-4.479,1.93c-0.855,0.369-1.37,0.615-1.544,0.737c-0.174,0.123-0.278,0.245-0.315,0.366
			s-0.03,0.24,0.021,0.359c0.072,0.166,0.199,0.336,0.381,0.506l-0.233,0.234l-1.865-1.818l-0.157-0.363l1.566-0.675
			c-0.963-0.338-1.604-0.636-1.926-0.893s-0.562-0.571-0.723-0.942c-0.178-0.414-0.213-0.825-0.104-1.232s0.325-0.752,0.65-1.031
			c0.326-0.281,0.833-0.57,1.521-0.867l3.302-1.423c0.35-0.15,0.575-0.292,0.678-0.426c0.102-0.134,0.157-0.29,0.166-0.469
			c0.009-0.18-0.073-0.462-0.245-0.847l0.299-0.129l1.116,2.591l-4.947,2.133c-0.688,0.297-1.089,0.611-1.201,0.943
			s-0.095,0.668,0.051,1.007c0.1,0.231,0.285,0.463,0.558,0.693c0.271,0.23,0.698,0.459,1.281,0.687l4.189-1.806
			c0.42-0.181,0.67-0.379,0.752-0.597s0.024-0.57-0.174-1.06l0.299-0.129L554.856,193.697z"/>
		<path d="M556.743,197.736l-1.682,0.67c1.37,0.179,2.188,0.598,2.449,1.256c0.119,0.3,0.127,0.584,0.022,0.853
			s-0.276,0.45-0.516,0.546c-0.212,0.084-0.42,0.086-0.623,0.002c-0.204-0.082-0.345-0.223-0.423-0.418
			c-0.075-0.19-0.066-0.441,0.026-0.753c0.094-0.312,0.118-0.524,0.072-0.64c-0.039-0.098-0.136-0.182-0.29-0.253
			c-0.321-0.155-0.789-0.263-1.404-0.32l-3.585,1.428c-0.414,0.165-0.706,0.341-0.877,0.529c-0.119,0.13-0.191,0.304-0.218,0.522
			s0.027,0.496,0.162,0.834l-0.294,0.117l-1.525-3.83l0.294-0.117c0.151,0.381,0.324,0.641,0.518,0.777
			c0.141,0.102,0.317,0.143,0.53,0.121c0.104-0.01,0.373-0.102,0.809-0.275l2.898-1.154c0.871-0.348,1.382-0.571,1.534-0.673
			c0.151-0.102,0.247-0.215,0.285-0.341c0.038-0.125,0.029-0.259-0.027-0.4c-0.067-0.169-0.184-0.344-0.35-0.523l0.261-0.198
			l1.815,1.897L556.743,197.736z"/>
		<path d="M555.534,203.638c-1.123,0.407-1.902,1.004-2.338,1.789c-0.435,0.784-0.516,1.548-0.242,2.29
			c0.183,0.495,0.477,0.875,0.884,1.141s0.986,0.4,1.737,0.404l-0.071,0.316c-0.796,0.162-1.605,0.08-2.429-0.248
			c-0.823-0.327-1.389-0.908-1.696-1.744c-0.334-0.907-0.268-1.814,0.201-2.721c0.468-0.906,1.299-1.579,2.492-2.02
			c1.292-0.476,2.421-0.516,3.389-0.119c0.967,0.396,1.635,1.094,2.004,2.095c0.312,0.847,0.289,1.646-0.068,2.396
			s-1.003,1.297-1.938,1.641L555.534,203.638z M556.013,203.461l1.289,3.497c0.474-0.206,0.793-0.39,0.959-0.55
			c0.257-0.252,0.423-0.545,0.499-0.883c0.075-0.336,0.059-0.653-0.051-0.95c-0.168-0.456-0.496-0.8-0.983-1.028
			C557.238,203.316,556.667,203.289,556.013,203.461z"/>
		<path d="M556.99,219.73c-0.858-0.596-1.367-0.979-1.525-1.149c-0.235-0.257-0.407-0.556-0.515-0.897
			c-0.168-0.53-0.125-1.025,0.129-1.483s0.678-0.781,1.27-0.969c0.374-0.118,0.725-0.138,1.052-0.057
			c0.452,0.108,0.936,0.394,1.45,0.854s1.222,1.273,2.119,2.44l0.302-0.096c0.766-0.242,1.252-0.53,1.46-0.863
			s0.238-0.731,0.092-1.195c-0.111-0.352-0.295-0.601-0.551-0.747c-0.257-0.152-0.509-0.189-0.754-0.111l-0.48,0.17
			c-0.258,0.082-0.477,0.078-0.657-0.008c-0.182-0.088-0.306-0.237-0.373-0.449c-0.065-0.207-0.047-0.398,0.058-0.576
			c0.104-0.178,0.281-0.306,0.532-0.385c0.48-0.152,1-0.047,1.558,0.317s0.978,0.991,1.259,1.879
			c0.216,0.681,0.277,1.276,0.187,1.784c-0.068,0.385-0.263,0.713-0.582,0.986c-0.208,0.177-0.684,0.383-1.427,0.618l-2.605,0.825
			c-0.732,0.231-1.176,0.388-1.332,0.468c-0.155,0.08-0.252,0.161-0.287,0.243s-0.04,0.164-0.014,0.248
			c0.028,0.09,0.073,0.162,0.134,0.217c0.109,0.094,0.385,0.256,0.826,0.484l-0.47,0.148c-1.035-0.359-1.644-0.825-1.824-1.395
			c-0.087-0.273-0.061-0.521,0.078-0.744S556.533,219.881,556.99,219.73z M557.534,219.558l2.925-0.927
			c-0.603-0.736-1.013-1.206-1.229-1.408c-0.386-0.363-0.743-0.598-1.071-0.702s-0.651-0.106-0.97-0.007
			c-0.402,0.128-0.698,0.354-0.888,0.678c-0.188,0.324-0.234,0.643-0.135,0.955C556.301,218.572,556.757,219.042,557.534,219.558z"
			/>
		<path d="M563.856,223.734c1.35,0.6,2.142,1.311,2.374,2.135c0.119,0.422,0.116,0.816-0.01,1.18
			c-0.125,0.365-0.405,0.705-0.839,1.023c-0.304,0.219-0.805,0.428-1.504,0.625l-3.308,0.934c-0.49,0.138-0.812,0.271-0.965,0.399
			c-0.123,0.103-0.205,0.233-0.245,0.394s-0.008,0.427,0.098,0.799l-0.305,0.086l-1.081-3.832l0.305-0.086l0.045,0.161
			c0.102,0.36,0.229,0.598,0.379,0.71c0.15,0.113,0.341,0.168,0.571,0.164c0.091-0.002,0.358-0.065,0.805-0.191l3.172-0.895
			c0.704-0.199,1.19-0.436,1.457-0.709c0.268-0.273,0.34-0.627,0.217-1.061c-0.189-0.672-0.744-1.236-1.665-1.694l-4.086,1.153
			c-0.524,0.147-0.84,0.27-0.946,0.367c-0.142,0.125-0.23,0.268-0.268,0.428c-0.037,0.158,0.004,0.45,0.123,0.873l-0.305,0.086
			l-1.081-3.832l0.305-0.086l0.048,0.17c0.111,0.395,0.286,0.633,0.525,0.715c0.239,0.081,0.641,0.043,1.205-0.117l2.876-0.812
			c0.93-0.263,1.491-0.443,1.682-0.543c0.191-0.1,0.312-0.204,0.36-0.312c0.048-0.108,0.052-0.236,0.011-0.383
			c-0.045-0.157-0.141-0.334-0.287-0.53l0.269-0.213l1.606,2.067l0.103,0.363L563.856,223.734z"/>
		<path d="M561.524,237.144c-0.492-0.283-0.87-0.585-1.133-0.907c-0.264-0.32-0.447-0.691-0.551-1.113
			c-0.21-0.854-0.037-1.687,0.521-2.5c0.557-0.812,1.396-1.357,2.517-1.633c1.12-0.277,2.232-0.177,3.337,0.299
			c1.104,0.477,1.793,1.27,2.066,2.379c0.169,0.688,0.09,1.312-0.237,1.869l1.442-0.355c0.894-0.221,1.438-0.377,1.632-0.471
			c0.194-0.092,0.316-0.193,0.368-0.303s0.061-0.232,0.027-0.369c-0.037-0.147-0.131-0.332-0.282-0.555l0.271-0.185l1.53,2.095
			l0.095,0.383l-9.038,2.228c-0.916,0.226-1.47,0.385-1.661,0.478c-0.191,0.092-0.315,0.195-0.371,0.309
			c-0.057,0.113-0.07,0.232-0.039,0.357c0.038,0.154,0.137,0.348,0.297,0.579l-0.275,0.167l-1.537-2.083l-0.097-0.393
			L561.524,237.144z M562.122,236.996l4.027-0.992c0.379-0.13,0.706-0.318,0.982-0.568c0.277-0.249,0.462-0.534,0.555-0.855
			c0.093-0.322,0.105-0.617,0.04-0.884c-0.123-0.501-0.458-0.892-1.004-1.174c-0.72-0.372-1.648-0.417-2.786-0.138
			c-1.149,0.283-1.968,0.751-2.456,1.402c-0.488,0.65-0.656,1.284-0.505,1.898C561.103,236.203,561.485,236.641,562.122,236.996z"/>
		<path d="M573.275,245.034l-2.594,0.522l0.372,1.844l-0.604,0.122l-0.371-1.844l-5.118,1.032c-0.511,0.103-0.841,0.245-0.989,0.428
			c-0.148,0.182-0.2,0.389-0.153,0.617c0.038,0.19,0.134,0.362,0.287,0.517c0.154,0.154,0.355,0.257,0.605,0.309l0.067,0.336
			c-0.604-0.088-1.084-0.286-1.442-0.597s-0.577-0.661-0.656-1.052c-0.053-0.265-0.032-0.537,0.063-0.819
			c0.096-0.283,0.268-0.512,0.516-0.688c0.249-0.176,0.657-0.32,1.227-0.436l5.307-1.069l-0.252-1.249l0.285-0.057
			c0.189,0.289,0.469,0.57,0.837,0.84c0.368,0.269,0.785,0.491,1.251,0.666c0.244,0.088,0.681,0.191,1.309,0.311L573.275,245.034z"
			/>
		<path d="M576.032,249.865l-5.801,1.014c0.815,0.518,1.356,0.947,1.621,1.287s0.43,0.698,0.495,1.074
			c0.079,0.449,0.022,0.857-0.17,1.225c-0.191,0.367-0.539,0.674-1.043,0.923c-0.351,0.174-1.016,0.347-1.997,0.519l-2.806,0.49
			c-0.502,0.088-0.838,0.188-1.009,0.301c-0.129,0.082-0.221,0.199-0.277,0.352s-0.053,0.414,0.012,0.783l-0.312,0.055l-0.681-3.896
			l0.312-0.055l0.031,0.182c0.065,0.37,0.166,0.617,0.304,0.742c0.138,0.124,0.321,0.196,0.551,0.215
			c0.096,0.002,0.368-0.037,0.818-0.115l2.806-0.49c0.865-0.151,1.426-0.295,1.682-0.432s0.435-0.316,0.536-0.535
			c0.101-0.221,0.128-0.469,0.079-0.746c-0.05-0.283-0.176-0.564-0.379-0.844c-0.204-0.279-0.571-0.594-1.102-0.941l-4.19,0.732
			c-0.543,0.096-0.875,0.184-0.997,0.268s-0.214,0.217-0.274,0.396s-0.056,0.473,0.015,0.876l-0.312,0.055l-0.687-3.931l0.312-0.055
			c0.062,0.352,0.165,0.619,0.31,0.803c0.078,0.105,0.204,0.178,0.378,0.219c0.173,0.041,0.508,0.02,1.005-0.068l7.178-1.254
			c0.905-0.158,1.459-0.276,1.659-0.355c0.2-0.08,0.33-0.172,0.39-0.273c0.06-0.104,0.076-0.229,0.05-0.379
			c-0.021-0.121-0.102-0.311-0.241-0.564l0.281-0.175l1.385,2.203L576.032,249.865z"/>
		<path d="M569.982,259.102c-1.184,0.163-2.071,0.582-2.661,1.258c-0.591,0.676-0.83,1.406-0.719,2.189
			c0.075,0.521,0.283,0.955,0.625,1.3s0.88,0.599,1.613,0.761l-0.136,0.294c-0.812-0.009-1.586-0.259-2.322-0.753
			c-0.736-0.492-1.167-1.18-1.292-2.062c-0.137-0.957,0.119-1.829,0.768-2.617s1.602-1.271,2.86-1.45
			c1.363-0.194,2.477,0.004,3.339,0.594s1.368,1.414,1.519,2.469c0.128,0.894-0.062,1.67-0.569,2.328s-1.254,1.057-2.239,1.197
			L569.982,259.102z M570.487,259.029l0.525,3.689c0.507-0.102,0.857-0.213,1.053-0.336c0.305-0.191,0.529-0.443,0.674-0.758
			c0.145-0.312,0.194-0.627,0.15-0.939c-0.069-0.482-0.317-0.886-0.745-1.213C571.716,259.146,571.163,258.998,570.487,259.029z"/>
		<path d="M574.122,273.1l-5.265,0.524c-0.747,0.074-1.211,0.203-1.393,0.386c-0.235,0.241-0.335,0.543-0.299,0.904l0.072,0.727
			l-0.314,0.031l-0.477-4.785l0.314-0.031l0.036,0.359c0.023,0.232,0.103,0.439,0.238,0.621c0.136,0.181,0.307,0.297,0.512,0.351
			s0.594,0.052,1.165-0.005l5.266-0.525l-0.155-1.557l0.63-0.062l0.155,1.557l0.524-0.052c0.799-0.079,1.487-0.019,2.067,0.183
			c0.579,0.201,1.065,0.549,1.46,1.043c0.394,0.493,0.623,1.07,0.688,1.729c0.061,0.612-0.081,1.195-0.427,1.747
			c-0.229,0.364-0.507,0.563-0.833,0.595c-0.175,0.018-0.347-0.041-0.517-0.178s-0.263-0.291-0.28-0.467
			c-0.014-0.134,0.021-0.28,0.102-0.438c0.082-0.158,0.271-0.36,0.566-0.608c0.297-0.247,0.491-0.467,0.584-0.658
			c0.093-0.192,0.128-0.398,0.106-0.621c-0.027-0.268-0.121-0.488-0.282-0.66c-0.162-0.172-0.396-0.284-0.705-0.336
			s-1.087-0.016-2.334,0.108l-0.577,0.058l0.205,2.064l-0.63,0.062L574.122,273.1z"/>
		<path d="M575.557,283.059l-4.865,0.35c-0.93,0.066-1.496,0.13-1.701,0.188c-0.204,0.059-0.344,0.14-0.418,0.241
			c-0.075,0.103-0.108,0.218-0.099,0.347c0.013,0.181,0.077,0.382,0.192,0.603l-0.298,0.145l-1.163-2.33l-0.028-0.395l1.701-0.122
			c-0.798-0.636-1.306-1.128-1.525-1.478c-0.219-0.348-0.343-0.724-0.371-1.127c-0.032-0.45,0.069-0.85,0.306-1.198
			s0.555-0.603,0.954-0.761c0.4-0.158,0.974-0.264,1.723-0.316l3.585-0.258c0.38-0.027,0.64-0.088,0.78-0.18
			s0.244-0.222,0.312-0.389c0.067-0.166,0.083-0.459,0.047-0.879l0.324-0.023l0.202,2.813l-5.374,0.386
			c-0.748,0.054-1.229,0.219-1.444,0.496c-0.216,0.277-0.31,0.6-0.283,0.968c0.018,0.251,0.117,0.53,0.298,0.837
			c0.181,0.308,0.509,0.664,0.984,1.07l4.55-0.326c0.456-0.033,0.759-0.139,0.907-0.316s0.21-0.53,0.184-1.057l0.325-0.023
			L575.557,283.059z"/>
		<path d="M576.009,287.477l-1.809,0.08c1.235,0.619,1.869,1.283,1.9,1.992c0.015,0.322-0.072,0.593-0.259,0.812
			c-0.187,0.219-0.409,0.334-0.666,0.346c-0.229,0.01-0.425-0.057-0.59-0.203c-0.165-0.145-0.252-0.322-0.261-0.533
			c-0.01-0.205,0.081-0.439,0.271-0.703c0.191-0.264,0.283-0.457,0.278-0.58c-0.005-0.104-0.068-0.217-0.19-0.334
			c-0.252-0.253-0.659-0.508-1.222-0.764l-3.855,0.17c-0.444,0.021-0.778,0.091-1.002,0.213c-0.154,0.082-0.28,0.223-0.377,0.421
			s-0.138,0.478-0.121,0.841l-0.316,0.014l-0.183-4.117l0.316-0.014c0.018,0.409,0.096,0.711,0.233,0.904
			c0.101,0.143,0.254,0.238,0.462,0.287c0.101,0.025,0.385,0.027,0.854,0.006l3.117-0.138c0.937-0.042,1.493-0.085,1.67-0.132
			c0.177-0.045,0.304-0.121,0.381-0.228c0.078-0.106,0.113-0.235,0.106-0.388c-0.008-0.182-0.062-0.385-0.159-0.608l0.312-0.103
			l1.091,2.389L576.009,287.477z"/>
		<path d="M578.621,293.492l-2.645,0.064l0.046,1.881l-0.615,0.015l-0.046-1.88l-5.219,0.127c-0.521,0.012-0.871,0.096-1.049,0.249
			c-0.179,0.153-0.265,0.349-0.259,0.583c0.005,0.192,0.069,0.379,0.193,0.557c0.125,0.18,0.306,0.315,0.542,0.409l0.009,0.343
			c-0.579-0.191-1.019-0.471-1.317-0.838c-0.299-0.368-0.453-0.752-0.463-1.149c-0.007-0.27,0.062-0.535,0.204-0.796
			c0.144-0.262,0.353-0.457,0.628-0.588c0.275-0.129,0.703-0.201,1.283-0.215l5.412-0.132l-0.031-1.274l0.29-0.007
			c0.137,0.319,0.363,0.644,0.679,0.973s0.688,0.62,1.116,0.874c0.226,0.129,0.637,0.307,1.234,0.532L578.621,293.492z"/>
		<path d="M580.521,298.873l-5.888-0.096c0.704,0.662,1.153,1.186,1.35,1.569s0.291,0.767,0.285,1.147
			c-0.008,0.457-0.141,0.848-0.397,1.172c-0.257,0.323-0.656,0.561-1.198,0.709c-0.377,0.105-1.063,0.15-2.059,0.135l-2.848-0.047
			c-0.51-0.008-0.859,0.027-1.048,0.106c-0.142,0.056-0.255,0.153-0.339,0.293s-0.129,0.396-0.136,0.771l-0.316-0.005l0.064-3.955
			l0.316,0.006l-0.003,0.184c-0.006,0.375,0.047,0.637,0.158,0.785c0.112,0.148,0.279,0.254,0.501,0.316
			c0.093,0.019,0.368,0.032,0.825,0.039l2.848,0.047c0.879,0.014,1.456-0.021,1.733-0.108c0.276-0.087,0.485-0.228,0.627-0.425
			c0.141-0.197,0.213-0.436,0.218-0.717c0.005-0.287-0.066-0.588-0.214-0.9c-0.147-0.313-0.449-0.69-0.904-1.131l-4.254-0.069
			c-0.551-0.009-0.894,0.017-1.029,0.075c-0.136,0.06-0.251,0.172-0.344,0.338c-0.094,0.165-0.144,0.453-0.15,0.863l-0.316-0.006
			l0.064-3.989l0.316,0.005c-0.006,0.357,0.045,0.64,0.153,0.847c0.057,0.118,0.166,0.214,0.329,0.286
			c0.163,0.073,0.496,0.113,1,0.122l7.285,0.118c0.92,0.016,1.486,0.002,1.697-0.039c0.212-0.04,0.356-0.105,0.435-0.194
			c0.077-0.09,0.117-0.21,0.12-0.362c0.002-0.123-0.042-0.324-0.131-0.601l0.31-0.118l0.944,2.424L580.521,298.873z"/>
		<path d="M572.945,306.775c-1.194-0.043-2.141,0.217-2.839,0.781c-0.698,0.563-1.06,1.24-1.085,2.031
			c-0.017,0.527,0.113,0.99,0.392,1.389c0.277,0.398,0.763,0.741,1.457,1.027l-0.185,0.267c-0.798-0.148-1.518-0.529-2.157-1.142
			c-0.64-0.613-0.945-1.363-0.917-2.254c0.03-0.967,0.433-1.781,1.208-2.445c0.774-0.664,1.797-0.977,3.067-0.936
			c1.376,0.043,2.438,0.43,3.186,1.16c0.748,0.73,1.104,1.629,1.071,2.695c-0.029,0.901-0.35,1.633-0.963,2.193
			s-1.417,0.826-2.413,0.794L572.945,306.775z M573.455,306.793l-0.119,3.725c0.517-0.014,0.882-0.063,1.096-0.15
			c0.332-0.136,0.597-0.346,0.793-0.63c0.197-0.284,0.301-0.584,0.311-0.899c0.016-0.486-0.159-0.928-0.525-1.323
			C574.645,307.119,574.126,306.879,573.455,306.793z"/>
		<path d="M575.832,316.006l-1.808-0.104c1.166,0.742,1.729,1.467,1.688,2.174c-0.019,0.322-0.132,0.583-0.34,0.782
			s-0.44,0.292-0.698,0.276c-0.229-0.013-0.417-0.1-0.566-0.261c-0.148-0.161-0.218-0.347-0.205-0.558
			c0.012-0.205,0.126-0.429,0.342-0.672c0.217-0.242,0.328-0.426,0.336-0.549c0.006-0.104-0.046-0.223-0.156-0.352
			c-0.225-0.277-0.604-0.572-1.138-0.885l-3.852-0.221c-0.445-0.025-0.784,0.011-1.02,0.109c-0.162,0.066-0.301,0.193-0.418,0.381
			c-0.116,0.187-0.185,0.461-0.205,0.824l-0.316-0.019l0.236-4.115l0.316,0.019c-0.023,0.409,0.022,0.717,0.141,0.924
			c0.085,0.15,0.228,0.262,0.43,0.332c0.098,0.035,0.38,0.066,0.849,0.094l3.115,0.178c0.936,0.055,1.494,0.067,1.675,0.039
			c0.18-0.027,0.314-0.09,0.402-0.188s0.136-0.223,0.145-0.375c0.011-0.182-0.021-0.389-0.097-0.621l0.321-0.07l0.843,2.487
			L575.832,316.006z"/>
		<path d="M574.284,323.667l0.746,2.567l-0.034,0.332l-1.871-0.19c0.663,0.485,1.115,0.951,1.355,1.396
			c0.24,0.446,0.337,0.899,0.29,1.359c-0.081,0.805-0.465,1.442-1.148,1.915c-0.837,0.581-1.873,0.809-3.108,0.683
			c-1.382-0.141-2.483-0.653-3.307-1.538c-0.674-0.728-0.961-1.587-0.86-2.578c0.044-0.432,0.144-0.799,0.298-1.101
			c0.111-0.225,0.312-0.47,0.604-0.733l-2.439-0.248c-0.548-0.057-0.899-0.059-1.055-0.006c-0.156,0.052-0.286,0.156-0.391,0.313
			c-0.104,0.157-0.179,0.454-0.223,0.892l-0.323-0.033l0.427-4.197l0.323,0.033l-0.022,0.219c-0.038,0.32-0.005,0.601,0.101,0.841
			c0.053,0.117,0.147,0.214,0.284,0.29c0.137,0.075,0.496,0.143,1.079,0.201l7.572,0.771c0.519,0.053,0.851,0.063,0.995,0.03
			c0.145-0.032,0.257-0.096,0.337-0.191c0.081-0.094,0.13-0.229,0.147-0.404c0.015-0.14-0.009-0.322-0.068-0.545L574.284,323.667z
			 M572.609,326.324l-2.99-0.305c-0.647-0.065-1.076-0.082-1.285-0.051c-0.347,0.047-0.664,0.217-0.952,0.508
			c-0.289,0.292-0.458,0.68-0.508,1.164c-0.059,0.582,0.12,1.078,0.538,1.485c0.547,0.532,1.359,0.854,2.438,0.964
			c1.225,0.124,2.193-0.049,2.906-0.518c0.493-0.327,0.766-0.747,0.817-1.26c0.028-0.28-0.014-0.564-0.125-0.853
			C573.364,327.24,573.085,326.861,572.609,326.324z"/>
		<path d="M573.993,335.774l-1.795-0.232c1.11,0.823,1.62,1.587,1.528,2.29c-0.041,0.319-0.173,0.571-0.395,0.755
			s-0.46,0.26-0.716,0.227c-0.227-0.029-0.409-0.13-0.546-0.302c-0.138-0.171-0.192-0.361-0.165-0.57
			c0.026-0.204,0.155-0.419,0.389-0.646s0.358-0.401,0.374-0.523c0.014-0.104-0.03-0.226-0.131-0.362
			c-0.204-0.292-0.562-0.613-1.071-0.963l-3.826-0.496c-0.441-0.058-0.783-0.046-1.023,0.035c-0.167,0.056-0.315,0.172-0.444,0.351
			c-0.13,0.178-0.218,0.447-0.265,0.808l-0.313-0.041l0.529-4.088l0.314,0.041c-0.053,0.406-0.028,0.717,0.074,0.932
			c0.074,0.157,0.209,0.277,0.404,0.362c0.096,0.042,0.375,0.093,0.84,0.153l3.095,0.401c0.93,0.12,1.485,0.173,1.668,0.158
			c0.182-0.015,0.32-0.068,0.415-0.159c0.094-0.091,0.151-0.212,0.171-0.363c0.023-0.18,0.006-0.389-0.052-0.627l0.325-0.047
			l0.663,2.541L573.993,335.774z"/>
		<path d="M572.898,343.404c-0.19,1.203-0.8,2.098-1.829,2.683c-0.88,0.496-1.825,0.664-2.838,0.505
			c-0.712-0.112-1.406-0.397-2.081-0.854c-0.676-0.457-1.151-1.014-1.427-1.671c-0.276-0.658-0.356-1.354-0.24-2.089
			c0.189-1.198,0.817-2.075,1.884-2.631c0.898-0.469,1.848-0.624,2.85-0.467c0.729,0.115,1.426,0.411,2.089,0.887
			c0.663,0.475,1.121,1.035,1.372,1.68S573.002,342.744,572.898,343.404z M572.376,343.046c0.049-0.307,0.007-0.63-0.127-0.968
			c-0.134-0.339-0.414-0.64-0.841-0.902s-1-0.451-1.717-0.564c-1.158-0.183-2.192-0.11-3.104,0.217
			c-0.912,0.328-1.427,0.868-1.546,1.62c-0.089,0.562,0.069,1.062,0.476,1.499c0.405,0.438,1.172,0.746,2.301,0.924
			c1.412,0.223,2.571,0.095,3.478-0.386C571.915,344.162,572.276,343.683,572.376,343.046z"/>
		<path d="M563.734,352.775c-0.329-0.463-0.546-0.896-0.65-1.298c-0.104-0.401-0.116-0.815-0.034-1.241
			c0.166-0.863,0.672-1.548,1.518-2.053c0.846-0.506,1.836-0.65,2.97-0.433c1.133,0.219,2.102,0.774,2.905,1.669
			s1.098,1.902,0.882,3.024c-0.134,0.696-0.466,1.229-0.996,1.599l1.459,0.28c0.903,0.174,1.462,0.259,1.678,0.255
			c0.216-0.003,0.369-0.044,0.462-0.121c0.093-0.078,0.152-0.186,0.179-0.323c0.028-0.15,0.021-0.357-0.023-0.622l0.323-0.055
			l0.514,2.542l-0.074,0.389l-9.141-1.757c-0.927-0.178-1.496-0.266-1.708-0.262c-0.213,0.004-0.368,0.046-0.468,0.125
			c-0.099,0.08-0.16,0.183-0.185,0.31c-0.029,0.155-0.021,0.372,0.027,0.649l-0.32,0.037l-0.523-2.535l0.076-0.397L563.734,352.775z
			 M564.338,352.892l4.074,0.783c0.397,0.04,0.774,0.005,1.13-0.105s0.643-0.293,0.861-0.546s0.354-0.516,0.406-0.785
			c0.097-0.507-0.044-1.002-0.422-1.486c-0.498-0.639-1.322-1.068-2.473-1.29c-1.162-0.224-2.102-0.142-2.817,0.246
			s-1.134,0.892-1.253,1.514C563.744,351.745,563.908,352.302,564.338,352.892z"/>
		<path d="M568.507,364.438l-4.757-1.08c-0.908-0.206-1.469-0.312-1.682-0.314s-0.37,0.033-0.471,0.109
			c-0.102,0.076-0.167,0.177-0.195,0.303c-0.04,0.177-0.037,0.388,0.01,0.633l-0.327,0.052l-0.436-2.568l0.088-0.386l1.662,0.378
			c-0.578-0.841-0.921-1.459-1.029-1.856c-0.107-0.396-0.117-0.793-0.027-1.187c0.1-0.44,0.313-0.793,0.641-1.058
			c0.328-0.266,0.706-0.415,1.135-0.45s1.008,0.031,1.739,0.197l3.506,0.796c0.371,0.084,0.638,0.103,0.799,0.056
			c0.161-0.048,0.298-0.142,0.41-0.281c0.113-0.14,0.214-0.416,0.302-0.828l0.316,0.072l-0.625,2.751l-5.254-1.193
			c-0.731-0.166-1.24-0.148-1.526,0.054c-0.286,0.203-0.47,0.484-0.552,0.844c-0.056,0.246-0.042,0.542,0.041,0.889
			c0.084,0.346,0.294,0.783,0.631,1.311l4.448,1.01c0.446,0.102,0.766,0.089,0.96-0.039c0.194-0.127,0.355-0.446,0.483-0.958
			l0.317,0.072L568.507,364.438z"/>
		<path d="M561.457,371.848c-0.972-0.478-1.654-1.094-2.048-1.851c-0.393-0.757-0.493-1.506-0.299-2.249
			c0.23-0.885,0.803-1.559,1.717-2.022c0.914-0.465,2.003-0.532,3.268-0.202c1.225,0.319,2.125,0.942,2.7,1.871
			c0.576,0.928,0.73,1.902,0.465,2.923c-0.199,0.766-0.566,1.342-1.101,1.729c-0.533,0.388-1.019,0.524-1.455,0.411
			c-0.216-0.057-0.372-0.172-0.469-0.345c-0.098-0.174-0.113-0.386-0.049-0.635c0.088-0.335,0.261-0.559,0.521-0.673
			c0.145-0.065,0.388-0.07,0.73-0.014c0.343,0.056,0.628,0.007,0.855-0.146c0.222-0.154,0.379-0.407,0.47-0.759
			c0.148-0.566,0.058-1.078-0.272-1.533c-0.436-0.604-1.11-1.024-2.023-1.263c-0.93-0.242-1.81-0.229-2.641,0.043
			c-0.83,0.271-1.347,0.795-1.549,1.571c-0.145,0.556-0.085,1.104,0.18,1.646c0.18,0.38,0.574,0.807,1.183,1.28L561.457,371.848z"/>
		<path d="M567.835,377.294l-2.543-0.729l-0.518,1.808l-0.592-0.169l0.518-1.809l-5.019-1.438c-0.501-0.144-0.859-0.169-1.075-0.075
			s-0.356,0.253-0.421,0.479c-0.053,0.186-0.047,0.383,0.019,0.59c0.065,0.208,0.197,0.392,0.395,0.553l-0.094,0.329
			c-0.496-0.355-0.831-0.753-1.007-1.193s-0.208-0.853-0.099-1.235c0.074-0.259,0.219-0.492,0.434-0.698
			c0.214-0.207,0.473-0.331,0.773-0.373c0.302-0.041,0.731,0.018,1.289,0.178l5.204,1.491l0.352-1.226l0.278,0.08
			c0.035,0.346,0.154,0.723,0.357,1.131s0.471,0.798,0.804,1.168c0.177,0.19,0.517,0.482,1.02,0.877L567.835,377.294z"/>
		<path d="M563.933,381.944l-6.185-1.897c-0.481-0.147-0.813-0.211-0.994-0.19c-0.182,0.021-0.332,0.088-0.453,0.201
			c-0.12,0.113-0.236,0.353-0.348,0.717l-0.303-0.093l1.147-3.739l0.302,0.093c-0.114,0.375-0.155,0.639-0.122,0.789
			c0.033,0.151,0.122,0.291,0.267,0.418c0.146,0.127,0.456,0.264,0.932,0.41l2.966,0.909c0.835,0.257,1.384,0.397,1.646,0.423
			c0.191,0.016,0.335-0.008,0.431-0.07s0.166-0.167,0.211-0.312c0.048-0.157,0.064-0.36,0.049-0.61l0.339-0.024l0.229,2.607
			L563.933,381.944z M568.171,382.481c-0.072,0.235-0.216,0.41-0.432,0.524c-0.216,0.115-0.442,0.136-0.677,0.063
			c-0.235-0.071-0.412-0.217-0.529-0.433c-0.117-0.218-0.14-0.443-0.067-0.679c0.071-0.235,0.218-0.411,0.438-0.527
			s0.447-0.139,0.682-0.066c0.235,0.072,0.41,0.216,0.525,0.432C568.225,382.012,568.245,382.24,568.171,382.481z"/>
		<path d="M561.998,387.935c-0.388,1.155-1.139,1.937-2.251,2.342c-0.949,0.343-1.91,0.351-2.882,0.024
			c-0.684-0.229-1.32-0.625-1.91-1.188s-0.966-1.19-1.129-1.885c-0.162-0.694-0.125-1.395,0.111-2.1
			c0.386-1.15,1.15-1.91,2.295-2.28c0.964-0.313,1.926-0.309,2.888,0.014c0.699,0.235,1.337,0.642,1.912,1.221
			s0.933,1.208,1.073,1.886S562.21,387.302,561.998,387.935z M561.543,387.495c0.099-0.295,0.11-0.62,0.035-0.976
			c-0.075-0.356-0.302-0.699-0.679-1.03c-0.378-0.33-0.911-0.611-1.6-0.842c-1.111-0.373-2.144-0.474-3.097-0.303
			c-0.954,0.172-1.552,0.618-1.794,1.341c-0.181,0.539-0.108,1.058,0.219,1.557s1.032,0.931,2.115,1.294
			c1.355,0.454,2.521,0.521,3.493,0.198C560.902,388.519,561.338,388.105,561.543,387.495z"/>
		<path d="M557.894,394.496c0.735,1.281,0.953,2.322,0.654,3.124c-0.153,0.411-0.389,0.728-0.705,0.947
			c-0.316,0.219-0.743,0.328-1.281,0.328c-0.374-0.002-0.902-0.13-1.583-0.384l-3.22-1.202c-0.478-0.178-0.815-0.261-1.015-0.247
			c-0.159,0.009-0.303,0.066-0.43,0.173c-0.127,0.105-0.259,0.34-0.394,0.702l-0.297-0.11l1.393-3.73l0.296,0.11l-0.059,0.156
			c-0.131,0.352-0.169,0.617-0.114,0.797c0.055,0.181,0.177,0.337,0.364,0.47c0.074,0.052,0.328,0.159,0.762,0.321l3.088,1.152
			c0.687,0.256,1.218,0.353,1.595,0.29s0.645-0.306,0.802-0.728c0.244-0.654,0.13-1.438-0.342-2.352l-3.978-1.484
			c-0.511-0.19-0.838-0.278-0.98-0.263c-0.188,0.018-0.345,0.08-0.469,0.187c-0.124,0.107-0.263,0.366-0.417,0.778l-0.296-0.111
			l1.392-3.729l0.297,0.11l-0.062,0.165c-0.144,0.384-0.144,0.68,0.002,0.887c0.145,0.207,0.491,0.413,1.04,0.618l2.8,1.045
			c0.906,0.338,1.465,0.523,1.678,0.556c0.214,0.032,0.371,0.02,0.475-0.039s0.182-0.159,0.234-0.302
			c0.058-0.153,0.085-0.353,0.083-0.598l0.342-0.013l0.074,2.617l-0.132,0.354L557.894,394.496z"/>
		<path d="M553.809,409.336c-0.482,1.118-1.296,1.834-2.438,2.146c-0.975,0.262-1.934,0.19-2.875-0.216
			c-0.661-0.286-1.263-0.733-1.804-1.343c-0.541-0.61-0.863-1.268-0.968-1.974c-0.104-0.705-0.009-1.399,0.286-2.083
			c0.48-1.113,1.306-1.807,2.477-2.08c0.987-0.231,1.945-0.146,2.877,0.255c0.678,0.292,1.279,0.751,1.804,1.376
			s0.829,1.281,0.912,1.968C554.163,408.072,554.073,408.723,553.809,409.336z M553.392,408.859c0.123-0.285,0.162-0.608,0.117-0.97
			c-0.046-0.36-0.243-0.722-0.591-1.082c-0.349-0.361-0.856-0.686-1.523-0.974c-1.076-0.464-2.097-0.65-3.062-0.56
			c-0.965,0.092-1.598,0.487-1.899,1.187c-0.225,0.521-0.195,1.045,0.089,1.569s0.951,1.014,2,1.466
			c1.312,0.566,2.468,0.729,3.465,0.489C552.668,409.826,553.137,409.451,553.392,408.859z"/>
		<path d="M549.587,416.607l-4.798-2.23c-0.68-0.316-1.145-0.441-1.395-0.377c-0.325,0.088-0.564,0.297-0.718,0.626l-0.308,0.662
			l-0.287-0.134l2.027-4.359l0.286,0.133l-0.151,0.327c-0.099,0.212-0.136,0.431-0.111,0.656c0.024,0.225,0.112,0.412,0.262,0.562
			c0.15,0.15,0.485,0.347,1.006,0.589l4.798,2.229l0.66-1.418l0.573,0.267l-0.659,1.418l0.479,0.223
			c0.728,0.338,1.289,0.741,1.686,1.21s0.638,1.016,0.726,1.641c0.087,0.626-0.009,1.238-0.288,1.839
			c-0.259,0.558-0.678,0.986-1.257,1.286c-0.382,0.197-0.723,0.227-1.02,0.088c-0.16-0.073-0.277-0.213-0.354-0.416
			c-0.076-0.204-0.078-0.385-0.004-0.545c0.058-0.122,0.161-0.23,0.312-0.325s0.416-0.173,0.798-0.235
			c0.381-0.062,0.66-0.151,0.837-0.27c0.178-0.118,0.313-0.277,0.407-0.479c0.114-0.244,0.146-0.481,0.094-0.712
			c-0.051-0.231-0.196-0.447-0.436-0.648c-0.238-0.202-0.927-0.566-2.063-1.096l-0.526-0.244l-0.874,1.881l-0.574-0.267
			L549.587,416.607z"/>
		<path d="M539.296,427.476c-0.842-0.681-1.371-1.433-1.588-2.258c-0.216-0.824-0.147-1.577,0.205-2.259
			c0.42-0.812,1.128-1.344,2.122-1.594c0.994-0.251,2.071-0.076,3.231,0.524c1.124,0.582,1.864,1.39,2.221,2.422
			c0.355,1.032,0.292,2.017-0.193,2.953c-0.363,0.702-0.849,1.184-1.455,1.444c-0.606,0.26-1.11,0.286-1.511,0.078
			c-0.197-0.102-0.325-0.249-0.381-0.439c-0.057-0.19-0.025-0.4,0.094-0.63c0.158-0.307,0.377-0.487,0.656-0.541
			c0.154-0.031,0.393,0.018,0.715,0.148c0.322,0.13,0.61,0.146,0.866,0.047c0.25-0.102,0.459-0.313,0.626-0.636
			c0.27-0.521,0.294-1.039,0.073-1.556c-0.292-0.686-0.856-1.245-1.694-1.679c-0.854-0.441-1.715-0.622-2.585-0.541
			c-0.87,0.08-1.489,0.478-1.858,1.19c-0.264,0.51-0.327,1.058-0.188,1.645c0.092,0.409,0.382,0.913,0.871,1.51L539.296,427.476z"/>
		<path d="M542.197,433.052l-1.586-0.873c0.732,1.172,0.928,2.069,0.585,2.69c-0.155,0.282-0.37,0.468-0.644,0.558
			c-0.273,0.091-0.523,0.073-0.749-0.051c-0.2-0.11-0.333-0.271-0.398-0.48c-0.064-0.21-0.047-0.407,0.056-0.592
			c0.099-0.18,0.298-0.332,0.599-0.458c0.3-0.126,0.479-0.242,0.539-0.351c0.051-0.092,0.055-0.221,0.011-0.385
			c-0.083-0.347-0.298-0.776-0.645-1.288l-3.38-1.862c-0.39-0.215-0.712-0.328-0.966-0.341c-0.175-0.01-0.355,0.045-0.541,0.163
			s-0.366,0.337-0.542,0.655l-0.277-0.153l1.989-3.61l0.277,0.153c-0.198,0.358-0.288,0.657-0.271,0.894
			c0.011,0.174,0.093,0.335,0.244,0.485c0.073,0.074,0.314,0.224,0.726,0.45l2.732,1.506c0.821,0.452,1.319,0.704,1.494,0.758
			c0.175,0.053,0.323,0.054,0.444,0.004c0.121-0.051,0.219-0.143,0.292-0.275c0.088-0.159,0.148-0.36,0.182-0.603l0.319,0.075
			l-0.312,2.607L542.197,433.052z"/>
		<path d="M536.859,435.889c-1.029-0.609-1.984-0.832-2.867-0.67c-0.883,0.163-1.523,0.585-1.923,1.269
			c-0.267,0.455-0.373,0.924-0.319,1.406c0.054,0.483,0.317,1.016,0.791,1.599l-0.289,0.146c-0.631-0.512-1.081-1.189-1.352-2.033
			s-0.181-1.65,0.27-2.419c0.488-0.834,1.231-1.358,2.229-1.572c0.998-0.214,2.045,0,3.143,0.643
			c1.188,0.695,1.938,1.542,2.245,2.54c0.309,0.999,0.193,1.958-0.345,2.879c-0.456,0.778-1.087,1.269-1.893,1.469
			c-0.807,0.2-1.64,0.049-2.499-0.454L536.859,435.889z M537.299,436.146l-1.882,3.217c0.46,0.235,0.805,0.365,1.034,0.391
			c0.356,0.04,0.689-0.019,0.998-0.174c0.309-0.156,0.542-0.37,0.702-0.644c0.245-0.42,0.302-0.891,0.17-1.413
			C538.188,437.001,537.848,436.542,537.299,436.146z"/>
		<path d="M527.783,443.463c-0.104-1.039-0.142-1.675-0.113-1.906c0.043-0.346,0.159-0.671,0.349-0.974
			c0.296-0.472,0.7-0.76,1.214-0.863c0.515-0.104,1.034,0.009,1.562,0.339c0.332,0.208,0.574,0.462,0.725,0.764
			c0.21,0.415,0.307,0.968,0.289,1.658c-0.017,0.69-0.179,1.756-0.484,3.195l0.269,0.168c0.681,0.426,1.215,0.609,1.604,0.552
			s0.712-0.293,0.97-0.705c0.195-0.312,0.267-0.614,0.213-0.903c-0.052-0.295-0.187-0.51-0.404-0.646l-0.441-0.256
			c-0.229-0.143-0.369-0.312-0.42-0.506c-0.052-0.194-0.018-0.386,0.101-0.575c0.114-0.184,0.273-0.293,0.476-0.329
			s0.415,0.016,0.639,0.155c0.427,0.268,0.683,0.731,0.767,1.393c0.085,0.66-0.12,1.386-0.614,2.176
			c-0.379,0.606-0.791,1.039-1.237,1.3c-0.337,0.196-0.714,0.262-1.128,0.196c-0.27-0.044-0.735-0.273-1.396-0.687l-2.318-1.449
			c-0.65-0.406-1.057-0.644-1.219-0.71c-0.162-0.067-0.286-0.088-0.371-0.062c-0.086,0.026-0.151,0.076-0.198,0.151
			c-0.05,0.079-0.076,0.159-0.078,0.241c-0.001,0.145,0.055,0.459,0.166,0.943l-0.417-0.261c-0.397-1.022-0.438-1.787-0.121-2.294
			c0.152-0.243,0.358-0.384,0.617-0.423C527.038,443.107,527.373,443.213,527.783,443.463z M528.268,443.766l2.602,1.626
			c0.171-0.937,0.263-1.553,0.274-1.849c0.027-0.529-0.025-0.953-0.158-1.271c-0.133-0.317-0.341-0.565-0.624-0.742
			c-0.358-0.224-0.722-0.303-1.091-0.236c-0.37,0.065-0.642,0.238-0.815,0.517C528.219,442.187,528.156,442.839,528.268,443.766z"/>
		<path d="M532.633,453.525l-2.208-1.456l-1.035,1.57l-0.514-0.339l1.035-1.57l-4.359-2.873c-0.436-0.287-0.771-0.418-1.004-0.394
			c-0.234,0.025-0.415,0.135-0.544,0.331c-0.106,0.161-0.16,0.351-0.159,0.568c0,0.218,0.07,0.433,0.212,0.646l-0.189,0.286
			c-0.366-0.487-0.567-0.968-0.604-1.44c-0.035-0.473,0.057-0.875,0.275-1.208c0.148-0.225,0.356-0.404,0.623-0.537
			s0.55-0.174,0.85-0.124c0.3,0.051,0.692,0.235,1.177,0.555l4.521,2.979l0.701-1.063l0.242,0.159
			c-0.069,0.34-0.068,0.735,0.003,1.187c0.071,0.45,0.21,0.901,0.417,1.354c0.112,0.235,0.349,0.616,0.711,1.143L532.633,453.525z"
			/>
		<path d="M527.525,456.784l-5.334-3.659c-0.416-0.285-0.713-0.444-0.893-0.479c-0.179-0.034-0.343-0.016-0.491,0.057
			c-0.149,0.072-0.331,0.266-0.547,0.579L520,453.104l2.212-3.226l0.261,0.179c-0.222,0.324-0.339,0.563-0.353,0.718
			c-0.014,0.153,0.03,0.313,0.13,0.478c0.101,0.165,0.355,0.389,0.767,0.67l2.559,1.755c0.72,0.494,1.201,0.792,1.443,0.895
			c0.178,0.072,0.322,0.093,0.432,0.062c0.11-0.031,0.209-0.109,0.295-0.235c0.093-0.135,0.169-0.324,0.229-0.567l0.33,0.078
			l-0.561,2.557L527.525,456.784z M531.41,458.563c-0.139,0.203-0.329,0.327-0.569,0.372c-0.24,0.044-0.462-0.003-0.665-0.142
			c-0.202-0.14-0.327-0.33-0.375-0.572c-0.047-0.242-0.001-0.464,0.138-0.667c0.14-0.203,0.331-0.327,0.576-0.373
			c0.244-0.046,0.468,0.001,0.671,0.141s0.326,0.329,0.371,0.569S531.553,458.355,531.41,458.563z"/>
		<path d="M526.247,458.267l-2.222,3.067l-0.264-0.191l0.145-0.199c0.134-0.185,0.191-0.358,0.171-0.521
			c-0.02-0.162-0.105-0.299-0.257-0.408c-0.166-0.121-0.399-0.214-0.699-0.279l-4.699-1.093l2.633,4.23
			c0.187,0.302,0.349,0.502,0.486,0.602c0.066,0.049,0.135,0.069,0.205,0.062c0.109-0.001,0.206-0.032,0.29-0.094
			c0.085-0.062,0.217-0.217,0.396-0.463l0.263,0.19l-1.541,2.128l-0.264-0.19c0.159-0.261,0.233-0.468,0.222-0.621
			c-0.022-0.269-0.151-0.59-0.387-0.964l-3.919-6.366l0.212-0.292l7.188,1.659c0.332,0.081,0.588,0.114,0.769,0.101
			c0.18-0.015,0.361-0.067,0.544-0.159c0.102-0.05,0.257-0.18,0.467-0.39L526.247,458.267z"/>
		<path d="M517.38,465.22c-0.941-0.736-1.86-1.08-2.757-1.032s-1.586,0.385-2.07,1.01c-0.322,0.418-0.488,0.869-0.497,1.354
			s0.185,1.048,0.579,1.687l-0.306,0.108c-0.56-0.589-0.919-1.318-1.079-2.189c-0.159-0.872,0.033-1.66,0.578-2.364
			c0.592-0.765,1.396-1.189,2.412-1.273s2.028,0.263,3.034,1.04c1.089,0.843,1.723,1.778,1.9,2.809s-0.06,1.967-0.712,2.811
			c-0.552,0.714-1.24,1.118-2.066,1.213c-0.825,0.096-1.632-0.162-2.42-0.771L517.38,465.22z M517.783,465.531l-2.279,2.948
			c0.426,0.292,0.751,0.466,0.975,0.521c0.35,0.085,0.688,0.069,1.013-0.045c0.326-0.115,0.586-0.297,0.779-0.548
			c0.297-0.385,0.414-0.845,0.35-1.379C518.556,466.493,518.277,465.994,517.783,465.531z"/>
		<path d="M506.777,465.759l0.301,0.244c-0.225,0.594-0.279,1.151-0.162,1.673c0.117,0.521,0.357,0.929,0.722,1.225
			c0.086,0.069,0.176,0.108,0.269,0.115c0.066,0.001,0.112-0.014,0.139-0.046c0.04-0.05,0.084-0.196,0.129-0.438
			c0.025-0.115,0.075-0.218,0.148-0.31c0.182-0.223,0.392-0.347,0.63-0.372c0.239-0.024,0.475,0.057,0.707,0.245
			c0.223,0.181,0.345,0.421,0.366,0.721c0.021,0.3-0.068,0.573-0.268,0.818c-0.244,0.301-0.592,0.462-1.043,0.484
			c-0.452,0.022-0.894-0.142-1.326-0.492c-0.469-0.38-0.772-0.896-0.912-1.548C506.338,467.426,506.438,466.653,506.777,465.759z"/>
		<path d="M501.511,481.327c-0.654-0.863-0.987-1.721-0.999-2.573c-0.012-0.852,0.235-1.566,0.742-2.144
			c0.604-0.687,1.417-1.032,2.442-1.036c1.025-0.005,2.029,0.424,3.011,1.286c0.951,0.835,1.476,1.797,1.573,2.885
			c0.098,1.087-0.202,2.027-0.897,2.82c-0.522,0.594-1.108,0.944-1.76,1.051c-0.651,0.107-1.146,0.012-1.485-0.286
			c-0.167-0.147-0.255-0.32-0.264-0.519c-0.009-0.199,0.071-0.395,0.241-0.589c0.229-0.26,0.484-0.382,0.768-0.367
			c0.158,0.006,0.378,0.111,0.659,0.315c0.28,0.204,0.557,0.288,0.829,0.254c0.268-0.038,0.521-0.193,0.761-0.466
			c0.387-0.44,0.534-0.938,0.444-1.493c-0.118-0.735-0.532-1.414-1.24-2.037c-0.723-0.634-1.516-1.016-2.379-1.146
			c-0.864-0.131-1.561,0.105-2.091,0.708c-0.379,0.432-0.571,0.949-0.578,1.552c-0.01,0.42,0.151,0.978,0.482,1.675L501.511,481.327
			z"/>
		<path d="M499.558,490.764l-3.563-3.331c-0.681-0.637-1.111-1.01-1.293-1.119c-0.183-0.11-0.336-0.158-0.462-0.144
			s-0.233,0.069-0.321,0.163c-0.124,0.133-0.228,0.316-0.312,0.552l-0.309-0.12l0.92-2.438l0.27-0.289l1.246,1.164
			c-0.076-1.017-0.061-1.725,0.046-2.121c0.107-0.398,0.299-0.744,0.575-1.04c0.308-0.329,0.67-0.525,1.087-0.59
			c0.416-0.063,0.818-0.003,1.206,0.184c0.388,0.186,0.855,0.535,1.403,1.047l2.626,2.455c0.278,0.261,0.499,0.41,0.662,0.45
			c0.162,0.04,0.328,0.028,0.496-0.035s0.394-0.252,0.677-0.563l0.238,0.222l-1.927,2.062l-3.936-3.68
			c-0.548-0.513-0.997-0.753-1.346-0.723c-0.35,0.03-0.65,0.181-0.902,0.45c-0.172,0.184-0.31,0.446-0.412,0.788
			c-0.103,0.341-0.141,0.824-0.116,1.449l3.332,3.115c0.334,0.312,0.617,0.462,0.849,0.45s0.532-0.206,0.901-0.584l0.237,0.223
			L499.558,490.764z"/>
		<path d="M499.352,497.329l-7.611-7.49c-0.359-0.354-0.623-0.562-0.791-0.625c-0.168-0.062-0.336-0.069-0.504-0.021
			c-0.167,0.049-0.396,0.222-0.688,0.519l-0.226-0.222l2.769-2.813l0.226,0.223c-0.26,0.263-0.409,0.469-0.449,0.618
			s-0.024,0.313,0.048,0.491c0.071,0.178,0.285,0.44,0.64,0.79l5.212,5.129c0.647,0.638,1.06,1.014,1.236,1.131
			c0.178,0.116,0.325,0.169,0.443,0.158c0.117-0.012,0.226-0.067,0.324-0.167c0.107-0.109,0.209-0.28,0.307-0.513l0.324,0.109
			l-0.981,2.4L499.352,497.329z"/>
		<path d="M494.723,499.387l-1.852-1.89l-1.344,1.315l-0.431-0.439l1.344-1.315l-3.653-3.73c-0.364-0.372-0.664-0.571-0.897-0.596
			c-0.234-0.025-0.435,0.044-0.603,0.208c-0.138,0.135-0.229,0.31-0.275,0.522s-0.022,0.438,0.07,0.675l-0.244,0.24
			c-0.256-0.555-0.351-1.065-0.286-1.535c0.065-0.47,0.24-0.844,0.524-1.123c0.192-0.188,0.434-0.319,0.722-0.394
			c0.289-0.073,0.575-0.054,0.857,0.059c0.282,0.113,0.627,0.377,1.033,0.791l3.788,3.867l0.91-0.892l0.203,0.207
			c-0.14,0.317-0.223,0.704-0.248,1.16c-0.025,0.455,0.016,0.926,0.122,1.412c0.06,0.253,0.211,0.675,0.453,1.267L494.723,499.387z"
			/>
		<path d="M485.709,504.272l-3.323-3.571c-0.635-0.683-1.039-1.085-1.213-1.207s-0.323-0.181-0.45-0.175s-0.237,0.053-0.332,0.141
			c-0.133,0.124-0.249,0.3-0.349,0.528l-0.299-0.142l1.086-2.367l0.29-0.27l1.161,1.248c-0.005-1.02,0.061-1.725,0.194-2.113
			c0.135-0.389,0.35-0.721,0.646-0.996c0.33-0.308,0.706-0.479,1.125-0.514c0.42-0.034,0.817,0.055,1.191,0.268
			c0.373,0.212,0.815,0.593,1.326,1.142l2.449,2.632c0.259,0.279,0.469,0.444,0.629,0.495c0.159,0.052,0.325,0.052,0.497,0
			s0.41-0.224,0.716-0.516l0.221,0.238l-2.065,1.922l-3.67-3.944c-0.511-0.55-0.941-0.821-1.292-0.815
			c-0.351,0.007-0.661,0.135-0.931,0.387c-0.185,0.172-0.34,0.424-0.466,0.758c-0.126,0.333-0.198,0.812-0.217,1.438l3.106,3.34
			c0.312,0.335,0.583,0.504,0.815,0.508c0.232,0.005,0.545-0.169,0.939-0.52l0.222,0.238L485.709,504.272z"/>
		<path d="M482.55,507.396l-1.196-1.359c0.292,1.352,0.172,2.261-0.36,2.729c-0.242,0.213-0.507,0.315-0.795,0.308
			s-0.518-0.108-0.688-0.302c-0.151-0.172-0.222-0.367-0.212-0.587s0.094-0.398,0.252-0.538c0.154-0.136,0.394-0.212,0.719-0.229
			s0.533-0.065,0.626-0.146c0.079-0.07,0.126-0.189,0.141-0.358c0.039-0.355-0.018-0.832-0.17-1.431l-2.55-2.896
			c-0.294-0.334-0.559-0.551-0.793-0.648c-0.162-0.068-0.351-0.078-0.565-0.029s-0.458,0.192-0.73,0.433l-0.21-0.237l3.095-2.724
			l0.209,0.237c-0.308,0.271-0.494,0.521-0.559,0.749c-0.048,0.167-0.026,0.347,0.065,0.54c0.044,0.094,0.221,0.316,0.53,0.669
			l2.062,2.342c0.619,0.703,1.003,1.109,1.149,1.219s0.285,0.16,0.417,0.154c0.131-0.006,0.254-0.06,0.368-0.16
			c0.136-0.12,0.261-0.289,0.374-0.506l0.275,0.18l-1.177,2.348L482.55,507.396z"/>
		<path d="M471.646,507.341c0.225-1.021,0.386-1.636,0.483-1.848c0.148-0.315,0.36-0.588,0.635-0.817
			c0.427-0.356,0.9-0.505,1.422-0.443c0.521,0.062,0.979,0.33,1.378,0.807c0.252,0.301,0.402,0.618,0.452,0.951
			c0.071,0.46-0.009,1.016-0.239,1.666c-0.231,0.651-0.716,1.613-1.453,2.888l0.202,0.242c0.516,0.616,0.966,0.957,1.354,1.022
			c0.387,0.066,0.768-0.057,1.141-0.369c0.283-0.236,0.444-0.501,0.482-0.793c0.043-0.295-0.018-0.542-0.184-0.74l-0.34-0.38
			c-0.173-0.206-0.254-0.41-0.242-0.61c0.012-0.201,0.104-0.373,0.274-0.516c0.166-0.139,0.351-0.194,0.554-0.166
			c0.204,0.029,0.39,0.145,0.56,0.347c0.322,0.387,0.422,0.907,0.297,1.562s-0.545,1.28-1.26,1.878
			c-0.549,0.458-1.075,0.742-1.58,0.851c-0.382,0.082-0.76,0.027-1.134-0.164c-0.242-0.125-0.613-0.487-1.113-1.085l-1.753-2.098
			c-0.492-0.589-0.805-0.94-0.938-1.054c-0.133-0.114-0.244-0.172-0.334-0.174c-0.089-0.002-0.167,0.025-0.234,0.082
			c-0.072,0.061-0.122,0.129-0.149,0.205c-0.046,0.138-0.091,0.454-0.135,0.949l-0.316-0.378c-0.06-1.095,0.14-1.834,0.598-2.218
			c0.221-0.184,0.46-0.254,0.718-0.21C471.048,506.771,471.333,506.976,471.646,507.341z M472.012,507.778l1.968,2.354
			c0.453-0.837,0.731-1.395,0.836-1.672c0.189-0.495,0.271-0.914,0.243-1.258c-0.027-0.343-0.148-0.644-0.362-0.899
			c-0.271-0.323-0.592-0.512-0.964-0.563s-0.684,0.027-0.936,0.237C472.455,506.263,472.193,506.863,472.012,507.778z"/>
		<path d="M473.916,520.089l-6.65-8.354c-0.314-0.395-0.551-0.633-0.71-0.716c-0.16-0.083-0.326-0.109-0.498-0.081
			s-0.421,0.172-0.746,0.431l-0.197-0.247l3.088-2.458l0.197,0.248c-0.289,0.229-0.463,0.416-0.521,0.56
			c-0.059,0.144-0.062,0.308-0.013,0.493c0.051,0.185,0.23,0.472,0.54,0.861l4.555,5.722c0.565,0.711,0.93,1.135,1.091,1.271
			c0.162,0.138,0.302,0.207,0.42,0.211c0.119,0.002,0.233-0.04,0.343-0.127c0.119-0.096,0.241-0.253,0.366-0.472l0.309,0.147
			l-1.264,2.265L473.916,520.089z"/>
		<path d="M457.916,517.993c0.289-1.003,0.489-1.607,0.602-1.812c0.168-0.305,0.396-0.563,0.686-0.774
			c0.449-0.329,0.932-0.446,1.447-0.352s0.957,0.393,1.324,0.894c0.231,0.316,0.361,0.643,0.389,0.979
			c0.042,0.463-0.073,1.013-0.346,1.647s-0.817,1.564-1.636,2.787l0.188,0.256c0.474,0.647,0.902,1.017,1.284,1.107
			s0.77-0.008,1.162-0.295c0.298-0.219,0.476-0.472,0.532-0.761c0.062-0.292,0.017-0.542-0.136-0.75l-0.314-0.401
			c-0.159-0.218-0.227-0.426-0.202-0.625c0.024-0.2,0.127-0.365,0.307-0.497c0.175-0.128,0.362-0.171,0.563-0.13
			c0.201,0.042,0.38,0.169,0.535,0.382c0.298,0.406,0.363,0.933,0.196,1.577c-0.167,0.646-0.626,1.243-1.378,1.793
			c-0.576,0.423-1.12,0.672-1.631,0.748c-0.387,0.058-0.76-0.021-1.121-0.236c-0.233-0.142-0.581-0.526-1.041-1.155l-1.614-2.205
			c-0.454-0.619-0.743-0.99-0.869-1.112s-0.233-0.188-0.322-0.194c-0.089-0.008-0.169,0.015-0.239,0.066
			c-0.076,0.056-0.13,0.12-0.163,0.195c-0.054,0.134-0.119,0.446-0.195,0.938l-0.29-0.397c0.01-1.097,0.256-1.822,0.738-2.175
			c0.232-0.17,0.476-0.225,0.729-0.164C457.355,517.387,457.628,517.608,457.916,517.993z M458.254,518.454l1.812,2.475
			c0.506-0.806,0.82-1.345,0.941-1.614c0.222-0.482,0.329-0.896,0.324-1.239c-0.006-0.345-0.107-0.652-0.305-0.922
			c-0.249-0.34-0.558-0.548-0.925-0.624c-0.368-0.075-0.684-0.017-0.949,0.178C458.793,516.97,458.493,517.552,458.254,518.454z"/>
		<path d="M456.333,525.769c-0.136,1.471-0.557,2.448-1.263,2.932c-0.362,0.248-0.736,0.371-1.121,0.369
			c-0.386-0.003-0.798-0.159-1.237-0.469c-0.305-0.217-0.663-0.625-1.073-1.225l-1.942-2.835c-0.288-0.421-0.518-0.683-0.688-0.786
			c-0.136-0.084-0.286-0.12-0.45-0.106c-0.165,0.014-0.407,0.13-0.727,0.349l-0.179-0.262l3.285-2.25l0.179,0.261l-0.138,0.095
			c-0.31,0.212-0.494,0.407-0.553,0.586s-0.049,0.376,0.028,0.593c0.03,0.086,0.177,0.32,0.438,0.702l1.862,2.719
			c0.414,0.604,0.794,0.989,1.138,1.154s0.702,0.121,1.074-0.135c0.575-0.394,0.933-1.101,1.073-2.119l-2.399-3.502
			c-0.309-0.45-0.525-0.71-0.651-0.779c-0.164-0.094-0.327-0.133-0.49-0.117s-0.426,0.148-0.789,0.396l-0.179-0.261l3.285-2.251
			l0.179,0.262l-0.146,0.099c-0.338,0.232-0.508,0.475-0.509,0.728c-0.001,0.252,0.164,0.62,0.496,1.104l1.688,2.466
			c0.547,0.797,0.897,1.271,1.053,1.42c0.156,0.148,0.293,0.229,0.41,0.241c0.118,0.011,0.24-0.026,0.366-0.112
			c0.135-0.093,0.272-0.24,0.411-0.441l0.287,0.187l-1.444,2.183l-0.312,0.214L456.333,525.769z"/>
		<path d="M442.866,527.862c0.11-0.557,0.276-1.012,0.496-1.363c0.221-0.353,0.514-0.646,0.879-0.878
			c0.741-0.473,1.586-0.575,2.535-0.308c0.948,0.267,1.732,0.888,2.354,1.86c0.62,0.974,0.882,2.06,0.783,3.258
			c-0.098,1.198-0.628,2.104-1.592,2.719c-0.598,0.382-1.213,0.506-1.846,0.374l0.799,1.253c0.494,0.775,0.816,1.241,0.967,1.396
			c0.15,0.153,0.286,0.237,0.405,0.252c0.12,0.014,0.24-0.018,0.358-0.093c0.129-0.082,0.273-0.23,0.436-0.444l0.262,0.197
			l-1.494,2.12l-0.333,0.213l-5.003-7.849c-0.508-0.796-0.835-1.27-0.984-1.421c-0.148-0.152-0.286-0.236-0.411-0.254
			c-0.126-0.018-0.243,0.009-0.352,0.078c-0.134,0.085-0.285,0.24-0.454,0.466l-0.246-0.207l1.481-2.123l0.341-0.217
			L442.866,527.862z M443.197,528.381l2.229,3.499c0.244,0.316,0.528,0.566,0.853,0.749c0.325,0.182,0.654,0.266,0.988,0.25
			c0.335-0.015,0.618-0.097,0.851-0.244c0.435-0.277,0.698-0.72,0.79-1.327c0.122-0.801-0.132-1.695-0.762-2.684
			c-0.637-0.998-1.341-1.624-2.114-1.878s-1.427-0.211-1.961,0.129C443.622,527.162,443.33,527.664,443.197,528.381z"/>
		<path d="M435.455,540.87l-1.366-2.378l0.251-0.145c0.623,0.636,1.162,1.002,1.619,1.098s0.919,0.009,1.387-0.26
			c0.355-0.204,0.589-0.463,0.699-0.776s0.1-0.584-0.031-0.813c-0.164-0.284-0.385-0.481-0.664-0.591
			c-0.277-0.118-0.725-0.155-1.342-0.111l-1.423,0.098c-1.32,0.089-2.217-0.277-2.689-1.101c-0.365-0.635-0.419-1.285-0.162-1.949
			c0.257-0.665,0.683-1.168,1.277-1.509c0.427-0.245,0.958-0.449,1.594-0.612c0.197-0.046,0.349-0.099,0.456-0.16
			c0.116-0.067,0.17-0.186,0.16-0.355l0.252-0.145l1.431,2.492l-0.251,0.145c-0.551-0.63-1.131-1.01-1.739-1.14
			c-0.608-0.131-1.162-0.053-1.66,0.233c-0.351,0.201-0.577,0.469-0.68,0.801c-0.103,0.333-0.071,0.645,0.096,0.934
			c0.201,0.351,0.493,0.575,0.877,0.672c0.384,0.098,1.049,0.117,1.996,0.061c0.946-0.058,1.619-0.005,2.017,0.158
			c0.396,0.159,0.72,0.459,0.974,0.901c0.329,0.573,0.408,1.167,0.236,1.779s-0.57,1.098-1.195,1.457
			c-0.274,0.157-0.641,0.29-1.099,0.398c-0.304,0.072-0.498,0.133-0.584,0.183c-0.081,0.047-0.135,0.102-0.16,0.163
			s-0.033,0.171-0.024,0.328L435.455,540.87z"/>
		<path d="M425.26,540.466c-0.312-1.037-0.324-1.957-0.038-2.76c0.287-0.803,0.769-1.386,1.444-1.75
			c0.805-0.433,1.688-0.473,2.65-0.118c0.963,0.354,1.753,1.105,2.372,2.256c0.6,1.115,0.756,2.199,0.468,3.252
			c-0.288,1.054-0.897,1.83-1.826,2.33c-0.696,0.375-1.368,0.498-2.016,0.371c-0.647-0.128-1.078-0.39-1.292-0.787
			c-0.105-0.196-0.128-0.389-0.066-0.578s0.205-0.345,0.433-0.467c0.305-0.164,0.587-0.189,0.847-0.077
			c0.146,0.062,0.315,0.236,0.508,0.525c0.191,0.29,0.421,0.466,0.688,0.528c0.265,0.058,0.557,0,0.876-0.172
			c0.517-0.277,0.829-0.692,0.938-1.243c0.146-0.73-0.005-1.511-0.452-2.342c-0.455-0.847-1.064-1.481-1.829-1.905
			c-0.764-0.425-1.499-0.446-2.206-0.065c-0.505,0.271-0.866,0.688-1.083,1.251c-0.156,0.391-0.2,0.97-0.133,1.738L425.26,540.466z"
			/>
		<path d="M424.128,546.9l-2.928-5.769c-0.228-0.449-0.412-0.731-0.553-0.848c-0.141-0.115-0.294-0.178-0.459-0.186
			c-0.165-0.009-0.418,0.073-0.758,0.246l-0.143-0.282l3.487-1.771l0.144,0.282c-0.351,0.178-0.568,0.331-0.654,0.46
			c-0.085,0.129-0.124,0.29-0.114,0.482c0.009,0.192,0.126,0.511,0.352,0.955l1.404,2.767c0.395,0.778,0.674,1.271,0.838,1.477
			c0.121,0.148,0.237,0.236,0.35,0.262c0.111,0.025,0.235,0.004,0.371-0.065c0.146-0.074,0.304-0.203,0.473-0.388l0.253,0.227
			l-1.718,1.976L424.128,546.9z M426.684,550.324c-0.219,0.111-0.445,0.129-0.678,0.054c-0.231-0.076-0.403-0.224-0.516-0.443
			c-0.111-0.22-0.129-0.447-0.055-0.682c0.074-0.235,0.222-0.408,0.441-0.52c0.219-0.111,0.447-0.129,0.684-0.052
			s0.41,0.226,0.521,0.445s0.129,0.445,0.053,0.678S426.909,550.21,426.684,550.324z"/>
		<path d="M419.403,545.601c-0.51-1.081-1.175-1.803-1.997-2.163c-0.821-0.361-1.589-0.371-2.303-0.029
			c-0.477,0.227-0.827,0.556-1.054,0.985s-0.308,1.019-0.242,1.767l-0.322-0.042c-0.234-0.777-0.227-1.591,0.022-2.44
			c0.25-0.85,0.777-1.467,1.581-1.851c0.872-0.417,1.781-0.434,2.727-0.051c0.946,0.382,1.693,1.147,2.241,2.295
			c0.593,1.242,0.737,2.363,0.433,3.363c-0.306,0.999-0.938,1.729-1.901,2.188c-0.813,0.389-1.611,0.44-2.391,0.153
			c-0.78-0.287-1.385-0.879-1.813-1.778L419.403,545.601z M419.623,546.061l-3.362,1.606c0.249,0.452,0.461,0.754,0.637,0.903
			c0.273,0.233,0.581,0.371,0.924,0.416c0.343,0.044,0.656-0.002,0.942-0.139c0.438-0.209,0.75-0.567,0.933-1.074
			C419.88,547.268,419.855,546.696,419.623,546.061z"/>
		<path d="M411.84,550.854c-0.406,1.42-1.001,2.303-1.784,2.646c-0.402,0.177-0.792,0.229-1.17,0.154
			c-0.378-0.073-0.755-0.304-1.129-0.689c-0.26-0.27-0.535-0.737-0.828-1.402l-1.383-3.146c-0.205-0.467-0.382-0.767-0.529-0.899
			c-0.118-0.108-0.26-0.171-0.424-0.188c-0.165-0.018-0.424,0.052-0.777,0.207l-0.128-0.289l3.646-1.603l0.127,0.29l-0.153,0.067
			c-0.343,0.15-0.56,0.309-0.65,0.473c-0.091,0.165-0.119,0.361-0.083,0.589c0.015,0.09,0.114,0.347,0.301,0.771l1.326,3.017
			c0.295,0.671,0.596,1.119,0.903,1.346s0.668,0.249,1.081,0.067c0.638-0.28,1.12-0.908,1.447-1.884l-1.709-3.887
			c-0.219-0.499-0.384-0.794-0.495-0.886c-0.144-0.123-0.297-0.191-0.46-0.206s-0.446,0.066-0.848,0.243l-0.128-0.29l3.646-1.602
			l0.127,0.289l-0.161,0.071c-0.375,0.165-0.587,0.371-0.635,0.62c-0.048,0.248,0.046,0.64,0.282,1.177l1.202,2.735
			c0.39,0.885,0.646,1.415,0.771,1.591s0.244,0.279,0.358,0.312c0.113,0.033,0.24,0.02,0.38-0.042
			c0.15-0.065,0.312-0.185,0.486-0.357l0.248,0.236l-1.825,1.878l-0.346,0.151L411.84,550.854z"/>
		<path d="M405.028,558.227l-1.002-2.448l-1.74,0.712l-0.233-0.569l1.741-0.712l-1.976-4.833c-0.197-0.482-0.399-0.779-0.606-0.892
			c-0.207-0.111-0.419-0.123-0.636-0.034c-0.18,0.073-0.33,0.2-0.453,0.38c-0.122,0.18-0.186,0.397-0.188,0.651l-0.317,0.13
			c-0.027-0.609,0.077-1.119,0.314-1.529s0.541-0.69,0.909-0.842c0.25-0.102,0.522-0.132,0.817-0.092
			c0.295,0.041,0.552,0.167,0.771,0.378c0.219,0.211,0.438,0.585,0.658,1.122l2.049,5.012l1.18-0.482l0.109,0.269
			c-0.249,0.241-0.472,0.567-0.668,0.98c-0.195,0.412-0.335,0.863-0.419,1.354c-0.041,0.257-0.061,0.705-0.059,1.344
			L405.028,558.227z"/>
		<path d="M398.955,558.038l-2.335-6.032c-0.183-0.47-0.338-0.77-0.467-0.898c-0.128-0.129-0.274-0.206-0.438-0.231
			c-0.164-0.024-0.423,0.032-0.778,0.17l-0.114-0.295l3.647-1.413l0.114,0.296c-0.366,0.142-0.599,0.272-0.696,0.392
			c-0.099,0.12-0.152,0.276-0.163,0.469c-0.01,0.192,0.075,0.521,0.255,0.985l1.12,2.893c0.315,0.814,0.544,1.332,0.687,1.554
			c0.105,0.16,0.213,0.258,0.321,0.295c0.108,0.036,0.233,0.027,0.376-0.027c0.152-0.06,0.322-0.173,0.51-0.339l0.229,0.25
			l-1.906,1.794L398.955,558.038z M401.156,561.701c-0.229,0.089-0.456,0.084-0.68-0.016c-0.224-0.099-0.38-0.263-0.469-0.492
			s-0.084-0.457,0.013-0.684c0.099-0.227,0.262-0.384,0.491-0.473s0.458-0.083,0.686,0.018s0.386,0.266,0.475,0.495
			s0.084,0.455-0.016,0.679C401.558,561.452,401.391,561.61,401.156,561.701z"/>
		<path d="M393.534,559.129l-1.81-4.972c-0.257-0.705-0.496-1.123-0.719-1.254c-0.291-0.169-0.608-0.19-0.949-0.066l-0.686,0.25
			l-0.108-0.298l4.518-1.644l0.108,0.297l-0.339,0.123c-0.22,0.08-0.401,0.209-0.543,0.385c-0.142,0.177-0.212,0.37-0.213,0.583
			c-0.001,0.212,0.097,0.588,0.293,1.128l1.81,4.972l1.471-0.535l0.216,0.595l-1.47,0.535l0.181,0.495
			c0.274,0.755,0.386,1.438,0.334,2.049s-0.269,1.168-0.649,1.672s-0.883,0.868-1.505,1.095c-0.578,0.211-1.178,0.217-1.799,0.019
			c-0.409-0.132-0.67-0.352-0.782-0.659c-0.061-0.166-0.045-0.348,0.045-0.545c0.09-0.198,0.218-0.327,0.383-0.388
			c0.127-0.046,0.276-0.049,0.45-0.01c0.173,0.04,0.417,0.173,0.729,0.399c0.312,0.226,0.574,0.359,0.782,0.402
			c0.209,0.042,0.418,0.025,0.627-0.051c0.254-0.092,0.443-0.237,0.571-0.437c0.127-0.199,0.177-0.454,0.151-0.767
			c-0.026-0.312-0.254-1.057-0.683-2.234l-0.198-0.545l-1.949,0.709l-0.217-0.595L393.534,559.129z"/>
		<path d="M388.419,561.836l-2.088-6.123c-0.162-0.477-0.306-0.782-0.429-0.917s-0.266-0.218-0.428-0.249
			c-0.163-0.031-0.424,0.015-0.784,0.138l-0.103-0.3l3.702-1.262l0.102,0.3c-0.371,0.126-0.608,0.247-0.712,0.363
			c-0.103,0.115-0.163,0.27-0.182,0.461c-0.018,0.192,0.054,0.523,0.214,0.995l1.002,2.937c0.281,0.826,0.489,1.353,0.622,1.58
			c0.1,0.164,0.202,0.267,0.31,0.308c0.106,0.041,0.232,0.037,0.376-0.013c0.155-0.053,0.33-0.158,0.523-0.317l0.219,0.26
			l-1.979,1.715L388.419,561.836z M390.468,565.585c-0.232,0.079-0.459,0.065-0.678-0.043c-0.22-0.107-0.369-0.278-0.448-0.511
			c-0.08-0.233-0.066-0.461,0.041-0.683c0.106-0.223,0.276-0.373,0.51-0.452c0.232-0.08,0.461-0.064,0.684,0.045
			c0.224,0.109,0.375,0.281,0.454,0.514c0.079,0.233,0.065,0.459-0.043,0.679C390.88,565.353,390.707,565.504,390.468,565.585z"/>
		<path d="M378.1,559.66c-0.11-1.077,0.05-1.982,0.482-2.718c0.433-0.734,1.015-1.217,1.747-1.447
			c0.872-0.273,1.747-0.146,2.626,0.382s1.514,1.416,1.905,2.663c0.379,1.207,0.328,2.301-0.152,3.281
			c-0.481,0.98-1.226,1.629-2.231,1.945c-0.755,0.236-1.438,0.231-2.05-0.015c-0.612-0.247-0.985-0.586-1.121-1.017
			c-0.066-0.212-0.052-0.405,0.044-0.58s0.267-0.3,0.513-0.377c0.329-0.104,0.611-0.076,0.846,0.084
			c0.132,0.087,0.266,0.291,0.399,0.611c0.135,0.32,0.327,0.536,0.577,0.647c0.248,0.106,0.546,0.105,0.893-0.004
			c0.559-0.176,0.943-0.523,1.154-1.044c0.281-0.69,0.28-1.485-0.003-2.386c-0.288-0.917-0.768-1.655-1.438-2.215
			c-0.671-0.561-1.389-0.721-2.154-0.479c-0.548,0.172-0.981,0.514-1.3,1.025c-0.227,0.354-0.379,0.914-0.457,1.683L378.1,559.66z"
			/>
		<path d="M374.346,566l-3.271,0.831l-0.08-0.315c0.296-0.1,0.479-0.203,0.551-0.312c0.072-0.108,0.088-0.243,0.048-0.401
			c-0.045-0.177-0.146-0.377-0.307-0.603l-2.811-4.065l-0.75,4.081l0.735,1.037c0.223,0.307,0.462,0.497,0.716,0.571
			c0.146,0.048,0.391,0.037,0.735-0.033l0.08,0.315l-3.714,0.943l-0.08-0.315c0.404-0.12,0.676-0.268,0.812-0.441
			c0.091-0.12,0.11-0.279,0.061-0.479c-0.029-0.113-0.081-0.224-0.157-0.332l-2.91-4.03l-0.547,4.736
			c-0.035,0.336-0.03,0.594,0.016,0.776c0.027,0.107,0.107,0.19,0.24,0.247c0.132,0.057,0.361,0.05,0.688-0.021l0.08,0.315
			l-2.462,0.625l-0.08-0.315c0.475-0.199,0.753-0.627,0.835-1.282l0.899-7.383l0.35-0.089l3.216,4.488l1.009-5.562l0.315-0.08
			l4.171,5.924c0.27,0.372,0.503,0.611,0.698,0.716c0.196,0.104,0.474,0.149,0.833,0.137L374.346,566z"/>
		<path d="M357.277,570.342c-1.192,0.252-2.245,0-3.159-0.753c-0.776-0.645-1.271-1.469-1.481-2.472
			c-0.149-0.706-0.131-1.455,0.056-2.249c0.186-0.794,0.537-1.437,1.053-1.929c0.516-0.491,1.139-0.814,1.866-0.968
			c1.187-0.251,2.229,0.023,3.129,0.822c0.758,0.672,1.242,1.504,1.451,2.496c0.152,0.723,0.125,1.479-0.083,2.268
			c-0.208,0.79-0.568,1.416-1.081,1.881S357.931,570.204,357.277,570.342z M357.426,569.727c0.305-0.063,0.591-0.219,0.859-0.464
			s0.449-0.614,0.543-1.107c0.094-0.492,0.066-1.095-0.084-1.806c-0.242-1.146-0.678-2.088-1.31-2.822
			c-0.631-0.735-1.319-1.024-2.064-0.867c-0.556,0.117-0.966,0.443-1.23,0.978c-0.265,0.535-0.279,1.361-0.043,2.479
			c0.295,1.399,0.827,2.437,1.599,3.112C356.219,569.694,356.796,569.859,357.426,569.727z"/>
		<path d="M349.881,571.796l-0.325-1.781c-0.446,1.308-1.019,2.025-1.716,2.152c-0.317,0.059-0.597,0.01-0.84-0.146
			c-0.242-0.156-0.387-0.36-0.434-0.614c-0.04-0.225,0-0.429,0.121-0.611c0.122-0.183,0.286-0.293,0.494-0.331
			c0.201-0.037,0.446,0.021,0.732,0.175c0.287,0.153,0.491,0.219,0.612,0.196c0.104-0.019,0.206-0.097,0.306-0.234
			c0.217-0.283,0.414-0.721,0.592-1.313l-0.691-3.796c-0.079-0.438-0.194-0.76-0.345-0.965c-0.104-0.142-0.26-0.247-0.469-0.316
			s-0.492-0.071-0.85-0.006l-0.057-0.312l4.055-0.738l0.057,0.312c-0.403,0.073-0.691,0.191-0.864,0.354
			c-0.127,0.119-0.201,0.284-0.223,0.496c-0.011,0.104,0.025,0.386,0.109,0.847l0.56,3.07c0.168,0.922,0.286,1.468,0.355,1.637
			c0.07,0.169,0.162,0.284,0.278,0.347c0.115,0.062,0.248,0.08,0.397,0.053c0.179-0.032,0.373-0.112,0.582-0.24l0.144,0.296
			l-2.22,1.404L349.881,571.796z"/>
		<path d="M344.43,577.001l-1.217-7.923l-1.74,2.161c-0.367,0.46-0.578,0.747-0.632,0.862c-0.036,0.076-0.049,0.149-0.038,0.219
			c0.019,0.116,0.081,0.209,0.189,0.278c0.108,0.068,0.274,0.093,0.496,0.07l0.042,0.278l-3.457,0.53l-0.043-0.278
			c0.474-0.084,0.857-0.217,1.152-0.398c0.296-0.183,0.605-0.473,0.929-0.872l1.753-2.198l-2.438-2.268
			c-0.677-0.625-1.128-1.018-1.354-1.179c-0.319-0.229-0.59-0.369-0.811-0.418c-0.154-0.036-0.41-0.026-0.77,0.029l-0.048-0.312
			l3.866-0.594l0.048,0.312c-0.22,0.04-0.363,0.096-0.433,0.169c-0.068,0.072-0.095,0.164-0.078,0.274
			c0.021,0.133,0.17,0.329,0.446,0.589l2.92,2.744l-0.405-2.641c-0.079-0.516-0.167-0.849-0.265-1
			c-0.097-0.15-0.218-0.251-0.361-0.3s-0.439-0.042-0.887,0.021l-0.048-0.312l4.049-0.622l0.048,0.312
			c-0.405,0.062-0.702,0.158-0.89,0.288c-0.111,0.082-0.189,0.195-0.232,0.338c-0.058,0.205-0.051,0.541,0.021,1.011l1.112,7.245
			c0.142,0.921,0.248,1.48,0.32,1.681c0.072,0.199,0.16,0.331,0.265,0.395c0.104,0.064,0.232,0.085,0.383,0.062
			c0.122-0.019,0.297-0.096,0.525-0.231l0.194,0.281l-2.214,1.335L344.43,577.001z"/>
		<path d="M331.905,574.475l-0.336-2.722l0.288-0.035c0.327,0.827,0.682,1.374,1.065,1.64c0.385,0.265,0.844,0.365,1.379,0.299
			c0.407-0.05,0.723-0.198,0.946-0.444s0.318-0.5,0.286-0.762c-0.04-0.325-0.167-0.593-0.382-0.803
			c-0.21-0.216-0.607-0.424-1.192-0.623l-1.351-0.463c-1.251-0.43-1.936-1.116-2.052-2.058c-0.089-0.728,0.113-1.347,0.608-1.859
			c0.494-0.513,1.082-0.812,1.763-0.896c0.488-0.06,1.057-0.041,1.707,0.056c0.198,0.034,0.359,0.044,0.481,0.029
			c0.134-0.017,0.229-0.105,0.286-0.266l0.288-0.035l0.352,2.852l-0.288,0.036c-0.263-0.795-0.65-1.369-1.16-1.726
			c-0.511-0.356-1.051-0.499-1.62-0.429c-0.401,0.049-0.714,0.207-0.938,0.474c-0.224,0.267-0.315,0.566-0.274,0.897
			c0.05,0.401,0.232,0.721,0.548,0.96c0.316,0.238,0.921,0.515,1.816,0.83c0.895,0.314,1.493,0.624,1.797,0.93
			c0.303,0.299,0.485,0.701,0.548,1.207c0.081,0.657-0.077,1.234-0.473,1.732c-0.396,0.497-0.952,0.79-1.668,0.879
			c-0.313,0.038-0.703,0.019-1.167-0.061c-0.308-0.05-0.511-0.069-0.609-0.058c-0.093,0.012-0.163,0.041-0.211,0.088
			c-0.047,0.048-0.097,0.146-0.149,0.293L331.905,574.475z"/>
		<path d="M328.48,563.493l0.039,0.385c-0.58,0.26-1.014,0.614-1.301,1.064c-0.286,0.451-0.406,0.909-0.358,1.375
			c0.011,0.111,0.047,0.202,0.106,0.272c0.047,0.048,0.09,0.07,0.131,0.066c0.064-0.007,0.198-0.079,0.401-0.218
			c0.1-0.063,0.208-0.101,0.325-0.113c0.285-0.028,0.521,0.032,0.707,0.185c0.187,0.151,0.295,0.376,0.325,0.674
			c0.029,0.285-0.056,0.541-0.253,0.768c-0.198,0.227-0.454,0.355-0.769,0.388c-0.385,0.039-0.744-0.094-1.079-0.398
			c-0.334-0.305-0.529-0.733-0.586-1.287c-0.062-0.601,0.09-1.18,0.454-1.738S327.607,563.883,328.48,563.493z"/>
		<path d="M316.91,575.778c-1.217,0.074-2.221-0.329-3.014-1.209c-0.674-0.752-1.041-1.64-1.104-2.663
			c-0.043-0.719,0.086-1.458,0.387-2.216c0.3-0.758,0.742-1.342,1.324-1.753c0.582-0.41,1.246-0.639,1.988-0.684
			c1.211-0.073,2.202,0.352,2.974,1.273c0.651,0.776,1.008,1.671,1.069,2.683c0.045,0.737-0.094,1.48-0.416,2.23
			c-0.321,0.751-0.77,1.317-1.346,1.702C318.198,575.526,317.577,575.738,316.91,575.778z M317.148,575.192
			c0.31-0.02,0.615-0.13,0.917-0.333s0.535-0.542,0.7-1.016s0.227-1.073,0.182-1.798c-0.07-1.17-0.363-2.165-0.88-2.985
			c-0.517-0.819-1.154-1.207-1.915-1.16c-0.566,0.034-1.021,0.296-1.361,0.786s-0.476,1.306-0.406,2.446
			c0.086,1.427,0.461,2.531,1.124,3.312C315.959,574.982,316.504,575.23,317.148,575.192z"/>
		<path d="M309.369,576.132l-0.059-1.81c-0.635,1.229-1.305,1.854-2.014,1.878c-0.322,0.011-0.592-0.078-0.81-0.268
			s-0.33-0.413-0.339-0.67c-0.008-0.229,0.062-0.425,0.209-0.588c0.147-0.163,0.326-0.248,0.537-0.255
			c0.205-0.007,0.438,0.087,0.699,0.28c0.262,0.193,0.454,0.288,0.577,0.284c0.105-0.004,0.218-0.065,0.337-0.187
			c0.256-0.249,0.515-0.653,0.777-1.212l-0.127-3.857c-0.016-0.445-0.082-0.78-0.201-1.005c-0.08-0.155-0.22-0.283-0.416-0.382
			c-0.197-0.1-0.477-0.143-0.84-0.131l-0.011-0.316l4.12-0.136l0.01,0.316c-0.41,0.014-0.712,0.088-0.906,0.223
			c-0.145,0.099-0.241,0.252-0.293,0.459c-0.026,0.101-0.031,0.385-0.016,0.854l0.103,3.118c0.031,0.937,0.069,1.494,0.112,1.672
			c0.045,0.177,0.119,0.305,0.225,0.384c0.104,0.078,0.233,0.115,0.386,0.11c0.182-0.006,0.385-0.057,0.61-0.152l0.098,0.313
			l-2.4,1.064L309.369,576.132z"/>
		<path d="M298.587,578.687l0.042-2.645l-1.88-0.03l0.01-0.615l1.881,0.03l0.084-5.22c0.009-0.521-0.061-0.875-0.207-1.059
			c-0.146-0.185-0.336-0.278-0.571-0.282c-0.193-0.003-0.382,0.055-0.565,0.172c-0.184,0.116-0.327,0.292-0.431,0.524l-0.343-0.006
			c0.214-0.57,0.512-0.998,0.891-1.282c0.38-0.283,0.769-0.422,1.167-0.416c0.27,0.005,0.532,0.084,0.788,0.237
			s0.442,0.37,0.561,0.65s0.173,0.711,0.164,1.291l-0.088,5.413l1.274,0.021l-0.004,0.29c-0.324,0.124-0.658,0.337-1,0.639
			s-0.648,0.662-0.918,1.079c-0.138,0.221-0.333,0.625-0.583,1.213L298.587,578.687z"/>
		<path d="M291.958,576.173c-1.218-0.035-2.184-0.525-2.895-1.473c-0.604-0.809-0.891-1.725-0.862-2.75
			c0.021-0.721,0.214-1.444,0.581-2.173c0.367-0.728,0.858-1.271,1.476-1.628c0.617-0.357,1.297-0.526,2.041-0.505
			c1.212,0.035,2.162,0.546,2.849,1.532c0.58,0.831,0.855,1.754,0.826,2.768c-0.021,0.737-0.225,1.466-0.612,2.185
			c-0.387,0.719-0.884,1.244-1.491,1.575C293.263,576.035,292.625,576.191,291.958,576.173z M292.247,575.609
			c0.311,0.009,0.625-0.074,0.943-0.25c0.319-0.176,0.581-0.492,0.788-0.949s0.32-1.049,0.341-1.775
			c0.033-1.171-0.17-2.188-0.612-3.051s-1.043-1.305-1.804-1.326c-0.568-0.017-1.043,0.204-1.426,0.662s-0.59,1.259-0.623,2.4
			c-0.041,1.429,0.234,2.562,0.826,3.4C291.08,575.295,291.602,575.591,292.247,575.609z"/>
	</g>
</g>
<g id="Layer_2">
</g>
</svg>
