<?xml version="1.0" encoding="utf-8"?>
<!-- Generator: Adobe Illustrator 16.0.0, SVG Export Plug-In . SVG Version: 6.00 Build 0)  -->
<!DOCTYPE svg PUBLIC "-//W3C//DTD SVG 1.1//EN" "http://www.w3.org/Graphics/SVG/1.1/DTD/svg11.dtd">
<svg version="1.1" id="Layer_1" xmlns="http://www.w3.org/2000/svg" xmlns:xlink="http://www.w3.org/1999/xlink" x="0px" y="0px"
	 width="504.68px" height="99.22px" viewBox="0 0 504.68 99.22" enable-background="new 0 0 504.68 99.22" xml:space="preserve">
<path fill="#ececec" d="M318.78,96.03c0,1.1,0.771,1.87,1.87,1.87c1.101,0,1.87-0.771,1.87-1.87V11H305.8v55.549c0,3.631,2.97,6.601,6.6,6.601
	c3.74,0,6.601,2.97,6.601,6.6s-2.86,6.601-6.71,6.601c-5.61,0-10.011-4.29-10.011-10.011V11h-16.72v69.74
	c0,10.45,7.92,18.48,18.15,18.48c6.93,0,12.87-3.74,15.069-8.801V96.03z M197.34,96.03c0,1.1,0.77,1.87,1.87,1.87
	c1.1,0,1.87-0.771,1.87-1.87V1.87c0-1.1-0.77-1.87-1.87-1.87c-1.1,0-1.87,0.77-1.87,1.87v16.61c-2.2-5.06-8.14-8.8-15.07-8.8
	c-10.23,0-18.15,8.03-18.15,18.48v52.58c0,10.45,7.92,18.48,18.15,18.48c6.93,0,12.87-3.74,15.07-8.801V96.03z M190.85,86.35
	c-5.61,0-10.01-4.29-10.01-10.011V42.35c0-3.63-2.97-6.6-6.6-6.6c-3.74,0-6.6-2.97-6.6-6.6s2.86-6.6,6.71-6.6
	c5.61,0,10.01,4.29,10.01,10.01v33.99c0,3.631,2.97,6.601,6.6,6.601c3.74,0,6.6,2.97,6.6,6.6S194.7,86.35,190.85,86.35
	 M231.33,86.35c-5.61,0-10.01-4.29-10.01-10.011V42.35c0-3.63-2.97-6.6-6.6-6.6c-3.74,0-6.6-2.97-6.6-6.6s2.86-6.6,6.71-6.6
	c5.61,0,10.01,4.29,10.01,10.01v33.99c0,3.631,2.97,6.601,6.6,6.601c3.74,0,6.6,2.97,6.6,6.6S235.18,86.35,231.33,86.35
	 M342.76,97.9V42.35c0-3.63-2.97-6.6-6.6-6.6c-3.74,0-6.601-2.97-6.601-6.6s2.86-6.6,6.71-6.6c5.61,0,10.01,4.29,10.01,10.01V97.9
	H363V32.56c0-5.72,4.399-10.01,10.01-10.01c3.85,0,6.71,2.97,6.71,6.6s-2.86,6.6-6.6,6.6c-3.63,0-6.601,2.97-6.601,6.6V97.9h16.721
	V25.96c0-9.24-7.041-16.28-15.62-16.28c-5.94,0-10.891,3.41-12.98,7.92c-2.09-4.51-7.04-7.92-12.979-7.92
	c-4.95,0-9.24,2.64-11.881,6.82v-3.63c0-1.1-0.77-1.87-1.869-1.87c-1.101,0-1.87,0.77-1.87,1.87V97.9H342.76z M443.961,97.9V42.35
	c0-3.63-2.971-6.6-6.602-6.6c-3.738,0-6.6-2.97-6.6-6.6s2.861-6.6,6.711-6.6c5.609,0,10.01,4.29,10.01,10.01V97.9h16.719V28.16
	c0-10.45-7.92-18.48-18.148-18.48c-6.93,0-12.871,3.74-15.07,8.8v-5.61c0-1.1-0.77-1.87-1.871-1.87c-1.1,0-1.869,0.77-1.869,1.87
	V97.9H443.961z M282.041,80.74v-4.4c0-4.18-3.41-7.59-7.59-7.59c-4.181,0-7.591,3.41-7.591,7.59v7.48c0,1.43-1.1,2.53-2.529,2.53
	c-1.431,0-2.53-1.101-2.53-2.53V42.35c0-3.63-2.97-6.6-6.6-6.6c-3.74,0-6.601-2.97-6.601-6.6s2.86-6.6,6.71-6.6
	c5.61,0,10.01,4.29,10.01,10.01v24.09c0,4.62,3.74,8.36,8.25,8.36c4.73,0,8.471-3.74,8.471-8.36V28.16
	c0-10.45-8.03-18.48-18.48-18.48s-18.48,8.03-18.48,18.48v52.58c0,10.45,8.03,18.48,18.48,18.48S282.041,91.19,282.041,80.74
	 M413.491,59.51c-5.61,0-10.011-4.291-10.011-10.01v-7.15c0-3.63-2.97-6.6-6.6-6.6c-3.74,0-6.601-2.97-6.601-6.6s2.86-6.6,6.711-6.6
	c5.609,0,10.01,4.29,10.01,10.01v7.15c0,3.63,2.97,6.6,6.6,6.6c3.74,0,6.599,2.97,6.599,6.6S417.34,59.51,413.491,59.51 M16.72,97.9
	V42.35c0-3.63-2.97-6.6-6.6-6.6c-3.74,0-6.6-2.97-6.6-6.6s2.86-6.6,6.71-6.6c5.61,0,10.01,4.29,10.01,10.01V97.9h16.72V28.16
	c0-10.45-7.92-18.48-18.15-18.48c-6.93,0-12.87,3.74-15.07,8.8v-5.61c0-1.1-0.77-1.87-1.87-1.87S0,11.77,0,12.87V97.9H16.72z
	 M67.21,59.51c-5.61,0-10.01-4.291-10.01-10.01v-7.15c0-3.63-2.97-6.6-6.6-6.6c-3.74,0-6.6-2.97-6.6-6.6s2.86-6.6,6.71-6.6
	c5.61,0,10.01,4.29,10.01,10.01v7.15c0,3.63,2.97,6.6,6.6,6.6c3.74,0,6.6,2.97,6.6,6.6S71.06,59.51,67.21,59.51 M122.54,99.22
	c8.58,0,15.62-7.04,15.62-16.28V11h-16.72v55.549c0,3.631,2.97,6.601,6.6,6.601c3.74,0,6.6,2.97,6.6,6.6s-2.86,6.601-6.71,6.601
	c-5.61,0-10.01-4.29-10.01-10.011V11H101.2v65.339c0,5.721-4.4,10.011-10.01,10.011c-3.85,0-6.71-2.971-6.71-6.601s2.86-6.6,6.6-6.6
	c3.63,0,6.6-2.97,6.6-6.601V11H80.96v71.94c0,9.24,7.04,16.28,15.62,16.28c5.94,0,10.89-3.41,12.98-7.921
	C111.65,95.81,116.6,99.22,122.54,99.22 M241.56,28.16c0-10.45-8.03-18.48-18.48-18.48c-10.45,0-18.48,8.03-18.48,18.48v52.58
	c0,10.45,8.03,18.48,18.48,18.48c10.45,0,18.48-8.03,18.48-18.48V28.16z M396.991,85.58c-3.851,0-6.711-2.97-6.711-6.6
	s2.86-6.601,6.601-6.601h7.59c10.67,0,19.25-8.909,19.25-19.47V28.16c0-10.45-8.031-18.48-18.48-18.48
	c-10.45,0-18.48,8.03-18.48,18.48v52.58c0,10.45,8.03,18.48,18.48,18.48c10.449,0,18.48-8.03,18.48-18.48v-0.22
	c0-4.181-3.41-7.59-7.59-7.59c-4.181,0-7.59,3.409-7.59,7.59c0,2.859-2.2,5.06-4.95,5.06H396.991z M50.71,85.58
	c-3.85,0-6.71-2.97-6.71-6.6s2.86-6.601,6.6-6.601h7.59c10.67,0,19.25-8.909,19.25-19.47V28.16c0-10.45-8.03-18.48-18.48-18.48
	c-10.45,0-18.48,8.03-18.48,18.48v52.58c0,10.45,8.03,18.48,18.48,18.48c10.45,0,18.48-8.03,18.48-18.48v-0.22
	c0-4.181-3.41-7.59-7.59-7.59c-4.18,0-7.59,3.409-7.59,7.59c0,2.859-2.2,5.06-4.95,5.06H50.71z M486.199,99.22
	c10.451,0,18.48-8.03,18.48-18.48v-42.9c0-4.18-3.41-7.59-7.59-7.59s-7.59,3.41-7.59,7.59v45.98c0,1.43-1.1,2.53-2.529,2.53
	s-2.531-1.101-2.531-2.53V25.85h20.021V11h-20.021V1.87c0-1.1-0.77-1.87-1.869-1.87c-0.551,0-1.1,0.22-1.43,0.66L480.699,0
	c0,6.27-4.729,11-11,11h-1.979v69.74C467.721,91.19,475.75,99.22,486.199,99.22"/>
</svg>
